G04 #@! TF.GenerationSoftware,KiCad,Pcbnew,5.1.5+dfsg1-2build2*
G04 #@! TF.CreationDate,2020-07-09T14:01:37-04:00*
G04 #@! TF.ProjectId,processing,70726f63-6573-4736-996e-672e6b696361,rev?*
G04 #@! TF.SameCoordinates,Original*
G04 #@! TF.FileFunction,Soldermask,Bot*
G04 #@! TF.FilePolarity,Negative*
%FSLAX46Y46*%
G04 Gerber Fmt 4.6, Leading zero omitted, Abs format (unit mm)*
G04 Created by KiCad (PCBNEW 5.1.5+dfsg1-2build2) date 2020-07-09 14:01:37*
%MOMM*%
%LPD*%
G04 APERTURE LIST*
%ADD10C,1.524000*%
%ADD11C,3.200000*%
%ADD12R,0.850000X0.850000*%
%ADD13O,1.700000X1.700000*%
%ADD14R,1.700000X1.700000*%
%ADD15C,2.000000*%
%ADD16R,2.000000X2.000000*%
G04 APERTURE END LIST*
D10*
X23220000Y-37380000D03*
X25760000Y-37380000D03*
X28300000Y-37380000D03*
X30840000Y-37380000D03*
X33380000Y-37380000D03*
X35920000Y-37380000D03*
X38460000Y-37380000D03*
X41000000Y-37380000D03*
X43540000Y-37380000D03*
X46080000Y-37380000D03*
X48620000Y-37380000D03*
X51160000Y-37380000D03*
X53700000Y-37380000D03*
X56240000Y-37380000D03*
X56240000Y-52620000D03*
X53700000Y-52620000D03*
X51160000Y-52620000D03*
X48620000Y-52620000D03*
X46080000Y-52620000D03*
X43540000Y-52620000D03*
X41000000Y-52620000D03*
X38460000Y-52620000D03*
X35920000Y-52620000D03*
X33380000Y-52620000D03*
X30840000Y-52620000D03*
X28300000Y-52620000D03*
X25760000Y-52620000D03*
X23220000Y-52620000D03*
D11*
X24000000Y-66000000D03*
X116000000Y-66000000D03*
X116000000Y-24000000D03*
X24000000Y-116000000D03*
X116000000Y-116000000D03*
X24000000Y-24000000D03*
D12*
X70000000Y-76000000D03*
D13*
X116000000Y-41460000D03*
D14*
X116000000Y-44000000D03*
D13*
X68700000Y-116000000D03*
X66160000Y-116000000D03*
X63620000Y-116000000D03*
X61080000Y-116000000D03*
X58540000Y-116000000D03*
D14*
X56000000Y-116000000D03*
D13*
X66000000Y-100920000D03*
X66000000Y-103460000D03*
D14*
X66000000Y-106000000D03*
D13*
X73920000Y-93000000D03*
X76460000Y-93000000D03*
D14*
X79000000Y-93000000D03*
D12*
X38000000Y-58000000D03*
X76000000Y-60000000D03*
X64000000Y-60000000D03*
X59000000Y-59000000D03*
X100000000Y-71000000D03*
X117000000Y-80000000D03*
X117000000Y-84000000D03*
X97000000Y-89000000D03*
X109000000Y-96000000D03*
X115000000Y-88000000D03*
X107000000Y-106000000D03*
X80000000Y-74000000D03*
X80000000Y-78000000D03*
X73000000Y-112000000D03*
X56000000Y-93000000D03*
X93000000Y-112000000D03*
X56500000Y-74000000D03*
X90000000Y-93000000D03*
X76000000Y-97000000D03*
X70000000Y-80500000D03*
X59000000Y-89500000D03*
X52000000Y-105000000D03*
X22000000Y-95000000D03*
X70000000Y-85500000D03*
X22000000Y-90000000D03*
X52000000Y-93000000D03*
X38000000Y-78000000D03*
X22000000Y-100000000D03*
X22000000Y-85000000D03*
X49000000Y-90000000D03*
D13*
X66000000Y-85660000D03*
X66000000Y-83120000D03*
X66000000Y-80580000D03*
X66000000Y-78040000D03*
D14*
X66000000Y-75500000D03*
D13*
X77920000Y-24000000D03*
X80460000Y-24000000D03*
D14*
X83000000Y-24000000D03*
D13*
X75260000Y-116000000D03*
X77800000Y-116000000D03*
X80340000Y-116000000D03*
X82880000Y-116000000D03*
X85420000Y-116000000D03*
X87960000Y-116000000D03*
D14*
X90500000Y-116000000D03*
D13*
X27000000Y-100700000D03*
X27000000Y-98160000D03*
X27000000Y-95620000D03*
X27000000Y-93080000D03*
X27000000Y-90540000D03*
X27000000Y-88000000D03*
X27000000Y-85460000D03*
D14*
X27000000Y-82920000D03*
D13*
X61920000Y-24000000D03*
X64460000Y-24000000D03*
D14*
X67000000Y-24000000D03*
D13*
X66000000Y-94000000D03*
D14*
X66000000Y-91460000D03*
D13*
X55700000Y-24000000D03*
X53160000Y-24000000D03*
X50620000Y-24000000D03*
X48080000Y-24000000D03*
X45540000Y-24000000D03*
D14*
X43000000Y-24000000D03*
D15*
X36500000Y-28000000D03*
D16*
X31500000Y-28000000D03*
D15*
X113000000Y-56000000D03*
D16*
X113000000Y-51000000D03*
D15*
X49500000Y-114000000D03*
D16*
X44500000Y-114000000D03*
D15*
X33000000Y-114000000D03*
D16*
X38000000Y-114000000D03*
M02*
