G04 #@! TF.GenerationSoftware,KiCad,Pcbnew,5.1.5+dfsg1-2build2*
G04 #@! TF.CreationDate,2020-07-09T14:01:37-04:00*
G04 #@! TF.ProjectId,processing,70726f63-6573-4736-996e-672e6b696361,rev?*
G04 #@! TF.SameCoordinates,Original*
G04 #@! TF.FileFunction,Copper,L2,Bot*
G04 #@! TF.FilePolarity,Positive*
%FSLAX46Y46*%
G04 Gerber Fmt 4.6, Leading zero omitted, Abs format (unit mm)*
G04 Created by KiCad (PCBNEW 5.1.5+dfsg1-2build2) date 2020-07-09 14:01:37*
%MOMM*%
%LPD*%
G04 APERTURE LIST*
%ADD10C,1.524000*%
%ADD11R,0.850000X0.850000*%
%ADD12O,1.700000X1.700000*%
%ADD13R,1.700000X1.700000*%
%ADD14C,2.000000*%
%ADD15R,2.000000X2.000000*%
%ADD16C,0.800000*%
%ADD17C,1.701800*%
%ADD18C,1.270000*%
%ADD19C,0.508000*%
%ADD20C,0.254000*%
G04 APERTURE END LIST*
D10*
X23220000Y-37380000D03*
X25760000Y-37380000D03*
X28300000Y-37380000D03*
X30840000Y-37380000D03*
X33380000Y-37380000D03*
X35920000Y-37380000D03*
X38460000Y-37380000D03*
X41000000Y-37380000D03*
X43540000Y-37380000D03*
X46080000Y-37380000D03*
X48620000Y-37380000D03*
X51160000Y-37380000D03*
X53700000Y-37380000D03*
X56240000Y-37380000D03*
X56240000Y-52620000D03*
X53700000Y-52620000D03*
X51160000Y-52620000D03*
X48620000Y-52620000D03*
X46080000Y-52620000D03*
X43540000Y-52620000D03*
X41000000Y-52620000D03*
X38460000Y-52620000D03*
X35920000Y-52620000D03*
X33380000Y-52620000D03*
X30840000Y-52620000D03*
X28300000Y-52620000D03*
X25760000Y-52620000D03*
X23220000Y-52620000D03*
D11*
X70000000Y-76000000D03*
D12*
X116000000Y-41460000D03*
D13*
X116000000Y-44000000D03*
D12*
X68700000Y-116000000D03*
X66160000Y-116000000D03*
X63620000Y-116000000D03*
X61080000Y-116000000D03*
X58540000Y-116000000D03*
D13*
X56000000Y-116000000D03*
D12*
X66000000Y-100920000D03*
X66000000Y-103460000D03*
D13*
X66000000Y-106000000D03*
D12*
X73920000Y-93000000D03*
X76460000Y-93000000D03*
D13*
X79000000Y-93000000D03*
D11*
X38000000Y-58000000D03*
X76000000Y-60000000D03*
X64000000Y-60000000D03*
X59000000Y-59000000D03*
X100000000Y-71000000D03*
X117000000Y-80000000D03*
X117000000Y-84000000D03*
X97000000Y-89000000D03*
X109000000Y-96000000D03*
X115000000Y-88000000D03*
X107000000Y-106000000D03*
X80000000Y-74000000D03*
X80000000Y-78000000D03*
X73000000Y-112000000D03*
X56000000Y-93000000D03*
X93000000Y-112000000D03*
X56500000Y-74000000D03*
X90000000Y-93000000D03*
X76000000Y-97000000D03*
X70000000Y-80500000D03*
X59000000Y-89500000D03*
X52000000Y-105000000D03*
X22000000Y-95000000D03*
X70000000Y-85500000D03*
X22000000Y-90000000D03*
X52000000Y-93000000D03*
X38000000Y-78000000D03*
X22000000Y-100000000D03*
X22000000Y-85000000D03*
X49000000Y-90000000D03*
D12*
X66000000Y-85660000D03*
X66000000Y-83120000D03*
X66000000Y-80580000D03*
X66000000Y-78040000D03*
D13*
X66000000Y-75500000D03*
D12*
X77920000Y-24000000D03*
X80460000Y-24000000D03*
D13*
X83000000Y-24000000D03*
D12*
X75260000Y-116000000D03*
X77800000Y-116000000D03*
X80340000Y-116000000D03*
X82880000Y-116000000D03*
X85420000Y-116000000D03*
X87960000Y-116000000D03*
D13*
X90500000Y-116000000D03*
D12*
X27000000Y-100700000D03*
X27000000Y-98160000D03*
X27000000Y-95620000D03*
X27000000Y-93080000D03*
X27000000Y-90540000D03*
X27000000Y-88000000D03*
X27000000Y-85460000D03*
D13*
X27000000Y-82920000D03*
D12*
X61920000Y-24000000D03*
X64460000Y-24000000D03*
D13*
X67000000Y-24000000D03*
D12*
X66000000Y-94000000D03*
D13*
X66000000Y-91460000D03*
D12*
X55700000Y-24000000D03*
X53160000Y-24000000D03*
X50620000Y-24000000D03*
X48080000Y-24000000D03*
X45540000Y-24000000D03*
D13*
X43000000Y-24000000D03*
D14*
X36500000Y-28000000D03*
D15*
X31500000Y-28000000D03*
D14*
X113000000Y-56000000D03*
D15*
X113000000Y-51000000D03*
D14*
X49500000Y-114000000D03*
D15*
X44500000Y-114000000D03*
D14*
X33000000Y-114000000D03*
D15*
X38000000Y-114000000D03*
D16*
X52000000Y-61000000D03*
X78000000Y-56000000D03*
X83000000Y-56000000D03*
X64000000Y-37000000D03*
X71000000Y-56000000D03*
X66000000Y-56000000D03*
X78000000Y-28000000D03*
X41500000Y-40500000D03*
X45500000Y-48000000D03*
X45500000Y-46500000D03*
X45500000Y-44500000D03*
X49500000Y-48500000D03*
X49500000Y-46500000D03*
X49500000Y-44500000D03*
X56000000Y-65000000D03*
X60000000Y-62000000D03*
X60000000Y-65000000D03*
X43000000Y-71000000D03*
X46000000Y-69000000D03*
X38000000Y-66000000D03*
X56000000Y-88000000D03*
X97000000Y-74000000D03*
X96000000Y-74000000D03*
X101000000Y-95000000D03*
X93000000Y-109000000D03*
X90000000Y-97000000D03*
X76000000Y-101000000D03*
X81000000Y-104000000D03*
X85000000Y-104000000D03*
X104000000Y-103000000D03*
X117000000Y-92000000D03*
X114000000Y-101000000D03*
X107000000Y-71000000D03*
X107000000Y-85000000D03*
X88000000Y-74000000D03*
X92000000Y-78000000D03*
X94000000Y-81000000D03*
X86000000Y-87000000D03*
X80000000Y-81000000D03*
X80000000Y-84000000D03*
X76000000Y-87000000D03*
X74000000Y-83000000D03*
X61000000Y-83000000D03*
X61000000Y-77000000D03*
X61000000Y-80000000D03*
X47000000Y-77000000D03*
X47000000Y-80000000D03*
X43000000Y-83000000D03*
X43000000Y-86000000D03*
X32000000Y-74000000D03*
X32000000Y-78000000D03*
X25000000Y-78000000D03*
X73000000Y-109000000D03*
X61000000Y-110000000D03*
X56000000Y-110000000D03*
X25000000Y-106000000D03*
X37000000Y-106000000D03*
X34000000Y-102000000D03*
X34000000Y-98000000D03*
X34000000Y-94000000D03*
X34000000Y-90000000D03*
X34000000Y-86000000D03*
X43000000Y-93000000D03*
X43000000Y-105000000D03*
X43000000Y-102000000D03*
X47000000Y-99000000D03*
X61000000Y-102000000D03*
X61000000Y-99000000D03*
X61000000Y-96000000D03*
X107000000Y-94000000D03*
X50000000Y-107000000D03*
X51000000Y-107000000D03*
X49000000Y-108000000D03*
X50000000Y-108000000D03*
X48000000Y-109000000D03*
X49000000Y-109000000D03*
X44000000Y-107000000D03*
X43000000Y-107000000D03*
X43000000Y-108000000D03*
X42000000Y-108000000D03*
X42000000Y-109000000D03*
X41000000Y-109000000D03*
X90000000Y-114000000D03*
X91000000Y-114000000D03*
X98000000Y-114000000D03*
X97000000Y-114000000D03*
X97000000Y-115000000D03*
X98000000Y-115000000D03*
X92000000Y-114000000D03*
X93000000Y-114000000D03*
X117000000Y-93000000D03*
X117000000Y-94000000D03*
X65000000Y-37000000D03*
X65000000Y-38000000D03*
X64000000Y-38000000D03*
X63000000Y-38000000D03*
X63000000Y-37000000D03*
X74000000Y-45000000D03*
X71000000Y-45000000D03*
X68000000Y-45000000D03*
X65000000Y-45000000D03*
X42624464Y-44948000D03*
X67000000Y-109500000D03*
X66000000Y-109500000D03*
X65000000Y-109500000D03*
X69000000Y-113000000D03*
X68000000Y-113500000D03*
X67000000Y-114000000D03*
X65000000Y-110500000D03*
X66000000Y-110500000D03*
X70000000Y-112500000D03*
X70000000Y-111500000D03*
X49000000Y-99000000D03*
X49000000Y-80000000D03*
X88000000Y-97000000D03*
X107000000Y-83000000D03*
X82000000Y-81000000D03*
D17*
X82000000Y-69000000D03*
X49000000Y-71000000D03*
D16*
X40000000Y-66000000D03*
X59000000Y-99000000D03*
X59000000Y-80000000D03*
X92000000Y-81000000D03*
X107000000Y-73000000D03*
D17*
X117000000Y-74000000D03*
X54000000Y-71000000D03*
D16*
X50000000Y-61000000D03*
X75000000Y-104000000D03*
X78000000Y-101000000D03*
D17*
X117000000Y-87000000D03*
D16*
X108000000Y-77741090D03*
X77000000Y-81125000D03*
X58000000Y-53000000D03*
X58000000Y-48000000D03*
D17*
X108000000Y-64000000D03*
D16*
X43650000Y-44500000D03*
X54000000Y-43000000D03*
X64000000Y-35000000D03*
X43000000Y-30000000D03*
X28500000Y-47000000D03*
X39500000Y-40500000D03*
X32000000Y-43000000D03*
X32500000Y-45000000D03*
X37000000Y-45500000D03*
X63000000Y-34000000D03*
X64000000Y-34000000D03*
X65000000Y-34000000D03*
X65000000Y-33000000D03*
X64000000Y-33000000D03*
X63000000Y-33000000D03*
X84525000Y-83540000D03*
X89475000Y-82270000D03*
X56000000Y-59000000D03*
X55000000Y-48000000D03*
X46000000Y-64000000D03*
X46097222Y-66988732D03*
X34075000Y-45000000D03*
X33937500Y-47000000D03*
X112000000Y-96000000D03*
X51000000Y-57950000D03*
X52483999Y-48516001D03*
X41000000Y-79000000D03*
X41000000Y-77000000D03*
X45000000Y-65000000D03*
X45103870Y-67103870D03*
X44950000Y-71000000D03*
X47000000Y-83000000D03*
X53000000Y-86125000D03*
X59000000Y-86000000D03*
X92125000Y-84000000D03*
X96000000Y-84000000D03*
X27000000Y-35500000D03*
X35650000Y-42274998D03*
X40403136Y-48925001D03*
D18*
X49500000Y-46500000D02*
X58500000Y-46500000D01*
X58500000Y-46500000D02*
X61000000Y-46500000D01*
X40270000Y-114000000D02*
X49000000Y-105270000D01*
X38000000Y-114000000D02*
X40270000Y-114000000D01*
X49000000Y-105270000D02*
X49000000Y-98353002D01*
X46407199Y-81764999D02*
X47235001Y-81764999D01*
X49000000Y-98353002D02*
X45764999Y-95118001D01*
X45764999Y-82407199D02*
X46407199Y-81764999D01*
X45764999Y-95118001D02*
X45764999Y-82407199D01*
X47235001Y-81764999D02*
X49000000Y-80000000D01*
X107000000Y-83000000D02*
X107000000Y-83000000D01*
X58540000Y-116000000D02*
X60540000Y-118000000D01*
X60540000Y-118000000D02*
X91703002Y-118000000D01*
X107485527Y-83485527D02*
X107000000Y-83000000D01*
X113260001Y-89260001D02*
X107485527Y-83485527D01*
X116260001Y-89260001D02*
X113260001Y-89260001D01*
X91703002Y-118000000D02*
X107000000Y-118000000D01*
X119000000Y-108000000D02*
X119000000Y-92000000D01*
X107000000Y-118000000D02*
X114000000Y-111000000D01*
X114000000Y-111000000D02*
X116000000Y-111000000D01*
X116000000Y-111000000D02*
X119000000Y-108000000D01*
X119000000Y-92000000D02*
X116260001Y-89260001D01*
X88000000Y-97000000D02*
X88000000Y-98000000D01*
X88000000Y-98000000D02*
X91000000Y-101000000D01*
X91000000Y-101000000D02*
X91000000Y-105000000D01*
X95000000Y-109000000D02*
X95000000Y-115000000D01*
X91000000Y-105000000D02*
X95000000Y-109000000D01*
X91703002Y-118000000D02*
X95000000Y-115000000D01*
X82000000Y-81000000D02*
X82000000Y-71000000D01*
X82000000Y-71000000D02*
X82000000Y-69000000D01*
X49000000Y-71000000D02*
X49000000Y-80000000D01*
D19*
X40000000Y-66000000D02*
X44000000Y-70000000D01*
X48000000Y-70000000D02*
X49000000Y-71000000D01*
X44000000Y-70000000D02*
X48000000Y-70000000D01*
D18*
X49500000Y-114000000D02*
X49500000Y-111500000D01*
X49500000Y-111500000D02*
X59000000Y-102000000D01*
X59000000Y-102000000D02*
X59000000Y-99000000D01*
X59000000Y-99000000D02*
X59000000Y-92000000D01*
X57739999Y-90739999D02*
X57739999Y-84260001D01*
X59000000Y-92000000D02*
X57739999Y-90739999D01*
X57739999Y-84260001D02*
X59000000Y-83000000D01*
X59000000Y-83000000D02*
X59000000Y-80000000D01*
X59080000Y-114000000D02*
X49500000Y-114000000D01*
X61080000Y-116000000D02*
X59080000Y-114000000D01*
X92000000Y-81000000D02*
X92000000Y-81000000D01*
X107000000Y-73000000D02*
X107000000Y-73000000D01*
X108000000Y-74000000D02*
X107000000Y-73000000D01*
X117000000Y-74000000D02*
X108000000Y-74000000D01*
X92000000Y-81000000D02*
X90000000Y-79000000D01*
X90000000Y-79000000D02*
X90000000Y-71000000D01*
X111000000Y-69203354D02*
X111000000Y-69078908D01*
X117000000Y-74000000D02*
X115796646Y-74000000D01*
X115796646Y-74000000D02*
X111000000Y-69203354D01*
X111000000Y-69078908D02*
X110391102Y-68470010D01*
X92529990Y-68470010D02*
X90000000Y-71000000D01*
X110391102Y-68470010D02*
X92529990Y-68470010D01*
X50000000Y-62000000D02*
X50000000Y-62000000D01*
X54000000Y-71000000D02*
X54000000Y-69000000D01*
X50000000Y-65000000D02*
X50000000Y-62000000D01*
X54000000Y-69000000D02*
X50000000Y-65000000D01*
X50000000Y-62000000D02*
X50000000Y-61000000D01*
X75000000Y-104000000D02*
X78000000Y-101000000D01*
X117000000Y-87000000D02*
X119000000Y-85000000D01*
X119000000Y-85000000D02*
X119000000Y-84000000D01*
X119000000Y-79482180D02*
X119000000Y-84000000D01*
D19*
X118741090Y-77741090D02*
X119000000Y-78000000D01*
X108000000Y-77741090D02*
X118741090Y-77741090D01*
D18*
X119000000Y-79482180D02*
X119000000Y-78000000D01*
X119000000Y-73504866D02*
X119000000Y-78000000D01*
X116495134Y-71000000D02*
X119000000Y-73504866D01*
X77000000Y-81125000D02*
X76000000Y-80125000D01*
X76000000Y-80125000D02*
X76000000Y-72000000D01*
X76000000Y-72000000D02*
X81000000Y-67000000D01*
X81000000Y-67000000D02*
X111000000Y-67000000D01*
X111000000Y-67000000D02*
X115000000Y-71000000D01*
X115000000Y-71000000D02*
X116495134Y-71000000D01*
D19*
X58000000Y-53000000D02*
X58000000Y-48000000D01*
D18*
X111000000Y-67000000D02*
X108000000Y-64000000D01*
D19*
X45587500Y-43000000D02*
X54000000Y-43000000D01*
X44087500Y-44500000D02*
X45587500Y-43000000D01*
X43650000Y-44500000D02*
X44087500Y-44500000D01*
D18*
X25760000Y-37380000D02*
X31380000Y-43000000D01*
X32000000Y-43000000D02*
X31380000Y-43000000D01*
X23220000Y-36302370D02*
X23220000Y-37380000D01*
X23220000Y-34010000D02*
X23220000Y-36302370D01*
X29230000Y-28000000D02*
X23220000Y-34010000D01*
X31500000Y-28000000D02*
X29230000Y-28000000D01*
D19*
X84525000Y-83540000D02*
X88205000Y-83540000D01*
X88205000Y-83540000D02*
X89475000Y-82270000D01*
X55000000Y-58000000D02*
X56000000Y-59000000D01*
X55000000Y-48000000D02*
X55000000Y-58000000D01*
X46000000Y-64000000D02*
X46000000Y-66891510D01*
X46000000Y-66891510D02*
X46097222Y-66988732D01*
X34075000Y-45000000D02*
X34075000Y-46862500D01*
X34075000Y-46862500D02*
X33937500Y-47000000D01*
D20*
X112000000Y-96000000D02*
X109000000Y-96000000D01*
D19*
X52483999Y-48516001D02*
X52483999Y-56466001D01*
X52483999Y-56466001D02*
X51000000Y-57950000D01*
X41000000Y-79000000D02*
X41000000Y-77000000D01*
X45000000Y-65000000D02*
X45000000Y-67000000D01*
X45000000Y-67000000D02*
X45103870Y-67103870D01*
X47000000Y-83000000D02*
X49875000Y-83000000D01*
X49875000Y-83000000D02*
X53000000Y-86125000D01*
X59487500Y-86000000D02*
X63000000Y-82487500D01*
X59000000Y-86000000D02*
X59487500Y-86000000D01*
X64642000Y-75500000D02*
X66000000Y-75500000D01*
X63000000Y-77142000D02*
X64642000Y-75500000D01*
X63000000Y-82487500D02*
X63000000Y-77142000D01*
X92125000Y-84000000D02*
X95000000Y-84000000D01*
X95000000Y-84000000D02*
X96000000Y-84000000D01*
X39120000Y-35500000D02*
X27000000Y-35500000D01*
X41000000Y-37380000D02*
X39120000Y-35500000D01*
D20*
X43540000Y-52620000D02*
X41920000Y-51000000D01*
X41920000Y-51000000D02*
X40000000Y-51000000D01*
X40000000Y-51000000D02*
X35650000Y-46650000D01*
X35650000Y-46650000D02*
X35650000Y-42274998D01*
X39549001Y-53709001D02*
X44276333Y-53709001D01*
X38460000Y-52620000D02*
X39549001Y-53709001D01*
X44276333Y-53709001D02*
X44629001Y-53356333D01*
X44629001Y-53356333D02*
X44629001Y-52097279D01*
X44629001Y-52097279D02*
X41456723Y-48925001D01*
X41456723Y-48925001D02*
X40403136Y-48925001D01*
G36*
X39373000Y-48798609D02*
G01*
X39368136Y-48823062D01*
X39368136Y-49026940D01*
X39373000Y-49051393D01*
X39373000Y-49295369D01*
X36412000Y-46334370D01*
X36412000Y-42976709D01*
X36453937Y-42934772D01*
X36567205Y-42765254D01*
X36645226Y-42576896D01*
X36685000Y-42376937D01*
X36685000Y-42173059D01*
X36645226Y-41973100D01*
X36567205Y-41784742D01*
X36453937Y-41615224D01*
X36309774Y-41471061D01*
X36140256Y-41357793D01*
X35951898Y-41279772D01*
X35751939Y-41239998D01*
X35548061Y-41239998D01*
X35348102Y-41279772D01*
X35159744Y-41357793D01*
X34990226Y-41471061D01*
X34846063Y-41615224D01*
X34732795Y-41784742D01*
X34654774Y-41973100D01*
X34615000Y-42173059D01*
X34615000Y-42376937D01*
X34654774Y-42576896D01*
X34732795Y-42765254D01*
X34846063Y-42934772D01*
X34888001Y-42976710D01*
X34888001Y-44353791D01*
X34878937Y-44340226D01*
X34734774Y-44196063D01*
X34565256Y-44082795D01*
X34376898Y-44004774D01*
X34176939Y-43965000D01*
X33973061Y-43965000D01*
X33773102Y-44004774D01*
X33584744Y-44082795D01*
X33415226Y-44196063D01*
X33271063Y-44340226D01*
X33157795Y-44509744D01*
X33079774Y-44698102D01*
X33040000Y-44898061D01*
X33040000Y-45101939D01*
X33079774Y-45301898D01*
X33157795Y-45490256D01*
X33186000Y-45532468D01*
X33186001Y-46287788D01*
X33133563Y-46340226D01*
X33020295Y-46509744D01*
X32942274Y-46698102D01*
X32902500Y-46898061D01*
X32902500Y-47101939D01*
X32942274Y-47301898D01*
X33020295Y-47490256D01*
X33133563Y-47659774D01*
X33277726Y-47803937D01*
X33447244Y-47917205D01*
X33635602Y-47995226D01*
X33835561Y-48035000D01*
X34039439Y-48035000D01*
X34239398Y-47995226D01*
X34427756Y-47917205D01*
X34597274Y-47803937D01*
X34741437Y-47659774D01*
X34854705Y-47490256D01*
X34932726Y-47301898D01*
X34972500Y-47101939D01*
X34972500Y-46998957D01*
X35013355Y-47075392D01*
X35035142Y-47101939D01*
X35108578Y-47191422D01*
X35137654Y-47215284D01*
X38795369Y-50873000D01*
X27627000Y-50873000D01*
X27627000Y-39627000D01*
X39373000Y-39627000D01*
X39373000Y-48798609D01*
G37*
X39373000Y-48798609D02*
X39368136Y-48823062D01*
X39368136Y-49026940D01*
X39373000Y-49051393D01*
X39373000Y-49295369D01*
X36412000Y-46334370D01*
X36412000Y-42976709D01*
X36453937Y-42934772D01*
X36567205Y-42765254D01*
X36645226Y-42576896D01*
X36685000Y-42376937D01*
X36685000Y-42173059D01*
X36645226Y-41973100D01*
X36567205Y-41784742D01*
X36453937Y-41615224D01*
X36309774Y-41471061D01*
X36140256Y-41357793D01*
X35951898Y-41279772D01*
X35751939Y-41239998D01*
X35548061Y-41239998D01*
X35348102Y-41279772D01*
X35159744Y-41357793D01*
X34990226Y-41471061D01*
X34846063Y-41615224D01*
X34732795Y-41784742D01*
X34654774Y-41973100D01*
X34615000Y-42173059D01*
X34615000Y-42376937D01*
X34654774Y-42576896D01*
X34732795Y-42765254D01*
X34846063Y-42934772D01*
X34888001Y-42976710D01*
X34888001Y-44353791D01*
X34878937Y-44340226D01*
X34734774Y-44196063D01*
X34565256Y-44082795D01*
X34376898Y-44004774D01*
X34176939Y-43965000D01*
X33973061Y-43965000D01*
X33773102Y-44004774D01*
X33584744Y-44082795D01*
X33415226Y-44196063D01*
X33271063Y-44340226D01*
X33157795Y-44509744D01*
X33079774Y-44698102D01*
X33040000Y-44898061D01*
X33040000Y-45101939D01*
X33079774Y-45301898D01*
X33157795Y-45490256D01*
X33186000Y-45532468D01*
X33186001Y-46287788D01*
X33133563Y-46340226D01*
X33020295Y-46509744D01*
X32942274Y-46698102D01*
X32902500Y-46898061D01*
X32902500Y-47101939D01*
X32942274Y-47301898D01*
X33020295Y-47490256D01*
X33133563Y-47659774D01*
X33277726Y-47803937D01*
X33447244Y-47917205D01*
X33635602Y-47995226D01*
X33835561Y-48035000D01*
X34039439Y-48035000D01*
X34239398Y-47995226D01*
X34427756Y-47917205D01*
X34597274Y-47803937D01*
X34741437Y-47659774D01*
X34854705Y-47490256D01*
X34932726Y-47301898D01*
X34972500Y-47101939D01*
X34972500Y-46998957D01*
X35013355Y-47075392D01*
X35035142Y-47101939D01*
X35108578Y-47191422D01*
X35137654Y-47215284D01*
X38795369Y-50873000D01*
X27627000Y-50873000D01*
X27627000Y-39627000D01*
X39373000Y-39627000D01*
X39373000Y-48798609D01*
G36*
X50373000Y-42111000D02*
G01*
X45631159Y-42111000D01*
X45587499Y-42106700D01*
X45543839Y-42111000D01*
X45543833Y-42111000D01*
X45446424Y-42120594D01*
X45413224Y-42123864D01*
X45311558Y-42154704D01*
X45245649Y-42174697D01*
X45091209Y-42257247D01*
X44955841Y-42368341D01*
X44928001Y-42402264D01*
X43846463Y-43483802D01*
X43751939Y-43465000D01*
X43548061Y-43465000D01*
X43348102Y-43504774D01*
X43159744Y-43582795D01*
X42990226Y-43696063D01*
X42846063Y-43840226D01*
X42732795Y-44009744D01*
X42654774Y-44198102D01*
X42615000Y-44398061D01*
X42615000Y-44601939D01*
X42654774Y-44801898D01*
X42732795Y-44990256D01*
X42846063Y-45159774D01*
X42990226Y-45303937D01*
X43159744Y-45417205D01*
X43348102Y-45495226D01*
X43548061Y-45535000D01*
X43751939Y-45535000D01*
X43951898Y-45495226D01*
X44140256Y-45417205D01*
X44191337Y-45383074D01*
X44261774Y-45376136D01*
X44429351Y-45325303D01*
X44583791Y-45242753D01*
X44719159Y-45131659D01*
X44746999Y-45097736D01*
X45955735Y-43889000D01*
X50373000Y-43889000D01*
X50373000Y-50873000D01*
X44482352Y-50873000D01*
X42022007Y-48412655D01*
X41998145Y-48383579D01*
X41882115Y-48288356D01*
X41749738Y-48217599D01*
X41606101Y-48174027D01*
X41494149Y-48163001D01*
X41494146Y-48163001D01*
X41456723Y-48159315D01*
X41419300Y-48163001D01*
X41104847Y-48163001D01*
X41062910Y-48121064D01*
X40893392Y-48007796D01*
X40705034Y-47929775D01*
X40627000Y-47914253D01*
X40627000Y-39627000D01*
X50373000Y-39627000D01*
X50373000Y-42111000D01*
G37*
X50373000Y-42111000D02*
X45631159Y-42111000D01*
X45587499Y-42106700D01*
X45543839Y-42111000D01*
X45543833Y-42111000D01*
X45446424Y-42120594D01*
X45413224Y-42123864D01*
X45311558Y-42154704D01*
X45245649Y-42174697D01*
X45091209Y-42257247D01*
X44955841Y-42368341D01*
X44928001Y-42402264D01*
X43846463Y-43483802D01*
X43751939Y-43465000D01*
X43548061Y-43465000D01*
X43348102Y-43504774D01*
X43159744Y-43582795D01*
X42990226Y-43696063D01*
X42846063Y-43840226D01*
X42732795Y-44009744D01*
X42654774Y-44198102D01*
X42615000Y-44398061D01*
X42615000Y-44601939D01*
X42654774Y-44801898D01*
X42732795Y-44990256D01*
X42846063Y-45159774D01*
X42990226Y-45303937D01*
X43159744Y-45417205D01*
X43348102Y-45495226D01*
X43548061Y-45535000D01*
X43751939Y-45535000D01*
X43951898Y-45495226D01*
X44140256Y-45417205D01*
X44191337Y-45383074D01*
X44261774Y-45376136D01*
X44429351Y-45325303D01*
X44583791Y-45242753D01*
X44719159Y-45131659D01*
X44746999Y-45097736D01*
X45955735Y-43889000D01*
X50373000Y-43889000D01*
X50373000Y-50873000D01*
X44482352Y-50873000D01*
X42022007Y-48412655D01*
X41998145Y-48383579D01*
X41882115Y-48288356D01*
X41749738Y-48217599D01*
X41606101Y-48174027D01*
X41494149Y-48163001D01*
X41494146Y-48163001D01*
X41456723Y-48159315D01*
X41419300Y-48163001D01*
X41104847Y-48163001D01*
X41062910Y-48121064D01*
X40893392Y-48007796D01*
X40705034Y-47929775D01*
X40627000Y-47914253D01*
X40627000Y-39627000D01*
X50373000Y-39627000D01*
X50373000Y-42111000D01*
G36*
X69873000Y-34873000D02*
G01*
X59000000Y-34873000D01*
X58975224Y-34875440D01*
X58951399Y-34882667D01*
X58929443Y-34894403D01*
X58910197Y-34910197D01*
X58894403Y-34929443D01*
X58882667Y-34951399D01*
X58875440Y-34975224D01*
X58873000Y-35000000D01*
X58873000Y-45230000D01*
X52127000Y-45230000D01*
X52127000Y-43889000D01*
X53467532Y-43889000D01*
X53509744Y-43917205D01*
X53698102Y-43995226D01*
X53898061Y-44035000D01*
X54101939Y-44035000D01*
X54301898Y-43995226D01*
X54490256Y-43917205D01*
X54659774Y-43803937D01*
X54803937Y-43659774D01*
X54917205Y-43490256D01*
X54995226Y-43301898D01*
X55035000Y-43101939D01*
X55035000Y-42898061D01*
X54995226Y-42698102D01*
X54917205Y-42509744D01*
X54803937Y-42340226D01*
X54659774Y-42196063D01*
X54490256Y-42082795D01*
X54301898Y-42004774D01*
X54101939Y-41965000D01*
X53898061Y-41965000D01*
X53698102Y-42004774D01*
X53509744Y-42082795D01*
X53467532Y-42111000D01*
X52127000Y-42111000D01*
X52127000Y-38388655D01*
X52245120Y-38270535D01*
X52398005Y-38041727D01*
X52430000Y-37964485D01*
X52461995Y-38041727D01*
X52614880Y-38270535D01*
X52809465Y-38465120D01*
X53038273Y-38618005D01*
X53292510Y-38723314D01*
X53562408Y-38777000D01*
X53837592Y-38777000D01*
X54107490Y-38723314D01*
X54361727Y-38618005D01*
X54590535Y-38465120D01*
X54785120Y-38270535D01*
X54938005Y-38041727D01*
X54970000Y-37964485D01*
X55001995Y-38041727D01*
X55154880Y-38270535D01*
X55349465Y-38465120D01*
X55578273Y-38618005D01*
X55832510Y-38723314D01*
X56102408Y-38777000D01*
X56377592Y-38777000D01*
X56647490Y-38723314D01*
X56901727Y-38618005D01*
X57130535Y-38465120D01*
X57325120Y-38270535D01*
X57478005Y-38041727D01*
X57583314Y-37787490D01*
X57637000Y-37517592D01*
X57637000Y-37242408D01*
X57583314Y-36972510D01*
X57478005Y-36718273D01*
X57325120Y-36489465D01*
X57130535Y-36294880D01*
X56901727Y-36141995D01*
X56647490Y-36036686D01*
X56377592Y-35983000D01*
X56102408Y-35983000D01*
X55832510Y-36036686D01*
X55578273Y-36141995D01*
X55349465Y-36294880D01*
X55154880Y-36489465D01*
X55001995Y-36718273D01*
X54970000Y-36795515D01*
X54938005Y-36718273D01*
X54785120Y-36489465D01*
X54590535Y-36294880D01*
X54361727Y-36141995D01*
X54107490Y-36036686D01*
X53837592Y-35983000D01*
X53562408Y-35983000D01*
X53292510Y-36036686D01*
X53038273Y-36141995D01*
X52809465Y-36294880D01*
X52614880Y-36489465D01*
X52461995Y-36718273D01*
X52430000Y-36795515D01*
X52398005Y-36718273D01*
X52245120Y-36489465D01*
X52050535Y-36294880D01*
X51821727Y-36141995D01*
X51567490Y-36036686D01*
X51297592Y-35983000D01*
X51022408Y-35983000D01*
X50752510Y-36036686D01*
X50498273Y-36141995D01*
X50269465Y-36294880D01*
X50074880Y-36489465D01*
X49921995Y-36718273D01*
X49890000Y-36795515D01*
X49858005Y-36718273D01*
X49705120Y-36489465D01*
X49510535Y-36294880D01*
X49281727Y-36141995D01*
X49027490Y-36036686D01*
X48757592Y-35983000D01*
X48482408Y-35983000D01*
X48212510Y-36036686D01*
X47958273Y-36141995D01*
X47729465Y-36294880D01*
X47534880Y-36489465D01*
X47381995Y-36718273D01*
X47350000Y-36795515D01*
X47318005Y-36718273D01*
X47165120Y-36489465D01*
X46970535Y-36294880D01*
X46741727Y-36141995D01*
X46487490Y-36036686D01*
X46217592Y-35983000D01*
X45942408Y-35983000D01*
X45672510Y-36036686D01*
X45418273Y-36141995D01*
X45189465Y-36294880D01*
X44994880Y-36489465D01*
X44841995Y-36718273D01*
X44810000Y-36795515D01*
X44778005Y-36718273D01*
X44625120Y-36489465D01*
X44430535Y-36294880D01*
X44201727Y-36141995D01*
X43947490Y-36036686D01*
X43677592Y-35983000D01*
X43402408Y-35983000D01*
X43132510Y-36036686D01*
X42878273Y-36141995D01*
X42649465Y-36294880D01*
X42454880Y-36489465D01*
X42301995Y-36718273D01*
X42270000Y-36795515D01*
X42238005Y-36718273D01*
X42085120Y-36489465D01*
X41890535Y-36294880D01*
X41661727Y-36141995D01*
X41407490Y-36036686D01*
X41137592Y-35983000D01*
X40862408Y-35983000D01*
X40860596Y-35983360D01*
X39779499Y-34902264D01*
X39751659Y-34868341D01*
X39616291Y-34757247D01*
X39461851Y-34674697D01*
X39294274Y-34623864D01*
X39163667Y-34611000D01*
X39163660Y-34611000D01*
X39120000Y-34606700D01*
X39076340Y-34611000D01*
X27532468Y-34611000D01*
X27490256Y-34582795D01*
X27301898Y-34504774D01*
X27101939Y-34465000D01*
X26898061Y-34465000D01*
X26698102Y-34504774D01*
X26509744Y-34582795D01*
X26340226Y-34696063D01*
X26196063Y-34840226D01*
X26082795Y-35009744D01*
X26004774Y-35198102D01*
X25965000Y-35398061D01*
X25965000Y-35601939D01*
X26004774Y-35801898D01*
X26082795Y-35990256D01*
X26196063Y-36159774D01*
X26340226Y-36303937D01*
X26509744Y-36417205D01*
X26698102Y-36495226D01*
X26898061Y-36535000D01*
X27101939Y-36535000D01*
X27197102Y-36516071D01*
X27061995Y-36718273D01*
X26956686Y-36972510D01*
X26903000Y-37242408D01*
X26903000Y-37517592D01*
X26956686Y-37787490D01*
X26992106Y-37873000D01*
X26000000Y-37873000D01*
X25975224Y-37875440D01*
X25951399Y-37882667D01*
X25929443Y-37894403D01*
X25910197Y-37910197D01*
X25894403Y-37929443D01*
X25882667Y-37951399D01*
X25875440Y-37975224D01*
X25873000Y-38000000D01*
X25873000Y-50873000D01*
X20685000Y-50873000D01*
X20685000Y-37242408D01*
X21823000Y-37242408D01*
X21823000Y-37517592D01*
X21876686Y-37787490D01*
X21981995Y-38041727D01*
X22134880Y-38270535D01*
X22329465Y-38465120D01*
X22558273Y-38618005D01*
X22812510Y-38723314D01*
X23082408Y-38777000D01*
X23357592Y-38777000D01*
X23627490Y-38723314D01*
X23881727Y-38618005D01*
X24110535Y-38465120D01*
X24305120Y-38270535D01*
X24458005Y-38041727D01*
X24563314Y-37787490D01*
X24617000Y-37517592D01*
X24617000Y-37242408D01*
X24563314Y-36972510D01*
X24490000Y-36795515D01*
X24490000Y-34536050D01*
X29756051Y-29270000D01*
X29924299Y-29270000D01*
X29969463Y-29354494D01*
X30048815Y-29451185D01*
X30145506Y-29530537D01*
X30255820Y-29589502D01*
X30375518Y-29625812D01*
X30500000Y-29638072D01*
X32500000Y-29638072D01*
X32624482Y-29625812D01*
X32744180Y-29589502D01*
X32854494Y-29530537D01*
X32951185Y-29451185D01*
X33030537Y-29354494D01*
X33089502Y-29244180D01*
X33125812Y-29124482D01*
X33138072Y-29000000D01*
X33138072Y-27000000D01*
X33125812Y-26875518D01*
X33089502Y-26755820D01*
X33030537Y-26645506D01*
X32951185Y-26548815D01*
X32854494Y-26469463D01*
X32744180Y-26410498D01*
X32624482Y-26374188D01*
X32500000Y-26361928D01*
X30500000Y-26361928D01*
X30375518Y-26374188D01*
X30255820Y-26410498D01*
X30145506Y-26469463D01*
X30048815Y-26548815D01*
X29969463Y-26645506D01*
X29924299Y-26730000D01*
X29292380Y-26730000D01*
X29230000Y-26723856D01*
X29167620Y-26730000D01*
X28981037Y-26748377D01*
X28741641Y-26820997D01*
X28521012Y-26938925D01*
X28327630Y-27097630D01*
X28287863Y-27146086D01*
X22366091Y-33067859D01*
X22317630Y-33107630D01*
X22158925Y-33301013D01*
X22040997Y-33521642D01*
X21968377Y-33761038D01*
X21950000Y-33947621D01*
X21950000Y-33947627D01*
X21943857Y-34010000D01*
X21950000Y-34072373D01*
X21950001Y-36239981D01*
X21950000Y-36239991D01*
X21950000Y-36795515D01*
X21876686Y-36972510D01*
X21823000Y-37242408D01*
X20685000Y-37242408D01*
X20685000Y-23779872D01*
X21765000Y-23779872D01*
X21765000Y-24220128D01*
X21850890Y-24651925D01*
X22019369Y-25058669D01*
X22263962Y-25424729D01*
X22575271Y-25736038D01*
X22941331Y-25980631D01*
X23348075Y-26149110D01*
X23779872Y-26235000D01*
X24220128Y-26235000D01*
X24651925Y-26149110D01*
X25058669Y-25980631D01*
X25424729Y-25736038D01*
X25736038Y-25424729D01*
X25980631Y-25058669D01*
X26149110Y-24651925D01*
X26235000Y-24220128D01*
X26235000Y-23779872D01*
X26149110Y-23348075D01*
X26067065Y-23150000D01*
X41511928Y-23150000D01*
X41511928Y-24850000D01*
X41524188Y-24974482D01*
X41560498Y-25094180D01*
X41619463Y-25204494D01*
X41698815Y-25301185D01*
X41795506Y-25380537D01*
X41905820Y-25439502D01*
X42025518Y-25475812D01*
X42150000Y-25488072D01*
X43850000Y-25488072D01*
X43974482Y-25475812D01*
X44094180Y-25439502D01*
X44204494Y-25380537D01*
X44301185Y-25301185D01*
X44380537Y-25204494D01*
X44439502Y-25094180D01*
X44461513Y-25021620D01*
X44593368Y-25153475D01*
X44836589Y-25315990D01*
X45106842Y-25427932D01*
X45393740Y-25485000D01*
X45686260Y-25485000D01*
X45973158Y-25427932D01*
X46243411Y-25315990D01*
X46486632Y-25153475D01*
X46693475Y-24946632D01*
X46810000Y-24772240D01*
X46926525Y-24946632D01*
X47133368Y-25153475D01*
X47376589Y-25315990D01*
X47646842Y-25427932D01*
X47933740Y-25485000D01*
X48226260Y-25485000D01*
X48513158Y-25427932D01*
X48783411Y-25315990D01*
X49026632Y-25153475D01*
X49233475Y-24946632D01*
X49395990Y-24703411D01*
X49507932Y-24433158D01*
X49565000Y-24146260D01*
X49565000Y-23853740D01*
X60435000Y-23853740D01*
X60435000Y-24146260D01*
X60492068Y-24433158D01*
X60604010Y-24703411D01*
X60766525Y-24946632D01*
X60973368Y-25153475D01*
X61216589Y-25315990D01*
X61486842Y-25427932D01*
X61773740Y-25485000D01*
X62066260Y-25485000D01*
X62353158Y-25427932D01*
X62623411Y-25315990D01*
X62866632Y-25153475D01*
X63073475Y-24946632D01*
X63190000Y-24772240D01*
X63306525Y-24946632D01*
X63513368Y-25153475D01*
X63756589Y-25315990D01*
X64026842Y-25427932D01*
X64313740Y-25485000D01*
X64606260Y-25485000D01*
X64893158Y-25427932D01*
X65163411Y-25315990D01*
X65406632Y-25153475D01*
X65613475Y-24946632D01*
X65775990Y-24703411D01*
X65887932Y-24433158D01*
X65945000Y-24146260D01*
X65945000Y-23853740D01*
X65887932Y-23566842D01*
X65775990Y-23296589D01*
X65613475Y-23053368D01*
X65406632Y-22846525D01*
X65163411Y-22684010D01*
X64893158Y-22572068D01*
X64606260Y-22515000D01*
X64313740Y-22515000D01*
X64026842Y-22572068D01*
X63756589Y-22684010D01*
X63513368Y-22846525D01*
X63306525Y-23053368D01*
X63190000Y-23227760D01*
X63073475Y-23053368D01*
X62866632Y-22846525D01*
X62623411Y-22684010D01*
X62353158Y-22572068D01*
X62066260Y-22515000D01*
X61773740Y-22515000D01*
X61486842Y-22572068D01*
X61216589Y-22684010D01*
X60973368Y-22846525D01*
X60766525Y-23053368D01*
X60604010Y-23296589D01*
X60492068Y-23566842D01*
X60435000Y-23853740D01*
X49565000Y-23853740D01*
X49507932Y-23566842D01*
X49395990Y-23296589D01*
X49233475Y-23053368D01*
X49026632Y-22846525D01*
X48783411Y-22684010D01*
X48513158Y-22572068D01*
X48226260Y-22515000D01*
X47933740Y-22515000D01*
X47646842Y-22572068D01*
X47376589Y-22684010D01*
X47133368Y-22846525D01*
X46926525Y-23053368D01*
X46810000Y-23227760D01*
X46693475Y-23053368D01*
X46486632Y-22846525D01*
X46243411Y-22684010D01*
X45973158Y-22572068D01*
X45686260Y-22515000D01*
X45393740Y-22515000D01*
X45106842Y-22572068D01*
X44836589Y-22684010D01*
X44593368Y-22846525D01*
X44461513Y-22978380D01*
X44439502Y-22905820D01*
X44380537Y-22795506D01*
X44301185Y-22698815D01*
X44204494Y-22619463D01*
X44094180Y-22560498D01*
X43974482Y-22524188D01*
X43850000Y-22511928D01*
X42150000Y-22511928D01*
X42025518Y-22524188D01*
X41905820Y-22560498D01*
X41795506Y-22619463D01*
X41698815Y-22698815D01*
X41619463Y-22795506D01*
X41560498Y-22905820D01*
X41524188Y-23025518D01*
X41511928Y-23150000D01*
X26067065Y-23150000D01*
X25980631Y-22941331D01*
X25736038Y-22575271D01*
X25424729Y-22263962D01*
X25058669Y-22019369D01*
X24651925Y-21850890D01*
X24220128Y-21765000D01*
X23779872Y-21765000D01*
X23348075Y-21850890D01*
X22941331Y-22019369D01*
X22575271Y-22263962D01*
X22263962Y-22575271D01*
X22019369Y-22941331D01*
X21850890Y-23348075D01*
X21765000Y-23779872D01*
X20685000Y-23779872D01*
X20685000Y-20685000D01*
X69873000Y-20685000D01*
X69873000Y-34873000D01*
G37*
X69873000Y-34873000D02*
X59000000Y-34873000D01*
X58975224Y-34875440D01*
X58951399Y-34882667D01*
X58929443Y-34894403D01*
X58910197Y-34910197D01*
X58894403Y-34929443D01*
X58882667Y-34951399D01*
X58875440Y-34975224D01*
X58873000Y-35000000D01*
X58873000Y-45230000D01*
X52127000Y-45230000D01*
X52127000Y-43889000D01*
X53467532Y-43889000D01*
X53509744Y-43917205D01*
X53698102Y-43995226D01*
X53898061Y-44035000D01*
X54101939Y-44035000D01*
X54301898Y-43995226D01*
X54490256Y-43917205D01*
X54659774Y-43803937D01*
X54803937Y-43659774D01*
X54917205Y-43490256D01*
X54995226Y-43301898D01*
X55035000Y-43101939D01*
X55035000Y-42898061D01*
X54995226Y-42698102D01*
X54917205Y-42509744D01*
X54803937Y-42340226D01*
X54659774Y-42196063D01*
X54490256Y-42082795D01*
X54301898Y-42004774D01*
X54101939Y-41965000D01*
X53898061Y-41965000D01*
X53698102Y-42004774D01*
X53509744Y-42082795D01*
X53467532Y-42111000D01*
X52127000Y-42111000D01*
X52127000Y-38388655D01*
X52245120Y-38270535D01*
X52398005Y-38041727D01*
X52430000Y-37964485D01*
X52461995Y-38041727D01*
X52614880Y-38270535D01*
X52809465Y-38465120D01*
X53038273Y-38618005D01*
X53292510Y-38723314D01*
X53562408Y-38777000D01*
X53837592Y-38777000D01*
X54107490Y-38723314D01*
X54361727Y-38618005D01*
X54590535Y-38465120D01*
X54785120Y-38270535D01*
X54938005Y-38041727D01*
X54970000Y-37964485D01*
X55001995Y-38041727D01*
X55154880Y-38270535D01*
X55349465Y-38465120D01*
X55578273Y-38618005D01*
X55832510Y-38723314D01*
X56102408Y-38777000D01*
X56377592Y-38777000D01*
X56647490Y-38723314D01*
X56901727Y-38618005D01*
X57130535Y-38465120D01*
X57325120Y-38270535D01*
X57478005Y-38041727D01*
X57583314Y-37787490D01*
X57637000Y-37517592D01*
X57637000Y-37242408D01*
X57583314Y-36972510D01*
X57478005Y-36718273D01*
X57325120Y-36489465D01*
X57130535Y-36294880D01*
X56901727Y-36141995D01*
X56647490Y-36036686D01*
X56377592Y-35983000D01*
X56102408Y-35983000D01*
X55832510Y-36036686D01*
X55578273Y-36141995D01*
X55349465Y-36294880D01*
X55154880Y-36489465D01*
X55001995Y-36718273D01*
X54970000Y-36795515D01*
X54938005Y-36718273D01*
X54785120Y-36489465D01*
X54590535Y-36294880D01*
X54361727Y-36141995D01*
X54107490Y-36036686D01*
X53837592Y-35983000D01*
X53562408Y-35983000D01*
X53292510Y-36036686D01*
X53038273Y-36141995D01*
X52809465Y-36294880D01*
X52614880Y-36489465D01*
X52461995Y-36718273D01*
X52430000Y-36795515D01*
X52398005Y-36718273D01*
X52245120Y-36489465D01*
X52050535Y-36294880D01*
X51821727Y-36141995D01*
X51567490Y-36036686D01*
X51297592Y-35983000D01*
X51022408Y-35983000D01*
X50752510Y-36036686D01*
X50498273Y-36141995D01*
X50269465Y-36294880D01*
X50074880Y-36489465D01*
X49921995Y-36718273D01*
X49890000Y-36795515D01*
X49858005Y-36718273D01*
X49705120Y-36489465D01*
X49510535Y-36294880D01*
X49281727Y-36141995D01*
X49027490Y-36036686D01*
X48757592Y-35983000D01*
X48482408Y-35983000D01*
X48212510Y-36036686D01*
X47958273Y-36141995D01*
X47729465Y-36294880D01*
X47534880Y-36489465D01*
X47381995Y-36718273D01*
X47350000Y-36795515D01*
X47318005Y-36718273D01*
X47165120Y-36489465D01*
X46970535Y-36294880D01*
X46741727Y-36141995D01*
X46487490Y-36036686D01*
X46217592Y-35983000D01*
X45942408Y-35983000D01*
X45672510Y-36036686D01*
X45418273Y-36141995D01*
X45189465Y-36294880D01*
X44994880Y-36489465D01*
X44841995Y-36718273D01*
X44810000Y-36795515D01*
X44778005Y-36718273D01*
X44625120Y-36489465D01*
X44430535Y-36294880D01*
X44201727Y-36141995D01*
X43947490Y-36036686D01*
X43677592Y-35983000D01*
X43402408Y-35983000D01*
X43132510Y-36036686D01*
X42878273Y-36141995D01*
X42649465Y-36294880D01*
X42454880Y-36489465D01*
X42301995Y-36718273D01*
X42270000Y-36795515D01*
X42238005Y-36718273D01*
X42085120Y-36489465D01*
X41890535Y-36294880D01*
X41661727Y-36141995D01*
X41407490Y-36036686D01*
X41137592Y-35983000D01*
X40862408Y-35983000D01*
X40860596Y-35983360D01*
X39779499Y-34902264D01*
X39751659Y-34868341D01*
X39616291Y-34757247D01*
X39461851Y-34674697D01*
X39294274Y-34623864D01*
X39163667Y-34611000D01*
X39163660Y-34611000D01*
X39120000Y-34606700D01*
X39076340Y-34611000D01*
X27532468Y-34611000D01*
X27490256Y-34582795D01*
X27301898Y-34504774D01*
X27101939Y-34465000D01*
X26898061Y-34465000D01*
X26698102Y-34504774D01*
X26509744Y-34582795D01*
X26340226Y-34696063D01*
X26196063Y-34840226D01*
X26082795Y-35009744D01*
X26004774Y-35198102D01*
X25965000Y-35398061D01*
X25965000Y-35601939D01*
X26004774Y-35801898D01*
X26082795Y-35990256D01*
X26196063Y-36159774D01*
X26340226Y-36303937D01*
X26509744Y-36417205D01*
X26698102Y-36495226D01*
X26898061Y-36535000D01*
X27101939Y-36535000D01*
X27197102Y-36516071D01*
X27061995Y-36718273D01*
X26956686Y-36972510D01*
X26903000Y-37242408D01*
X26903000Y-37517592D01*
X26956686Y-37787490D01*
X26992106Y-37873000D01*
X26000000Y-37873000D01*
X25975224Y-37875440D01*
X25951399Y-37882667D01*
X25929443Y-37894403D01*
X25910197Y-37910197D01*
X25894403Y-37929443D01*
X25882667Y-37951399D01*
X25875440Y-37975224D01*
X25873000Y-38000000D01*
X25873000Y-50873000D01*
X20685000Y-50873000D01*
X20685000Y-37242408D01*
X21823000Y-37242408D01*
X21823000Y-37517592D01*
X21876686Y-37787490D01*
X21981995Y-38041727D01*
X22134880Y-38270535D01*
X22329465Y-38465120D01*
X22558273Y-38618005D01*
X22812510Y-38723314D01*
X23082408Y-38777000D01*
X23357592Y-38777000D01*
X23627490Y-38723314D01*
X23881727Y-38618005D01*
X24110535Y-38465120D01*
X24305120Y-38270535D01*
X24458005Y-38041727D01*
X24563314Y-37787490D01*
X24617000Y-37517592D01*
X24617000Y-37242408D01*
X24563314Y-36972510D01*
X24490000Y-36795515D01*
X24490000Y-34536050D01*
X29756051Y-29270000D01*
X29924299Y-29270000D01*
X29969463Y-29354494D01*
X30048815Y-29451185D01*
X30145506Y-29530537D01*
X30255820Y-29589502D01*
X30375518Y-29625812D01*
X30500000Y-29638072D01*
X32500000Y-29638072D01*
X32624482Y-29625812D01*
X32744180Y-29589502D01*
X32854494Y-29530537D01*
X32951185Y-29451185D01*
X33030537Y-29354494D01*
X33089502Y-29244180D01*
X33125812Y-29124482D01*
X33138072Y-29000000D01*
X33138072Y-27000000D01*
X33125812Y-26875518D01*
X33089502Y-26755820D01*
X33030537Y-26645506D01*
X32951185Y-26548815D01*
X32854494Y-26469463D01*
X32744180Y-26410498D01*
X32624482Y-26374188D01*
X32500000Y-26361928D01*
X30500000Y-26361928D01*
X30375518Y-26374188D01*
X30255820Y-26410498D01*
X30145506Y-26469463D01*
X30048815Y-26548815D01*
X29969463Y-26645506D01*
X29924299Y-26730000D01*
X29292380Y-26730000D01*
X29230000Y-26723856D01*
X29167620Y-26730000D01*
X28981037Y-26748377D01*
X28741641Y-26820997D01*
X28521012Y-26938925D01*
X28327630Y-27097630D01*
X28287863Y-27146086D01*
X22366091Y-33067859D01*
X22317630Y-33107630D01*
X22158925Y-33301013D01*
X22040997Y-33521642D01*
X21968377Y-33761038D01*
X21950000Y-33947621D01*
X21950000Y-33947627D01*
X21943857Y-34010000D01*
X21950000Y-34072373D01*
X21950001Y-36239981D01*
X21950000Y-36239991D01*
X21950000Y-36795515D01*
X21876686Y-36972510D01*
X21823000Y-37242408D01*
X20685000Y-37242408D01*
X20685000Y-23779872D01*
X21765000Y-23779872D01*
X21765000Y-24220128D01*
X21850890Y-24651925D01*
X22019369Y-25058669D01*
X22263962Y-25424729D01*
X22575271Y-25736038D01*
X22941331Y-25980631D01*
X23348075Y-26149110D01*
X23779872Y-26235000D01*
X24220128Y-26235000D01*
X24651925Y-26149110D01*
X25058669Y-25980631D01*
X25424729Y-25736038D01*
X25736038Y-25424729D01*
X25980631Y-25058669D01*
X26149110Y-24651925D01*
X26235000Y-24220128D01*
X26235000Y-23779872D01*
X26149110Y-23348075D01*
X26067065Y-23150000D01*
X41511928Y-23150000D01*
X41511928Y-24850000D01*
X41524188Y-24974482D01*
X41560498Y-25094180D01*
X41619463Y-25204494D01*
X41698815Y-25301185D01*
X41795506Y-25380537D01*
X41905820Y-25439502D01*
X42025518Y-25475812D01*
X42150000Y-25488072D01*
X43850000Y-25488072D01*
X43974482Y-25475812D01*
X44094180Y-25439502D01*
X44204494Y-25380537D01*
X44301185Y-25301185D01*
X44380537Y-25204494D01*
X44439502Y-25094180D01*
X44461513Y-25021620D01*
X44593368Y-25153475D01*
X44836589Y-25315990D01*
X45106842Y-25427932D01*
X45393740Y-25485000D01*
X45686260Y-25485000D01*
X45973158Y-25427932D01*
X46243411Y-25315990D01*
X46486632Y-25153475D01*
X46693475Y-24946632D01*
X46810000Y-24772240D01*
X46926525Y-24946632D01*
X47133368Y-25153475D01*
X47376589Y-25315990D01*
X47646842Y-25427932D01*
X47933740Y-25485000D01*
X48226260Y-25485000D01*
X48513158Y-25427932D01*
X48783411Y-25315990D01*
X49026632Y-25153475D01*
X49233475Y-24946632D01*
X49395990Y-24703411D01*
X49507932Y-24433158D01*
X49565000Y-24146260D01*
X49565000Y-23853740D01*
X60435000Y-23853740D01*
X60435000Y-24146260D01*
X60492068Y-24433158D01*
X60604010Y-24703411D01*
X60766525Y-24946632D01*
X60973368Y-25153475D01*
X61216589Y-25315990D01*
X61486842Y-25427932D01*
X61773740Y-25485000D01*
X62066260Y-25485000D01*
X62353158Y-25427932D01*
X62623411Y-25315990D01*
X62866632Y-25153475D01*
X63073475Y-24946632D01*
X63190000Y-24772240D01*
X63306525Y-24946632D01*
X63513368Y-25153475D01*
X63756589Y-25315990D01*
X64026842Y-25427932D01*
X64313740Y-25485000D01*
X64606260Y-25485000D01*
X64893158Y-25427932D01*
X65163411Y-25315990D01*
X65406632Y-25153475D01*
X65613475Y-24946632D01*
X65775990Y-24703411D01*
X65887932Y-24433158D01*
X65945000Y-24146260D01*
X65945000Y-23853740D01*
X65887932Y-23566842D01*
X65775990Y-23296589D01*
X65613475Y-23053368D01*
X65406632Y-22846525D01*
X65163411Y-22684010D01*
X64893158Y-22572068D01*
X64606260Y-22515000D01*
X64313740Y-22515000D01*
X64026842Y-22572068D01*
X63756589Y-22684010D01*
X63513368Y-22846525D01*
X63306525Y-23053368D01*
X63190000Y-23227760D01*
X63073475Y-23053368D01*
X62866632Y-22846525D01*
X62623411Y-22684010D01*
X62353158Y-22572068D01*
X62066260Y-22515000D01*
X61773740Y-22515000D01*
X61486842Y-22572068D01*
X61216589Y-22684010D01*
X60973368Y-22846525D01*
X60766525Y-23053368D01*
X60604010Y-23296589D01*
X60492068Y-23566842D01*
X60435000Y-23853740D01*
X49565000Y-23853740D01*
X49507932Y-23566842D01*
X49395990Y-23296589D01*
X49233475Y-23053368D01*
X49026632Y-22846525D01*
X48783411Y-22684010D01*
X48513158Y-22572068D01*
X48226260Y-22515000D01*
X47933740Y-22515000D01*
X47646842Y-22572068D01*
X47376589Y-22684010D01*
X47133368Y-22846525D01*
X46926525Y-23053368D01*
X46810000Y-23227760D01*
X46693475Y-23053368D01*
X46486632Y-22846525D01*
X46243411Y-22684010D01*
X45973158Y-22572068D01*
X45686260Y-22515000D01*
X45393740Y-22515000D01*
X45106842Y-22572068D01*
X44836589Y-22684010D01*
X44593368Y-22846525D01*
X44461513Y-22978380D01*
X44439502Y-22905820D01*
X44380537Y-22795506D01*
X44301185Y-22698815D01*
X44204494Y-22619463D01*
X44094180Y-22560498D01*
X43974482Y-22524188D01*
X43850000Y-22511928D01*
X42150000Y-22511928D01*
X42025518Y-22524188D01*
X41905820Y-22560498D01*
X41795506Y-22619463D01*
X41698815Y-22698815D01*
X41619463Y-22795506D01*
X41560498Y-22905820D01*
X41524188Y-23025518D01*
X41511928Y-23150000D01*
X26067065Y-23150000D01*
X25980631Y-22941331D01*
X25736038Y-22575271D01*
X25424729Y-22263962D01*
X25058669Y-22019369D01*
X24651925Y-21850890D01*
X24220128Y-21765000D01*
X23779872Y-21765000D01*
X23348075Y-21850890D01*
X22941331Y-22019369D01*
X22575271Y-22263962D01*
X22263962Y-22575271D01*
X22019369Y-22941331D01*
X21850890Y-23348075D01*
X21765000Y-23779872D01*
X20685000Y-23779872D01*
X20685000Y-20685000D01*
X69873000Y-20685000D01*
X69873000Y-34873000D01*
G36*
X25873000Y-51223000D02*
G01*
X25622408Y-51223000D01*
X25352510Y-51276686D01*
X25098273Y-51381995D01*
X24869465Y-51534880D01*
X24674880Y-51729465D01*
X24521995Y-51958273D01*
X24490000Y-52035515D01*
X24458005Y-51958273D01*
X24305120Y-51729465D01*
X24110535Y-51534880D01*
X23881727Y-51381995D01*
X23627490Y-51276686D01*
X23357592Y-51223000D01*
X23082408Y-51223000D01*
X22812510Y-51276686D01*
X22558273Y-51381995D01*
X22329465Y-51534880D01*
X22134880Y-51729465D01*
X21981995Y-51958273D01*
X21876686Y-52212510D01*
X21823000Y-52482408D01*
X21823000Y-52757592D01*
X21876686Y-53027490D01*
X21981995Y-53281727D01*
X22134880Y-53510535D01*
X22329465Y-53705120D01*
X22558273Y-53858005D01*
X22594474Y-53873000D01*
X20685000Y-53873000D01*
X20685000Y-50127000D01*
X25873000Y-50127000D01*
X25873000Y-51223000D01*
G37*
X25873000Y-51223000D02*
X25622408Y-51223000D01*
X25352510Y-51276686D01*
X25098273Y-51381995D01*
X24869465Y-51534880D01*
X24674880Y-51729465D01*
X24521995Y-51958273D01*
X24490000Y-52035515D01*
X24458005Y-51958273D01*
X24305120Y-51729465D01*
X24110535Y-51534880D01*
X23881727Y-51381995D01*
X23627490Y-51276686D01*
X23357592Y-51223000D01*
X23082408Y-51223000D01*
X22812510Y-51276686D01*
X22558273Y-51381995D01*
X22329465Y-51534880D01*
X22134880Y-51729465D01*
X21981995Y-51958273D01*
X21876686Y-52212510D01*
X21823000Y-52482408D01*
X21823000Y-52757592D01*
X21876686Y-53027490D01*
X21981995Y-53281727D01*
X22134880Y-53510535D01*
X22329465Y-53705120D01*
X22558273Y-53858005D01*
X22594474Y-53873000D01*
X20685000Y-53873000D01*
X20685000Y-50127000D01*
X25873000Y-50127000D01*
X25873000Y-51223000D01*
G36*
X119315001Y-72023816D02*
G01*
X117437275Y-70146091D01*
X117397504Y-70097630D01*
X117204122Y-69938925D01*
X116983493Y-69820997D01*
X116744097Y-69748377D01*
X116557514Y-69730000D01*
X116557507Y-69730000D01*
X116495134Y-69723857D01*
X116432761Y-69730000D01*
X115526051Y-69730000D01*
X111942144Y-66146094D01*
X111942135Y-66146083D01*
X111942132Y-66146080D01*
X111902370Y-66097630D01*
X111853918Y-66057866D01*
X111575924Y-65779872D01*
X113765000Y-65779872D01*
X113765000Y-66220128D01*
X113850890Y-66651925D01*
X114019369Y-67058669D01*
X114263962Y-67424729D01*
X114575271Y-67736038D01*
X114941331Y-67980631D01*
X115348075Y-68149110D01*
X115779872Y-68235000D01*
X116220128Y-68235000D01*
X116651925Y-68149110D01*
X117058669Y-67980631D01*
X117424729Y-67736038D01*
X117736038Y-67424729D01*
X117980631Y-67058669D01*
X118149110Y-66651925D01*
X118235000Y-66220128D01*
X118235000Y-65779872D01*
X118149110Y-65348075D01*
X117980631Y-64941331D01*
X117736038Y-64575271D01*
X117424729Y-64263962D01*
X117058669Y-64019369D01*
X116651925Y-63850890D01*
X116220128Y-63765000D01*
X115779872Y-63765000D01*
X115348075Y-63850890D01*
X114941331Y-64019369D01*
X114575271Y-64263962D01*
X114263962Y-64575271D01*
X114019369Y-64941331D01*
X113850890Y-65348075D01*
X113765000Y-65779872D01*
X111575924Y-65779872D01*
X109445228Y-63649177D01*
X109428798Y-63566579D01*
X109316788Y-63296162D01*
X109154174Y-63052794D01*
X108947206Y-62845826D01*
X108703838Y-62683212D01*
X108433421Y-62571202D01*
X108146348Y-62514100D01*
X107853652Y-62514100D01*
X107566579Y-62571202D01*
X107296162Y-62683212D01*
X107052794Y-62845826D01*
X106845826Y-63052794D01*
X106683212Y-63296162D01*
X106571202Y-63566579D01*
X106514100Y-63853652D01*
X106514100Y-64146348D01*
X106571202Y-64433421D01*
X106683212Y-64703838D01*
X106845826Y-64947206D01*
X107052794Y-65154174D01*
X107296162Y-65316788D01*
X107566579Y-65428798D01*
X107649177Y-65445228D01*
X107933949Y-65730000D01*
X81062380Y-65730000D01*
X81000000Y-65723856D01*
X80937620Y-65730000D01*
X80751037Y-65748377D01*
X80511641Y-65820997D01*
X80291012Y-65938925D01*
X80216592Y-66000000D01*
X80146083Y-66057865D01*
X80146082Y-66057866D01*
X80097630Y-66097630D01*
X80057868Y-66146080D01*
X75146086Y-71057864D01*
X75097631Y-71097630D01*
X74938926Y-71291012D01*
X74829203Y-71496291D01*
X74820998Y-71511641D01*
X74748377Y-71751037D01*
X74723857Y-72000000D01*
X74730001Y-72062383D01*
X74730000Y-80062627D01*
X74723857Y-80125000D01*
X74730000Y-80187373D01*
X74730000Y-80187379D01*
X74748377Y-80373962D01*
X74820997Y-80613358D01*
X74938925Y-80833987D01*
X75097630Y-81027370D01*
X75146091Y-81067141D01*
X76146084Y-82067135D01*
X76291012Y-82186074D01*
X76511641Y-82304003D01*
X76751037Y-82376623D01*
X77000000Y-82401144D01*
X77248963Y-82376623D01*
X77488359Y-82304003D01*
X77708987Y-82186074D01*
X77902370Y-82027370D01*
X78061074Y-81833987D01*
X78179003Y-81613359D01*
X78251623Y-81373963D01*
X78276144Y-81125000D01*
X78251623Y-80876037D01*
X78179003Y-80636641D01*
X78061074Y-80416012D01*
X77942135Y-80271084D01*
X77270000Y-79598950D01*
X77270000Y-72526050D01*
X80536598Y-69259454D01*
X80571202Y-69433421D01*
X80683212Y-69703838D01*
X80730001Y-69773862D01*
X80730000Y-71062379D01*
X80730001Y-71062389D01*
X80730001Y-73018008D01*
X80669180Y-72985498D01*
X80549482Y-72949188D01*
X80425000Y-72936928D01*
X79575000Y-72936928D01*
X79450518Y-72949188D01*
X79330820Y-72985498D01*
X79220506Y-73044463D01*
X79123815Y-73123815D01*
X79044463Y-73220506D01*
X78985498Y-73330820D01*
X78949188Y-73450518D01*
X78936928Y-73575000D01*
X78936928Y-74425000D01*
X78949188Y-74549482D01*
X78985498Y-74669180D01*
X79044463Y-74779494D01*
X79123815Y-74876185D01*
X79220506Y-74955537D01*
X79330820Y-75014502D01*
X79450518Y-75050812D01*
X79575000Y-75063072D01*
X80425000Y-75063072D01*
X80549482Y-75050812D01*
X80669180Y-75014502D01*
X80730001Y-74981992D01*
X80730000Y-77018008D01*
X80669180Y-76985498D01*
X80549482Y-76949188D01*
X80425000Y-76936928D01*
X79575000Y-76936928D01*
X79450518Y-76949188D01*
X79330820Y-76985498D01*
X79220506Y-77044463D01*
X79123815Y-77123815D01*
X79044463Y-77220506D01*
X78985498Y-77330820D01*
X78949188Y-77450518D01*
X78936928Y-77575000D01*
X78936928Y-78425000D01*
X78949188Y-78549482D01*
X78985498Y-78669180D01*
X79044463Y-78779494D01*
X79123815Y-78876185D01*
X79220506Y-78955537D01*
X79330820Y-79014502D01*
X79450518Y-79050812D01*
X79575000Y-79063072D01*
X80425000Y-79063072D01*
X80549482Y-79050812D01*
X80669180Y-79014502D01*
X80730000Y-78981992D01*
X80730000Y-81062379D01*
X80748377Y-81248962D01*
X80820997Y-81488358D01*
X80938925Y-81708987D01*
X81097630Y-81902370D01*
X81291012Y-82061075D01*
X81511641Y-82179003D01*
X81751037Y-82251623D01*
X82000000Y-82276144D01*
X82248962Y-82251623D01*
X82488358Y-82179003D01*
X82708987Y-82061075D01*
X82902370Y-81902370D01*
X83061075Y-81708988D01*
X83179003Y-81488359D01*
X83251623Y-81248963D01*
X83270000Y-81062380D01*
X83270000Y-69773861D01*
X83316788Y-69703838D01*
X83428798Y-69433421D01*
X83485900Y-69146348D01*
X83485900Y-68853652D01*
X83428798Y-68566579D01*
X83316788Y-68296162D01*
X83299307Y-68270000D01*
X90933949Y-68270000D01*
X89146086Y-70057864D01*
X89097631Y-70097630D01*
X88938926Y-70291012D01*
X88838179Y-70479498D01*
X88820998Y-70511641D01*
X88748377Y-70751037D01*
X88723857Y-71000000D01*
X88730001Y-71062379D01*
X88730000Y-78937627D01*
X88723857Y-79000000D01*
X88730000Y-79062373D01*
X88730000Y-79062379D01*
X88745844Y-79223244D01*
X88748377Y-79248963D01*
X88761133Y-79291012D01*
X88820997Y-79488358D01*
X88938925Y-79708987D01*
X89097630Y-79902370D01*
X89146091Y-79942141D01*
X91057863Y-81853914D01*
X91097630Y-81902370D01*
X91291012Y-82061075D01*
X91511641Y-82179003D01*
X91678416Y-82229594D01*
X91751036Y-82251623D01*
X91776755Y-82254156D01*
X91937620Y-82270000D01*
X91937626Y-82270000D01*
X91999999Y-82276143D01*
X92062372Y-82270000D01*
X92062380Y-82270000D01*
X92248963Y-82251623D01*
X92488359Y-82179003D01*
X92708988Y-82061075D01*
X92902370Y-81902370D01*
X93061075Y-81708988D01*
X93179003Y-81488359D01*
X93251623Y-81248963D01*
X93276144Y-81000000D01*
X93251623Y-80751037D01*
X93237332Y-80703924D01*
X93209859Y-80613359D01*
X93179003Y-80511641D01*
X93061075Y-80291012D01*
X92902370Y-80097630D01*
X92853914Y-80057863D01*
X91270000Y-78473950D01*
X91270000Y-71526050D01*
X92221050Y-70575000D01*
X98936928Y-70575000D01*
X98936928Y-71425000D01*
X98949188Y-71549482D01*
X98985498Y-71669180D01*
X99044463Y-71779494D01*
X99123815Y-71876185D01*
X99220506Y-71955537D01*
X99330820Y-72014502D01*
X99450518Y-72050812D01*
X99575000Y-72063072D01*
X100425000Y-72063072D01*
X100549482Y-72050812D01*
X100669180Y-72014502D01*
X100779494Y-71955537D01*
X100876185Y-71876185D01*
X100955537Y-71779494D01*
X101014502Y-71669180D01*
X101050812Y-71549482D01*
X101063072Y-71425000D01*
X101063072Y-70575000D01*
X101050812Y-70450518D01*
X101014502Y-70330820D01*
X100955537Y-70220506D01*
X100876185Y-70123815D01*
X100779494Y-70044463D01*
X100669180Y-69985498D01*
X100549482Y-69949188D01*
X100425000Y-69936928D01*
X99575000Y-69936928D01*
X99450518Y-69949188D01*
X99330820Y-69985498D01*
X99220506Y-70044463D01*
X99123815Y-70123815D01*
X99044463Y-70220506D01*
X98985498Y-70330820D01*
X98949188Y-70450518D01*
X98936928Y-70575000D01*
X92221050Y-70575000D01*
X93056041Y-69740010D01*
X109846813Y-69740010D01*
X109938925Y-69912341D01*
X110097630Y-70105724D01*
X110146091Y-70145495D01*
X112730595Y-72730000D01*
X108526051Y-72730000D01*
X107942141Y-72146091D01*
X107902370Y-72097630D01*
X107708988Y-71938925D01*
X107488359Y-71820997D01*
X107248963Y-71748377D01*
X107062380Y-71730000D01*
X107062373Y-71730000D01*
X107000000Y-71723857D01*
X106937627Y-71730000D01*
X106937620Y-71730000D01*
X106751037Y-71748377D01*
X106511641Y-71820997D01*
X106291012Y-71938925D01*
X106097630Y-72097630D01*
X105938925Y-72291012D01*
X105820997Y-72511641D01*
X105748377Y-72751037D01*
X105723856Y-73000000D01*
X105748377Y-73248963D01*
X105820997Y-73488359D01*
X105938925Y-73708988D01*
X106097630Y-73902370D01*
X106146091Y-73942141D01*
X107057863Y-74853914D01*
X107097630Y-74902370D01*
X107291012Y-75061075D01*
X107465189Y-75154174D01*
X107511641Y-75179003D01*
X107751037Y-75251623D01*
X108000000Y-75276144D01*
X108062380Y-75270000D01*
X115734266Y-75270000D01*
X115796646Y-75276144D01*
X115859026Y-75270000D01*
X116226139Y-75270000D01*
X116296162Y-75316788D01*
X116566579Y-75428798D01*
X116853652Y-75485900D01*
X117146348Y-75485900D01*
X117433421Y-75428798D01*
X117703838Y-75316788D01*
X117730000Y-75299307D01*
X117730001Y-76852090D01*
X108532468Y-76852090D01*
X108490256Y-76823885D01*
X108301898Y-76745864D01*
X108101939Y-76706090D01*
X107898061Y-76706090D01*
X107698102Y-76745864D01*
X107509744Y-76823885D01*
X107340226Y-76937153D01*
X107196063Y-77081316D01*
X107082795Y-77250834D01*
X107004774Y-77439192D01*
X106965000Y-77639151D01*
X106965000Y-77843029D01*
X107004774Y-78042988D01*
X107082795Y-78231346D01*
X107196063Y-78400864D01*
X107340226Y-78545027D01*
X107509744Y-78658295D01*
X107698102Y-78736316D01*
X107898061Y-78776090D01*
X108101939Y-78776090D01*
X108301898Y-78736316D01*
X108490256Y-78658295D01*
X108532468Y-78630090D01*
X117730000Y-78630090D01*
X117730000Y-79018007D01*
X117669180Y-78985498D01*
X117549482Y-78949188D01*
X117425000Y-78936928D01*
X116575000Y-78936928D01*
X116450518Y-78949188D01*
X116330820Y-78985498D01*
X116220506Y-79044463D01*
X116123815Y-79123815D01*
X116044463Y-79220506D01*
X115985498Y-79330820D01*
X115949188Y-79450518D01*
X115936928Y-79575000D01*
X115936928Y-80425000D01*
X115949188Y-80549482D01*
X115985498Y-80669180D01*
X116044463Y-80779494D01*
X116123815Y-80876185D01*
X116220506Y-80955537D01*
X116330820Y-81014502D01*
X116450518Y-81050812D01*
X116575000Y-81063072D01*
X117425000Y-81063072D01*
X117549482Y-81050812D01*
X117669180Y-81014502D01*
X117730000Y-80981992D01*
X117730001Y-83018008D01*
X117669180Y-82985498D01*
X117549482Y-82949188D01*
X117425000Y-82936928D01*
X116575000Y-82936928D01*
X116450518Y-82949188D01*
X116330820Y-82985498D01*
X116220506Y-83044463D01*
X116123815Y-83123815D01*
X116044463Y-83220506D01*
X115985498Y-83330820D01*
X115949188Y-83450518D01*
X115936928Y-83575000D01*
X115936928Y-84425000D01*
X115949188Y-84549482D01*
X115985498Y-84669180D01*
X116044463Y-84779494D01*
X116123815Y-84876185D01*
X116220506Y-84955537D01*
X116330820Y-85014502D01*
X116450518Y-85050812D01*
X116575000Y-85063072D01*
X117140877Y-85063072D01*
X116649177Y-85554772D01*
X116566579Y-85571202D01*
X116296162Y-85683212D01*
X116052794Y-85845826D01*
X115845826Y-86052794D01*
X115683212Y-86296162D01*
X115571202Y-86566579D01*
X115514100Y-86853652D01*
X115514100Y-86945703D01*
X115425000Y-86936928D01*
X114575000Y-86936928D01*
X114450518Y-86949188D01*
X114330820Y-86985498D01*
X114220506Y-87044463D01*
X114123815Y-87123815D01*
X114044463Y-87220506D01*
X113985498Y-87330820D01*
X113949188Y-87450518D01*
X113936928Y-87575000D01*
X113936928Y-87990001D01*
X113786052Y-87990001D01*
X107942141Y-82146090D01*
X107902370Y-82097630D01*
X107708988Y-81938925D01*
X107488359Y-81820997D01*
X107248963Y-81748377D01*
X107062380Y-81730000D01*
X107062373Y-81730000D01*
X107000000Y-81723857D01*
X106937627Y-81730000D01*
X106937620Y-81730000D01*
X106751037Y-81748377D01*
X106511641Y-81820997D01*
X106291012Y-81938925D01*
X106097630Y-82097630D01*
X105938925Y-82291012D01*
X105820997Y-82511641D01*
X105748377Y-82751037D01*
X105723856Y-83000000D01*
X105748377Y-83248963D01*
X105820997Y-83488359D01*
X105938925Y-83708988D01*
X106097630Y-83902370D01*
X106146090Y-83942141D01*
X112317864Y-90113915D01*
X112357631Y-90162371D01*
X112551013Y-90321076D01*
X112771642Y-90439004D01*
X112924978Y-90485518D01*
X113011037Y-90511624D01*
X113036756Y-90514157D01*
X113197621Y-90530001D01*
X113197627Y-90530001D01*
X113260000Y-90536144D01*
X113322373Y-90530001D01*
X115733951Y-90530001D01*
X117730001Y-92526053D01*
X117730000Y-107473948D01*
X115473950Y-109730000D01*
X114062373Y-109730000D01*
X114000000Y-109723857D01*
X113937627Y-109730000D01*
X113937620Y-109730000D01*
X113774347Y-109746081D01*
X113751036Y-109748377D01*
X113511640Y-109820997D01*
X113434790Y-109862075D01*
X113291012Y-109938925D01*
X113097630Y-110097630D01*
X113057865Y-110146084D01*
X106473950Y-116730000D01*
X94985782Y-116730000D01*
X95830754Y-115961144D01*
X95902370Y-115902370D01*
X95962734Y-115828816D01*
X96026494Y-115758191D01*
X96041945Y-115732298D01*
X96061075Y-115708988D01*
X96105930Y-115625070D01*
X96154686Y-115543363D01*
X96164789Y-115514951D01*
X96179003Y-115488359D01*
X96206623Y-115397309D01*
X96238504Y-115307654D01*
X96242870Y-115277817D01*
X96251623Y-115248963D01*
X96260949Y-115154275D01*
X96274727Y-115060123D01*
X96270000Y-114967597D01*
X96270000Y-109062372D01*
X96276143Y-108999999D01*
X96270000Y-108937626D01*
X96270000Y-108937620D01*
X96251623Y-108751037D01*
X96179003Y-108511641D01*
X96061075Y-108291012D01*
X95902370Y-108097630D01*
X95853915Y-108057864D01*
X93371051Y-105575000D01*
X105936928Y-105575000D01*
X105936928Y-106425000D01*
X105949188Y-106549482D01*
X105985498Y-106669180D01*
X106044463Y-106779494D01*
X106123815Y-106876185D01*
X106220506Y-106955537D01*
X106330820Y-107014502D01*
X106450518Y-107050812D01*
X106575000Y-107063072D01*
X107425000Y-107063072D01*
X107549482Y-107050812D01*
X107669180Y-107014502D01*
X107779494Y-106955537D01*
X107876185Y-106876185D01*
X107955537Y-106779494D01*
X108014502Y-106669180D01*
X108050812Y-106549482D01*
X108063072Y-106425000D01*
X108063072Y-105575000D01*
X108050812Y-105450518D01*
X108014502Y-105330820D01*
X107955537Y-105220506D01*
X107876185Y-105123815D01*
X107779494Y-105044463D01*
X107669180Y-104985498D01*
X107549482Y-104949188D01*
X107425000Y-104936928D01*
X106575000Y-104936928D01*
X106450518Y-104949188D01*
X106330820Y-104985498D01*
X106220506Y-105044463D01*
X106123815Y-105123815D01*
X106044463Y-105220506D01*
X105985498Y-105330820D01*
X105949188Y-105450518D01*
X105936928Y-105575000D01*
X93371051Y-105575000D01*
X92270000Y-104473950D01*
X92270000Y-101062380D01*
X92276144Y-101000000D01*
X92251623Y-100751037D01*
X92179003Y-100511641D01*
X92177989Y-100509744D01*
X92061075Y-100291012D01*
X91969151Y-100179003D01*
X91942135Y-100146083D01*
X91942132Y-100146080D01*
X91902370Y-100097630D01*
X91853921Y-100057869D01*
X89270000Y-97473950D01*
X89270000Y-96937620D01*
X89251623Y-96751037D01*
X89179003Y-96511641D01*
X89061075Y-96291012D01*
X88902370Y-96097630D01*
X88708987Y-95938925D01*
X88488358Y-95820997D01*
X88248962Y-95748377D01*
X88000000Y-95723856D01*
X87751037Y-95748377D01*
X87511641Y-95820997D01*
X87291012Y-95938925D01*
X87097630Y-96097630D01*
X86938925Y-96291013D01*
X86820997Y-96511642D01*
X86748377Y-96751038D01*
X86730000Y-96937621D01*
X86730000Y-97937627D01*
X86723857Y-98000000D01*
X86730000Y-98062373D01*
X86730000Y-98062380D01*
X86748377Y-98248963D01*
X86820997Y-98488359D01*
X86938925Y-98708988D01*
X87097631Y-98902370D01*
X87146086Y-98942136D01*
X89730000Y-101526052D01*
X89730001Y-104937617D01*
X89723857Y-105000000D01*
X89748377Y-105248963D01*
X89773682Y-105332380D01*
X89820998Y-105488359D01*
X89938926Y-105708988D01*
X90097631Y-105902370D01*
X90146087Y-105942137D01*
X93730000Y-109526051D01*
X93730000Y-111018008D01*
X93669180Y-110985498D01*
X93549482Y-110949188D01*
X93425000Y-110936928D01*
X92575000Y-110936928D01*
X92450518Y-110949188D01*
X92330820Y-110985498D01*
X92220506Y-111044463D01*
X92123815Y-111123815D01*
X92044463Y-111220506D01*
X91985498Y-111330820D01*
X91949188Y-111450518D01*
X91936928Y-111575000D01*
X91936928Y-112425000D01*
X91949188Y-112549482D01*
X91985498Y-112669180D01*
X92044463Y-112779494D01*
X92123815Y-112876185D01*
X92220506Y-112955537D01*
X92330820Y-113014502D01*
X92450518Y-113050812D01*
X92575000Y-113063072D01*
X93425000Y-113063072D01*
X93549482Y-113050812D01*
X93669180Y-113014502D01*
X93730001Y-112981992D01*
X93730001Y-114438533D01*
X91211682Y-116730000D01*
X89258224Y-116730000D01*
X89275990Y-116703411D01*
X89387932Y-116433158D01*
X89445000Y-116146260D01*
X89445000Y-115853740D01*
X89387932Y-115566842D01*
X89275990Y-115296589D01*
X89113475Y-115053368D01*
X88906632Y-114846525D01*
X88663411Y-114684010D01*
X88393158Y-114572068D01*
X88106260Y-114515000D01*
X87813740Y-114515000D01*
X87526842Y-114572068D01*
X87256589Y-114684010D01*
X87013368Y-114846525D01*
X86806525Y-115053368D01*
X86690000Y-115227760D01*
X86573475Y-115053368D01*
X86366632Y-114846525D01*
X86123411Y-114684010D01*
X85853158Y-114572068D01*
X85566260Y-114515000D01*
X85273740Y-114515000D01*
X84986842Y-114572068D01*
X84716589Y-114684010D01*
X84473368Y-114846525D01*
X84266525Y-115053368D01*
X84150000Y-115227760D01*
X84033475Y-115053368D01*
X83826632Y-114846525D01*
X83583411Y-114684010D01*
X83313158Y-114572068D01*
X83026260Y-114515000D01*
X82733740Y-114515000D01*
X82446842Y-114572068D01*
X82176589Y-114684010D01*
X81933368Y-114846525D01*
X81726525Y-115053368D01*
X81610000Y-115227760D01*
X81493475Y-115053368D01*
X81286632Y-114846525D01*
X81043411Y-114684010D01*
X80773158Y-114572068D01*
X80486260Y-114515000D01*
X80193740Y-114515000D01*
X79906842Y-114572068D01*
X79636589Y-114684010D01*
X79393368Y-114846525D01*
X79186525Y-115053368D01*
X79070000Y-115227760D01*
X78953475Y-115053368D01*
X78746632Y-114846525D01*
X78503411Y-114684010D01*
X78233158Y-114572068D01*
X77946260Y-114515000D01*
X77653740Y-114515000D01*
X77366842Y-114572068D01*
X77096589Y-114684010D01*
X76853368Y-114846525D01*
X76646525Y-115053368D01*
X76484010Y-115296589D01*
X76372068Y-115566842D01*
X76315000Y-115853740D01*
X76315000Y-116146260D01*
X76372068Y-116433158D01*
X76484010Y-116703411D01*
X76501776Y-116730000D01*
X64918224Y-116730000D01*
X64935990Y-116703411D01*
X65047932Y-116433158D01*
X65105000Y-116146260D01*
X65105000Y-115853740D01*
X65047932Y-115566842D01*
X64935990Y-115296589D01*
X64773475Y-115053368D01*
X64566632Y-114846525D01*
X64323411Y-114684010D01*
X64053158Y-114572068D01*
X63766260Y-114515000D01*
X63473740Y-114515000D01*
X63186842Y-114572068D01*
X62916589Y-114684010D01*
X62673368Y-114846525D01*
X62466525Y-115053368D01*
X62350000Y-115227760D01*
X62233475Y-115053368D01*
X62026632Y-114846525D01*
X61783411Y-114684010D01*
X61513158Y-114572068D01*
X61431969Y-114555918D01*
X60022141Y-113146091D01*
X59982370Y-113097630D01*
X59788988Y-112938925D01*
X59568359Y-112820997D01*
X59328963Y-112748377D01*
X59142380Y-112730000D01*
X59142373Y-112730000D01*
X59080000Y-112723857D01*
X59017627Y-112730000D01*
X50770000Y-112730000D01*
X50770000Y-112026050D01*
X51221050Y-111575000D01*
X71936928Y-111575000D01*
X71936928Y-112425000D01*
X71949188Y-112549482D01*
X71985498Y-112669180D01*
X72044463Y-112779494D01*
X72123815Y-112876185D01*
X72220506Y-112955537D01*
X72330820Y-113014502D01*
X72450518Y-113050812D01*
X72575000Y-113063072D01*
X73425000Y-113063072D01*
X73549482Y-113050812D01*
X73669180Y-113014502D01*
X73779494Y-112955537D01*
X73876185Y-112876185D01*
X73955537Y-112779494D01*
X74014502Y-112669180D01*
X74050812Y-112549482D01*
X74063072Y-112425000D01*
X74063072Y-111575000D01*
X74050812Y-111450518D01*
X74014502Y-111330820D01*
X73955537Y-111220506D01*
X73876185Y-111123815D01*
X73779494Y-111044463D01*
X73669180Y-110985498D01*
X73549482Y-110949188D01*
X73425000Y-110936928D01*
X72575000Y-110936928D01*
X72450518Y-110949188D01*
X72330820Y-110985498D01*
X72220506Y-111044463D01*
X72123815Y-111123815D01*
X72044463Y-111220506D01*
X71985498Y-111330820D01*
X71949188Y-111450518D01*
X71936928Y-111575000D01*
X51221050Y-111575000D01*
X57646051Y-105150000D01*
X64511928Y-105150000D01*
X64511928Y-106850000D01*
X64524188Y-106974482D01*
X64560498Y-107094180D01*
X64619463Y-107204494D01*
X64698815Y-107301185D01*
X64795506Y-107380537D01*
X64905820Y-107439502D01*
X65025518Y-107475812D01*
X65150000Y-107488072D01*
X66850000Y-107488072D01*
X66974482Y-107475812D01*
X67094180Y-107439502D01*
X67204494Y-107380537D01*
X67301185Y-107301185D01*
X67380537Y-107204494D01*
X67439502Y-107094180D01*
X67475812Y-106974482D01*
X67488072Y-106850000D01*
X67488072Y-105150000D01*
X67475812Y-105025518D01*
X67439502Y-104905820D01*
X67380537Y-104795506D01*
X67301185Y-104698815D01*
X67204494Y-104619463D01*
X67094180Y-104560498D01*
X67021620Y-104538487D01*
X67153475Y-104406632D01*
X67315990Y-104163411D01*
X67383676Y-104000000D01*
X73723857Y-104000000D01*
X73748377Y-104248963D01*
X73820998Y-104488359D01*
X73938926Y-104708987D01*
X74097630Y-104902370D01*
X74291013Y-105061074D01*
X74511641Y-105179002D01*
X74751037Y-105251623D01*
X75000000Y-105276143D01*
X75248963Y-105251623D01*
X75488359Y-105179002D01*
X75708987Y-105061074D01*
X75853916Y-104942134D01*
X78942135Y-101853917D01*
X79061074Y-101708988D01*
X79179003Y-101488359D01*
X79251623Y-101248963D01*
X79276144Y-101000000D01*
X79251623Y-100751037D01*
X79179003Y-100511641D01*
X79061074Y-100291013D01*
X78902370Y-100097630D01*
X78708987Y-99938926D01*
X78488359Y-99820997D01*
X78248963Y-99748377D01*
X78000000Y-99723856D01*
X77751037Y-99748377D01*
X77511641Y-99820997D01*
X77291012Y-99938926D01*
X77146083Y-100057865D01*
X74057866Y-103146084D01*
X73938926Y-103291013D01*
X73820998Y-103511641D01*
X73748377Y-103751037D01*
X73723857Y-104000000D01*
X67383676Y-104000000D01*
X67427932Y-103893158D01*
X67485000Y-103606260D01*
X67485000Y-103313740D01*
X67427932Y-103026842D01*
X67315990Y-102756589D01*
X67153475Y-102513368D01*
X66946632Y-102306525D01*
X66703411Y-102144010D01*
X66433158Y-102032068D01*
X66146260Y-101975000D01*
X65853740Y-101975000D01*
X65566842Y-102032068D01*
X65296589Y-102144010D01*
X65053368Y-102306525D01*
X64846525Y-102513368D01*
X64684010Y-102756589D01*
X64572068Y-103026842D01*
X64515000Y-103313740D01*
X64515000Y-103606260D01*
X64572068Y-103893158D01*
X64684010Y-104163411D01*
X64846525Y-104406632D01*
X64978380Y-104538487D01*
X64905820Y-104560498D01*
X64795506Y-104619463D01*
X64698815Y-104698815D01*
X64619463Y-104795506D01*
X64560498Y-104905820D01*
X64524188Y-105025518D01*
X64511928Y-105150000D01*
X57646051Y-105150000D01*
X59853921Y-102942131D01*
X59902370Y-102902370D01*
X59942132Y-102853920D01*
X59942135Y-102853917D01*
X59983171Y-102803914D01*
X60061075Y-102708988D01*
X60179003Y-102488359D01*
X60251623Y-102248963D01*
X60270000Y-102062380D01*
X60270000Y-102062379D01*
X60276144Y-102000000D01*
X60270000Y-101937620D01*
X60270000Y-96575000D01*
X74936928Y-96575000D01*
X74936928Y-97425000D01*
X74949188Y-97549482D01*
X74985498Y-97669180D01*
X75044463Y-97779494D01*
X75123815Y-97876185D01*
X75220506Y-97955537D01*
X75330820Y-98014502D01*
X75450518Y-98050812D01*
X75575000Y-98063072D01*
X76425000Y-98063072D01*
X76549482Y-98050812D01*
X76669180Y-98014502D01*
X76779494Y-97955537D01*
X76876185Y-97876185D01*
X76955537Y-97779494D01*
X77014502Y-97669180D01*
X77050812Y-97549482D01*
X77063072Y-97425000D01*
X77063072Y-96575000D01*
X77050812Y-96450518D01*
X77014502Y-96330820D01*
X76955537Y-96220506D01*
X76876185Y-96123815D01*
X76779494Y-96044463D01*
X76669180Y-95985498D01*
X76549482Y-95949188D01*
X76425000Y-95936928D01*
X75575000Y-95936928D01*
X75450518Y-95949188D01*
X75330820Y-95985498D01*
X75220506Y-96044463D01*
X75123815Y-96123815D01*
X75044463Y-96220506D01*
X74985498Y-96330820D01*
X74949188Y-96450518D01*
X74936928Y-96575000D01*
X60270000Y-96575000D01*
X60270000Y-95575000D01*
X107936928Y-95575000D01*
X107936928Y-96425000D01*
X107949188Y-96549482D01*
X107985498Y-96669180D01*
X108044463Y-96779494D01*
X108123815Y-96876185D01*
X108220506Y-96955537D01*
X108330820Y-97014502D01*
X108450518Y-97050812D01*
X108575000Y-97063072D01*
X109425000Y-97063072D01*
X109549482Y-97050812D01*
X109669180Y-97014502D01*
X109779494Y-96955537D01*
X109876185Y-96876185D01*
X109955537Y-96779494D01*
X109964888Y-96762000D01*
X111298289Y-96762000D01*
X111340226Y-96803937D01*
X111509744Y-96917205D01*
X111698102Y-96995226D01*
X111898061Y-97035000D01*
X112101939Y-97035000D01*
X112301898Y-96995226D01*
X112490256Y-96917205D01*
X112659774Y-96803937D01*
X112803937Y-96659774D01*
X112917205Y-96490256D01*
X112995226Y-96301898D01*
X113035000Y-96101939D01*
X113035000Y-95898061D01*
X112995226Y-95698102D01*
X112917205Y-95509744D01*
X112803937Y-95340226D01*
X112659774Y-95196063D01*
X112490256Y-95082795D01*
X112301898Y-95004774D01*
X112101939Y-94965000D01*
X111898061Y-94965000D01*
X111698102Y-95004774D01*
X111509744Y-95082795D01*
X111340226Y-95196063D01*
X111298289Y-95238000D01*
X109964888Y-95238000D01*
X109955537Y-95220506D01*
X109876185Y-95123815D01*
X109779494Y-95044463D01*
X109669180Y-94985498D01*
X109549482Y-94949188D01*
X109425000Y-94936928D01*
X108575000Y-94936928D01*
X108450518Y-94949188D01*
X108330820Y-94985498D01*
X108220506Y-95044463D01*
X108123815Y-95123815D01*
X108044463Y-95220506D01*
X107985498Y-95330820D01*
X107949188Y-95450518D01*
X107936928Y-95575000D01*
X60270000Y-95575000D01*
X60270000Y-92062380D01*
X60276144Y-92000000D01*
X60251623Y-91751037D01*
X60179003Y-91511641D01*
X60145513Y-91448986D01*
X60061075Y-91291012D01*
X59902370Y-91097630D01*
X59853914Y-91057863D01*
X59406051Y-90610000D01*
X64511928Y-90610000D01*
X64511928Y-92310000D01*
X64524188Y-92434482D01*
X64560498Y-92554180D01*
X64619463Y-92664494D01*
X64698815Y-92761185D01*
X64795506Y-92840537D01*
X64905820Y-92899502D01*
X65025518Y-92935812D01*
X65150000Y-92948072D01*
X66850000Y-92948072D01*
X66974482Y-92935812D01*
X67094180Y-92899502D01*
X67179793Y-92853740D01*
X74975000Y-92853740D01*
X74975000Y-93146260D01*
X75032068Y-93433158D01*
X75144010Y-93703411D01*
X75306525Y-93946632D01*
X75513368Y-94153475D01*
X75756589Y-94315990D01*
X76026842Y-94427932D01*
X76313740Y-94485000D01*
X76606260Y-94485000D01*
X76893158Y-94427932D01*
X77163411Y-94315990D01*
X77406632Y-94153475D01*
X77538487Y-94021620D01*
X77560498Y-94094180D01*
X77619463Y-94204494D01*
X77698815Y-94301185D01*
X77795506Y-94380537D01*
X77905820Y-94439502D01*
X78025518Y-94475812D01*
X78150000Y-94488072D01*
X79850000Y-94488072D01*
X79974482Y-94475812D01*
X80094180Y-94439502D01*
X80204494Y-94380537D01*
X80301185Y-94301185D01*
X80380537Y-94204494D01*
X80439502Y-94094180D01*
X80475812Y-93974482D01*
X80488072Y-93850000D01*
X80488072Y-92575000D01*
X88936928Y-92575000D01*
X88936928Y-93425000D01*
X88949188Y-93549482D01*
X88985498Y-93669180D01*
X89044463Y-93779494D01*
X89123815Y-93876185D01*
X89220506Y-93955537D01*
X89330820Y-94014502D01*
X89450518Y-94050812D01*
X89575000Y-94063072D01*
X90425000Y-94063072D01*
X90549482Y-94050812D01*
X90669180Y-94014502D01*
X90779494Y-93955537D01*
X90876185Y-93876185D01*
X90955537Y-93779494D01*
X91014502Y-93669180D01*
X91050812Y-93549482D01*
X91063072Y-93425000D01*
X91063072Y-92575000D01*
X91050812Y-92450518D01*
X91014502Y-92330820D01*
X90955537Y-92220506D01*
X90876185Y-92123815D01*
X90779494Y-92044463D01*
X90669180Y-91985498D01*
X90549482Y-91949188D01*
X90425000Y-91936928D01*
X89575000Y-91936928D01*
X89450518Y-91949188D01*
X89330820Y-91985498D01*
X89220506Y-92044463D01*
X89123815Y-92123815D01*
X89044463Y-92220506D01*
X88985498Y-92330820D01*
X88949188Y-92450518D01*
X88936928Y-92575000D01*
X80488072Y-92575000D01*
X80488072Y-92150000D01*
X80475812Y-92025518D01*
X80439502Y-91905820D01*
X80380537Y-91795506D01*
X80301185Y-91698815D01*
X80204494Y-91619463D01*
X80094180Y-91560498D01*
X79974482Y-91524188D01*
X79850000Y-91511928D01*
X78150000Y-91511928D01*
X78025518Y-91524188D01*
X77905820Y-91560498D01*
X77795506Y-91619463D01*
X77698815Y-91698815D01*
X77619463Y-91795506D01*
X77560498Y-91905820D01*
X77538487Y-91978380D01*
X77406632Y-91846525D01*
X77163411Y-91684010D01*
X76893158Y-91572068D01*
X76606260Y-91515000D01*
X76313740Y-91515000D01*
X76026842Y-91572068D01*
X75756589Y-91684010D01*
X75513368Y-91846525D01*
X75306525Y-92053368D01*
X75144010Y-92296589D01*
X75032068Y-92566842D01*
X74975000Y-92853740D01*
X67179793Y-92853740D01*
X67204494Y-92840537D01*
X67301185Y-92761185D01*
X67380537Y-92664494D01*
X67439502Y-92554180D01*
X67475812Y-92434482D01*
X67488072Y-92310000D01*
X67488072Y-90610000D01*
X67475812Y-90485518D01*
X67439502Y-90365820D01*
X67380537Y-90255506D01*
X67301185Y-90158815D01*
X67204494Y-90079463D01*
X67094180Y-90020498D01*
X66974482Y-89984188D01*
X66850000Y-89971928D01*
X65150000Y-89971928D01*
X65025518Y-89984188D01*
X64905820Y-90020498D01*
X64795506Y-90079463D01*
X64698815Y-90158815D01*
X64619463Y-90255506D01*
X64560498Y-90365820D01*
X64524188Y-90485518D01*
X64511928Y-90610000D01*
X59406051Y-90610000D01*
X59359123Y-90563072D01*
X59425000Y-90563072D01*
X59549482Y-90550812D01*
X59669180Y-90514502D01*
X59779494Y-90455537D01*
X59876185Y-90376185D01*
X59955537Y-90279494D01*
X60014502Y-90169180D01*
X60050812Y-90049482D01*
X60063072Y-89925000D01*
X60063072Y-89075000D01*
X60050812Y-88950518D01*
X60014502Y-88830820D01*
X59955537Y-88720506D01*
X59876185Y-88623815D01*
X59816704Y-88575000D01*
X95936928Y-88575000D01*
X95936928Y-89425000D01*
X95949188Y-89549482D01*
X95985498Y-89669180D01*
X96044463Y-89779494D01*
X96123815Y-89876185D01*
X96220506Y-89955537D01*
X96330820Y-90014502D01*
X96450518Y-90050812D01*
X96575000Y-90063072D01*
X97425000Y-90063072D01*
X97549482Y-90050812D01*
X97669180Y-90014502D01*
X97779494Y-89955537D01*
X97876185Y-89876185D01*
X97955537Y-89779494D01*
X98014502Y-89669180D01*
X98050812Y-89549482D01*
X98063072Y-89425000D01*
X98063072Y-88575000D01*
X98050812Y-88450518D01*
X98014502Y-88330820D01*
X97955537Y-88220506D01*
X97876185Y-88123815D01*
X97779494Y-88044463D01*
X97669180Y-87985498D01*
X97549482Y-87949188D01*
X97425000Y-87936928D01*
X96575000Y-87936928D01*
X96450518Y-87949188D01*
X96330820Y-87985498D01*
X96220506Y-88044463D01*
X96123815Y-88123815D01*
X96044463Y-88220506D01*
X95985498Y-88330820D01*
X95949188Y-88450518D01*
X95936928Y-88575000D01*
X59816704Y-88575000D01*
X59779494Y-88544463D01*
X59669180Y-88485498D01*
X59549482Y-88449188D01*
X59425000Y-88436928D01*
X59009999Y-88436928D01*
X59009999Y-87035000D01*
X59101939Y-87035000D01*
X59301898Y-86995226D01*
X59490256Y-86917205D01*
X59532693Y-86888850D01*
X59661774Y-86876136D01*
X59829351Y-86825303D01*
X59983791Y-86742753D01*
X60119159Y-86631659D01*
X60146999Y-86597736D01*
X63597743Y-83146993D01*
X63631659Y-83119159D01*
X63742753Y-82983791D01*
X63748125Y-82973740D01*
X64515000Y-82973740D01*
X64515000Y-83266260D01*
X64572068Y-83553158D01*
X64684010Y-83823411D01*
X64846525Y-84066632D01*
X65053368Y-84273475D01*
X65227760Y-84390000D01*
X65053368Y-84506525D01*
X64846525Y-84713368D01*
X64684010Y-84956589D01*
X64572068Y-85226842D01*
X64515000Y-85513740D01*
X64515000Y-85806260D01*
X64572068Y-86093158D01*
X64684010Y-86363411D01*
X64846525Y-86606632D01*
X65053368Y-86813475D01*
X65296589Y-86975990D01*
X65566842Y-87087932D01*
X65853740Y-87145000D01*
X66146260Y-87145000D01*
X66433158Y-87087932D01*
X66703411Y-86975990D01*
X66946632Y-86813475D01*
X67153475Y-86606632D01*
X67315990Y-86363411D01*
X67427932Y-86093158D01*
X67485000Y-85806260D01*
X67485000Y-85513740D01*
X67427932Y-85226842D01*
X67365038Y-85075000D01*
X68936928Y-85075000D01*
X68936928Y-85925000D01*
X68949188Y-86049482D01*
X68985498Y-86169180D01*
X69044463Y-86279494D01*
X69123815Y-86376185D01*
X69220506Y-86455537D01*
X69330820Y-86514502D01*
X69450518Y-86550812D01*
X69575000Y-86563072D01*
X70425000Y-86563072D01*
X70549482Y-86550812D01*
X70669180Y-86514502D01*
X70779494Y-86455537D01*
X70876185Y-86376185D01*
X70955537Y-86279494D01*
X71014502Y-86169180D01*
X71050812Y-86049482D01*
X71063072Y-85925000D01*
X71063072Y-85075000D01*
X71050812Y-84950518D01*
X71014502Y-84830820D01*
X70955537Y-84720506D01*
X70876185Y-84623815D01*
X70779494Y-84544463D01*
X70669180Y-84485498D01*
X70549482Y-84449188D01*
X70425000Y-84436928D01*
X69575000Y-84436928D01*
X69450518Y-84449188D01*
X69330820Y-84485498D01*
X69220506Y-84544463D01*
X69123815Y-84623815D01*
X69044463Y-84720506D01*
X68985498Y-84830820D01*
X68949188Y-84950518D01*
X68936928Y-85075000D01*
X67365038Y-85075000D01*
X67315990Y-84956589D01*
X67153475Y-84713368D01*
X66946632Y-84506525D01*
X66772240Y-84390000D01*
X66946632Y-84273475D01*
X67153475Y-84066632D01*
X67315990Y-83823411D01*
X67427932Y-83553158D01*
X67450826Y-83438061D01*
X83490000Y-83438061D01*
X83490000Y-83641939D01*
X83529774Y-83841898D01*
X83607795Y-84030256D01*
X83721063Y-84199774D01*
X83865226Y-84343937D01*
X84034744Y-84457205D01*
X84223102Y-84535226D01*
X84423061Y-84575000D01*
X84626939Y-84575000D01*
X84826898Y-84535226D01*
X85015256Y-84457205D01*
X85057468Y-84429000D01*
X88161340Y-84429000D01*
X88205000Y-84433300D01*
X88248660Y-84429000D01*
X88248667Y-84429000D01*
X88379274Y-84416136D01*
X88546851Y-84365303D01*
X88701291Y-84282753D01*
X88836659Y-84171659D01*
X88864499Y-84137736D01*
X89104174Y-83898061D01*
X91090000Y-83898061D01*
X91090000Y-84101939D01*
X91129774Y-84301898D01*
X91207795Y-84490256D01*
X91321063Y-84659774D01*
X91465226Y-84803937D01*
X91634744Y-84917205D01*
X91823102Y-84995226D01*
X92023061Y-85035000D01*
X92226939Y-85035000D01*
X92426898Y-84995226D01*
X92615256Y-84917205D01*
X92657468Y-84889000D01*
X95467532Y-84889000D01*
X95509744Y-84917205D01*
X95698102Y-84995226D01*
X95898061Y-85035000D01*
X96101939Y-85035000D01*
X96301898Y-84995226D01*
X96490256Y-84917205D01*
X96659774Y-84803937D01*
X96803937Y-84659774D01*
X96917205Y-84490256D01*
X96995226Y-84301898D01*
X97035000Y-84101939D01*
X97035000Y-83898061D01*
X96995226Y-83698102D01*
X96917205Y-83509744D01*
X96803937Y-83340226D01*
X96659774Y-83196063D01*
X96490256Y-83082795D01*
X96301898Y-83004774D01*
X96101939Y-82965000D01*
X95898061Y-82965000D01*
X95698102Y-83004774D01*
X95509744Y-83082795D01*
X95467532Y-83111000D01*
X92657468Y-83111000D01*
X92615256Y-83082795D01*
X92426898Y-83004774D01*
X92226939Y-82965000D01*
X92023061Y-82965000D01*
X91823102Y-83004774D01*
X91634744Y-83082795D01*
X91465226Y-83196063D01*
X91321063Y-83340226D01*
X91207795Y-83509744D01*
X91129774Y-83698102D01*
X91090000Y-83898061D01*
X89104174Y-83898061D01*
X89727105Y-83275130D01*
X89776898Y-83265226D01*
X89965256Y-83187205D01*
X90134774Y-83073937D01*
X90278937Y-82929774D01*
X90392205Y-82760256D01*
X90470226Y-82571898D01*
X90510000Y-82371939D01*
X90510000Y-82168061D01*
X90470226Y-81968102D01*
X90392205Y-81779744D01*
X90278937Y-81610226D01*
X90134774Y-81466063D01*
X89965256Y-81352795D01*
X89776898Y-81274774D01*
X89576939Y-81235000D01*
X89373061Y-81235000D01*
X89173102Y-81274774D01*
X88984744Y-81352795D01*
X88815226Y-81466063D01*
X88671063Y-81610226D01*
X88557795Y-81779744D01*
X88479774Y-81968102D01*
X88469870Y-82017895D01*
X87836765Y-82651000D01*
X85057468Y-82651000D01*
X85015256Y-82622795D01*
X84826898Y-82544774D01*
X84626939Y-82505000D01*
X84423061Y-82505000D01*
X84223102Y-82544774D01*
X84034744Y-82622795D01*
X83865226Y-82736063D01*
X83721063Y-82880226D01*
X83607795Y-83049744D01*
X83529774Y-83238102D01*
X83490000Y-83438061D01*
X67450826Y-83438061D01*
X67485000Y-83266260D01*
X67485000Y-82973740D01*
X67427932Y-82686842D01*
X67315990Y-82416589D01*
X67153475Y-82173368D01*
X66946632Y-81966525D01*
X66703411Y-81804010D01*
X66433158Y-81692068D01*
X66146260Y-81635000D01*
X65853740Y-81635000D01*
X65566842Y-81692068D01*
X65296589Y-81804010D01*
X65053368Y-81966525D01*
X64846525Y-82173368D01*
X64684010Y-82416589D01*
X64572068Y-82686842D01*
X64515000Y-82973740D01*
X63748125Y-82973740D01*
X63825303Y-82829351D01*
X63857304Y-82723856D01*
X63876136Y-82661776D01*
X63884988Y-82571898D01*
X63889000Y-82531167D01*
X63889000Y-82531161D01*
X63893300Y-82487501D01*
X63889000Y-82443841D01*
X63889000Y-80075000D01*
X68936928Y-80075000D01*
X68936928Y-80925000D01*
X68949188Y-81049482D01*
X68985498Y-81169180D01*
X69044463Y-81279494D01*
X69123815Y-81376185D01*
X69220506Y-81455537D01*
X69330820Y-81514502D01*
X69450518Y-81550812D01*
X69575000Y-81563072D01*
X70425000Y-81563072D01*
X70549482Y-81550812D01*
X70669180Y-81514502D01*
X70779494Y-81455537D01*
X70876185Y-81376185D01*
X70955537Y-81279494D01*
X71014502Y-81169180D01*
X71050812Y-81049482D01*
X71063072Y-80925000D01*
X71063072Y-80075000D01*
X71050812Y-79950518D01*
X71014502Y-79830820D01*
X70955537Y-79720506D01*
X70876185Y-79623815D01*
X70779494Y-79544463D01*
X70669180Y-79485498D01*
X70549482Y-79449188D01*
X70425000Y-79436928D01*
X69575000Y-79436928D01*
X69450518Y-79449188D01*
X69330820Y-79485498D01*
X69220506Y-79544463D01*
X69123815Y-79623815D01*
X69044463Y-79720506D01*
X68985498Y-79830820D01*
X68949188Y-79950518D01*
X68936928Y-80075000D01*
X63889000Y-80075000D01*
X63889000Y-77510235D01*
X64653395Y-76745841D01*
X64698815Y-76801185D01*
X64795506Y-76880537D01*
X64905820Y-76939502D01*
X64978380Y-76961513D01*
X64846525Y-77093368D01*
X64684010Y-77336589D01*
X64572068Y-77606842D01*
X64515000Y-77893740D01*
X64515000Y-78186260D01*
X64572068Y-78473158D01*
X64684010Y-78743411D01*
X64846525Y-78986632D01*
X65053368Y-79193475D01*
X65296589Y-79355990D01*
X65566842Y-79467932D01*
X65853740Y-79525000D01*
X66146260Y-79525000D01*
X66433158Y-79467932D01*
X66703411Y-79355990D01*
X66946632Y-79193475D01*
X67153475Y-78986632D01*
X67315990Y-78743411D01*
X67427932Y-78473158D01*
X67485000Y-78186260D01*
X67485000Y-77893740D01*
X67427932Y-77606842D01*
X67315990Y-77336589D01*
X67153475Y-77093368D01*
X67021620Y-76961513D01*
X67094180Y-76939502D01*
X67204494Y-76880537D01*
X67301185Y-76801185D01*
X67380537Y-76704494D01*
X67439502Y-76594180D01*
X67475812Y-76474482D01*
X67488072Y-76350000D01*
X67488072Y-75575000D01*
X68936928Y-75575000D01*
X68936928Y-76425000D01*
X68949188Y-76549482D01*
X68985498Y-76669180D01*
X69044463Y-76779494D01*
X69123815Y-76876185D01*
X69220506Y-76955537D01*
X69330820Y-77014502D01*
X69450518Y-77050812D01*
X69575000Y-77063072D01*
X70425000Y-77063072D01*
X70549482Y-77050812D01*
X70669180Y-77014502D01*
X70779494Y-76955537D01*
X70876185Y-76876185D01*
X70955537Y-76779494D01*
X71014502Y-76669180D01*
X71050812Y-76549482D01*
X71063072Y-76425000D01*
X71063072Y-75575000D01*
X71050812Y-75450518D01*
X71014502Y-75330820D01*
X70955537Y-75220506D01*
X70876185Y-75123815D01*
X70779494Y-75044463D01*
X70669180Y-74985498D01*
X70549482Y-74949188D01*
X70425000Y-74936928D01*
X69575000Y-74936928D01*
X69450518Y-74949188D01*
X69330820Y-74985498D01*
X69220506Y-75044463D01*
X69123815Y-75123815D01*
X69044463Y-75220506D01*
X68985498Y-75330820D01*
X68949188Y-75450518D01*
X68936928Y-75575000D01*
X67488072Y-75575000D01*
X67488072Y-74650000D01*
X67475812Y-74525518D01*
X67439502Y-74405820D01*
X67380537Y-74295506D01*
X67301185Y-74198815D01*
X67204494Y-74119463D01*
X67094180Y-74060498D01*
X66974482Y-74024188D01*
X66850000Y-74011928D01*
X65150000Y-74011928D01*
X65025518Y-74024188D01*
X64905820Y-74060498D01*
X64795506Y-74119463D01*
X64698815Y-74198815D01*
X64619463Y-74295506D01*
X64560498Y-74405820D01*
X64524188Y-74525518D01*
X64514960Y-74619212D01*
X64484325Y-74622229D01*
X64467725Y-74623864D01*
X64416892Y-74639284D01*
X64300149Y-74674697D01*
X64145709Y-74757247D01*
X64010341Y-74868341D01*
X63982506Y-74902258D01*
X62402259Y-76482506D01*
X62368342Y-76510341D01*
X62340507Y-76544258D01*
X62340505Y-76544260D01*
X62257248Y-76645709D01*
X62174698Y-76800148D01*
X62123864Y-76967726D01*
X62106700Y-77142000D01*
X62111001Y-77185670D01*
X62111000Y-82119264D01*
X59238168Y-84992097D01*
X59101939Y-84965000D01*
X59009999Y-84965000D01*
X59009999Y-84786051D01*
X59853915Y-83942136D01*
X59902370Y-83902370D01*
X60061075Y-83708988D01*
X60179003Y-83488359D01*
X60251623Y-83248963D01*
X60270000Y-83062380D01*
X60270000Y-83062379D01*
X60276144Y-83000000D01*
X60270000Y-82937620D01*
X60270000Y-79937620D01*
X60251623Y-79751037D01*
X60179003Y-79511641D01*
X60061075Y-79291012D01*
X59902370Y-79097630D01*
X59708988Y-78938925D01*
X59488359Y-78820997D01*
X59248963Y-78748377D01*
X59000000Y-78723856D01*
X58751038Y-78748377D01*
X58511642Y-78820997D01*
X58291013Y-78938925D01*
X58097631Y-79097630D01*
X57938926Y-79291012D01*
X57820998Y-79511641D01*
X57748378Y-79751037D01*
X57730001Y-79937620D01*
X57730000Y-82473949D01*
X56886085Y-83317865D01*
X56837630Y-83357631D01*
X56678925Y-83551013D01*
X56580855Y-83734490D01*
X56560997Y-83771642D01*
X56488376Y-84011038D01*
X56463856Y-84260001D01*
X56470000Y-84322384D01*
X56469999Y-90677626D01*
X56463856Y-90739999D01*
X56469999Y-90802372D01*
X56469999Y-90802378D01*
X56483448Y-90938925D01*
X56486820Y-90973158D01*
X56488376Y-90988961D01*
X56560996Y-91228357D01*
X56678924Y-91448986D01*
X56837629Y-91642369D01*
X56886090Y-91682140D01*
X57730001Y-92526052D01*
X57730000Y-99062379D01*
X57730001Y-99062389D01*
X57730000Y-101473948D01*
X48646087Y-110557863D01*
X48597631Y-110597630D01*
X48438926Y-110791012D01*
X48360933Y-110936928D01*
X48320998Y-111011641D01*
X48248377Y-111251037D01*
X48223857Y-111500000D01*
X48230001Y-111562382D01*
X48230000Y-112957767D01*
X48051082Y-113225537D01*
X47927832Y-113523088D01*
X47865000Y-113838967D01*
X47865000Y-114161033D01*
X47927832Y-114476912D01*
X48051082Y-114774463D01*
X48230013Y-115042252D01*
X48457748Y-115269987D01*
X48725537Y-115448918D01*
X49023088Y-115572168D01*
X49338967Y-115635000D01*
X49661033Y-115635000D01*
X49976912Y-115572168D01*
X50274463Y-115448918D01*
X50542233Y-115270000D01*
X54511928Y-115270000D01*
X54511928Y-116850000D01*
X54524188Y-116974482D01*
X54560498Y-117094180D01*
X54619463Y-117204494D01*
X54698815Y-117301185D01*
X54795506Y-117380537D01*
X54905820Y-117439502D01*
X55025518Y-117475812D01*
X55150000Y-117488072D01*
X56850000Y-117488072D01*
X56974482Y-117475812D01*
X57094180Y-117439502D01*
X57204494Y-117380537D01*
X57301185Y-117301185D01*
X57380537Y-117204494D01*
X57439502Y-117094180D01*
X57461513Y-117021620D01*
X57593368Y-117153475D01*
X57836589Y-117315990D01*
X58106842Y-117427932D01*
X58188031Y-117444082D01*
X59597863Y-118853914D01*
X59637630Y-118902370D01*
X59831012Y-119061075D01*
X60051641Y-119179003D01*
X60218416Y-119229594D01*
X60291036Y-119251623D01*
X60316755Y-119254156D01*
X60477620Y-119270000D01*
X60477626Y-119270000D01*
X60539999Y-119276143D01*
X60602372Y-119270000D01*
X91610584Y-119270000D01*
X91642880Y-119274726D01*
X91735393Y-119270000D01*
X106937627Y-119270000D01*
X107000000Y-119276143D01*
X107062373Y-119270000D01*
X107062380Y-119270000D01*
X107248963Y-119251623D01*
X107488359Y-119179003D01*
X107708988Y-119061075D01*
X107902370Y-118902370D01*
X107942141Y-118853909D01*
X111016178Y-115779872D01*
X113765000Y-115779872D01*
X113765000Y-116220128D01*
X113850890Y-116651925D01*
X114019369Y-117058669D01*
X114263962Y-117424729D01*
X114575271Y-117736038D01*
X114941331Y-117980631D01*
X115348075Y-118149110D01*
X115779872Y-118235000D01*
X116220128Y-118235000D01*
X116651925Y-118149110D01*
X117058669Y-117980631D01*
X117424729Y-117736038D01*
X117736038Y-117424729D01*
X117980631Y-117058669D01*
X118149110Y-116651925D01*
X118235000Y-116220128D01*
X118235000Y-115779872D01*
X118149110Y-115348075D01*
X117980631Y-114941331D01*
X117736038Y-114575271D01*
X117424729Y-114263962D01*
X117058669Y-114019369D01*
X116651925Y-113850890D01*
X116220128Y-113765000D01*
X115779872Y-113765000D01*
X115348075Y-113850890D01*
X114941331Y-114019369D01*
X114575271Y-114263962D01*
X114263962Y-114575271D01*
X114019369Y-114941331D01*
X113850890Y-115348075D01*
X113765000Y-115779872D01*
X111016178Y-115779872D01*
X114526051Y-112270000D01*
X115937627Y-112270000D01*
X116000000Y-112276143D01*
X116062373Y-112270000D01*
X116062380Y-112270000D01*
X116248963Y-112251623D01*
X116488359Y-112179003D01*
X116708988Y-112061075D01*
X116902370Y-111902370D01*
X116942141Y-111853909D01*
X119315001Y-109481051D01*
X119315001Y-119315000D01*
X20685000Y-119315000D01*
X20685000Y-115779872D01*
X21765000Y-115779872D01*
X21765000Y-116220128D01*
X21850890Y-116651925D01*
X22019369Y-117058669D01*
X22263962Y-117424729D01*
X22575271Y-117736038D01*
X22941331Y-117980631D01*
X23348075Y-118149110D01*
X23779872Y-118235000D01*
X24220128Y-118235000D01*
X24651925Y-118149110D01*
X25058669Y-117980631D01*
X25424729Y-117736038D01*
X25736038Y-117424729D01*
X25980631Y-117058669D01*
X26149110Y-116651925D01*
X26235000Y-116220128D01*
X26235000Y-115779872D01*
X26149110Y-115348075D01*
X25980631Y-114941331D01*
X25736038Y-114575271D01*
X25424729Y-114263962D01*
X25058669Y-114019369D01*
X24651925Y-113850890D01*
X24220128Y-113765000D01*
X23779872Y-113765000D01*
X23348075Y-113850890D01*
X22941331Y-114019369D01*
X22575271Y-114263962D01*
X22263962Y-114575271D01*
X22019369Y-114941331D01*
X21850890Y-115348075D01*
X21765000Y-115779872D01*
X20685000Y-115779872D01*
X20685000Y-113000000D01*
X36361928Y-113000000D01*
X36361928Y-115000000D01*
X36374188Y-115124482D01*
X36410498Y-115244180D01*
X36469463Y-115354494D01*
X36548815Y-115451185D01*
X36645506Y-115530537D01*
X36755820Y-115589502D01*
X36875518Y-115625812D01*
X37000000Y-115638072D01*
X39000000Y-115638072D01*
X39124482Y-115625812D01*
X39244180Y-115589502D01*
X39354494Y-115530537D01*
X39451185Y-115451185D01*
X39530537Y-115354494D01*
X39575701Y-115270000D01*
X40207627Y-115270000D01*
X40270000Y-115276143D01*
X40332373Y-115270000D01*
X40332380Y-115270000D01*
X40518963Y-115251623D01*
X40758359Y-115179003D01*
X40978988Y-115061075D01*
X41172370Y-114902370D01*
X41212141Y-114853909D01*
X49853915Y-106212136D01*
X49902370Y-106172370D01*
X50061075Y-105978988D01*
X50179003Y-105758359D01*
X50251623Y-105518963D01*
X50270000Y-105332380D01*
X50270000Y-105332374D01*
X50276143Y-105270001D01*
X50270000Y-105207628D01*
X50270000Y-104575000D01*
X50936928Y-104575000D01*
X50936928Y-105425000D01*
X50949188Y-105549482D01*
X50985498Y-105669180D01*
X51044463Y-105779494D01*
X51123815Y-105876185D01*
X51220506Y-105955537D01*
X51330820Y-106014502D01*
X51450518Y-106050812D01*
X51575000Y-106063072D01*
X52425000Y-106063072D01*
X52549482Y-106050812D01*
X52669180Y-106014502D01*
X52779494Y-105955537D01*
X52876185Y-105876185D01*
X52955537Y-105779494D01*
X53014502Y-105669180D01*
X53050812Y-105549482D01*
X53063072Y-105425000D01*
X53063072Y-104575000D01*
X53050812Y-104450518D01*
X53014502Y-104330820D01*
X52955537Y-104220506D01*
X52876185Y-104123815D01*
X52779494Y-104044463D01*
X52669180Y-103985498D01*
X52549482Y-103949188D01*
X52425000Y-103936928D01*
X51575000Y-103936928D01*
X51450518Y-103949188D01*
X51330820Y-103985498D01*
X51220506Y-104044463D01*
X51123815Y-104123815D01*
X51044463Y-104220506D01*
X50985498Y-104330820D01*
X50949188Y-104450518D01*
X50936928Y-104575000D01*
X50270000Y-104575000D01*
X50270000Y-98415374D01*
X50276143Y-98353001D01*
X50270000Y-98290628D01*
X50270000Y-98290622D01*
X50251623Y-98104039D01*
X50179003Y-97864643D01*
X50061075Y-97644014D01*
X49902370Y-97450632D01*
X49853914Y-97410865D01*
X47034999Y-94591951D01*
X47034999Y-92575000D01*
X50936928Y-92575000D01*
X50936928Y-93425000D01*
X50949188Y-93549482D01*
X50985498Y-93669180D01*
X51044463Y-93779494D01*
X51123815Y-93876185D01*
X51220506Y-93955537D01*
X51330820Y-94014502D01*
X51450518Y-94050812D01*
X51575000Y-94063072D01*
X52425000Y-94063072D01*
X52549482Y-94050812D01*
X52669180Y-94014502D01*
X52779494Y-93955537D01*
X52876185Y-93876185D01*
X52955537Y-93779494D01*
X53014502Y-93669180D01*
X53050812Y-93549482D01*
X53063072Y-93425000D01*
X53063072Y-92575000D01*
X54936928Y-92575000D01*
X54936928Y-93425000D01*
X54949188Y-93549482D01*
X54985498Y-93669180D01*
X55044463Y-93779494D01*
X55123815Y-93876185D01*
X55220506Y-93955537D01*
X55330820Y-94014502D01*
X55450518Y-94050812D01*
X55575000Y-94063072D01*
X56425000Y-94063072D01*
X56549482Y-94050812D01*
X56669180Y-94014502D01*
X56779494Y-93955537D01*
X56876185Y-93876185D01*
X56955537Y-93779494D01*
X57014502Y-93669180D01*
X57050812Y-93549482D01*
X57063072Y-93425000D01*
X57063072Y-92575000D01*
X57050812Y-92450518D01*
X57014502Y-92330820D01*
X56955537Y-92220506D01*
X56876185Y-92123815D01*
X56779494Y-92044463D01*
X56669180Y-91985498D01*
X56549482Y-91949188D01*
X56425000Y-91936928D01*
X55575000Y-91936928D01*
X55450518Y-91949188D01*
X55330820Y-91985498D01*
X55220506Y-92044463D01*
X55123815Y-92123815D01*
X55044463Y-92220506D01*
X54985498Y-92330820D01*
X54949188Y-92450518D01*
X54936928Y-92575000D01*
X53063072Y-92575000D01*
X53050812Y-92450518D01*
X53014502Y-92330820D01*
X52955537Y-92220506D01*
X52876185Y-92123815D01*
X52779494Y-92044463D01*
X52669180Y-91985498D01*
X52549482Y-91949188D01*
X52425000Y-91936928D01*
X51575000Y-91936928D01*
X51450518Y-91949188D01*
X51330820Y-91985498D01*
X51220506Y-92044463D01*
X51123815Y-92123815D01*
X51044463Y-92220506D01*
X50985498Y-92330820D01*
X50949188Y-92450518D01*
X50936928Y-92575000D01*
X47034999Y-92575000D01*
X47034999Y-89575000D01*
X47936928Y-89575000D01*
X47936928Y-90425000D01*
X47949188Y-90549482D01*
X47985498Y-90669180D01*
X48044463Y-90779494D01*
X48123815Y-90876185D01*
X48220506Y-90955537D01*
X48330820Y-91014502D01*
X48450518Y-91050812D01*
X48575000Y-91063072D01*
X49425000Y-91063072D01*
X49549482Y-91050812D01*
X49669180Y-91014502D01*
X49779494Y-90955537D01*
X49876185Y-90876185D01*
X49955537Y-90779494D01*
X50014502Y-90669180D01*
X50050812Y-90549482D01*
X50063072Y-90425000D01*
X50063072Y-89575000D01*
X50050812Y-89450518D01*
X50014502Y-89330820D01*
X49955537Y-89220506D01*
X49876185Y-89123815D01*
X49779494Y-89044463D01*
X49669180Y-88985498D01*
X49549482Y-88949188D01*
X49425000Y-88936928D01*
X48575000Y-88936928D01*
X48450518Y-88949188D01*
X48330820Y-88985498D01*
X48220506Y-89044463D01*
X48123815Y-89123815D01*
X48044463Y-89220506D01*
X47985498Y-89330820D01*
X47949188Y-89450518D01*
X47936928Y-89575000D01*
X47034999Y-89575000D01*
X47034999Y-84035000D01*
X47101939Y-84035000D01*
X47301898Y-83995226D01*
X47490256Y-83917205D01*
X47532468Y-83889000D01*
X49506765Y-83889000D01*
X51994870Y-86377105D01*
X52004774Y-86426898D01*
X52082795Y-86615256D01*
X52196063Y-86784774D01*
X52340226Y-86928937D01*
X52509744Y-87042205D01*
X52698102Y-87120226D01*
X52898061Y-87160000D01*
X53101939Y-87160000D01*
X53301898Y-87120226D01*
X53490256Y-87042205D01*
X53659774Y-86928937D01*
X53803937Y-86784774D01*
X53917205Y-86615256D01*
X53995226Y-86426898D01*
X54035000Y-86226939D01*
X54035000Y-86023061D01*
X53995226Y-85823102D01*
X53917205Y-85634744D01*
X53803937Y-85465226D01*
X53659774Y-85321063D01*
X53490256Y-85207795D01*
X53301898Y-85129774D01*
X53252105Y-85119870D01*
X50534499Y-82402264D01*
X50506659Y-82368341D01*
X50371291Y-82257247D01*
X50216851Y-82174697D01*
X50049274Y-82123864D01*
X49918667Y-82111000D01*
X49918660Y-82111000D01*
X49875000Y-82106700D01*
X49831340Y-82111000D01*
X48685050Y-82111000D01*
X49853914Y-80942137D01*
X49902370Y-80902370D01*
X50061075Y-80708988D01*
X50179003Y-80488359D01*
X50251623Y-80248963D01*
X50270000Y-80062380D01*
X50276144Y-80000000D01*
X50270000Y-79937620D01*
X50270000Y-73575000D01*
X55436928Y-73575000D01*
X55436928Y-74425000D01*
X55449188Y-74549482D01*
X55485498Y-74669180D01*
X55544463Y-74779494D01*
X55623815Y-74876185D01*
X55720506Y-74955537D01*
X55830820Y-75014502D01*
X55950518Y-75050812D01*
X56075000Y-75063072D01*
X56925000Y-75063072D01*
X57049482Y-75050812D01*
X57169180Y-75014502D01*
X57279494Y-74955537D01*
X57376185Y-74876185D01*
X57455537Y-74779494D01*
X57514502Y-74669180D01*
X57550812Y-74549482D01*
X57563072Y-74425000D01*
X57563072Y-73575000D01*
X57550812Y-73450518D01*
X57514502Y-73330820D01*
X57455537Y-73220506D01*
X57376185Y-73123815D01*
X57279494Y-73044463D01*
X57169180Y-72985498D01*
X57049482Y-72949188D01*
X56925000Y-72936928D01*
X56075000Y-72936928D01*
X55950518Y-72949188D01*
X55830820Y-72985498D01*
X55720506Y-73044463D01*
X55623815Y-73123815D01*
X55544463Y-73220506D01*
X55485498Y-73330820D01*
X55449188Y-73450518D01*
X55436928Y-73575000D01*
X50270000Y-73575000D01*
X50270000Y-71773861D01*
X50316788Y-71703838D01*
X50428798Y-71433421D01*
X50485900Y-71146348D01*
X50485900Y-70853652D01*
X50428798Y-70566579D01*
X50316788Y-70296162D01*
X50154174Y-70052794D01*
X49947206Y-69845826D01*
X49703838Y-69683212D01*
X49433421Y-69571202D01*
X49146348Y-69514100D01*
X48853652Y-69514100D01*
X48784992Y-69527757D01*
X48659499Y-69402264D01*
X48631659Y-69368341D01*
X48496291Y-69257247D01*
X48341851Y-69174697D01*
X48174274Y-69123864D01*
X48043667Y-69111000D01*
X48043660Y-69111000D01*
X48000000Y-69106700D01*
X47956340Y-69111000D01*
X44368235Y-69111000D01*
X41005130Y-65747895D01*
X40995226Y-65698102D01*
X40917205Y-65509744D01*
X40803937Y-65340226D01*
X40659774Y-65196063D01*
X40490256Y-65082795D01*
X40301898Y-65004774D01*
X40101939Y-64965000D01*
X39898061Y-64965000D01*
X39698102Y-65004774D01*
X39509744Y-65082795D01*
X39340226Y-65196063D01*
X39196063Y-65340226D01*
X39082795Y-65509744D01*
X39004774Y-65698102D01*
X38965000Y-65898061D01*
X38965000Y-66101939D01*
X39004774Y-66301898D01*
X39082795Y-66490256D01*
X39196063Y-66659774D01*
X39340226Y-66803937D01*
X39509744Y-66917205D01*
X39698102Y-66995226D01*
X39747895Y-67005130D01*
X43340501Y-70597736D01*
X43368341Y-70631659D01*
X43503709Y-70742753D01*
X43658149Y-70825303D01*
X43724058Y-70845296D01*
X43825724Y-70876136D01*
X43858924Y-70879406D01*
X43917562Y-70885181D01*
X43915000Y-70898061D01*
X43915000Y-71101939D01*
X43954774Y-71301898D01*
X44032795Y-71490256D01*
X44146063Y-71659774D01*
X44290226Y-71803937D01*
X44459744Y-71917205D01*
X44648102Y-71995226D01*
X44848061Y-72035000D01*
X45051939Y-72035000D01*
X45251898Y-71995226D01*
X45440256Y-71917205D01*
X45609774Y-71803937D01*
X45753937Y-71659774D01*
X45867205Y-71490256D01*
X45945226Y-71301898D01*
X45985000Y-71101939D01*
X45985000Y-70898061D01*
X45983198Y-70889000D01*
X47514100Y-70889000D01*
X47514100Y-71146348D01*
X47571202Y-71433421D01*
X47683212Y-71703838D01*
X47730000Y-71773861D01*
X47730001Y-79473948D01*
X46708951Y-80494999D01*
X46469572Y-80494999D01*
X46407199Y-80488856D01*
X46344826Y-80494999D01*
X46344819Y-80494999D01*
X46181546Y-80511080D01*
X46158235Y-80513376D01*
X45918839Y-80585996D01*
X45867649Y-80613358D01*
X45698211Y-80703924D01*
X45504829Y-80862629D01*
X45465058Y-80911090D01*
X44911086Y-81465062D01*
X44862630Y-81504829D01*
X44703925Y-81698211D01*
X44594801Y-81902369D01*
X44585997Y-81918840D01*
X44513376Y-82158236D01*
X44488856Y-82407199D01*
X44495000Y-82469582D01*
X44494999Y-95055628D01*
X44488856Y-95118001D01*
X44494999Y-95180374D01*
X44494999Y-95180380D01*
X44513376Y-95366963D01*
X44585996Y-95606359D01*
X44703924Y-95826988D01*
X44862629Y-96020371D01*
X44911090Y-96060142D01*
X47730001Y-98879054D01*
X47730000Y-104743949D01*
X39743950Y-112730000D01*
X39575701Y-112730000D01*
X39530537Y-112645506D01*
X39451185Y-112548815D01*
X39354494Y-112469463D01*
X39244180Y-112410498D01*
X39124482Y-112374188D01*
X39000000Y-112361928D01*
X37000000Y-112361928D01*
X36875518Y-112374188D01*
X36755820Y-112410498D01*
X36645506Y-112469463D01*
X36548815Y-112548815D01*
X36469463Y-112645506D01*
X36410498Y-112755820D01*
X36374188Y-112875518D01*
X36361928Y-113000000D01*
X20685000Y-113000000D01*
X20685000Y-99575000D01*
X20936928Y-99575000D01*
X20936928Y-100425000D01*
X20949188Y-100549482D01*
X20985498Y-100669180D01*
X21044463Y-100779494D01*
X21123815Y-100876185D01*
X21220506Y-100955537D01*
X21330820Y-101014502D01*
X21450518Y-101050812D01*
X21575000Y-101063072D01*
X22425000Y-101063072D01*
X22549482Y-101050812D01*
X22669180Y-101014502D01*
X22779494Y-100955537D01*
X22876185Y-100876185D01*
X22955537Y-100779494D01*
X23014502Y-100669180D01*
X23049520Y-100553740D01*
X25515000Y-100553740D01*
X25515000Y-100846260D01*
X25572068Y-101133158D01*
X25684010Y-101403411D01*
X25846525Y-101646632D01*
X26053368Y-101853475D01*
X26296589Y-102015990D01*
X26566842Y-102127932D01*
X26853740Y-102185000D01*
X27146260Y-102185000D01*
X27433158Y-102127932D01*
X27703411Y-102015990D01*
X27946632Y-101853475D01*
X28153475Y-101646632D01*
X28315990Y-101403411D01*
X28427932Y-101133158D01*
X28485000Y-100846260D01*
X28485000Y-100553740D01*
X28427932Y-100266842D01*
X28315990Y-99996589D01*
X28153475Y-99753368D01*
X27946632Y-99546525D01*
X27703411Y-99384010D01*
X27433158Y-99272068D01*
X27146260Y-99215000D01*
X26853740Y-99215000D01*
X26566842Y-99272068D01*
X26296589Y-99384010D01*
X26053368Y-99546525D01*
X25846525Y-99753368D01*
X25684010Y-99996589D01*
X25572068Y-100266842D01*
X25515000Y-100553740D01*
X23049520Y-100553740D01*
X23050812Y-100549482D01*
X23063072Y-100425000D01*
X23063072Y-99575000D01*
X23050812Y-99450518D01*
X23014502Y-99330820D01*
X22955537Y-99220506D01*
X22876185Y-99123815D01*
X22779494Y-99044463D01*
X22669180Y-98985498D01*
X22549482Y-98949188D01*
X22425000Y-98936928D01*
X21575000Y-98936928D01*
X21450518Y-98949188D01*
X21330820Y-98985498D01*
X21220506Y-99044463D01*
X21123815Y-99123815D01*
X21044463Y-99220506D01*
X20985498Y-99330820D01*
X20949188Y-99450518D01*
X20936928Y-99575000D01*
X20685000Y-99575000D01*
X20685000Y-94575000D01*
X20936928Y-94575000D01*
X20936928Y-95425000D01*
X20949188Y-95549482D01*
X20985498Y-95669180D01*
X21044463Y-95779494D01*
X21123815Y-95876185D01*
X21220506Y-95955537D01*
X21330820Y-96014502D01*
X21450518Y-96050812D01*
X21575000Y-96063072D01*
X22425000Y-96063072D01*
X22549482Y-96050812D01*
X22669180Y-96014502D01*
X22779494Y-95955537D01*
X22876185Y-95876185D01*
X22955537Y-95779494D01*
X23014502Y-95669180D01*
X23050812Y-95549482D01*
X23058271Y-95473740D01*
X25515000Y-95473740D01*
X25515000Y-95766260D01*
X25572068Y-96053158D01*
X25684010Y-96323411D01*
X25846525Y-96566632D01*
X26053368Y-96773475D01*
X26296589Y-96935990D01*
X26566842Y-97047932D01*
X26853740Y-97105000D01*
X27146260Y-97105000D01*
X27433158Y-97047932D01*
X27703411Y-96935990D01*
X27946632Y-96773475D01*
X28153475Y-96566632D01*
X28315990Y-96323411D01*
X28427932Y-96053158D01*
X28485000Y-95766260D01*
X28485000Y-95473740D01*
X28427932Y-95186842D01*
X28315990Y-94916589D01*
X28153475Y-94673368D01*
X27946632Y-94466525D01*
X27703411Y-94304010D01*
X27433158Y-94192068D01*
X27146260Y-94135000D01*
X26853740Y-94135000D01*
X26566842Y-94192068D01*
X26296589Y-94304010D01*
X26053368Y-94466525D01*
X25846525Y-94673368D01*
X25684010Y-94916589D01*
X25572068Y-95186842D01*
X25515000Y-95473740D01*
X23058271Y-95473740D01*
X23063072Y-95425000D01*
X23063072Y-94575000D01*
X23050812Y-94450518D01*
X23014502Y-94330820D01*
X22955537Y-94220506D01*
X22876185Y-94123815D01*
X22779494Y-94044463D01*
X22669180Y-93985498D01*
X22549482Y-93949188D01*
X22425000Y-93936928D01*
X21575000Y-93936928D01*
X21450518Y-93949188D01*
X21330820Y-93985498D01*
X21220506Y-94044463D01*
X21123815Y-94123815D01*
X21044463Y-94220506D01*
X20985498Y-94330820D01*
X20949188Y-94450518D01*
X20936928Y-94575000D01*
X20685000Y-94575000D01*
X20685000Y-89575000D01*
X20936928Y-89575000D01*
X20936928Y-90425000D01*
X20949188Y-90549482D01*
X20985498Y-90669180D01*
X21044463Y-90779494D01*
X21123815Y-90876185D01*
X21220506Y-90955537D01*
X21330820Y-91014502D01*
X21450518Y-91050812D01*
X21575000Y-91063072D01*
X22425000Y-91063072D01*
X22549482Y-91050812D01*
X22669180Y-91014502D01*
X22779494Y-90955537D01*
X22876185Y-90876185D01*
X22955537Y-90779494D01*
X23014502Y-90669180D01*
X23050812Y-90549482D01*
X23063072Y-90425000D01*
X23063072Y-90393740D01*
X25515000Y-90393740D01*
X25515000Y-90686260D01*
X25572068Y-90973158D01*
X25684010Y-91243411D01*
X25846525Y-91486632D01*
X26053368Y-91693475D01*
X26296589Y-91855990D01*
X26566842Y-91967932D01*
X26853740Y-92025000D01*
X27146260Y-92025000D01*
X27433158Y-91967932D01*
X27703411Y-91855990D01*
X27946632Y-91693475D01*
X28153475Y-91486632D01*
X28315990Y-91243411D01*
X28427932Y-90973158D01*
X28485000Y-90686260D01*
X28485000Y-90393740D01*
X28427932Y-90106842D01*
X28315990Y-89836589D01*
X28153475Y-89593368D01*
X27946632Y-89386525D01*
X27703411Y-89224010D01*
X27433158Y-89112068D01*
X27146260Y-89055000D01*
X26853740Y-89055000D01*
X26566842Y-89112068D01*
X26296589Y-89224010D01*
X26053368Y-89386525D01*
X25846525Y-89593368D01*
X25684010Y-89836589D01*
X25572068Y-90106842D01*
X25515000Y-90393740D01*
X23063072Y-90393740D01*
X23063072Y-89575000D01*
X23050812Y-89450518D01*
X23014502Y-89330820D01*
X22955537Y-89220506D01*
X22876185Y-89123815D01*
X22779494Y-89044463D01*
X22669180Y-88985498D01*
X22549482Y-88949188D01*
X22425000Y-88936928D01*
X21575000Y-88936928D01*
X21450518Y-88949188D01*
X21330820Y-88985498D01*
X21220506Y-89044463D01*
X21123815Y-89123815D01*
X21044463Y-89220506D01*
X20985498Y-89330820D01*
X20949188Y-89450518D01*
X20936928Y-89575000D01*
X20685000Y-89575000D01*
X20685000Y-84575000D01*
X20936928Y-84575000D01*
X20936928Y-85425000D01*
X20949188Y-85549482D01*
X20985498Y-85669180D01*
X21044463Y-85779494D01*
X21123815Y-85876185D01*
X21220506Y-85955537D01*
X21330820Y-86014502D01*
X21450518Y-86050812D01*
X21575000Y-86063072D01*
X22425000Y-86063072D01*
X22549482Y-86050812D01*
X22669180Y-86014502D01*
X22779494Y-85955537D01*
X22876185Y-85876185D01*
X22955537Y-85779494D01*
X23014502Y-85669180D01*
X23050812Y-85549482D01*
X23063072Y-85425000D01*
X23063072Y-85313740D01*
X25515000Y-85313740D01*
X25515000Y-85606260D01*
X25572068Y-85893158D01*
X25684010Y-86163411D01*
X25846525Y-86406632D01*
X26053368Y-86613475D01*
X26296589Y-86775990D01*
X26566842Y-86887932D01*
X26853740Y-86945000D01*
X27146260Y-86945000D01*
X27433158Y-86887932D01*
X27703411Y-86775990D01*
X27946632Y-86613475D01*
X28153475Y-86406632D01*
X28315990Y-86163411D01*
X28427932Y-85893158D01*
X28485000Y-85606260D01*
X28485000Y-85313740D01*
X28427932Y-85026842D01*
X28315990Y-84756589D01*
X28153475Y-84513368D01*
X27946632Y-84306525D01*
X27703411Y-84144010D01*
X27433158Y-84032068D01*
X27146260Y-83975000D01*
X26853740Y-83975000D01*
X26566842Y-84032068D01*
X26296589Y-84144010D01*
X26053368Y-84306525D01*
X25846525Y-84513368D01*
X25684010Y-84756589D01*
X25572068Y-85026842D01*
X25515000Y-85313740D01*
X23063072Y-85313740D01*
X23063072Y-84575000D01*
X23050812Y-84450518D01*
X23014502Y-84330820D01*
X22955537Y-84220506D01*
X22876185Y-84123815D01*
X22779494Y-84044463D01*
X22669180Y-83985498D01*
X22549482Y-83949188D01*
X22425000Y-83936928D01*
X21575000Y-83936928D01*
X21450518Y-83949188D01*
X21330820Y-83985498D01*
X21220506Y-84044463D01*
X21123815Y-84123815D01*
X21044463Y-84220506D01*
X20985498Y-84330820D01*
X20949188Y-84450518D01*
X20936928Y-84575000D01*
X20685000Y-84575000D01*
X20685000Y-77575000D01*
X36936928Y-77575000D01*
X36936928Y-78425000D01*
X36949188Y-78549482D01*
X36985498Y-78669180D01*
X37044463Y-78779494D01*
X37123815Y-78876185D01*
X37220506Y-78955537D01*
X37330820Y-79014502D01*
X37450518Y-79050812D01*
X37575000Y-79063072D01*
X38425000Y-79063072D01*
X38549482Y-79050812D01*
X38669180Y-79014502D01*
X38779494Y-78955537D01*
X38876185Y-78876185D01*
X38955537Y-78779494D01*
X39014502Y-78669180D01*
X39050812Y-78549482D01*
X39063072Y-78425000D01*
X39063072Y-77575000D01*
X39050812Y-77450518D01*
X39014502Y-77330820D01*
X38955537Y-77220506D01*
X38876185Y-77123815D01*
X38779494Y-77044463D01*
X38669180Y-76985498D01*
X38549482Y-76949188D01*
X38425000Y-76936928D01*
X37575000Y-76936928D01*
X37450518Y-76949188D01*
X37330820Y-76985498D01*
X37220506Y-77044463D01*
X37123815Y-77123815D01*
X37044463Y-77220506D01*
X36985498Y-77330820D01*
X36949188Y-77450518D01*
X36936928Y-77575000D01*
X20685000Y-77575000D01*
X20685000Y-76898061D01*
X39965000Y-76898061D01*
X39965000Y-77101939D01*
X40004774Y-77301898D01*
X40082795Y-77490256D01*
X40111001Y-77532469D01*
X40111000Y-78467532D01*
X40082795Y-78509744D01*
X40004774Y-78698102D01*
X39965000Y-78898061D01*
X39965000Y-79101939D01*
X40004774Y-79301898D01*
X40082795Y-79490256D01*
X40196063Y-79659774D01*
X40340226Y-79803937D01*
X40509744Y-79917205D01*
X40698102Y-79995226D01*
X40898061Y-80035000D01*
X41101939Y-80035000D01*
X41301898Y-79995226D01*
X41490256Y-79917205D01*
X41659774Y-79803937D01*
X41803937Y-79659774D01*
X41917205Y-79490256D01*
X41995226Y-79301898D01*
X42035000Y-79101939D01*
X42035000Y-78898061D01*
X41995226Y-78698102D01*
X41917205Y-78509744D01*
X41889000Y-78467532D01*
X41889000Y-77532468D01*
X41917205Y-77490256D01*
X41995226Y-77301898D01*
X42035000Y-77101939D01*
X42035000Y-76898061D01*
X41995226Y-76698102D01*
X41917205Y-76509744D01*
X41803937Y-76340226D01*
X41659774Y-76196063D01*
X41490256Y-76082795D01*
X41301898Y-76004774D01*
X41101939Y-75965000D01*
X40898061Y-75965000D01*
X40698102Y-76004774D01*
X40509744Y-76082795D01*
X40340226Y-76196063D01*
X40196063Y-76340226D01*
X40082795Y-76509744D01*
X40004774Y-76698102D01*
X39965000Y-76898061D01*
X20685000Y-76898061D01*
X20685000Y-65779872D01*
X21765000Y-65779872D01*
X21765000Y-66220128D01*
X21850890Y-66651925D01*
X22019369Y-67058669D01*
X22263962Y-67424729D01*
X22575271Y-67736038D01*
X22941331Y-67980631D01*
X23348075Y-68149110D01*
X23779872Y-68235000D01*
X24220128Y-68235000D01*
X24651925Y-68149110D01*
X25058669Y-67980631D01*
X25424729Y-67736038D01*
X25736038Y-67424729D01*
X25980631Y-67058669D01*
X26149110Y-66651925D01*
X26235000Y-66220128D01*
X26235000Y-65779872D01*
X26149110Y-65348075D01*
X25980631Y-64941331D01*
X25951719Y-64898061D01*
X43965000Y-64898061D01*
X43965000Y-65101939D01*
X44004774Y-65301898D01*
X44082795Y-65490256D01*
X44111000Y-65532468D01*
X44111001Y-66796282D01*
X44108644Y-66801972D01*
X44068870Y-67001931D01*
X44068870Y-67205809D01*
X44108644Y-67405768D01*
X44186665Y-67594126D01*
X44299933Y-67763644D01*
X44444096Y-67907807D01*
X44613614Y-68021075D01*
X44801972Y-68099096D01*
X45001931Y-68138870D01*
X45205809Y-68138870D01*
X45405768Y-68099096D01*
X45594126Y-68021075D01*
X45705413Y-67946715D01*
X45795324Y-67983958D01*
X45995283Y-68023732D01*
X46199161Y-68023732D01*
X46399120Y-67983958D01*
X46587478Y-67905937D01*
X46756996Y-67792669D01*
X46901159Y-67648506D01*
X47014427Y-67478988D01*
X47092448Y-67290630D01*
X47132222Y-67090671D01*
X47132222Y-66886793D01*
X47092448Y-66686834D01*
X47014427Y-66498476D01*
X46901159Y-66328958D01*
X46889000Y-66316799D01*
X46889000Y-64532468D01*
X46917205Y-64490256D01*
X46995226Y-64301898D01*
X47035000Y-64101939D01*
X47035000Y-63898061D01*
X46995226Y-63698102D01*
X46917205Y-63509744D01*
X46803937Y-63340226D01*
X46659774Y-63196063D01*
X46490256Y-63082795D01*
X46301898Y-63004774D01*
X46101939Y-62965000D01*
X45898061Y-62965000D01*
X45698102Y-63004774D01*
X45509744Y-63082795D01*
X45340226Y-63196063D01*
X45196063Y-63340226D01*
X45082795Y-63509744D01*
X45004774Y-63698102D01*
X44965000Y-63898061D01*
X44965000Y-63965000D01*
X44898061Y-63965000D01*
X44698102Y-64004774D01*
X44509744Y-64082795D01*
X44340226Y-64196063D01*
X44196063Y-64340226D01*
X44082795Y-64509744D01*
X44004774Y-64698102D01*
X43965000Y-64898061D01*
X25951719Y-64898061D01*
X25736038Y-64575271D01*
X25424729Y-64263962D01*
X25058669Y-64019369D01*
X24651925Y-63850890D01*
X24220128Y-63765000D01*
X23779872Y-63765000D01*
X23348075Y-63850890D01*
X22941331Y-64019369D01*
X22575271Y-64263962D01*
X22263962Y-64575271D01*
X22019369Y-64941331D01*
X21850890Y-65348075D01*
X21765000Y-65779872D01*
X20685000Y-65779872D01*
X20685000Y-62000000D01*
X48723856Y-62000000D01*
X48730001Y-62062390D01*
X48730000Y-64937627D01*
X48723857Y-65000000D01*
X48730000Y-65062373D01*
X48730000Y-65062379D01*
X48736056Y-65123864D01*
X48748377Y-65248963D01*
X48764435Y-65301898D01*
X48820997Y-65488358D01*
X48938925Y-65708987D01*
X49097630Y-65902370D01*
X49146091Y-65942141D01*
X52730001Y-69526052D01*
X52730000Y-70226139D01*
X52683212Y-70296162D01*
X52571202Y-70566579D01*
X52514100Y-70853652D01*
X52514100Y-71146348D01*
X52571202Y-71433421D01*
X52683212Y-71703838D01*
X52845826Y-71947206D01*
X53052794Y-72154174D01*
X53296162Y-72316788D01*
X53566579Y-72428798D01*
X53853652Y-72485900D01*
X54146348Y-72485900D01*
X54433421Y-72428798D01*
X54703838Y-72316788D01*
X54947206Y-72154174D01*
X55154174Y-71947206D01*
X55316788Y-71703838D01*
X55428798Y-71433421D01*
X55485900Y-71146348D01*
X55485900Y-70853652D01*
X55428798Y-70566579D01*
X55316788Y-70296162D01*
X55270000Y-70226139D01*
X55270000Y-69062372D01*
X55276143Y-68999999D01*
X55270000Y-68937626D01*
X55270000Y-68937620D01*
X55251623Y-68751037D01*
X55241897Y-68718973D01*
X55229594Y-68678416D01*
X55179003Y-68511641D01*
X55061075Y-68291012D01*
X54902370Y-68097630D01*
X54853914Y-68057863D01*
X51270000Y-64473950D01*
X51270000Y-62062379D01*
X51276144Y-62000000D01*
X51270000Y-61937620D01*
X51270000Y-60937620D01*
X51251623Y-60751037D01*
X51179003Y-60511641D01*
X51061075Y-60291012D01*
X50902370Y-60097630D01*
X50708988Y-59938925D01*
X50488359Y-59820997D01*
X50248963Y-59748377D01*
X50000000Y-59723856D01*
X49751038Y-59748377D01*
X49511642Y-59820997D01*
X49291013Y-59938925D01*
X49097631Y-60097630D01*
X48938925Y-60291012D01*
X48820997Y-60511641D01*
X48748377Y-60751037D01*
X48730000Y-60937620D01*
X48730000Y-61937620D01*
X48723856Y-62000000D01*
X20685000Y-62000000D01*
X20685000Y-57575000D01*
X36936928Y-57575000D01*
X36936928Y-58425000D01*
X36949188Y-58549482D01*
X36985498Y-58669180D01*
X37044463Y-58779494D01*
X37123815Y-58876185D01*
X37220506Y-58955537D01*
X37330820Y-59014502D01*
X37450518Y-59050812D01*
X37575000Y-59063072D01*
X38425000Y-59063072D01*
X38549482Y-59050812D01*
X38669180Y-59014502D01*
X38779494Y-58955537D01*
X38876185Y-58876185D01*
X38955537Y-58779494D01*
X39014502Y-58669180D01*
X39050812Y-58549482D01*
X39063072Y-58425000D01*
X39063072Y-57575000D01*
X39050812Y-57450518D01*
X39014502Y-57330820D01*
X38955537Y-57220506D01*
X38876185Y-57123815D01*
X38779494Y-57044463D01*
X38669180Y-56985498D01*
X38549482Y-56949188D01*
X38425000Y-56936928D01*
X37575000Y-56936928D01*
X37450518Y-56949188D01*
X37330820Y-56985498D01*
X37220506Y-57044463D01*
X37123815Y-57123815D01*
X37044463Y-57220506D01*
X36985498Y-57330820D01*
X36949188Y-57450518D01*
X36936928Y-57575000D01*
X20685000Y-57575000D01*
X20685000Y-55127000D01*
X51595000Y-55127000D01*
X51595000Y-56097764D01*
X50747895Y-56944870D01*
X50698102Y-56954774D01*
X50509744Y-57032795D01*
X50340226Y-57146063D01*
X50196063Y-57290226D01*
X50082795Y-57459744D01*
X50004774Y-57648102D01*
X49965000Y-57848061D01*
X49965000Y-58051939D01*
X50004774Y-58251898D01*
X50082795Y-58440256D01*
X50196063Y-58609774D01*
X50340226Y-58753937D01*
X50509744Y-58867205D01*
X50698102Y-58945226D01*
X50898061Y-58985000D01*
X51101939Y-58985000D01*
X51301898Y-58945226D01*
X51490256Y-58867205D01*
X51659774Y-58753937D01*
X51803937Y-58609774D01*
X51917205Y-58440256D01*
X51995226Y-58251898D01*
X52005130Y-58202105D01*
X53081740Y-57125495D01*
X53115658Y-57097660D01*
X53168892Y-57032795D01*
X53226751Y-56962293D01*
X53309301Y-56807853D01*
X53309302Y-56807852D01*
X53360135Y-56640275D01*
X53372999Y-56509668D01*
X53377300Y-56466001D01*
X53372999Y-56422333D01*
X53372999Y-55127000D01*
X54111001Y-55127000D01*
X54111001Y-57956330D01*
X54106700Y-58000000D01*
X54123864Y-58174274D01*
X54174698Y-58341852D01*
X54230522Y-58446291D01*
X54257248Y-58496291D01*
X54368342Y-58631659D01*
X54402259Y-58659494D01*
X54994870Y-59252105D01*
X55004774Y-59301898D01*
X55082795Y-59490256D01*
X55196063Y-59659774D01*
X55340226Y-59803937D01*
X55509744Y-59917205D01*
X55698102Y-59995226D01*
X55898061Y-60035000D01*
X56101939Y-60035000D01*
X56301898Y-59995226D01*
X56490256Y-59917205D01*
X56659774Y-59803937D01*
X56803937Y-59659774D01*
X56917205Y-59490256D01*
X56995226Y-59301898D01*
X57035000Y-59101939D01*
X57035000Y-58898061D01*
X56995226Y-58698102D01*
X56944236Y-58575000D01*
X57936928Y-58575000D01*
X57936928Y-59425000D01*
X57949188Y-59549482D01*
X57985498Y-59669180D01*
X58044463Y-59779494D01*
X58123815Y-59876185D01*
X58220506Y-59955537D01*
X58330820Y-60014502D01*
X58450518Y-60050812D01*
X58575000Y-60063072D01*
X59425000Y-60063072D01*
X59549482Y-60050812D01*
X59669180Y-60014502D01*
X59779494Y-59955537D01*
X59876185Y-59876185D01*
X59955537Y-59779494D01*
X60014502Y-59669180D01*
X60043071Y-59575000D01*
X62936928Y-59575000D01*
X62936928Y-60425000D01*
X62949188Y-60549482D01*
X62985498Y-60669180D01*
X63044463Y-60779494D01*
X63123815Y-60876185D01*
X63220506Y-60955537D01*
X63330820Y-61014502D01*
X63450518Y-61050812D01*
X63575000Y-61063072D01*
X64425000Y-61063072D01*
X64549482Y-61050812D01*
X64669180Y-61014502D01*
X64779494Y-60955537D01*
X64876185Y-60876185D01*
X64955537Y-60779494D01*
X65014502Y-60669180D01*
X65050812Y-60549482D01*
X65063072Y-60425000D01*
X65063072Y-59575000D01*
X74936928Y-59575000D01*
X74936928Y-60425000D01*
X74949188Y-60549482D01*
X74985498Y-60669180D01*
X75044463Y-60779494D01*
X75123815Y-60876185D01*
X75220506Y-60955537D01*
X75330820Y-61014502D01*
X75450518Y-61050812D01*
X75575000Y-61063072D01*
X76425000Y-61063072D01*
X76549482Y-61050812D01*
X76669180Y-61014502D01*
X76779494Y-60955537D01*
X76876185Y-60876185D01*
X76955537Y-60779494D01*
X77014502Y-60669180D01*
X77050812Y-60549482D01*
X77063072Y-60425000D01*
X77063072Y-59575000D01*
X77050812Y-59450518D01*
X77014502Y-59330820D01*
X76955537Y-59220506D01*
X76876185Y-59123815D01*
X76779494Y-59044463D01*
X76669180Y-58985498D01*
X76549482Y-58949188D01*
X76425000Y-58936928D01*
X75575000Y-58936928D01*
X75450518Y-58949188D01*
X75330820Y-58985498D01*
X75220506Y-59044463D01*
X75123815Y-59123815D01*
X75044463Y-59220506D01*
X74985498Y-59330820D01*
X74949188Y-59450518D01*
X74936928Y-59575000D01*
X65063072Y-59575000D01*
X65050812Y-59450518D01*
X65014502Y-59330820D01*
X64955537Y-59220506D01*
X64876185Y-59123815D01*
X64779494Y-59044463D01*
X64669180Y-58985498D01*
X64549482Y-58949188D01*
X64425000Y-58936928D01*
X63575000Y-58936928D01*
X63450518Y-58949188D01*
X63330820Y-58985498D01*
X63220506Y-59044463D01*
X63123815Y-59123815D01*
X63044463Y-59220506D01*
X62985498Y-59330820D01*
X62949188Y-59450518D01*
X62936928Y-59575000D01*
X60043071Y-59575000D01*
X60050812Y-59549482D01*
X60063072Y-59425000D01*
X60063072Y-58575000D01*
X60050812Y-58450518D01*
X60014502Y-58330820D01*
X59955537Y-58220506D01*
X59876185Y-58123815D01*
X59779494Y-58044463D01*
X59669180Y-57985498D01*
X59549482Y-57949188D01*
X59425000Y-57936928D01*
X58575000Y-57936928D01*
X58450518Y-57949188D01*
X58330820Y-57985498D01*
X58220506Y-58044463D01*
X58123815Y-58123815D01*
X58044463Y-58220506D01*
X57985498Y-58330820D01*
X57949188Y-58450518D01*
X57936928Y-58575000D01*
X56944236Y-58575000D01*
X56917205Y-58509744D01*
X56803937Y-58340226D01*
X56659774Y-58196063D01*
X56490256Y-58082795D01*
X56301898Y-58004774D01*
X56252105Y-57994870D01*
X55889000Y-57631765D01*
X55889000Y-55127000D01*
X60000000Y-55127000D01*
X60024776Y-55124560D01*
X60048601Y-55117333D01*
X60070557Y-55105597D01*
X60089803Y-55089803D01*
X60105597Y-55070557D01*
X60117333Y-55048601D01*
X60124560Y-55024776D01*
X60127000Y-55000000D01*
X60127000Y-50000000D01*
X111361928Y-50000000D01*
X111361928Y-52000000D01*
X111374188Y-52124482D01*
X111410498Y-52244180D01*
X111469463Y-52354494D01*
X111548815Y-52451185D01*
X111645506Y-52530537D01*
X111755820Y-52589502D01*
X111875518Y-52625812D01*
X112000000Y-52638072D01*
X114000000Y-52638072D01*
X114124482Y-52625812D01*
X114244180Y-52589502D01*
X114354494Y-52530537D01*
X114451185Y-52451185D01*
X114530537Y-52354494D01*
X114589502Y-52244180D01*
X114625812Y-52124482D01*
X114638072Y-52000000D01*
X114638072Y-50000000D01*
X114625812Y-49875518D01*
X114589502Y-49755820D01*
X114530537Y-49645506D01*
X114451185Y-49548815D01*
X114354494Y-49469463D01*
X114244180Y-49410498D01*
X114124482Y-49374188D01*
X114000000Y-49361928D01*
X112000000Y-49361928D01*
X111875518Y-49374188D01*
X111755820Y-49410498D01*
X111645506Y-49469463D01*
X111548815Y-49548815D01*
X111469463Y-49645506D01*
X111410498Y-49755820D01*
X111374188Y-49875518D01*
X111361928Y-50000000D01*
X60127000Y-50000000D01*
X60127000Y-43150000D01*
X114511928Y-43150000D01*
X114511928Y-44850000D01*
X114524188Y-44974482D01*
X114560498Y-45094180D01*
X114619463Y-45204494D01*
X114698815Y-45301185D01*
X114795506Y-45380537D01*
X114905820Y-45439502D01*
X115025518Y-45475812D01*
X115150000Y-45488072D01*
X116850000Y-45488072D01*
X116974482Y-45475812D01*
X117094180Y-45439502D01*
X117204494Y-45380537D01*
X117301185Y-45301185D01*
X117380537Y-45204494D01*
X117439502Y-45094180D01*
X117475812Y-44974482D01*
X117488072Y-44850000D01*
X117488072Y-43150000D01*
X117475812Y-43025518D01*
X117439502Y-42905820D01*
X117380537Y-42795506D01*
X117301185Y-42698815D01*
X117204494Y-42619463D01*
X117094180Y-42560498D01*
X116974482Y-42524188D01*
X116850000Y-42511928D01*
X115150000Y-42511928D01*
X115025518Y-42524188D01*
X114905820Y-42560498D01*
X114795506Y-42619463D01*
X114698815Y-42698815D01*
X114619463Y-42795506D01*
X114560498Y-42905820D01*
X114524188Y-43025518D01*
X114511928Y-43150000D01*
X60127000Y-43150000D01*
X60127000Y-36127000D01*
X71000000Y-36127000D01*
X71024776Y-36124560D01*
X71048601Y-36117333D01*
X71070557Y-36105597D01*
X71089803Y-36089803D01*
X71105597Y-36070557D01*
X71117333Y-36048601D01*
X71124560Y-36024776D01*
X71127000Y-36000000D01*
X71127000Y-23853740D01*
X76435000Y-23853740D01*
X76435000Y-24146260D01*
X76492068Y-24433158D01*
X76604010Y-24703411D01*
X76766525Y-24946632D01*
X76973368Y-25153475D01*
X77216589Y-25315990D01*
X77486842Y-25427932D01*
X77773740Y-25485000D01*
X78066260Y-25485000D01*
X78353158Y-25427932D01*
X78623411Y-25315990D01*
X78866632Y-25153475D01*
X79073475Y-24946632D01*
X79190000Y-24772240D01*
X79306525Y-24946632D01*
X79513368Y-25153475D01*
X79756589Y-25315990D01*
X80026842Y-25427932D01*
X80313740Y-25485000D01*
X80606260Y-25485000D01*
X80893158Y-25427932D01*
X81163411Y-25315990D01*
X81406632Y-25153475D01*
X81613475Y-24946632D01*
X81775990Y-24703411D01*
X81887932Y-24433158D01*
X81945000Y-24146260D01*
X81945000Y-23853740D01*
X81930307Y-23779872D01*
X113765000Y-23779872D01*
X113765000Y-24220128D01*
X113850890Y-24651925D01*
X114019369Y-25058669D01*
X114263962Y-25424729D01*
X114575271Y-25736038D01*
X114941331Y-25980631D01*
X115348075Y-26149110D01*
X115779872Y-26235000D01*
X116220128Y-26235000D01*
X116651925Y-26149110D01*
X117058669Y-25980631D01*
X117424729Y-25736038D01*
X117736038Y-25424729D01*
X117980631Y-25058669D01*
X118149110Y-24651925D01*
X118235000Y-24220128D01*
X118235000Y-23779872D01*
X118149110Y-23348075D01*
X117980631Y-22941331D01*
X117736038Y-22575271D01*
X117424729Y-22263962D01*
X117058669Y-22019369D01*
X116651925Y-21850890D01*
X116220128Y-21765000D01*
X115779872Y-21765000D01*
X115348075Y-21850890D01*
X114941331Y-22019369D01*
X114575271Y-22263962D01*
X114263962Y-22575271D01*
X114019369Y-22941331D01*
X113850890Y-23348075D01*
X113765000Y-23779872D01*
X81930307Y-23779872D01*
X81887932Y-23566842D01*
X81775990Y-23296589D01*
X81613475Y-23053368D01*
X81406632Y-22846525D01*
X81163411Y-22684010D01*
X80893158Y-22572068D01*
X80606260Y-22515000D01*
X80313740Y-22515000D01*
X80026842Y-22572068D01*
X79756589Y-22684010D01*
X79513368Y-22846525D01*
X79306525Y-23053368D01*
X79190000Y-23227760D01*
X79073475Y-23053368D01*
X78866632Y-22846525D01*
X78623411Y-22684010D01*
X78353158Y-22572068D01*
X78066260Y-22515000D01*
X77773740Y-22515000D01*
X77486842Y-22572068D01*
X77216589Y-22684010D01*
X76973368Y-22846525D01*
X76766525Y-23053368D01*
X76604010Y-23296589D01*
X76492068Y-23566842D01*
X76435000Y-23853740D01*
X71127000Y-23853740D01*
X71127000Y-20685000D01*
X119315000Y-20685000D01*
X119315001Y-72023816D01*
G37*
X119315001Y-72023816D02*
X117437275Y-70146091D01*
X117397504Y-70097630D01*
X117204122Y-69938925D01*
X116983493Y-69820997D01*
X116744097Y-69748377D01*
X116557514Y-69730000D01*
X116557507Y-69730000D01*
X116495134Y-69723857D01*
X116432761Y-69730000D01*
X115526051Y-69730000D01*
X111942144Y-66146094D01*
X111942135Y-66146083D01*
X111942132Y-66146080D01*
X111902370Y-66097630D01*
X111853918Y-66057866D01*
X111575924Y-65779872D01*
X113765000Y-65779872D01*
X113765000Y-66220128D01*
X113850890Y-66651925D01*
X114019369Y-67058669D01*
X114263962Y-67424729D01*
X114575271Y-67736038D01*
X114941331Y-67980631D01*
X115348075Y-68149110D01*
X115779872Y-68235000D01*
X116220128Y-68235000D01*
X116651925Y-68149110D01*
X117058669Y-67980631D01*
X117424729Y-67736038D01*
X117736038Y-67424729D01*
X117980631Y-67058669D01*
X118149110Y-66651925D01*
X118235000Y-66220128D01*
X118235000Y-65779872D01*
X118149110Y-65348075D01*
X117980631Y-64941331D01*
X117736038Y-64575271D01*
X117424729Y-64263962D01*
X117058669Y-64019369D01*
X116651925Y-63850890D01*
X116220128Y-63765000D01*
X115779872Y-63765000D01*
X115348075Y-63850890D01*
X114941331Y-64019369D01*
X114575271Y-64263962D01*
X114263962Y-64575271D01*
X114019369Y-64941331D01*
X113850890Y-65348075D01*
X113765000Y-65779872D01*
X111575924Y-65779872D01*
X109445228Y-63649177D01*
X109428798Y-63566579D01*
X109316788Y-63296162D01*
X109154174Y-63052794D01*
X108947206Y-62845826D01*
X108703838Y-62683212D01*
X108433421Y-62571202D01*
X108146348Y-62514100D01*
X107853652Y-62514100D01*
X107566579Y-62571202D01*
X107296162Y-62683212D01*
X107052794Y-62845826D01*
X106845826Y-63052794D01*
X106683212Y-63296162D01*
X106571202Y-63566579D01*
X106514100Y-63853652D01*
X106514100Y-64146348D01*
X106571202Y-64433421D01*
X106683212Y-64703838D01*
X106845826Y-64947206D01*
X107052794Y-65154174D01*
X107296162Y-65316788D01*
X107566579Y-65428798D01*
X107649177Y-65445228D01*
X107933949Y-65730000D01*
X81062380Y-65730000D01*
X81000000Y-65723856D01*
X80937620Y-65730000D01*
X80751037Y-65748377D01*
X80511641Y-65820997D01*
X80291012Y-65938925D01*
X80216592Y-66000000D01*
X80146083Y-66057865D01*
X80146082Y-66057866D01*
X80097630Y-66097630D01*
X80057868Y-66146080D01*
X75146086Y-71057864D01*
X75097631Y-71097630D01*
X74938926Y-71291012D01*
X74829203Y-71496291D01*
X74820998Y-71511641D01*
X74748377Y-71751037D01*
X74723857Y-72000000D01*
X74730001Y-72062383D01*
X74730000Y-80062627D01*
X74723857Y-80125000D01*
X74730000Y-80187373D01*
X74730000Y-80187379D01*
X74748377Y-80373962D01*
X74820997Y-80613358D01*
X74938925Y-80833987D01*
X75097630Y-81027370D01*
X75146091Y-81067141D01*
X76146084Y-82067135D01*
X76291012Y-82186074D01*
X76511641Y-82304003D01*
X76751037Y-82376623D01*
X77000000Y-82401144D01*
X77248963Y-82376623D01*
X77488359Y-82304003D01*
X77708987Y-82186074D01*
X77902370Y-82027370D01*
X78061074Y-81833987D01*
X78179003Y-81613359D01*
X78251623Y-81373963D01*
X78276144Y-81125000D01*
X78251623Y-80876037D01*
X78179003Y-80636641D01*
X78061074Y-80416012D01*
X77942135Y-80271084D01*
X77270000Y-79598950D01*
X77270000Y-72526050D01*
X80536598Y-69259454D01*
X80571202Y-69433421D01*
X80683212Y-69703838D01*
X80730001Y-69773862D01*
X80730000Y-71062379D01*
X80730001Y-71062389D01*
X80730001Y-73018008D01*
X80669180Y-72985498D01*
X80549482Y-72949188D01*
X80425000Y-72936928D01*
X79575000Y-72936928D01*
X79450518Y-72949188D01*
X79330820Y-72985498D01*
X79220506Y-73044463D01*
X79123815Y-73123815D01*
X79044463Y-73220506D01*
X78985498Y-73330820D01*
X78949188Y-73450518D01*
X78936928Y-73575000D01*
X78936928Y-74425000D01*
X78949188Y-74549482D01*
X78985498Y-74669180D01*
X79044463Y-74779494D01*
X79123815Y-74876185D01*
X79220506Y-74955537D01*
X79330820Y-75014502D01*
X79450518Y-75050812D01*
X79575000Y-75063072D01*
X80425000Y-75063072D01*
X80549482Y-75050812D01*
X80669180Y-75014502D01*
X80730001Y-74981992D01*
X80730000Y-77018008D01*
X80669180Y-76985498D01*
X80549482Y-76949188D01*
X80425000Y-76936928D01*
X79575000Y-76936928D01*
X79450518Y-76949188D01*
X79330820Y-76985498D01*
X79220506Y-77044463D01*
X79123815Y-77123815D01*
X79044463Y-77220506D01*
X78985498Y-77330820D01*
X78949188Y-77450518D01*
X78936928Y-77575000D01*
X78936928Y-78425000D01*
X78949188Y-78549482D01*
X78985498Y-78669180D01*
X79044463Y-78779494D01*
X79123815Y-78876185D01*
X79220506Y-78955537D01*
X79330820Y-79014502D01*
X79450518Y-79050812D01*
X79575000Y-79063072D01*
X80425000Y-79063072D01*
X80549482Y-79050812D01*
X80669180Y-79014502D01*
X80730000Y-78981992D01*
X80730000Y-81062379D01*
X80748377Y-81248962D01*
X80820997Y-81488358D01*
X80938925Y-81708987D01*
X81097630Y-81902370D01*
X81291012Y-82061075D01*
X81511641Y-82179003D01*
X81751037Y-82251623D01*
X82000000Y-82276144D01*
X82248962Y-82251623D01*
X82488358Y-82179003D01*
X82708987Y-82061075D01*
X82902370Y-81902370D01*
X83061075Y-81708988D01*
X83179003Y-81488359D01*
X83251623Y-81248963D01*
X83270000Y-81062380D01*
X83270000Y-69773861D01*
X83316788Y-69703838D01*
X83428798Y-69433421D01*
X83485900Y-69146348D01*
X83485900Y-68853652D01*
X83428798Y-68566579D01*
X83316788Y-68296162D01*
X83299307Y-68270000D01*
X90933949Y-68270000D01*
X89146086Y-70057864D01*
X89097631Y-70097630D01*
X88938926Y-70291012D01*
X88838179Y-70479498D01*
X88820998Y-70511641D01*
X88748377Y-70751037D01*
X88723857Y-71000000D01*
X88730001Y-71062379D01*
X88730000Y-78937627D01*
X88723857Y-79000000D01*
X88730000Y-79062373D01*
X88730000Y-79062379D01*
X88745844Y-79223244D01*
X88748377Y-79248963D01*
X88761133Y-79291012D01*
X88820997Y-79488358D01*
X88938925Y-79708987D01*
X89097630Y-79902370D01*
X89146091Y-79942141D01*
X91057863Y-81853914D01*
X91097630Y-81902370D01*
X91291012Y-82061075D01*
X91511641Y-82179003D01*
X91678416Y-82229594D01*
X91751036Y-82251623D01*
X91776755Y-82254156D01*
X91937620Y-82270000D01*
X91937626Y-82270000D01*
X91999999Y-82276143D01*
X92062372Y-82270000D01*
X92062380Y-82270000D01*
X92248963Y-82251623D01*
X92488359Y-82179003D01*
X92708988Y-82061075D01*
X92902370Y-81902370D01*
X93061075Y-81708988D01*
X93179003Y-81488359D01*
X93251623Y-81248963D01*
X93276144Y-81000000D01*
X93251623Y-80751037D01*
X93237332Y-80703924D01*
X93209859Y-80613359D01*
X93179003Y-80511641D01*
X93061075Y-80291012D01*
X92902370Y-80097630D01*
X92853914Y-80057863D01*
X91270000Y-78473950D01*
X91270000Y-71526050D01*
X92221050Y-70575000D01*
X98936928Y-70575000D01*
X98936928Y-71425000D01*
X98949188Y-71549482D01*
X98985498Y-71669180D01*
X99044463Y-71779494D01*
X99123815Y-71876185D01*
X99220506Y-71955537D01*
X99330820Y-72014502D01*
X99450518Y-72050812D01*
X99575000Y-72063072D01*
X100425000Y-72063072D01*
X100549482Y-72050812D01*
X100669180Y-72014502D01*
X100779494Y-71955537D01*
X100876185Y-71876185D01*
X100955537Y-71779494D01*
X101014502Y-71669180D01*
X101050812Y-71549482D01*
X101063072Y-71425000D01*
X101063072Y-70575000D01*
X101050812Y-70450518D01*
X101014502Y-70330820D01*
X100955537Y-70220506D01*
X100876185Y-70123815D01*
X100779494Y-70044463D01*
X100669180Y-69985498D01*
X100549482Y-69949188D01*
X100425000Y-69936928D01*
X99575000Y-69936928D01*
X99450518Y-69949188D01*
X99330820Y-69985498D01*
X99220506Y-70044463D01*
X99123815Y-70123815D01*
X99044463Y-70220506D01*
X98985498Y-70330820D01*
X98949188Y-70450518D01*
X98936928Y-70575000D01*
X92221050Y-70575000D01*
X93056041Y-69740010D01*
X109846813Y-69740010D01*
X109938925Y-69912341D01*
X110097630Y-70105724D01*
X110146091Y-70145495D01*
X112730595Y-72730000D01*
X108526051Y-72730000D01*
X107942141Y-72146091D01*
X107902370Y-72097630D01*
X107708988Y-71938925D01*
X107488359Y-71820997D01*
X107248963Y-71748377D01*
X107062380Y-71730000D01*
X107062373Y-71730000D01*
X107000000Y-71723857D01*
X106937627Y-71730000D01*
X106937620Y-71730000D01*
X106751037Y-71748377D01*
X106511641Y-71820997D01*
X106291012Y-71938925D01*
X106097630Y-72097630D01*
X105938925Y-72291012D01*
X105820997Y-72511641D01*
X105748377Y-72751037D01*
X105723856Y-73000000D01*
X105748377Y-73248963D01*
X105820997Y-73488359D01*
X105938925Y-73708988D01*
X106097630Y-73902370D01*
X106146091Y-73942141D01*
X107057863Y-74853914D01*
X107097630Y-74902370D01*
X107291012Y-75061075D01*
X107465189Y-75154174D01*
X107511641Y-75179003D01*
X107751037Y-75251623D01*
X108000000Y-75276144D01*
X108062380Y-75270000D01*
X115734266Y-75270000D01*
X115796646Y-75276144D01*
X115859026Y-75270000D01*
X116226139Y-75270000D01*
X116296162Y-75316788D01*
X116566579Y-75428798D01*
X116853652Y-75485900D01*
X117146348Y-75485900D01*
X117433421Y-75428798D01*
X117703838Y-75316788D01*
X117730000Y-75299307D01*
X117730001Y-76852090D01*
X108532468Y-76852090D01*
X108490256Y-76823885D01*
X108301898Y-76745864D01*
X108101939Y-76706090D01*
X107898061Y-76706090D01*
X107698102Y-76745864D01*
X107509744Y-76823885D01*
X107340226Y-76937153D01*
X107196063Y-77081316D01*
X107082795Y-77250834D01*
X107004774Y-77439192D01*
X106965000Y-77639151D01*
X106965000Y-77843029D01*
X107004774Y-78042988D01*
X107082795Y-78231346D01*
X107196063Y-78400864D01*
X107340226Y-78545027D01*
X107509744Y-78658295D01*
X107698102Y-78736316D01*
X107898061Y-78776090D01*
X108101939Y-78776090D01*
X108301898Y-78736316D01*
X108490256Y-78658295D01*
X108532468Y-78630090D01*
X117730000Y-78630090D01*
X117730000Y-79018007D01*
X117669180Y-78985498D01*
X117549482Y-78949188D01*
X117425000Y-78936928D01*
X116575000Y-78936928D01*
X116450518Y-78949188D01*
X116330820Y-78985498D01*
X116220506Y-79044463D01*
X116123815Y-79123815D01*
X116044463Y-79220506D01*
X115985498Y-79330820D01*
X115949188Y-79450518D01*
X115936928Y-79575000D01*
X115936928Y-80425000D01*
X115949188Y-80549482D01*
X115985498Y-80669180D01*
X116044463Y-80779494D01*
X116123815Y-80876185D01*
X116220506Y-80955537D01*
X116330820Y-81014502D01*
X116450518Y-81050812D01*
X116575000Y-81063072D01*
X117425000Y-81063072D01*
X117549482Y-81050812D01*
X117669180Y-81014502D01*
X117730000Y-80981992D01*
X117730001Y-83018008D01*
X117669180Y-82985498D01*
X117549482Y-82949188D01*
X117425000Y-82936928D01*
X116575000Y-82936928D01*
X116450518Y-82949188D01*
X116330820Y-82985498D01*
X116220506Y-83044463D01*
X116123815Y-83123815D01*
X116044463Y-83220506D01*
X115985498Y-83330820D01*
X115949188Y-83450518D01*
X115936928Y-83575000D01*
X115936928Y-84425000D01*
X115949188Y-84549482D01*
X115985498Y-84669180D01*
X116044463Y-84779494D01*
X116123815Y-84876185D01*
X116220506Y-84955537D01*
X116330820Y-85014502D01*
X116450518Y-85050812D01*
X116575000Y-85063072D01*
X117140877Y-85063072D01*
X116649177Y-85554772D01*
X116566579Y-85571202D01*
X116296162Y-85683212D01*
X116052794Y-85845826D01*
X115845826Y-86052794D01*
X115683212Y-86296162D01*
X115571202Y-86566579D01*
X115514100Y-86853652D01*
X115514100Y-86945703D01*
X115425000Y-86936928D01*
X114575000Y-86936928D01*
X114450518Y-86949188D01*
X114330820Y-86985498D01*
X114220506Y-87044463D01*
X114123815Y-87123815D01*
X114044463Y-87220506D01*
X113985498Y-87330820D01*
X113949188Y-87450518D01*
X113936928Y-87575000D01*
X113936928Y-87990001D01*
X113786052Y-87990001D01*
X107942141Y-82146090D01*
X107902370Y-82097630D01*
X107708988Y-81938925D01*
X107488359Y-81820997D01*
X107248963Y-81748377D01*
X107062380Y-81730000D01*
X107062373Y-81730000D01*
X107000000Y-81723857D01*
X106937627Y-81730000D01*
X106937620Y-81730000D01*
X106751037Y-81748377D01*
X106511641Y-81820997D01*
X106291012Y-81938925D01*
X106097630Y-82097630D01*
X105938925Y-82291012D01*
X105820997Y-82511641D01*
X105748377Y-82751037D01*
X105723856Y-83000000D01*
X105748377Y-83248963D01*
X105820997Y-83488359D01*
X105938925Y-83708988D01*
X106097630Y-83902370D01*
X106146090Y-83942141D01*
X112317864Y-90113915D01*
X112357631Y-90162371D01*
X112551013Y-90321076D01*
X112771642Y-90439004D01*
X112924978Y-90485518D01*
X113011037Y-90511624D01*
X113036756Y-90514157D01*
X113197621Y-90530001D01*
X113197627Y-90530001D01*
X113260000Y-90536144D01*
X113322373Y-90530001D01*
X115733951Y-90530001D01*
X117730001Y-92526053D01*
X117730000Y-107473948D01*
X115473950Y-109730000D01*
X114062373Y-109730000D01*
X114000000Y-109723857D01*
X113937627Y-109730000D01*
X113937620Y-109730000D01*
X113774347Y-109746081D01*
X113751036Y-109748377D01*
X113511640Y-109820997D01*
X113434790Y-109862075D01*
X113291012Y-109938925D01*
X113097630Y-110097630D01*
X113057865Y-110146084D01*
X106473950Y-116730000D01*
X94985782Y-116730000D01*
X95830754Y-115961144D01*
X95902370Y-115902370D01*
X95962734Y-115828816D01*
X96026494Y-115758191D01*
X96041945Y-115732298D01*
X96061075Y-115708988D01*
X96105930Y-115625070D01*
X96154686Y-115543363D01*
X96164789Y-115514951D01*
X96179003Y-115488359D01*
X96206623Y-115397309D01*
X96238504Y-115307654D01*
X96242870Y-115277817D01*
X96251623Y-115248963D01*
X96260949Y-115154275D01*
X96274727Y-115060123D01*
X96270000Y-114967597D01*
X96270000Y-109062372D01*
X96276143Y-108999999D01*
X96270000Y-108937626D01*
X96270000Y-108937620D01*
X96251623Y-108751037D01*
X96179003Y-108511641D01*
X96061075Y-108291012D01*
X95902370Y-108097630D01*
X95853915Y-108057864D01*
X93371051Y-105575000D01*
X105936928Y-105575000D01*
X105936928Y-106425000D01*
X105949188Y-106549482D01*
X105985498Y-106669180D01*
X106044463Y-106779494D01*
X106123815Y-106876185D01*
X106220506Y-106955537D01*
X106330820Y-107014502D01*
X106450518Y-107050812D01*
X106575000Y-107063072D01*
X107425000Y-107063072D01*
X107549482Y-107050812D01*
X107669180Y-107014502D01*
X107779494Y-106955537D01*
X107876185Y-106876185D01*
X107955537Y-106779494D01*
X108014502Y-106669180D01*
X108050812Y-106549482D01*
X108063072Y-106425000D01*
X108063072Y-105575000D01*
X108050812Y-105450518D01*
X108014502Y-105330820D01*
X107955537Y-105220506D01*
X107876185Y-105123815D01*
X107779494Y-105044463D01*
X107669180Y-104985498D01*
X107549482Y-104949188D01*
X107425000Y-104936928D01*
X106575000Y-104936928D01*
X106450518Y-104949188D01*
X106330820Y-104985498D01*
X106220506Y-105044463D01*
X106123815Y-105123815D01*
X106044463Y-105220506D01*
X105985498Y-105330820D01*
X105949188Y-105450518D01*
X105936928Y-105575000D01*
X93371051Y-105575000D01*
X92270000Y-104473950D01*
X92270000Y-101062380D01*
X92276144Y-101000000D01*
X92251623Y-100751037D01*
X92179003Y-100511641D01*
X92177989Y-100509744D01*
X92061075Y-100291012D01*
X91969151Y-100179003D01*
X91942135Y-100146083D01*
X91942132Y-100146080D01*
X91902370Y-100097630D01*
X91853921Y-100057869D01*
X89270000Y-97473950D01*
X89270000Y-96937620D01*
X89251623Y-96751037D01*
X89179003Y-96511641D01*
X89061075Y-96291012D01*
X88902370Y-96097630D01*
X88708987Y-95938925D01*
X88488358Y-95820997D01*
X88248962Y-95748377D01*
X88000000Y-95723856D01*
X87751037Y-95748377D01*
X87511641Y-95820997D01*
X87291012Y-95938925D01*
X87097630Y-96097630D01*
X86938925Y-96291013D01*
X86820997Y-96511642D01*
X86748377Y-96751038D01*
X86730000Y-96937621D01*
X86730000Y-97937627D01*
X86723857Y-98000000D01*
X86730000Y-98062373D01*
X86730000Y-98062380D01*
X86748377Y-98248963D01*
X86820997Y-98488359D01*
X86938925Y-98708988D01*
X87097631Y-98902370D01*
X87146086Y-98942136D01*
X89730000Y-101526052D01*
X89730001Y-104937617D01*
X89723857Y-105000000D01*
X89748377Y-105248963D01*
X89773682Y-105332380D01*
X89820998Y-105488359D01*
X89938926Y-105708988D01*
X90097631Y-105902370D01*
X90146087Y-105942137D01*
X93730000Y-109526051D01*
X93730000Y-111018008D01*
X93669180Y-110985498D01*
X93549482Y-110949188D01*
X93425000Y-110936928D01*
X92575000Y-110936928D01*
X92450518Y-110949188D01*
X92330820Y-110985498D01*
X92220506Y-111044463D01*
X92123815Y-111123815D01*
X92044463Y-111220506D01*
X91985498Y-111330820D01*
X91949188Y-111450518D01*
X91936928Y-111575000D01*
X91936928Y-112425000D01*
X91949188Y-112549482D01*
X91985498Y-112669180D01*
X92044463Y-112779494D01*
X92123815Y-112876185D01*
X92220506Y-112955537D01*
X92330820Y-113014502D01*
X92450518Y-113050812D01*
X92575000Y-113063072D01*
X93425000Y-113063072D01*
X93549482Y-113050812D01*
X93669180Y-113014502D01*
X93730001Y-112981992D01*
X93730001Y-114438533D01*
X91211682Y-116730000D01*
X89258224Y-116730000D01*
X89275990Y-116703411D01*
X89387932Y-116433158D01*
X89445000Y-116146260D01*
X89445000Y-115853740D01*
X89387932Y-115566842D01*
X89275990Y-115296589D01*
X89113475Y-115053368D01*
X88906632Y-114846525D01*
X88663411Y-114684010D01*
X88393158Y-114572068D01*
X88106260Y-114515000D01*
X87813740Y-114515000D01*
X87526842Y-114572068D01*
X87256589Y-114684010D01*
X87013368Y-114846525D01*
X86806525Y-115053368D01*
X86690000Y-115227760D01*
X86573475Y-115053368D01*
X86366632Y-114846525D01*
X86123411Y-114684010D01*
X85853158Y-114572068D01*
X85566260Y-114515000D01*
X85273740Y-114515000D01*
X84986842Y-114572068D01*
X84716589Y-114684010D01*
X84473368Y-114846525D01*
X84266525Y-115053368D01*
X84150000Y-115227760D01*
X84033475Y-115053368D01*
X83826632Y-114846525D01*
X83583411Y-114684010D01*
X83313158Y-114572068D01*
X83026260Y-114515000D01*
X82733740Y-114515000D01*
X82446842Y-114572068D01*
X82176589Y-114684010D01*
X81933368Y-114846525D01*
X81726525Y-115053368D01*
X81610000Y-115227760D01*
X81493475Y-115053368D01*
X81286632Y-114846525D01*
X81043411Y-114684010D01*
X80773158Y-114572068D01*
X80486260Y-114515000D01*
X80193740Y-114515000D01*
X79906842Y-114572068D01*
X79636589Y-114684010D01*
X79393368Y-114846525D01*
X79186525Y-115053368D01*
X79070000Y-115227760D01*
X78953475Y-115053368D01*
X78746632Y-114846525D01*
X78503411Y-114684010D01*
X78233158Y-114572068D01*
X77946260Y-114515000D01*
X77653740Y-114515000D01*
X77366842Y-114572068D01*
X77096589Y-114684010D01*
X76853368Y-114846525D01*
X76646525Y-115053368D01*
X76484010Y-115296589D01*
X76372068Y-115566842D01*
X76315000Y-115853740D01*
X76315000Y-116146260D01*
X76372068Y-116433158D01*
X76484010Y-116703411D01*
X76501776Y-116730000D01*
X64918224Y-116730000D01*
X64935990Y-116703411D01*
X65047932Y-116433158D01*
X65105000Y-116146260D01*
X65105000Y-115853740D01*
X65047932Y-115566842D01*
X64935990Y-115296589D01*
X64773475Y-115053368D01*
X64566632Y-114846525D01*
X64323411Y-114684010D01*
X64053158Y-114572068D01*
X63766260Y-114515000D01*
X63473740Y-114515000D01*
X63186842Y-114572068D01*
X62916589Y-114684010D01*
X62673368Y-114846525D01*
X62466525Y-115053368D01*
X62350000Y-115227760D01*
X62233475Y-115053368D01*
X62026632Y-114846525D01*
X61783411Y-114684010D01*
X61513158Y-114572068D01*
X61431969Y-114555918D01*
X60022141Y-113146091D01*
X59982370Y-113097630D01*
X59788988Y-112938925D01*
X59568359Y-112820997D01*
X59328963Y-112748377D01*
X59142380Y-112730000D01*
X59142373Y-112730000D01*
X59080000Y-112723857D01*
X59017627Y-112730000D01*
X50770000Y-112730000D01*
X50770000Y-112026050D01*
X51221050Y-111575000D01*
X71936928Y-111575000D01*
X71936928Y-112425000D01*
X71949188Y-112549482D01*
X71985498Y-112669180D01*
X72044463Y-112779494D01*
X72123815Y-112876185D01*
X72220506Y-112955537D01*
X72330820Y-113014502D01*
X72450518Y-113050812D01*
X72575000Y-113063072D01*
X73425000Y-113063072D01*
X73549482Y-113050812D01*
X73669180Y-113014502D01*
X73779494Y-112955537D01*
X73876185Y-112876185D01*
X73955537Y-112779494D01*
X74014502Y-112669180D01*
X74050812Y-112549482D01*
X74063072Y-112425000D01*
X74063072Y-111575000D01*
X74050812Y-111450518D01*
X74014502Y-111330820D01*
X73955537Y-111220506D01*
X73876185Y-111123815D01*
X73779494Y-111044463D01*
X73669180Y-110985498D01*
X73549482Y-110949188D01*
X73425000Y-110936928D01*
X72575000Y-110936928D01*
X72450518Y-110949188D01*
X72330820Y-110985498D01*
X72220506Y-111044463D01*
X72123815Y-111123815D01*
X72044463Y-111220506D01*
X71985498Y-111330820D01*
X71949188Y-111450518D01*
X71936928Y-111575000D01*
X51221050Y-111575000D01*
X57646051Y-105150000D01*
X64511928Y-105150000D01*
X64511928Y-106850000D01*
X64524188Y-106974482D01*
X64560498Y-107094180D01*
X64619463Y-107204494D01*
X64698815Y-107301185D01*
X64795506Y-107380537D01*
X64905820Y-107439502D01*
X65025518Y-107475812D01*
X65150000Y-107488072D01*
X66850000Y-107488072D01*
X66974482Y-107475812D01*
X67094180Y-107439502D01*
X67204494Y-107380537D01*
X67301185Y-107301185D01*
X67380537Y-107204494D01*
X67439502Y-107094180D01*
X67475812Y-106974482D01*
X67488072Y-106850000D01*
X67488072Y-105150000D01*
X67475812Y-105025518D01*
X67439502Y-104905820D01*
X67380537Y-104795506D01*
X67301185Y-104698815D01*
X67204494Y-104619463D01*
X67094180Y-104560498D01*
X67021620Y-104538487D01*
X67153475Y-104406632D01*
X67315990Y-104163411D01*
X67383676Y-104000000D01*
X73723857Y-104000000D01*
X73748377Y-104248963D01*
X73820998Y-104488359D01*
X73938926Y-104708987D01*
X74097630Y-104902370D01*
X74291013Y-105061074D01*
X74511641Y-105179002D01*
X74751037Y-105251623D01*
X75000000Y-105276143D01*
X75248963Y-105251623D01*
X75488359Y-105179002D01*
X75708987Y-105061074D01*
X75853916Y-104942134D01*
X78942135Y-101853917D01*
X79061074Y-101708988D01*
X79179003Y-101488359D01*
X79251623Y-101248963D01*
X79276144Y-101000000D01*
X79251623Y-100751037D01*
X79179003Y-100511641D01*
X79061074Y-100291013D01*
X78902370Y-100097630D01*
X78708987Y-99938926D01*
X78488359Y-99820997D01*
X78248963Y-99748377D01*
X78000000Y-99723856D01*
X77751037Y-99748377D01*
X77511641Y-99820997D01*
X77291012Y-99938926D01*
X77146083Y-100057865D01*
X74057866Y-103146084D01*
X73938926Y-103291013D01*
X73820998Y-103511641D01*
X73748377Y-103751037D01*
X73723857Y-104000000D01*
X67383676Y-104000000D01*
X67427932Y-103893158D01*
X67485000Y-103606260D01*
X67485000Y-103313740D01*
X67427932Y-103026842D01*
X67315990Y-102756589D01*
X67153475Y-102513368D01*
X66946632Y-102306525D01*
X66703411Y-102144010D01*
X66433158Y-102032068D01*
X66146260Y-101975000D01*
X65853740Y-101975000D01*
X65566842Y-102032068D01*
X65296589Y-102144010D01*
X65053368Y-102306525D01*
X64846525Y-102513368D01*
X64684010Y-102756589D01*
X64572068Y-103026842D01*
X64515000Y-103313740D01*
X64515000Y-103606260D01*
X64572068Y-103893158D01*
X64684010Y-104163411D01*
X64846525Y-104406632D01*
X64978380Y-104538487D01*
X64905820Y-104560498D01*
X64795506Y-104619463D01*
X64698815Y-104698815D01*
X64619463Y-104795506D01*
X64560498Y-104905820D01*
X64524188Y-105025518D01*
X64511928Y-105150000D01*
X57646051Y-105150000D01*
X59853921Y-102942131D01*
X59902370Y-102902370D01*
X59942132Y-102853920D01*
X59942135Y-102853917D01*
X59983171Y-102803914D01*
X60061075Y-102708988D01*
X60179003Y-102488359D01*
X60251623Y-102248963D01*
X60270000Y-102062380D01*
X60270000Y-102062379D01*
X60276144Y-102000000D01*
X60270000Y-101937620D01*
X60270000Y-96575000D01*
X74936928Y-96575000D01*
X74936928Y-97425000D01*
X74949188Y-97549482D01*
X74985498Y-97669180D01*
X75044463Y-97779494D01*
X75123815Y-97876185D01*
X75220506Y-97955537D01*
X75330820Y-98014502D01*
X75450518Y-98050812D01*
X75575000Y-98063072D01*
X76425000Y-98063072D01*
X76549482Y-98050812D01*
X76669180Y-98014502D01*
X76779494Y-97955537D01*
X76876185Y-97876185D01*
X76955537Y-97779494D01*
X77014502Y-97669180D01*
X77050812Y-97549482D01*
X77063072Y-97425000D01*
X77063072Y-96575000D01*
X77050812Y-96450518D01*
X77014502Y-96330820D01*
X76955537Y-96220506D01*
X76876185Y-96123815D01*
X76779494Y-96044463D01*
X76669180Y-95985498D01*
X76549482Y-95949188D01*
X76425000Y-95936928D01*
X75575000Y-95936928D01*
X75450518Y-95949188D01*
X75330820Y-95985498D01*
X75220506Y-96044463D01*
X75123815Y-96123815D01*
X75044463Y-96220506D01*
X74985498Y-96330820D01*
X74949188Y-96450518D01*
X74936928Y-96575000D01*
X60270000Y-96575000D01*
X60270000Y-95575000D01*
X107936928Y-95575000D01*
X107936928Y-96425000D01*
X107949188Y-96549482D01*
X107985498Y-96669180D01*
X108044463Y-96779494D01*
X108123815Y-96876185D01*
X108220506Y-96955537D01*
X108330820Y-97014502D01*
X108450518Y-97050812D01*
X108575000Y-97063072D01*
X109425000Y-97063072D01*
X109549482Y-97050812D01*
X109669180Y-97014502D01*
X109779494Y-96955537D01*
X109876185Y-96876185D01*
X109955537Y-96779494D01*
X109964888Y-96762000D01*
X111298289Y-96762000D01*
X111340226Y-96803937D01*
X111509744Y-96917205D01*
X111698102Y-96995226D01*
X111898061Y-97035000D01*
X112101939Y-97035000D01*
X112301898Y-96995226D01*
X112490256Y-96917205D01*
X112659774Y-96803937D01*
X112803937Y-96659774D01*
X112917205Y-96490256D01*
X112995226Y-96301898D01*
X113035000Y-96101939D01*
X113035000Y-95898061D01*
X112995226Y-95698102D01*
X112917205Y-95509744D01*
X112803937Y-95340226D01*
X112659774Y-95196063D01*
X112490256Y-95082795D01*
X112301898Y-95004774D01*
X112101939Y-94965000D01*
X111898061Y-94965000D01*
X111698102Y-95004774D01*
X111509744Y-95082795D01*
X111340226Y-95196063D01*
X111298289Y-95238000D01*
X109964888Y-95238000D01*
X109955537Y-95220506D01*
X109876185Y-95123815D01*
X109779494Y-95044463D01*
X109669180Y-94985498D01*
X109549482Y-94949188D01*
X109425000Y-94936928D01*
X108575000Y-94936928D01*
X108450518Y-94949188D01*
X108330820Y-94985498D01*
X108220506Y-95044463D01*
X108123815Y-95123815D01*
X108044463Y-95220506D01*
X107985498Y-95330820D01*
X107949188Y-95450518D01*
X107936928Y-95575000D01*
X60270000Y-95575000D01*
X60270000Y-92062380D01*
X60276144Y-92000000D01*
X60251623Y-91751037D01*
X60179003Y-91511641D01*
X60145513Y-91448986D01*
X60061075Y-91291012D01*
X59902370Y-91097630D01*
X59853914Y-91057863D01*
X59406051Y-90610000D01*
X64511928Y-90610000D01*
X64511928Y-92310000D01*
X64524188Y-92434482D01*
X64560498Y-92554180D01*
X64619463Y-92664494D01*
X64698815Y-92761185D01*
X64795506Y-92840537D01*
X64905820Y-92899502D01*
X65025518Y-92935812D01*
X65150000Y-92948072D01*
X66850000Y-92948072D01*
X66974482Y-92935812D01*
X67094180Y-92899502D01*
X67179793Y-92853740D01*
X74975000Y-92853740D01*
X74975000Y-93146260D01*
X75032068Y-93433158D01*
X75144010Y-93703411D01*
X75306525Y-93946632D01*
X75513368Y-94153475D01*
X75756589Y-94315990D01*
X76026842Y-94427932D01*
X76313740Y-94485000D01*
X76606260Y-94485000D01*
X76893158Y-94427932D01*
X77163411Y-94315990D01*
X77406632Y-94153475D01*
X77538487Y-94021620D01*
X77560498Y-94094180D01*
X77619463Y-94204494D01*
X77698815Y-94301185D01*
X77795506Y-94380537D01*
X77905820Y-94439502D01*
X78025518Y-94475812D01*
X78150000Y-94488072D01*
X79850000Y-94488072D01*
X79974482Y-94475812D01*
X80094180Y-94439502D01*
X80204494Y-94380537D01*
X80301185Y-94301185D01*
X80380537Y-94204494D01*
X80439502Y-94094180D01*
X80475812Y-93974482D01*
X80488072Y-93850000D01*
X80488072Y-92575000D01*
X88936928Y-92575000D01*
X88936928Y-93425000D01*
X88949188Y-93549482D01*
X88985498Y-93669180D01*
X89044463Y-93779494D01*
X89123815Y-93876185D01*
X89220506Y-93955537D01*
X89330820Y-94014502D01*
X89450518Y-94050812D01*
X89575000Y-94063072D01*
X90425000Y-94063072D01*
X90549482Y-94050812D01*
X90669180Y-94014502D01*
X90779494Y-93955537D01*
X90876185Y-93876185D01*
X90955537Y-93779494D01*
X91014502Y-93669180D01*
X91050812Y-93549482D01*
X91063072Y-93425000D01*
X91063072Y-92575000D01*
X91050812Y-92450518D01*
X91014502Y-92330820D01*
X90955537Y-92220506D01*
X90876185Y-92123815D01*
X90779494Y-92044463D01*
X90669180Y-91985498D01*
X90549482Y-91949188D01*
X90425000Y-91936928D01*
X89575000Y-91936928D01*
X89450518Y-91949188D01*
X89330820Y-91985498D01*
X89220506Y-92044463D01*
X89123815Y-92123815D01*
X89044463Y-92220506D01*
X88985498Y-92330820D01*
X88949188Y-92450518D01*
X88936928Y-92575000D01*
X80488072Y-92575000D01*
X80488072Y-92150000D01*
X80475812Y-92025518D01*
X80439502Y-91905820D01*
X80380537Y-91795506D01*
X80301185Y-91698815D01*
X80204494Y-91619463D01*
X80094180Y-91560498D01*
X79974482Y-91524188D01*
X79850000Y-91511928D01*
X78150000Y-91511928D01*
X78025518Y-91524188D01*
X77905820Y-91560498D01*
X77795506Y-91619463D01*
X77698815Y-91698815D01*
X77619463Y-91795506D01*
X77560498Y-91905820D01*
X77538487Y-91978380D01*
X77406632Y-91846525D01*
X77163411Y-91684010D01*
X76893158Y-91572068D01*
X76606260Y-91515000D01*
X76313740Y-91515000D01*
X76026842Y-91572068D01*
X75756589Y-91684010D01*
X75513368Y-91846525D01*
X75306525Y-92053368D01*
X75144010Y-92296589D01*
X75032068Y-92566842D01*
X74975000Y-92853740D01*
X67179793Y-92853740D01*
X67204494Y-92840537D01*
X67301185Y-92761185D01*
X67380537Y-92664494D01*
X67439502Y-92554180D01*
X67475812Y-92434482D01*
X67488072Y-92310000D01*
X67488072Y-90610000D01*
X67475812Y-90485518D01*
X67439502Y-90365820D01*
X67380537Y-90255506D01*
X67301185Y-90158815D01*
X67204494Y-90079463D01*
X67094180Y-90020498D01*
X66974482Y-89984188D01*
X66850000Y-89971928D01*
X65150000Y-89971928D01*
X65025518Y-89984188D01*
X64905820Y-90020498D01*
X64795506Y-90079463D01*
X64698815Y-90158815D01*
X64619463Y-90255506D01*
X64560498Y-90365820D01*
X64524188Y-90485518D01*
X64511928Y-90610000D01*
X59406051Y-90610000D01*
X59359123Y-90563072D01*
X59425000Y-90563072D01*
X59549482Y-90550812D01*
X59669180Y-90514502D01*
X59779494Y-90455537D01*
X59876185Y-90376185D01*
X59955537Y-90279494D01*
X60014502Y-90169180D01*
X60050812Y-90049482D01*
X60063072Y-89925000D01*
X60063072Y-89075000D01*
X60050812Y-88950518D01*
X60014502Y-88830820D01*
X59955537Y-88720506D01*
X59876185Y-88623815D01*
X59816704Y-88575000D01*
X95936928Y-88575000D01*
X95936928Y-89425000D01*
X95949188Y-89549482D01*
X95985498Y-89669180D01*
X96044463Y-89779494D01*
X96123815Y-89876185D01*
X96220506Y-89955537D01*
X96330820Y-90014502D01*
X96450518Y-90050812D01*
X96575000Y-90063072D01*
X97425000Y-90063072D01*
X97549482Y-90050812D01*
X97669180Y-90014502D01*
X97779494Y-89955537D01*
X97876185Y-89876185D01*
X97955537Y-89779494D01*
X98014502Y-89669180D01*
X98050812Y-89549482D01*
X98063072Y-89425000D01*
X98063072Y-88575000D01*
X98050812Y-88450518D01*
X98014502Y-88330820D01*
X97955537Y-88220506D01*
X97876185Y-88123815D01*
X97779494Y-88044463D01*
X97669180Y-87985498D01*
X97549482Y-87949188D01*
X97425000Y-87936928D01*
X96575000Y-87936928D01*
X96450518Y-87949188D01*
X96330820Y-87985498D01*
X96220506Y-88044463D01*
X96123815Y-88123815D01*
X96044463Y-88220506D01*
X95985498Y-88330820D01*
X95949188Y-88450518D01*
X95936928Y-88575000D01*
X59816704Y-88575000D01*
X59779494Y-88544463D01*
X59669180Y-88485498D01*
X59549482Y-88449188D01*
X59425000Y-88436928D01*
X59009999Y-88436928D01*
X59009999Y-87035000D01*
X59101939Y-87035000D01*
X59301898Y-86995226D01*
X59490256Y-86917205D01*
X59532693Y-86888850D01*
X59661774Y-86876136D01*
X59829351Y-86825303D01*
X59983791Y-86742753D01*
X60119159Y-86631659D01*
X60146999Y-86597736D01*
X63597743Y-83146993D01*
X63631659Y-83119159D01*
X63742753Y-82983791D01*
X63748125Y-82973740D01*
X64515000Y-82973740D01*
X64515000Y-83266260D01*
X64572068Y-83553158D01*
X64684010Y-83823411D01*
X64846525Y-84066632D01*
X65053368Y-84273475D01*
X65227760Y-84390000D01*
X65053368Y-84506525D01*
X64846525Y-84713368D01*
X64684010Y-84956589D01*
X64572068Y-85226842D01*
X64515000Y-85513740D01*
X64515000Y-85806260D01*
X64572068Y-86093158D01*
X64684010Y-86363411D01*
X64846525Y-86606632D01*
X65053368Y-86813475D01*
X65296589Y-86975990D01*
X65566842Y-87087932D01*
X65853740Y-87145000D01*
X66146260Y-87145000D01*
X66433158Y-87087932D01*
X66703411Y-86975990D01*
X66946632Y-86813475D01*
X67153475Y-86606632D01*
X67315990Y-86363411D01*
X67427932Y-86093158D01*
X67485000Y-85806260D01*
X67485000Y-85513740D01*
X67427932Y-85226842D01*
X67365038Y-85075000D01*
X68936928Y-85075000D01*
X68936928Y-85925000D01*
X68949188Y-86049482D01*
X68985498Y-86169180D01*
X69044463Y-86279494D01*
X69123815Y-86376185D01*
X69220506Y-86455537D01*
X69330820Y-86514502D01*
X69450518Y-86550812D01*
X69575000Y-86563072D01*
X70425000Y-86563072D01*
X70549482Y-86550812D01*
X70669180Y-86514502D01*
X70779494Y-86455537D01*
X70876185Y-86376185D01*
X70955537Y-86279494D01*
X71014502Y-86169180D01*
X71050812Y-86049482D01*
X71063072Y-85925000D01*
X71063072Y-85075000D01*
X71050812Y-84950518D01*
X71014502Y-84830820D01*
X70955537Y-84720506D01*
X70876185Y-84623815D01*
X70779494Y-84544463D01*
X70669180Y-84485498D01*
X70549482Y-84449188D01*
X70425000Y-84436928D01*
X69575000Y-84436928D01*
X69450518Y-84449188D01*
X69330820Y-84485498D01*
X69220506Y-84544463D01*
X69123815Y-84623815D01*
X69044463Y-84720506D01*
X68985498Y-84830820D01*
X68949188Y-84950518D01*
X68936928Y-85075000D01*
X67365038Y-85075000D01*
X67315990Y-84956589D01*
X67153475Y-84713368D01*
X66946632Y-84506525D01*
X66772240Y-84390000D01*
X66946632Y-84273475D01*
X67153475Y-84066632D01*
X67315990Y-83823411D01*
X67427932Y-83553158D01*
X67450826Y-83438061D01*
X83490000Y-83438061D01*
X83490000Y-83641939D01*
X83529774Y-83841898D01*
X83607795Y-84030256D01*
X83721063Y-84199774D01*
X83865226Y-84343937D01*
X84034744Y-84457205D01*
X84223102Y-84535226D01*
X84423061Y-84575000D01*
X84626939Y-84575000D01*
X84826898Y-84535226D01*
X85015256Y-84457205D01*
X85057468Y-84429000D01*
X88161340Y-84429000D01*
X88205000Y-84433300D01*
X88248660Y-84429000D01*
X88248667Y-84429000D01*
X88379274Y-84416136D01*
X88546851Y-84365303D01*
X88701291Y-84282753D01*
X88836659Y-84171659D01*
X88864499Y-84137736D01*
X89104174Y-83898061D01*
X91090000Y-83898061D01*
X91090000Y-84101939D01*
X91129774Y-84301898D01*
X91207795Y-84490256D01*
X91321063Y-84659774D01*
X91465226Y-84803937D01*
X91634744Y-84917205D01*
X91823102Y-84995226D01*
X92023061Y-85035000D01*
X92226939Y-85035000D01*
X92426898Y-84995226D01*
X92615256Y-84917205D01*
X92657468Y-84889000D01*
X95467532Y-84889000D01*
X95509744Y-84917205D01*
X95698102Y-84995226D01*
X95898061Y-85035000D01*
X96101939Y-85035000D01*
X96301898Y-84995226D01*
X96490256Y-84917205D01*
X96659774Y-84803937D01*
X96803937Y-84659774D01*
X96917205Y-84490256D01*
X96995226Y-84301898D01*
X97035000Y-84101939D01*
X97035000Y-83898061D01*
X96995226Y-83698102D01*
X96917205Y-83509744D01*
X96803937Y-83340226D01*
X96659774Y-83196063D01*
X96490256Y-83082795D01*
X96301898Y-83004774D01*
X96101939Y-82965000D01*
X95898061Y-82965000D01*
X95698102Y-83004774D01*
X95509744Y-83082795D01*
X95467532Y-83111000D01*
X92657468Y-83111000D01*
X92615256Y-83082795D01*
X92426898Y-83004774D01*
X92226939Y-82965000D01*
X92023061Y-82965000D01*
X91823102Y-83004774D01*
X91634744Y-83082795D01*
X91465226Y-83196063D01*
X91321063Y-83340226D01*
X91207795Y-83509744D01*
X91129774Y-83698102D01*
X91090000Y-83898061D01*
X89104174Y-83898061D01*
X89727105Y-83275130D01*
X89776898Y-83265226D01*
X89965256Y-83187205D01*
X90134774Y-83073937D01*
X90278937Y-82929774D01*
X90392205Y-82760256D01*
X90470226Y-82571898D01*
X90510000Y-82371939D01*
X90510000Y-82168061D01*
X90470226Y-81968102D01*
X90392205Y-81779744D01*
X90278937Y-81610226D01*
X90134774Y-81466063D01*
X89965256Y-81352795D01*
X89776898Y-81274774D01*
X89576939Y-81235000D01*
X89373061Y-81235000D01*
X89173102Y-81274774D01*
X88984744Y-81352795D01*
X88815226Y-81466063D01*
X88671063Y-81610226D01*
X88557795Y-81779744D01*
X88479774Y-81968102D01*
X88469870Y-82017895D01*
X87836765Y-82651000D01*
X85057468Y-82651000D01*
X85015256Y-82622795D01*
X84826898Y-82544774D01*
X84626939Y-82505000D01*
X84423061Y-82505000D01*
X84223102Y-82544774D01*
X84034744Y-82622795D01*
X83865226Y-82736063D01*
X83721063Y-82880226D01*
X83607795Y-83049744D01*
X83529774Y-83238102D01*
X83490000Y-83438061D01*
X67450826Y-83438061D01*
X67485000Y-83266260D01*
X67485000Y-82973740D01*
X67427932Y-82686842D01*
X67315990Y-82416589D01*
X67153475Y-82173368D01*
X66946632Y-81966525D01*
X66703411Y-81804010D01*
X66433158Y-81692068D01*
X66146260Y-81635000D01*
X65853740Y-81635000D01*
X65566842Y-81692068D01*
X65296589Y-81804010D01*
X65053368Y-81966525D01*
X64846525Y-82173368D01*
X64684010Y-82416589D01*
X64572068Y-82686842D01*
X64515000Y-82973740D01*
X63748125Y-82973740D01*
X63825303Y-82829351D01*
X63857304Y-82723856D01*
X63876136Y-82661776D01*
X63884988Y-82571898D01*
X63889000Y-82531167D01*
X63889000Y-82531161D01*
X63893300Y-82487501D01*
X63889000Y-82443841D01*
X63889000Y-80075000D01*
X68936928Y-80075000D01*
X68936928Y-80925000D01*
X68949188Y-81049482D01*
X68985498Y-81169180D01*
X69044463Y-81279494D01*
X69123815Y-81376185D01*
X69220506Y-81455537D01*
X69330820Y-81514502D01*
X69450518Y-81550812D01*
X69575000Y-81563072D01*
X70425000Y-81563072D01*
X70549482Y-81550812D01*
X70669180Y-81514502D01*
X70779494Y-81455537D01*
X70876185Y-81376185D01*
X70955537Y-81279494D01*
X71014502Y-81169180D01*
X71050812Y-81049482D01*
X71063072Y-80925000D01*
X71063072Y-80075000D01*
X71050812Y-79950518D01*
X71014502Y-79830820D01*
X70955537Y-79720506D01*
X70876185Y-79623815D01*
X70779494Y-79544463D01*
X70669180Y-79485498D01*
X70549482Y-79449188D01*
X70425000Y-79436928D01*
X69575000Y-79436928D01*
X69450518Y-79449188D01*
X69330820Y-79485498D01*
X69220506Y-79544463D01*
X69123815Y-79623815D01*
X69044463Y-79720506D01*
X68985498Y-79830820D01*
X68949188Y-79950518D01*
X68936928Y-80075000D01*
X63889000Y-80075000D01*
X63889000Y-77510235D01*
X64653395Y-76745841D01*
X64698815Y-76801185D01*
X64795506Y-76880537D01*
X64905820Y-76939502D01*
X64978380Y-76961513D01*
X64846525Y-77093368D01*
X64684010Y-77336589D01*
X64572068Y-77606842D01*
X64515000Y-77893740D01*
X64515000Y-78186260D01*
X64572068Y-78473158D01*
X64684010Y-78743411D01*
X64846525Y-78986632D01*
X65053368Y-79193475D01*
X65296589Y-79355990D01*
X65566842Y-79467932D01*
X65853740Y-79525000D01*
X66146260Y-79525000D01*
X66433158Y-79467932D01*
X66703411Y-79355990D01*
X66946632Y-79193475D01*
X67153475Y-78986632D01*
X67315990Y-78743411D01*
X67427932Y-78473158D01*
X67485000Y-78186260D01*
X67485000Y-77893740D01*
X67427932Y-77606842D01*
X67315990Y-77336589D01*
X67153475Y-77093368D01*
X67021620Y-76961513D01*
X67094180Y-76939502D01*
X67204494Y-76880537D01*
X67301185Y-76801185D01*
X67380537Y-76704494D01*
X67439502Y-76594180D01*
X67475812Y-76474482D01*
X67488072Y-76350000D01*
X67488072Y-75575000D01*
X68936928Y-75575000D01*
X68936928Y-76425000D01*
X68949188Y-76549482D01*
X68985498Y-76669180D01*
X69044463Y-76779494D01*
X69123815Y-76876185D01*
X69220506Y-76955537D01*
X69330820Y-77014502D01*
X69450518Y-77050812D01*
X69575000Y-77063072D01*
X70425000Y-77063072D01*
X70549482Y-77050812D01*
X70669180Y-77014502D01*
X70779494Y-76955537D01*
X70876185Y-76876185D01*
X70955537Y-76779494D01*
X71014502Y-76669180D01*
X71050812Y-76549482D01*
X71063072Y-76425000D01*
X71063072Y-75575000D01*
X71050812Y-75450518D01*
X71014502Y-75330820D01*
X70955537Y-75220506D01*
X70876185Y-75123815D01*
X70779494Y-75044463D01*
X70669180Y-74985498D01*
X70549482Y-74949188D01*
X70425000Y-74936928D01*
X69575000Y-74936928D01*
X69450518Y-74949188D01*
X69330820Y-74985498D01*
X69220506Y-75044463D01*
X69123815Y-75123815D01*
X69044463Y-75220506D01*
X68985498Y-75330820D01*
X68949188Y-75450518D01*
X68936928Y-75575000D01*
X67488072Y-75575000D01*
X67488072Y-74650000D01*
X67475812Y-74525518D01*
X67439502Y-74405820D01*
X67380537Y-74295506D01*
X67301185Y-74198815D01*
X67204494Y-74119463D01*
X67094180Y-74060498D01*
X66974482Y-74024188D01*
X66850000Y-74011928D01*
X65150000Y-74011928D01*
X65025518Y-74024188D01*
X64905820Y-74060498D01*
X64795506Y-74119463D01*
X64698815Y-74198815D01*
X64619463Y-74295506D01*
X64560498Y-74405820D01*
X64524188Y-74525518D01*
X64514960Y-74619212D01*
X64484325Y-74622229D01*
X64467725Y-74623864D01*
X64416892Y-74639284D01*
X64300149Y-74674697D01*
X64145709Y-74757247D01*
X64010341Y-74868341D01*
X63982506Y-74902258D01*
X62402259Y-76482506D01*
X62368342Y-76510341D01*
X62340507Y-76544258D01*
X62340505Y-76544260D01*
X62257248Y-76645709D01*
X62174698Y-76800148D01*
X62123864Y-76967726D01*
X62106700Y-77142000D01*
X62111001Y-77185670D01*
X62111000Y-82119264D01*
X59238168Y-84992097D01*
X59101939Y-84965000D01*
X59009999Y-84965000D01*
X59009999Y-84786051D01*
X59853915Y-83942136D01*
X59902370Y-83902370D01*
X60061075Y-83708988D01*
X60179003Y-83488359D01*
X60251623Y-83248963D01*
X60270000Y-83062380D01*
X60270000Y-83062379D01*
X60276144Y-83000000D01*
X60270000Y-82937620D01*
X60270000Y-79937620D01*
X60251623Y-79751037D01*
X60179003Y-79511641D01*
X60061075Y-79291012D01*
X59902370Y-79097630D01*
X59708988Y-78938925D01*
X59488359Y-78820997D01*
X59248963Y-78748377D01*
X59000000Y-78723856D01*
X58751038Y-78748377D01*
X58511642Y-78820997D01*
X58291013Y-78938925D01*
X58097631Y-79097630D01*
X57938926Y-79291012D01*
X57820998Y-79511641D01*
X57748378Y-79751037D01*
X57730001Y-79937620D01*
X57730000Y-82473949D01*
X56886085Y-83317865D01*
X56837630Y-83357631D01*
X56678925Y-83551013D01*
X56580855Y-83734490D01*
X56560997Y-83771642D01*
X56488376Y-84011038D01*
X56463856Y-84260001D01*
X56470000Y-84322384D01*
X56469999Y-90677626D01*
X56463856Y-90739999D01*
X56469999Y-90802372D01*
X56469999Y-90802378D01*
X56483448Y-90938925D01*
X56486820Y-90973158D01*
X56488376Y-90988961D01*
X56560996Y-91228357D01*
X56678924Y-91448986D01*
X56837629Y-91642369D01*
X56886090Y-91682140D01*
X57730001Y-92526052D01*
X57730000Y-99062379D01*
X57730001Y-99062389D01*
X57730000Y-101473948D01*
X48646087Y-110557863D01*
X48597631Y-110597630D01*
X48438926Y-110791012D01*
X48360933Y-110936928D01*
X48320998Y-111011641D01*
X48248377Y-111251037D01*
X48223857Y-111500000D01*
X48230001Y-111562382D01*
X48230000Y-112957767D01*
X48051082Y-113225537D01*
X47927832Y-113523088D01*
X47865000Y-113838967D01*
X47865000Y-114161033D01*
X47927832Y-114476912D01*
X48051082Y-114774463D01*
X48230013Y-115042252D01*
X48457748Y-115269987D01*
X48725537Y-115448918D01*
X49023088Y-115572168D01*
X49338967Y-115635000D01*
X49661033Y-115635000D01*
X49976912Y-115572168D01*
X50274463Y-115448918D01*
X50542233Y-115270000D01*
X54511928Y-115270000D01*
X54511928Y-116850000D01*
X54524188Y-116974482D01*
X54560498Y-117094180D01*
X54619463Y-117204494D01*
X54698815Y-117301185D01*
X54795506Y-117380537D01*
X54905820Y-117439502D01*
X55025518Y-117475812D01*
X55150000Y-117488072D01*
X56850000Y-117488072D01*
X56974482Y-117475812D01*
X57094180Y-117439502D01*
X57204494Y-117380537D01*
X57301185Y-117301185D01*
X57380537Y-117204494D01*
X57439502Y-117094180D01*
X57461513Y-117021620D01*
X57593368Y-117153475D01*
X57836589Y-117315990D01*
X58106842Y-117427932D01*
X58188031Y-117444082D01*
X59597863Y-118853914D01*
X59637630Y-118902370D01*
X59831012Y-119061075D01*
X60051641Y-119179003D01*
X60218416Y-119229594D01*
X60291036Y-119251623D01*
X60316755Y-119254156D01*
X60477620Y-119270000D01*
X60477626Y-119270000D01*
X60539999Y-119276143D01*
X60602372Y-119270000D01*
X91610584Y-119270000D01*
X91642880Y-119274726D01*
X91735393Y-119270000D01*
X106937627Y-119270000D01*
X107000000Y-119276143D01*
X107062373Y-119270000D01*
X107062380Y-119270000D01*
X107248963Y-119251623D01*
X107488359Y-119179003D01*
X107708988Y-119061075D01*
X107902370Y-118902370D01*
X107942141Y-118853909D01*
X111016178Y-115779872D01*
X113765000Y-115779872D01*
X113765000Y-116220128D01*
X113850890Y-116651925D01*
X114019369Y-117058669D01*
X114263962Y-117424729D01*
X114575271Y-117736038D01*
X114941331Y-117980631D01*
X115348075Y-118149110D01*
X115779872Y-118235000D01*
X116220128Y-118235000D01*
X116651925Y-118149110D01*
X117058669Y-117980631D01*
X117424729Y-117736038D01*
X117736038Y-117424729D01*
X117980631Y-117058669D01*
X118149110Y-116651925D01*
X118235000Y-116220128D01*
X118235000Y-115779872D01*
X118149110Y-115348075D01*
X117980631Y-114941331D01*
X117736038Y-114575271D01*
X117424729Y-114263962D01*
X117058669Y-114019369D01*
X116651925Y-113850890D01*
X116220128Y-113765000D01*
X115779872Y-113765000D01*
X115348075Y-113850890D01*
X114941331Y-114019369D01*
X114575271Y-114263962D01*
X114263962Y-114575271D01*
X114019369Y-114941331D01*
X113850890Y-115348075D01*
X113765000Y-115779872D01*
X111016178Y-115779872D01*
X114526051Y-112270000D01*
X115937627Y-112270000D01*
X116000000Y-112276143D01*
X116062373Y-112270000D01*
X116062380Y-112270000D01*
X116248963Y-112251623D01*
X116488359Y-112179003D01*
X116708988Y-112061075D01*
X116902370Y-111902370D01*
X116942141Y-111853909D01*
X119315001Y-109481051D01*
X119315001Y-119315000D01*
X20685000Y-119315000D01*
X20685000Y-115779872D01*
X21765000Y-115779872D01*
X21765000Y-116220128D01*
X21850890Y-116651925D01*
X22019369Y-117058669D01*
X22263962Y-117424729D01*
X22575271Y-117736038D01*
X22941331Y-117980631D01*
X23348075Y-118149110D01*
X23779872Y-118235000D01*
X24220128Y-118235000D01*
X24651925Y-118149110D01*
X25058669Y-117980631D01*
X25424729Y-117736038D01*
X25736038Y-117424729D01*
X25980631Y-117058669D01*
X26149110Y-116651925D01*
X26235000Y-116220128D01*
X26235000Y-115779872D01*
X26149110Y-115348075D01*
X25980631Y-114941331D01*
X25736038Y-114575271D01*
X25424729Y-114263962D01*
X25058669Y-114019369D01*
X24651925Y-113850890D01*
X24220128Y-113765000D01*
X23779872Y-113765000D01*
X23348075Y-113850890D01*
X22941331Y-114019369D01*
X22575271Y-114263962D01*
X22263962Y-114575271D01*
X22019369Y-114941331D01*
X21850890Y-115348075D01*
X21765000Y-115779872D01*
X20685000Y-115779872D01*
X20685000Y-113000000D01*
X36361928Y-113000000D01*
X36361928Y-115000000D01*
X36374188Y-115124482D01*
X36410498Y-115244180D01*
X36469463Y-115354494D01*
X36548815Y-115451185D01*
X36645506Y-115530537D01*
X36755820Y-115589502D01*
X36875518Y-115625812D01*
X37000000Y-115638072D01*
X39000000Y-115638072D01*
X39124482Y-115625812D01*
X39244180Y-115589502D01*
X39354494Y-115530537D01*
X39451185Y-115451185D01*
X39530537Y-115354494D01*
X39575701Y-115270000D01*
X40207627Y-115270000D01*
X40270000Y-115276143D01*
X40332373Y-115270000D01*
X40332380Y-115270000D01*
X40518963Y-115251623D01*
X40758359Y-115179003D01*
X40978988Y-115061075D01*
X41172370Y-114902370D01*
X41212141Y-114853909D01*
X49853915Y-106212136D01*
X49902370Y-106172370D01*
X50061075Y-105978988D01*
X50179003Y-105758359D01*
X50251623Y-105518963D01*
X50270000Y-105332380D01*
X50270000Y-105332374D01*
X50276143Y-105270001D01*
X50270000Y-105207628D01*
X50270000Y-104575000D01*
X50936928Y-104575000D01*
X50936928Y-105425000D01*
X50949188Y-105549482D01*
X50985498Y-105669180D01*
X51044463Y-105779494D01*
X51123815Y-105876185D01*
X51220506Y-105955537D01*
X51330820Y-106014502D01*
X51450518Y-106050812D01*
X51575000Y-106063072D01*
X52425000Y-106063072D01*
X52549482Y-106050812D01*
X52669180Y-106014502D01*
X52779494Y-105955537D01*
X52876185Y-105876185D01*
X52955537Y-105779494D01*
X53014502Y-105669180D01*
X53050812Y-105549482D01*
X53063072Y-105425000D01*
X53063072Y-104575000D01*
X53050812Y-104450518D01*
X53014502Y-104330820D01*
X52955537Y-104220506D01*
X52876185Y-104123815D01*
X52779494Y-104044463D01*
X52669180Y-103985498D01*
X52549482Y-103949188D01*
X52425000Y-103936928D01*
X51575000Y-103936928D01*
X51450518Y-103949188D01*
X51330820Y-103985498D01*
X51220506Y-104044463D01*
X51123815Y-104123815D01*
X51044463Y-104220506D01*
X50985498Y-104330820D01*
X50949188Y-104450518D01*
X50936928Y-104575000D01*
X50270000Y-104575000D01*
X50270000Y-98415374D01*
X50276143Y-98353001D01*
X50270000Y-98290628D01*
X50270000Y-98290622D01*
X50251623Y-98104039D01*
X50179003Y-97864643D01*
X50061075Y-97644014D01*
X49902370Y-97450632D01*
X49853914Y-97410865D01*
X47034999Y-94591951D01*
X47034999Y-92575000D01*
X50936928Y-92575000D01*
X50936928Y-93425000D01*
X50949188Y-93549482D01*
X50985498Y-93669180D01*
X51044463Y-93779494D01*
X51123815Y-93876185D01*
X51220506Y-93955537D01*
X51330820Y-94014502D01*
X51450518Y-94050812D01*
X51575000Y-94063072D01*
X52425000Y-94063072D01*
X52549482Y-94050812D01*
X52669180Y-94014502D01*
X52779494Y-93955537D01*
X52876185Y-93876185D01*
X52955537Y-93779494D01*
X53014502Y-93669180D01*
X53050812Y-93549482D01*
X53063072Y-93425000D01*
X53063072Y-92575000D01*
X54936928Y-92575000D01*
X54936928Y-93425000D01*
X54949188Y-93549482D01*
X54985498Y-93669180D01*
X55044463Y-93779494D01*
X55123815Y-93876185D01*
X55220506Y-93955537D01*
X55330820Y-94014502D01*
X55450518Y-94050812D01*
X55575000Y-94063072D01*
X56425000Y-94063072D01*
X56549482Y-94050812D01*
X56669180Y-94014502D01*
X56779494Y-93955537D01*
X56876185Y-93876185D01*
X56955537Y-93779494D01*
X57014502Y-93669180D01*
X57050812Y-93549482D01*
X57063072Y-93425000D01*
X57063072Y-92575000D01*
X57050812Y-92450518D01*
X57014502Y-92330820D01*
X56955537Y-92220506D01*
X56876185Y-92123815D01*
X56779494Y-92044463D01*
X56669180Y-91985498D01*
X56549482Y-91949188D01*
X56425000Y-91936928D01*
X55575000Y-91936928D01*
X55450518Y-91949188D01*
X55330820Y-91985498D01*
X55220506Y-92044463D01*
X55123815Y-92123815D01*
X55044463Y-92220506D01*
X54985498Y-92330820D01*
X54949188Y-92450518D01*
X54936928Y-92575000D01*
X53063072Y-92575000D01*
X53050812Y-92450518D01*
X53014502Y-92330820D01*
X52955537Y-92220506D01*
X52876185Y-92123815D01*
X52779494Y-92044463D01*
X52669180Y-91985498D01*
X52549482Y-91949188D01*
X52425000Y-91936928D01*
X51575000Y-91936928D01*
X51450518Y-91949188D01*
X51330820Y-91985498D01*
X51220506Y-92044463D01*
X51123815Y-92123815D01*
X51044463Y-92220506D01*
X50985498Y-92330820D01*
X50949188Y-92450518D01*
X50936928Y-92575000D01*
X47034999Y-92575000D01*
X47034999Y-89575000D01*
X47936928Y-89575000D01*
X47936928Y-90425000D01*
X47949188Y-90549482D01*
X47985498Y-90669180D01*
X48044463Y-90779494D01*
X48123815Y-90876185D01*
X48220506Y-90955537D01*
X48330820Y-91014502D01*
X48450518Y-91050812D01*
X48575000Y-91063072D01*
X49425000Y-91063072D01*
X49549482Y-91050812D01*
X49669180Y-91014502D01*
X49779494Y-90955537D01*
X49876185Y-90876185D01*
X49955537Y-90779494D01*
X50014502Y-90669180D01*
X50050812Y-90549482D01*
X50063072Y-90425000D01*
X50063072Y-89575000D01*
X50050812Y-89450518D01*
X50014502Y-89330820D01*
X49955537Y-89220506D01*
X49876185Y-89123815D01*
X49779494Y-89044463D01*
X49669180Y-88985498D01*
X49549482Y-88949188D01*
X49425000Y-88936928D01*
X48575000Y-88936928D01*
X48450518Y-88949188D01*
X48330820Y-88985498D01*
X48220506Y-89044463D01*
X48123815Y-89123815D01*
X48044463Y-89220506D01*
X47985498Y-89330820D01*
X47949188Y-89450518D01*
X47936928Y-89575000D01*
X47034999Y-89575000D01*
X47034999Y-84035000D01*
X47101939Y-84035000D01*
X47301898Y-83995226D01*
X47490256Y-83917205D01*
X47532468Y-83889000D01*
X49506765Y-83889000D01*
X51994870Y-86377105D01*
X52004774Y-86426898D01*
X52082795Y-86615256D01*
X52196063Y-86784774D01*
X52340226Y-86928937D01*
X52509744Y-87042205D01*
X52698102Y-87120226D01*
X52898061Y-87160000D01*
X53101939Y-87160000D01*
X53301898Y-87120226D01*
X53490256Y-87042205D01*
X53659774Y-86928937D01*
X53803937Y-86784774D01*
X53917205Y-86615256D01*
X53995226Y-86426898D01*
X54035000Y-86226939D01*
X54035000Y-86023061D01*
X53995226Y-85823102D01*
X53917205Y-85634744D01*
X53803937Y-85465226D01*
X53659774Y-85321063D01*
X53490256Y-85207795D01*
X53301898Y-85129774D01*
X53252105Y-85119870D01*
X50534499Y-82402264D01*
X50506659Y-82368341D01*
X50371291Y-82257247D01*
X50216851Y-82174697D01*
X50049274Y-82123864D01*
X49918667Y-82111000D01*
X49918660Y-82111000D01*
X49875000Y-82106700D01*
X49831340Y-82111000D01*
X48685050Y-82111000D01*
X49853914Y-80942137D01*
X49902370Y-80902370D01*
X50061075Y-80708988D01*
X50179003Y-80488359D01*
X50251623Y-80248963D01*
X50270000Y-80062380D01*
X50276144Y-80000000D01*
X50270000Y-79937620D01*
X50270000Y-73575000D01*
X55436928Y-73575000D01*
X55436928Y-74425000D01*
X55449188Y-74549482D01*
X55485498Y-74669180D01*
X55544463Y-74779494D01*
X55623815Y-74876185D01*
X55720506Y-74955537D01*
X55830820Y-75014502D01*
X55950518Y-75050812D01*
X56075000Y-75063072D01*
X56925000Y-75063072D01*
X57049482Y-75050812D01*
X57169180Y-75014502D01*
X57279494Y-74955537D01*
X57376185Y-74876185D01*
X57455537Y-74779494D01*
X57514502Y-74669180D01*
X57550812Y-74549482D01*
X57563072Y-74425000D01*
X57563072Y-73575000D01*
X57550812Y-73450518D01*
X57514502Y-73330820D01*
X57455537Y-73220506D01*
X57376185Y-73123815D01*
X57279494Y-73044463D01*
X57169180Y-72985498D01*
X57049482Y-72949188D01*
X56925000Y-72936928D01*
X56075000Y-72936928D01*
X55950518Y-72949188D01*
X55830820Y-72985498D01*
X55720506Y-73044463D01*
X55623815Y-73123815D01*
X55544463Y-73220506D01*
X55485498Y-73330820D01*
X55449188Y-73450518D01*
X55436928Y-73575000D01*
X50270000Y-73575000D01*
X50270000Y-71773861D01*
X50316788Y-71703838D01*
X50428798Y-71433421D01*
X50485900Y-71146348D01*
X50485900Y-70853652D01*
X50428798Y-70566579D01*
X50316788Y-70296162D01*
X50154174Y-70052794D01*
X49947206Y-69845826D01*
X49703838Y-69683212D01*
X49433421Y-69571202D01*
X49146348Y-69514100D01*
X48853652Y-69514100D01*
X48784992Y-69527757D01*
X48659499Y-69402264D01*
X48631659Y-69368341D01*
X48496291Y-69257247D01*
X48341851Y-69174697D01*
X48174274Y-69123864D01*
X48043667Y-69111000D01*
X48043660Y-69111000D01*
X48000000Y-69106700D01*
X47956340Y-69111000D01*
X44368235Y-69111000D01*
X41005130Y-65747895D01*
X40995226Y-65698102D01*
X40917205Y-65509744D01*
X40803937Y-65340226D01*
X40659774Y-65196063D01*
X40490256Y-65082795D01*
X40301898Y-65004774D01*
X40101939Y-64965000D01*
X39898061Y-64965000D01*
X39698102Y-65004774D01*
X39509744Y-65082795D01*
X39340226Y-65196063D01*
X39196063Y-65340226D01*
X39082795Y-65509744D01*
X39004774Y-65698102D01*
X38965000Y-65898061D01*
X38965000Y-66101939D01*
X39004774Y-66301898D01*
X39082795Y-66490256D01*
X39196063Y-66659774D01*
X39340226Y-66803937D01*
X39509744Y-66917205D01*
X39698102Y-66995226D01*
X39747895Y-67005130D01*
X43340501Y-70597736D01*
X43368341Y-70631659D01*
X43503709Y-70742753D01*
X43658149Y-70825303D01*
X43724058Y-70845296D01*
X43825724Y-70876136D01*
X43858924Y-70879406D01*
X43917562Y-70885181D01*
X43915000Y-70898061D01*
X43915000Y-71101939D01*
X43954774Y-71301898D01*
X44032795Y-71490256D01*
X44146063Y-71659774D01*
X44290226Y-71803937D01*
X44459744Y-71917205D01*
X44648102Y-71995226D01*
X44848061Y-72035000D01*
X45051939Y-72035000D01*
X45251898Y-71995226D01*
X45440256Y-71917205D01*
X45609774Y-71803937D01*
X45753937Y-71659774D01*
X45867205Y-71490256D01*
X45945226Y-71301898D01*
X45985000Y-71101939D01*
X45985000Y-70898061D01*
X45983198Y-70889000D01*
X47514100Y-70889000D01*
X47514100Y-71146348D01*
X47571202Y-71433421D01*
X47683212Y-71703838D01*
X47730000Y-71773861D01*
X47730001Y-79473948D01*
X46708951Y-80494999D01*
X46469572Y-80494999D01*
X46407199Y-80488856D01*
X46344826Y-80494999D01*
X46344819Y-80494999D01*
X46181546Y-80511080D01*
X46158235Y-80513376D01*
X45918839Y-80585996D01*
X45867649Y-80613358D01*
X45698211Y-80703924D01*
X45504829Y-80862629D01*
X45465058Y-80911090D01*
X44911086Y-81465062D01*
X44862630Y-81504829D01*
X44703925Y-81698211D01*
X44594801Y-81902369D01*
X44585997Y-81918840D01*
X44513376Y-82158236D01*
X44488856Y-82407199D01*
X44495000Y-82469582D01*
X44494999Y-95055628D01*
X44488856Y-95118001D01*
X44494999Y-95180374D01*
X44494999Y-95180380D01*
X44513376Y-95366963D01*
X44585996Y-95606359D01*
X44703924Y-95826988D01*
X44862629Y-96020371D01*
X44911090Y-96060142D01*
X47730001Y-98879054D01*
X47730000Y-104743949D01*
X39743950Y-112730000D01*
X39575701Y-112730000D01*
X39530537Y-112645506D01*
X39451185Y-112548815D01*
X39354494Y-112469463D01*
X39244180Y-112410498D01*
X39124482Y-112374188D01*
X39000000Y-112361928D01*
X37000000Y-112361928D01*
X36875518Y-112374188D01*
X36755820Y-112410498D01*
X36645506Y-112469463D01*
X36548815Y-112548815D01*
X36469463Y-112645506D01*
X36410498Y-112755820D01*
X36374188Y-112875518D01*
X36361928Y-113000000D01*
X20685000Y-113000000D01*
X20685000Y-99575000D01*
X20936928Y-99575000D01*
X20936928Y-100425000D01*
X20949188Y-100549482D01*
X20985498Y-100669180D01*
X21044463Y-100779494D01*
X21123815Y-100876185D01*
X21220506Y-100955537D01*
X21330820Y-101014502D01*
X21450518Y-101050812D01*
X21575000Y-101063072D01*
X22425000Y-101063072D01*
X22549482Y-101050812D01*
X22669180Y-101014502D01*
X22779494Y-100955537D01*
X22876185Y-100876185D01*
X22955537Y-100779494D01*
X23014502Y-100669180D01*
X23049520Y-100553740D01*
X25515000Y-100553740D01*
X25515000Y-100846260D01*
X25572068Y-101133158D01*
X25684010Y-101403411D01*
X25846525Y-101646632D01*
X26053368Y-101853475D01*
X26296589Y-102015990D01*
X26566842Y-102127932D01*
X26853740Y-102185000D01*
X27146260Y-102185000D01*
X27433158Y-102127932D01*
X27703411Y-102015990D01*
X27946632Y-101853475D01*
X28153475Y-101646632D01*
X28315990Y-101403411D01*
X28427932Y-101133158D01*
X28485000Y-100846260D01*
X28485000Y-100553740D01*
X28427932Y-100266842D01*
X28315990Y-99996589D01*
X28153475Y-99753368D01*
X27946632Y-99546525D01*
X27703411Y-99384010D01*
X27433158Y-99272068D01*
X27146260Y-99215000D01*
X26853740Y-99215000D01*
X26566842Y-99272068D01*
X26296589Y-99384010D01*
X26053368Y-99546525D01*
X25846525Y-99753368D01*
X25684010Y-99996589D01*
X25572068Y-100266842D01*
X25515000Y-100553740D01*
X23049520Y-100553740D01*
X23050812Y-100549482D01*
X23063072Y-100425000D01*
X23063072Y-99575000D01*
X23050812Y-99450518D01*
X23014502Y-99330820D01*
X22955537Y-99220506D01*
X22876185Y-99123815D01*
X22779494Y-99044463D01*
X22669180Y-98985498D01*
X22549482Y-98949188D01*
X22425000Y-98936928D01*
X21575000Y-98936928D01*
X21450518Y-98949188D01*
X21330820Y-98985498D01*
X21220506Y-99044463D01*
X21123815Y-99123815D01*
X21044463Y-99220506D01*
X20985498Y-99330820D01*
X20949188Y-99450518D01*
X20936928Y-99575000D01*
X20685000Y-99575000D01*
X20685000Y-94575000D01*
X20936928Y-94575000D01*
X20936928Y-95425000D01*
X20949188Y-95549482D01*
X20985498Y-95669180D01*
X21044463Y-95779494D01*
X21123815Y-95876185D01*
X21220506Y-95955537D01*
X21330820Y-96014502D01*
X21450518Y-96050812D01*
X21575000Y-96063072D01*
X22425000Y-96063072D01*
X22549482Y-96050812D01*
X22669180Y-96014502D01*
X22779494Y-95955537D01*
X22876185Y-95876185D01*
X22955537Y-95779494D01*
X23014502Y-95669180D01*
X23050812Y-95549482D01*
X23058271Y-95473740D01*
X25515000Y-95473740D01*
X25515000Y-95766260D01*
X25572068Y-96053158D01*
X25684010Y-96323411D01*
X25846525Y-96566632D01*
X26053368Y-96773475D01*
X26296589Y-96935990D01*
X26566842Y-97047932D01*
X26853740Y-97105000D01*
X27146260Y-97105000D01*
X27433158Y-97047932D01*
X27703411Y-96935990D01*
X27946632Y-96773475D01*
X28153475Y-96566632D01*
X28315990Y-96323411D01*
X28427932Y-96053158D01*
X28485000Y-95766260D01*
X28485000Y-95473740D01*
X28427932Y-95186842D01*
X28315990Y-94916589D01*
X28153475Y-94673368D01*
X27946632Y-94466525D01*
X27703411Y-94304010D01*
X27433158Y-94192068D01*
X27146260Y-94135000D01*
X26853740Y-94135000D01*
X26566842Y-94192068D01*
X26296589Y-94304010D01*
X26053368Y-94466525D01*
X25846525Y-94673368D01*
X25684010Y-94916589D01*
X25572068Y-95186842D01*
X25515000Y-95473740D01*
X23058271Y-95473740D01*
X23063072Y-95425000D01*
X23063072Y-94575000D01*
X23050812Y-94450518D01*
X23014502Y-94330820D01*
X22955537Y-94220506D01*
X22876185Y-94123815D01*
X22779494Y-94044463D01*
X22669180Y-93985498D01*
X22549482Y-93949188D01*
X22425000Y-93936928D01*
X21575000Y-93936928D01*
X21450518Y-93949188D01*
X21330820Y-93985498D01*
X21220506Y-94044463D01*
X21123815Y-94123815D01*
X21044463Y-94220506D01*
X20985498Y-94330820D01*
X20949188Y-94450518D01*
X20936928Y-94575000D01*
X20685000Y-94575000D01*
X20685000Y-89575000D01*
X20936928Y-89575000D01*
X20936928Y-90425000D01*
X20949188Y-90549482D01*
X20985498Y-90669180D01*
X21044463Y-90779494D01*
X21123815Y-90876185D01*
X21220506Y-90955537D01*
X21330820Y-91014502D01*
X21450518Y-91050812D01*
X21575000Y-91063072D01*
X22425000Y-91063072D01*
X22549482Y-91050812D01*
X22669180Y-91014502D01*
X22779494Y-90955537D01*
X22876185Y-90876185D01*
X22955537Y-90779494D01*
X23014502Y-90669180D01*
X23050812Y-90549482D01*
X23063072Y-90425000D01*
X23063072Y-90393740D01*
X25515000Y-90393740D01*
X25515000Y-90686260D01*
X25572068Y-90973158D01*
X25684010Y-91243411D01*
X25846525Y-91486632D01*
X26053368Y-91693475D01*
X26296589Y-91855990D01*
X26566842Y-91967932D01*
X26853740Y-92025000D01*
X27146260Y-92025000D01*
X27433158Y-91967932D01*
X27703411Y-91855990D01*
X27946632Y-91693475D01*
X28153475Y-91486632D01*
X28315990Y-91243411D01*
X28427932Y-90973158D01*
X28485000Y-90686260D01*
X28485000Y-90393740D01*
X28427932Y-90106842D01*
X28315990Y-89836589D01*
X28153475Y-89593368D01*
X27946632Y-89386525D01*
X27703411Y-89224010D01*
X27433158Y-89112068D01*
X27146260Y-89055000D01*
X26853740Y-89055000D01*
X26566842Y-89112068D01*
X26296589Y-89224010D01*
X26053368Y-89386525D01*
X25846525Y-89593368D01*
X25684010Y-89836589D01*
X25572068Y-90106842D01*
X25515000Y-90393740D01*
X23063072Y-90393740D01*
X23063072Y-89575000D01*
X23050812Y-89450518D01*
X23014502Y-89330820D01*
X22955537Y-89220506D01*
X22876185Y-89123815D01*
X22779494Y-89044463D01*
X22669180Y-88985498D01*
X22549482Y-88949188D01*
X22425000Y-88936928D01*
X21575000Y-88936928D01*
X21450518Y-88949188D01*
X21330820Y-88985498D01*
X21220506Y-89044463D01*
X21123815Y-89123815D01*
X21044463Y-89220506D01*
X20985498Y-89330820D01*
X20949188Y-89450518D01*
X20936928Y-89575000D01*
X20685000Y-89575000D01*
X20685000Y-84575000D01*
X20936928Y-84575000D01*
X20936928Y-85425000D01*
X20949188Y-85549482D01*
X20985498Y-85669180D01*
X21044463Y-85779494D01*
X21123815Y-85876185D01*
X21220506Y-85955537D01*
X21330820Y-86014502D01*
X21450518Y-86050812D01*
X21575000Y-86063072D01*
X22425000Y-86063072D01*
X22549482Y-86050812D01*
X22669180Y-86014502D01*
X22779494Y-85955537D01*
X22876185Y-85876185D01*
X22955537Y-85779494D01*
X23014502Y-85669180D01*
X23050812Y-85549482D01*
X23063072Y-85425000D01*
X23063072Y-85313740D01*
X25515000Y-85313740D01*
X25515000Y-85606260D01*
X25572068Y-85893158D01*
X25684010Y-86163411D01*
X25846525Y-86406632D01*
X26053368Y-86613475D01*
X26296589Y-86775990D01*
X26566842Y-86887932D01*
X26853740Y-86945000D01*
X27146260Y-86945000D01*
X27433158Y-86887932D01*
X27703411Y-86775990D01*
X27946632Y-86613475D01*
X28153475Y-86406632D01*
X28315990Y-86163411D01*
X28427932Y-85893158D01*
X28485000Y-85606260D01*
X28485000Y-85313740D01*
X28427932Y-85026842D01*
X28315990Y-84756589D01*
X28153475Y-84513368D01*
X27946632Y-84306525D01*
X27703411Y-84144010D01*
X27433158Y-84032068D01*
X27146260Y-83975000D01*
X26853740Y-83975000D01*
X26566842Y-84032068D01*
X26296589Y-84144010D01*
X26053368Y-84306525D01*
X25846525Y-84513368D01*
X25684010Y-84756589D01*
X25572068Y-85026842D01*
X25515000Y-85313740D01*
X23063072Y-85313740D01*
X23063072Y-84575000D01*
X23050812Y-84450518D01*
X23014502Y-84330820D01*
X22955537Y-84220506D01*
X22876185Y-84123815D01*
X22779494Y-84044463D01*
X22669180Y-83985498D01*
X22549482Y-83949188D01*
X22425000Y-83936928D01*
X21575000Y-83936928D01*
X21450518Y-83949188D01*
X21330820Y-83985498D01*
X21220506Y-84044463D01*
X21123815Y-84123815D01*
X21044463Y-84220506D01*
X20985498Y-84330820D01*
X20949188Y-84450518D01*
X20936928Y-84575000D01*
X20685000Y-84575000D01*
X20685000Y-77575000D01*
X36936928Y-77575000D01*
X36936928Y-78425000D01*
X36949188Y-78549482D01*
X36985498Y-78669180D01*
X37044463Y-78779494D01*
X37123815Y-78876185D01*
X37220506Y-78955537D01*
X37330820Y-79014502D01*
X37450518Y-79050812D01*
X37575000Y-79063072D01*
X38425000Y-79063072D01*
X38549482Y-79050812D01*
X38669180Y-79014502D01*
X38779494Y-78955537D01*
X38876185Y-78876185D01*
X38955537Y-78779494D01*
X39014502Y-78669180D01*
X39050812Y-78549482D01*
X39063072Y-78425000D01*
X39063072Y-77575000D01*
X39050812Y-77450518D01*
X39014502Y-77330820D01*
X38955537Y-77220506D01*
X38876185Y-77123815D01*
X38779494Y-77044463D01*
X38669180Y-76985498D01*
X38549482Y-76949188D01*
X38425000Y-76936928D01*
X37575000Y-76936928D01*
X37450518Y-76949188D01*
X37330820Y-76985498D01*
X37220506Y-77044463D01*
X37123815Y-77123815D01*
X37044463Y-77220506D01*
X36985498Y-77330820D01*
X36949188Y-77450518D01*
X36936928Y-77575000D01*
X20685000Y-77575000D01*
X20685000Y-76898061D01*
X39965000Y-76898061D01*
X39965000Y-77101939D01*
X40004774Y-77301898D01*
X40082795Y-77490256D01*
X40111001Y-77532469D01*
X40111000Y-78467532D01*
X40082795Y-78509744D01*
X40004774Y-78698102D01*
X39965000Y-78898061D01*
X39965000Y-79101939D01*
X40004774Y-79301898D01*
X40082795Y-79490256D01*
X40196063Y-79659774D01*
X40340226Y-79803937D01*
X40509744Y-79917205D01*
X40698102Y-79995226D01*
X40898061Y-80035000D01*
X41101939Y-80035000D01*
X41301898Y-79995226D01*
X41490256Y-79917205D01*
X41659774Y-79803937D01*
X41803937Y-79659774D01*
X41917205Y-79490256D01*
X41995226Y-79301898D01*
X42035000Y-79101939D01*
X42035000Y-78898061D01*
X41995226Y-78698102D01*
X41917205Y-78509744D01*
X41889000Y-78467532D01*
X41889000Y-77532468D01*
X41917205Y-77490256D01*
X41995226Y-77301898D01*
X42035000Y-77101939D01*
X42035000Y-76898061D01*
X41995226Y-76698102D01*
X41917205Y-76509744D01*
X41803937Y-76340226D01*
X41659774Y-76196063D01*
X41490256Y-76082795D01*
X41301898Y-76004774D01*
X41101939Y-75965000D01*
X40898061Y-75965000D01*
X40698102Y-76004774D01*
X40509744Y-76082795D01*
X40340226Y-76196063D01*
X40196063Y-76340226D01*
X40082795Y-76509744D01*
X40004774Y-76698102D01*
X39965000Y-76898061D01*
X20685000Y-76898061D01*
X20685000Y-65779872D01*
X21765000Y-65779872D01*
X21765000Y-66220128D01*
X21850890Y-66651925D01*
X22019369Y-67058669D01*
X22263962Y-67424729D01*
X22575271Y-67736038D01*
X22941331Y-67980631D01*
X23348075Y-68149110D01*
X23779872Y-68235000D01*
X24220128Y-68235000D01*
X24651925Y-68149110D01*
X25058669Y-67980631D01*
X25424729Y-67736038D01*
X25736038Y-67424729D01*
X25980631Y-67058669D01*
X26149110Y-66651925D01*
X26235000Y-66220128D01*
X26235000Y-65779872D01*
X26149110Y-65348075D01*
X25980631Y-64941331D01*
X25951719Y-64898061D01*
X43965000Y-64898061D01*
X43965000Y-65101939D01*
X44004774Y-65301898D01*
X44082795Y-65490256D01*
X44111000Y-65532468D01*
X44111001Y-66796282D01*
X44108644Y-66801972D01*
X44068870Y-67001931D01*
X44068870Y-67205809D01*
X44108644Y-67405768D01*
X44186665Y-67594126D01*
X44299933Y-67763644D01*
X44444096Y-67907807D01*
X44613614Y-68021075D01*
X44801972Y-68099096D01*
X45001931Y-68138870D01*
X45205809Y-68138870D01*
X45405768Y-68099096D01*
X45594126Y-68021075D01*
X45705413Y-67946715D01*
X45795324Y-67983958D01*
X45995283Y-68023732D01*
X46199161Y-68023732D01*
X46399120Y-67983958D01*
X46587478Y-67905937D01*
X46756996Y-67792669D01*
X46901159Y-67648506D01*
X47014427Y-67478988D01*
X47092448Y-67290630D01*
X47132222Y-67090671D01*
X47132222Y-66886793D01*
X47092448Y-66686834D01*
X47014427Y-66498476D01*
X46901159Y-66328958D01*
X46889000Y-66316799D01*
X46889000Y-64532468D01*
X46917205Y-64490256D01*
X46995226Y-64301898D01*
X47035000Y-64101939D01*
X47035000Y-63898061D01*
X46995226Y-63698102D01*
X46917205Y-63509744D01*
X46803937Y-63340226D01*
X46659774Y-63196063D01*
X46490256Y-63082795D01*
X46301898Y-63004774D01*
X46101939Y-62965000D01*
X45898061Y-62965000D01*
X45698102Y-63004774D01*
X45509744Y-63082795D01*
X45340226Y-63196063D01*
X45196063Y-63340226D01*
X45082795Y-63509744D01*
X45004774Y-63698102D01*
X44965000Y-63898061D01*
X44965000Y-63965000D01*
X44898061Y-63965000D01*
X44698102Y-64004774D01*
X44509744Y-64082795D01*
X44340226Y-64196063D01*
X44196063Y-64340226D01*
X44082795Y-64509744D01*
X44004774Y-64698102D01*
X43965000Y-64898061D01*
X25951719Y-64898061D01*
X25736038Y-64575271D01*
X25424729Y-64263962D01*
X25058669Y-64019369D01*
X24651925Y-63850890D01*
X24220128Y-63765000D01*
X23779872Y-63765000D01*
X23348075Y-63850890D01*
X22941331Y-64019369D01*
X22575271Y-64263962D01*
X22263962Y-64575271D01*
X22019369Y-64941331D01*
X21850890Y-65348075D01*
X21765000Y-65779872D01*
X20685000Y-65779872D01*
X20685000Y-62000000D01*
X48723856Y-62000000D01*
X48730001Y-62062390D01*
X48730000Y-64937627D01*
X48723857Y-65000000D01*
X48730000Y-65062373D01*
X48730000Y-65062379D01*
X48736056Y-65123864D01*
X48748377Y-65248963D01*
X48764435Y-65301898D01*
X48820997Y-65488358D01*
X48938925Y-65708987D01*
X49097630Y-65902370D01*
X49146091Y-65942141D01*
X52730001Y-69526052D01*
X52730000Y-70226139D01*
X52683212Y-70296162D01*
X52571202Y-70566579D01*
X52514100Y-70853652D01*
X52514100Y-71146348D01*
X52571202Y-71433421D01*
X52683212Y-71703838D01*
X52845826Y-71947206D01*
X53052794Y-72154174D01*
X53296162Y-72316788D01*
X53566579Y-72428798D01*
X53853652Y-72485900D01*
X54146348Y-72485900D01*
X54433421Y-72428798D01*
X54703838Y-72316788D01*
X54947206Y-72154174D01*
X55154174Y-71947206D01*
X55316788Y-71703838D01*
X55428798Y-71433421D01*
X55485900Y-71146348D01*
X55485900Y-70853652D01*
X55428798Y-70566579D01*
X55316788Y-70296162D01*
X55270000Y-70226139D01*
X55270000Y-69062372D01*
X55276143Y-68999999D01*
X55270000Y-68937626D01*
X55270000Y-68937620D01*
X55251623Y-68751037D01*
X55241897Y-68718973D01*
X55229594Y-68678416D01*
X55179003Y-68511641D01*
X55061075Y-68291012D01*
X54902370Y-68097630D01*
X54853914Y-68057863D01*
X51270000Y-64473950D01*
X51270000Y-62062379D01*
X51276144Y-62000000D01*
X51270000Y-61937620D01*
X51270000Y-60937620D01*
X51251623Y-60751037D01*
X51179003Y-60511641D01*
X51061075Y-60291012D01*
X50902370Y-60097630D01*
X50708988Y-59938925D01*
X50488359Y-59820997D01*
X50248963Y-59748377D01*
X50000000Y-59723856D01*
X49751038Y-59748377D01*
X49511642Y-59820997D01*
X49291013Y-59938925D01*
X49097631Y-60097630D01*
X48938925Y-60291012D01*
X48820997Y-60511641D01*
X48748377Y-60751037D01*
X48730000Y-60937620D01*
X48730000Y-61937620D01*
X48723856Y-62000000D01*
X20685000Y-62000000D01*
X20685000Y-57575000D01*
X36936928Y-57575000D01*
X36936928Y-58425000D01*
X36949188Y-58549482D01*
X36985498Y-58669180D01*
X37044463Y-58779494D01*
X37123815Y-58876185D01*
X37220506Y-58955537D01*
X37330820Y-59014502D01*
X37450518Y-59050812D01*
X37575000Y-59063072D01*
X38425000Y-59063072D01*
X38549482Y-59050812D01*
X38669180Y-59014502D01*
X38779494Y-58955537D01*
X38876185Y-58876185D01*
X38955537Y-58779494D01*
X39014502Y-58669180D01*
X39050812Y-58549482D01*
X39063072Y-58425000D01*
X39063072Y-57575000D01*
X39050812Y-57450518D01*
X39014502Y-57330820D01*
X38955537Y-57220506D01*
X38876185Y-57123815D01*
X38779494Y-57044463D01*
X38669180Y-56985498D01*
X38549482Y-56949188D01*
X38425000Y-56936928D01*
X37575000Y-56936928D01*
X37450518Y-56949188D01*
X37330820Y-56985498D01*
X37220506Y-57044463D01*
X37123815Y-57123815D01*
X37044463Y-57220506D01*
X36985498Y-57330820D01*
X36949188Y-57450518D01*
X36936928Y-57575000D01*
X20685000Y-57575000D01*
X20685000Y-55127000D01*
X51595000Y-55127000D01*
X51595000Y-56097764D01*
X50747895Y-56944870D01*
X50698102Y-56954774D01*
X50509744Y-57032795D01*
X50340226Y-57146063D01*
X50196063Y-57290226D01*
X50082795Y-57459744D01*
X50004774Y-57648102D01*
X49965000Y-57848061D01*
X49965000Y-58051939D01*
X50004774Y-58251898D01*
X50082795Y-58440256D01*
X50196063Y-58609774D01*
X50340226Y-58753937D01*
X50509744Y-58867205D01*
X50698102Y-58945226D01*
X50898061Y-58985000D01*
X51101939Y-58985000D01*
X51301898Y-58945226D01*
X51490256Y-58867205D01*
X51659774Y-58753937D01*
X51803937Y-58609774D01*
X51917205Y-58440256D01*
X51995226Y-58251898D01*
X52005130Y-58202105D01*
X53081740Y-57125495D01*
X53115658Y-57097660D01*
X53168892Y-57032795D01*
X53226751Y-56962293D01*
X53309301Y-56807853D01*
X53309302Y-56807852D01*
X53360135Y-56640275D01*
X53372999Y-56509668D01*
X53377300Y-56466001D01*
X53372999Y-56422333D01*
X53372999Y-55127000D01*
X54111001Y-55127000D01*
X54111001Y-57956330D01*
X54106700Y-58000000D01*
X54123864Y-58174274D01*
X54174698Y-58341852D01*
X54230522Y-58446291D01*
X54257248Y-58496291D01*
X54368342Y-58631659D01*
X54402259Y-58659494D01*
X54994870Y-59252105D01*
X55004774Y-59301898D01*
X55082795Y-59490256D01*
X55196063Y-59659774D01*
X55340226Y-59803937D01*
X55509744Y-59917205D01*
X55698102Y-59995226D01*
X55898061Y-60035000D01*
X56101939Y-60035000D01*
X56301898Y-59995226D01*
X56490256Y-59917205D01*
X56659774Y-59803937D01*
X56803937Y-59659774D01*
X56917205Y-59490256D01*
X56995226Y-59301898D01*
X57035000Y-59101939D01*
X57035000Y-58898061D01*
X56995226Y-58698102D01*
X56944236Y-58575000D01*
X57936928Y-58575000D01*
X57936928Y-59425000D01*
X57949188Y-59549482D01*
X57985498Y-59669180D01*
X58044463Y-59779494D01*
X58123815Y-59876185D01*
X58220506Y-59955537D01*
X58330820Y-60014502D01*
X58450518Y-60050812D01*
X58575000Y-60063072D01*
X59425000Y-60063072D01*
X59549482Y-60050812D01*
X59669180Y-60014502D01*
X59779494Y-59955537D01*
X59876185Y-59876185D01*
X59955537Y-59779494D01*
X60014502Y-59669180D01*
X60043071Y-59575000D01*
X62936928Y-59575000D01*
X62936928Y-60425000D01*
X62949188Y-60549482D01*
X62985498Y-60669180D01*
X63044463Y-60779494D01*
X63123815Y-60876185D01*
X63220506Y-60955537D01*
X63330820Y-61014502D01*
X63450518Y-61050812D01*
X63575000Y-61063072D01*
X64425000Y-61063072D01*
X64549482Y-61050812D01*
X64669180Y-61014502D01*
X64779494Y-60955537D01*
X64876185Y-60876185D01*
X64955537Y-60779494D01*
X65014502Y-60669180D01*
X65050812Y-60549482D01*
X65063072Y-60425000D01*
X65063072Y-59575000D01*
X74936928Y-59575000D01*
X74936928Y-60425000D01*
X74949188Y-60549482D01*
X74985498Y-60669180D01*
X75044463Y-60779494D01*
X75123815Y-60876185D01*
X75220506Y-60955537D01*
X75330820Y-61014502D01*
X75450518Y-61050812D01*
X75575000Y-61063072D01*
X76425000Y-61063072D01*
X76549482Y-61050812D01*
X76669180Y-61014502D01*
X76779494Y-60955537D01*
X76876185Y-60876185D01*
X76955537Y-60779494D01*
X77014502Y-60669180D01*
X77050812Y-60549482D01*
X77063072Y-60425000D01*
X77063072Y-59575000D01*
X77050812Y-59450518D01*
X77014502Y-59330820D01*
X76955537Y-59220506D01*
X76876185Y-59123815D01*
X76779494Y-59044463D01*
X76669180Y-58985498D01*
X76549482Y-58949188D01*
X76425000Y-58936928D01*
X75575000Y-58936928D01*
X75450518Y-58949188D01*
X75330820Y-58985498D01*
X75220506Y-59044463D01*
X75123815Y-59123815D01*
X75044463Y-59220506D01*
X74985498Y-59330820D01*
X74949188Y-59450518D01*
X74936928Y-59575000D01*
X65063072Y-59575000D01*
X65050812Y-59450518D01*
X65014502Y-59330820D01*
X64955537Y-59220506D01*
X64876185Y-59123815D01*
X64779494Y-59044463D01*
X64669180Y-58985498D01*
X64549482Y-58949188D01*
X64425000Y-58936928D01*
X63575000Y-58936928D01*
X63450518Y-58949188D01*
X63330820Y-58985498D01*
X63220506Y-59044463D01*
X63123815Y-59123815D01*
X63044463Y-59220506D01*
X62985498Y-59330820D01*
X62949188Y-59450518D01*
X62936928Y-59575000D01*
X60043071Y-59575000D01*
X60050812Y-59549482D01*
X60063072Y-59425000D01*
X60063072Y-58575000D01*
X60050812Y-58450518D01*
X60014502Y-58330820D01*
X59955537Y-58220506D01*
X59876185Y-58123815D01*
X59779494Y-58044463D01*
X59669180Y-57985498D01*
X59549482Y-57949188D01*
X59425000Y-57936928D01*
X58575000Y-57936928D01*
X58450518Y-57949188D01*
X58330820Y-57985498D01*
X58220506Y-58044463D01*
X58123815Y-58123815D01*
X58044463Y-58220506D01*
X57985498Y-58330820D01*
X57949188Y-58450518D01*
X57936928Y-58575000D01*
X56944236Y-58575000D01*
X56917205Y-58509744D01*
X56803937Y-58340226D01*
X56659774Y-58196063D01*
X56490256Y-58082795D01*
X56301898Y-58004774D01*
X56252105Y-57994870D01*
X55889000Y-57631765D01*
X55889000Y-55127000D01*
X60000000Y-55127000D01*
X60024776Y-55124560D01*
X60048601Y-55117333D01*
X60070557Y-55105597D01*
X60089803Y-55089803D01*
X60105597Y-55070557D01*
X60117333Y-55048601D01*
X60124560Y-55024776D01*
X60127000Y-55000000D01*
X60127000Y-50000000D01*
X111361928Y-50000000D01*
X111361928Y-52000000D01*
X111374188Y-52124482D01*
X111410498Y-52244180D01*
X111469463Y-52354494D01*
X111548815Y-52451185D01*
X111645506Y-52530537D01*
X111755820Y-52589502D01*
X111875518Y-52625812D01*
X112000000Y-52638072D01*
X114000000Y-52638072D01*
X114124482Y-52625812D01*
X114244180Y-52589502D01*
X114354494Y-52530537D01*
X114451185Y-52451185D01*
X114530537Y-52354494D01*
X114589502Y-52244180D01*
X114625812Y-52124482D01*
X114638072Y-52000000D01*
X114638072Y-50000000D01*
X114625812Y-49875518D01*
X114589502Y-49755820D01*
X114530537Y-49645506D01*
X114451185Y-49548815D01*
X114354494Y-49469463D01*
X114244180Y-49410498D01*
X114124482Y-49374188D01*
X114000000Y-49361928D01*
X112000000Y-49361928D01*
X111875518Y-49374188D01*
X111755820Y-49410498D01*
X111645506Y-49469463D01*
X111548815Y-49548815D01*
X111469463Y-49645506D01*
X111410498Y-49755820D01*
X111374188Y-49875518D01*
X111361928Y-50000000D01*
X60127000Y-50000000D01*
X60127000Y-43150000D01*
X114511928Y-43150000D01*
X114511928Y-44850000D01*
X114524188Y-44974482D01*
X114560498Y-45094180D01*
X114619463Y-45204494D01*
X114698815Y-45301185D01*
X114795506Y-45380537D01*
X114905820Y-45439502D01*
X115025518Y-45475812D01*
X115150000Y-45488072D01*
X116850000Y-45488072D01*
X116974482Y-45475812D01*
X117094180Y-45439502D01*
X117204494Y-45380537D01*
X117301185Y-45301185D01*
X117380537Y-45204494D01*
X117439502Y-45094180D01*
X117475812Y-44974482D01*
X117488072Y-44850000D01*
X117488072Y-43150000D01*
X117475812Y-43025518D01*
X117439502Y-42905820D01*
X117380537Y-42795506D01*
X117301185Y-42698815D01*
X117204494Y-42619463D01*
X117094180Y-42560498D01*
X116974482Y-42524188D01*
X116850000Y-42511928D01*
X115150000Y-42511928D01*
X115025518Y-42524188D01*
X114905820Y-42560498D01*
X114795506Y-42619463D01*
X114698815Y-42698815D01*
X114619463Y-42795506D01*
X114560498Y-42905820D01*
X114524188Y-43025518D01*
X114511928Y-43150000D01*
X60127000Y-43150000D01*
X60127000Y-36127000D01*
X71000000Y-36127000D01*
X71024776Y-36124560D01*
X71048601Y-36117333D01*
X71070557Y-36105597D01*
X71089803Y-36089803D01*
X71105597Y-36070557D01*
X71117333Y-36048601D01*
X71124560Y-36024776D01*
X71127000Y-36000000D01*
X71127000Y-23853740D01*
X76435000Y-23853740D01*
X76435000Y-24146260D01*
X76492068Y-24433158D01*
X76604010Y-24703411D01*
X76766525Y-24946632D01*
X76973368Y-25153475D01*
X77216589Y-25315990D01*
X77486842Y-25427932D01*
X77773740Y-25485000D01*
X78066260Y-25485000D01*
X78353158Y-25427932D01*
X78623411Y-25315990D01*
X78866632Y-25153475D01*
X79073475Y-24946632D01*
X79190000Y-24772240D01*
X79306525Y-24946632D01*
X79513368Y-25153475D01*
X79756589Y-25315990D01*
X80026842Y-25427932D01*
X80313740Y-25485000D01*
X80606260Y-25485000D01*
X80893158Y-25427932D01*
X81163411Y-25315990D01*
X81406632Y-25153475D01*
X81613475Y-24946632D01*
X81775990Y-24703411D01*
X81887932Y-24433158D01*
X81945000Y-24146260D01*
X81945000Y-23853740D01*
X81930307Y-23779872D01*
X113765000Y-23779872D01*
X113765000Y-24220128D01*
X113850890Y-24651925D01*
X114019369Y-25058669D01*
X114263962Y-25424729D01*
X114575271Y-25736038D01*
X114941331Y-25980631D01*
X115348075Y-26149110D01*
X115779872Y-26235000D01*
X116220128Y-26235000D01*
X116651925Y-26149110D01*
X117058669Y-25980631D01*
X117424729Y-25736038D01*
X117736038Y-25424729D01*
X117980631Y-25058669D01*
X118149110Y-24651925D01*
X118235000Y-24220128D01*
X118235000Y-23779872D01*
X118149110Y-23348075D01*
X117980631Y-22941331D01*
X117736038Y-22575271D01*
X117424729Y-22263962D01*
X117058669Y-22019369D01*
X116651925Y-21850890D01*
X116220128Y-21765000D01*
X115779872Y-21765000D01*
X115348075Y-21850890D01*
X114941331Y-22019369D01*
X114575271Y-22263962D01*
X114263962Y-22575271D01*
X114019369Y-22941331D01*
X113850890Y-23348075D01*
X113765000Y-23779872D01*
X81930307Y-23779872D01*
X81887932Y-23566842D01*
X81775990Y-23296589D01*
X81613475Y-23053368D01*
X81406632Y-22846525D01*
X81163411Y-22684010D01*
X80893158Y-22572068D01*
X80606260Y-22515000D01*
X80313740Y-22515000D01*
X80026842Y-22572068D01*
X79756589Y-22684010D01*
X79513368Y-22846525D01*
X79306525Y-23053368D01*
X79190000Y-23227760D01*
X79073475Y-23053368D01*
X78866632Y-22846525D01*
X78623411Y-22684010D01*
X78353158Y-22572068D01*
X78066260Y-22515000D01*
X77773740Y-22515000D01*
X77486842Y-22572068D01*
X77216589Y-22684010D01*
X76973368Y-22846525D01*
X76766525Y-23053368D01*
X76604010Y-23296589D01*
X76492068Y-23566842D01*
X76435000Y-23853740D01*
X71127000Y-23853740D01*
X71127000Y-20685000D01*
X119315000Y-20685000D01*
X119315001Y-72023816D01*
M02*
