M48
; DRILL file {KiCad 5.1.5+dfsg1-2build2} date jeu 09 jui 2020 14:02:47
; FORMAT={3:3/ absolute / metric / suppress leading zeros}
; #@! TF.CreationDate,2020-07-09T14:02:47-04:00
; #@! TF.GenerationSoftware,Kicad,Pcbnew,5.1.5+dfsg1-2build2
FMAT,2
METRIC,TZ
T1C0.400
T2C0.500
T3C1.000
T4C1.016
T5C3.200
%
G90
G05
T1
X25000Y-78000
X25000Y-106000
X27000Y-35500
X28500Y-47000
X32000Y-43000
X32000Y-74000
X32000Y-78000
X32500Y-45000
X33938Y-47000
X34000Y-86000
X34000Y-90000
X34000Y-94000
X34000Y-98000
X34000Y-102000
X34075Y-45000
X35650Y-42275
X37000Y-45500
X37000Y-106000
X38000Y-66000
X39500Y-40500
X40000Y-66000
X40403Y-48925
X41000Y-77000
X41000Y-79000
X41000Y-109000
X41500Y-40500
X42000Y-108000
X42000Y-109000
X42624Y-44948
X43000Y-30000
X43000Y-71000
X43000Y-83000
X43000Y-86000
X43000Y-93000
X43000Y-102000
X43000Y-105000
X43000Y-107000
X43000Y-108000
X43650Y-44500
X44000Y-107000
X44950Y-71000
X45000Y-65000
X45104Y-67104
X45500Y-44500
X45500Y-46500
X45500Y-48000
X46000Y-64000
X46000Y-69000
X46097Y-66989
X47000Y-77000
X47000Y-80000
X47000Y-83000
X47000Y-99000
X48000Y-109000
X49000Y-80000
X49000Y-99000
X49000Y-108000
X49000Y-109000
X49500Y-44500
X49500Y-46500
X49500Y-48500
X50000Y-61000
X50000Y-107000
X50000Y-108000
X51000Y-57950
X51000Y-107000
X52000Y-61000
X52484Y-48516
X53000Y-86125
X54000Y-43000
X55000Y-48000
X56000Y-59000
X56000Y-65000
X56000Y-88000
X56000Y-110000
X58000Y-48000
X58000Y-53000
X59000Y-80000
X59000Y-86000
X59000Y-99000
X60000Y-62000
X60000Y-65000
X61000Y-77000
X61000Y-80000
X61000Y-83000
X61000Y-96000
X61000Y-99000
X61000Y-102000
X61000Y-110000
X63000Y-33000
X63000Y-34000
X63000Y-37000
X63000Y-38000
X64000Y-33000
X64000Y-34000
X64000Y-35000
X64000Y-37000
X64000Y-38000
X65000Y-33000
X65000Y-34000
X65000Y-37000
X65000Y-38000
X65000Y-45000
X65000Y-109500
X65000Y-110500
X66000Y-56000
X66000Y-109500
X66000Y-110500
X67000Y-109500
X67000Y-114000
X68000Y-45000
X68000Y-113500
X69000Y-113000
X70000Y-111500
X70000Y-112500
X71000Y-45000
X71000Y-56000
X73000Y-109000
X74000Y-45000
X74000Y-83000
X75000Y-104000
X76000Y-87000
X76000Y-101000
X77000Y-81125
X78000Y-28000
X78000Y-56000
X78000Y-101000
X80000Y-81000
X80000Y-84000
X81000Y-104000
X82000Y-81000
X83000Y-56000
X84525Y-83540
X85000Y-104000
X86000Y-87000
X88000Y-74000
X88000Y-97000
X89475Y-82270
X90000Y-97000
X90000Y-114000
X91000Y-114000
X92000Y-78000
X92000Y-81000
X92000Y-114000
X92125Y-84000
X93000Y-109000
X93000Y-114000
X94000Y-81000
X96000Y-74000
X96000Y-84000
X97000Y-74000
X97000Y-114000
X97000Y-115000
X98000Y-114000
X98000Y-115000
X101000Y-95000
X104000Y-103000
X107000Y-71000
X107000Y-73000
X107000Y-83000
X107000Y-85000
X107000Y-94000
X108000Y-77741
X112000Y-96000
X114000Y-101000
X117000Y-92000
X117000Y-93000
X117000Y-94000
T2
X64000Y-60000
X93000Y-112000
X56500Y-74000
X100000Y-71000
X76000Y-60000
X59000Y-59000
X107000Y-106000
X76000Y-97000
X109000Y-96000
X80000Y-74000
X70000Y-80500
X52000Y-105000
X59000Y-89500
X70000Y-85500
X117000Y-80000
X49000Y-90000
X22000Y-85000
X90000Y-93000
X56000Y-93000
X22000Y-100000
X97000Y-89000
X22000Y-95000
X52000Y-93000
X115000Y-88000
X22000Y-90000
X38000Y-78000
X70000Y-76000
X38000Y-58000
X117000Y-84000
X80000Y-78000
X73000Y-112000
T3
X43000Y-24000
X45540Y-24000
X48080Y-24000
X50620Y-24000
X53160Y-24000
X55700Y-24000
X73920Y-93000
X76460Y-93000
X79000Y-93000
X77920Y-24000
X80460Y-24000
X83000Y-24000
X113000Y-51000
X113000Y-56000
X116000Y-41460
X116000Y-44000
X75260Y-116000
X77800Y-116000
X80340Y-116000
X82880Y-116000
X85420Y-116000
X87960Y-116000
X90500Y-116000
X44500Y-114000
X49500Y-114000
X66000Y-100920
X66000Y-103460
X66000Y-106000
X33000Y-114000
X38000Y-114000
X31500Y-28000
X36500Y-28000
X66000Y-75500
X66000Y-78040
X66000Y-80580
X66000Y-83120
X66000Y-85660
X66000Y-91460
X66000Y-94000
X56000Y-116000
X58540Y-116000
X61080Y-116000
X63620Y-116000
X66160Y-116000
X68700Y-116000
X61920Y-24000
X64460Y-24000
X67000Y-24000
X27000Y-82920
X27000Y-85460
X27000Y-88000
X27000Y-90540
X27000Y-93080
X27000Y-95620
X27000Y-98160
X27000Y-100700
T4
X49000Y-71000
X54000Y-71000
X82000Y-69000
X108000Y-64000
X117000Y-74000
X117000Y-87000
X23220Y-37380
X23220Y-52620
X25760Y-37380
X25760Y-52620
X28300Y-37380
X28300Y-52620
X30840Y-37380
X30840Y-52620
X33380Y-37380
X33380Y-52620
X35920Y-37380
X35920Y-52620
X38460Y-37380
X38460Y-52620
X41000Y-37380
X41000Y-52620
X43540Y-37380
X43540Y-52620
X46080Y-37380
X46080Y-52620
X48620Y-37380
X48620Y-52620
X51160Y-37380
X51160Y-52620
X53700Y-37380
X53700Y-52620
X56240Y-37380
X56240Y-52620
T5
X116000Y-24000
X116000Y-66000
X24000Y-116000
X24000Y-66000
X116000Y-116000
X24000Y-24000
T0
M30
