M48
; DRILL file {KiCad 5.1.5-52549c5~84~ubuntu18.04.1} date mer 25 mar 2020 21:32:03 EDT
; FORMAT={3:3/ absolute / metric / suppress leading zeros}
; #@! TF.CreationDate,2020-03-25T21:32:03-04:00
; #@! TF.GenerationSoftware,Kicad,Pcbnew,5.1.5-52549c5~84~ubuntu18.04.1
FMAT,2
METRIC,TZ
T1C0.400
T2C1.000
T3C1.016
T4C3.200
%
G90
G05
T1
X30000Y-33000
X31000Y-46000
X31000Y-54000
X32000Y-24000
X34000Y-43000
X34000Y-52000
X39475Y-30635
X39475Y-31905
X39500Y-42750
X40000Y-23500
X40000Y-27000
X40000Y-33000
X42000Y-27000
X42000Y-43000
X42000Y-53000
X50000Y-26000
X50000Y-30000
X50000Y-34000
X50000Y-49000
X50000Y-55000
X50004Y-44004
X55000Y-26000
X55000Y-30000
X55000Y-44000
X55000Y-49000
X56000Y-39000
X56000Y-55000
X60000Y-38000
X60000Y-44000
X60000Y-49000
X62000Y-55000
X65000Y-16000
X65000Y-64000
X67310Y-19050
X69088Y-52832
X69596Y-22352
X71755Y-44655
X71755Y-50800
X73000Y-57000
X73660Y-26570
X76200Y-16510
X80000Y-64000
X83000Y-24000
X83312Y-18796
X84000Y-27000
X84000Y-31000
X84000Y-37000
X84000Y-43000
X84000Y-49000
X84000Y-55000
X86000Y-25000
X86000Y-45000
X86000Y-51000
X87000Y-22000
X87000Y-34000
X87000Y-40000
X110000Y-26000
X110000Y-32000
X110000Y-40000
X110000Y-47000
X110000Y-54000
T2
X21920Y-40000
X24460Y-40000
X27000Y-40000
X29540Y-40000
X32080Y-40000
X34620Y-40000
X90000Y-25000
X92540Y-25000
X95080Y-25000
X97620Y-25000
X100160Y-25000
X102700Y-25000
X90000Y-49000
X92540Y-49000
X95080Y-49000
X97620Y-49000
X100160Y-49000
X102700Y-49000
X90000Y-55000
X92540Y-55000
X95080Y-55000
X97620Y-55000
X100160Y-55000
X102700Y-55000
X20000Y-51000
X25000Y-51000
X90000Y-37000
X92540Y-37000
X95080Y-37000
X97620Y-37000
X100160Y-37000
X102700Y-37000
X89408Y-18288
X91948Y-18288
X94488Y-18288
X97028Y-18288
X99568Y-18288
X102108Y-18288
X77470Y-60960
X80010Y-60960
X20000Y-29000
X25000Y-29000
X28220Y-60960
X30760Y-60960
X33300Y-60960
X35840Y-60960
X38380Y-60960
X40920Y-60960
X43460Y-60960
X46000Y-60960
X90000Y-61000
X92540Y-61000
X95080Y-61000
X97620Y-61000
X100160Y-61000
X102700Y-61000
X90000Y-31000
X92540Y-31000
X95080Y-31000
X97620Y-31000
X100160Y-31000
X102700Y-31000
X52705Y-60960
X55245Y-60960
X57785Y-60960
X60325Y-60960
X62865Y-60960
X65405Y-60960
X67945Y-60960
X70485Y-60960
X90000Y-43000
X92540Y-43000
X95080Y-43000
X97620Y-43000
X100160Y-43000
X102700Y-43000
X25000Y-19000
X27540Y-19000
X30080Y-19000
X32620Y-19000
X35160Y-19000
X37700Y-19000
X52000Y-19000
X54540Y-19000
X57080Y-19000
T3
X47380Y-18220
X47380Y-20760
X47380Y-23300
X47380Y-25840
X47380Y-28380
X47380Y-30920
X47380Y-33460
X47380Y-36000
X47380Y-38540
X47380Y-41080
X47380Y-43620
X47380Y-46160
X47380Y-48700
X47380Y-51240
X49920Y-51240
X52460Y-51240
X55000Y-51240
X57540Y-51240
X60080Y-25840
X60080Y-28380
X60080Y-30920
X60080Y-51240
X62620Y-18220
X62620Y-20760
X62620Y-23300
X62620Y-25840
X62620Y-28380
X62620Y-30920
X62620Y-33460
X62620Y-36000
X62620Y-38540
X62620Y-41080
X62620Y-43620
X62620Y-46160
X62620Y-48700
X62620Y-51240
T4
X19000Y-61000
X111000Y-19000
X19000Y-19000
X111000Y-61000
T0
M30
