M48
; DRILL file {KiCad 5.1.5+dfsg1-2build2} date mer 08 jui 2020 13:42:59
; FORMAT={2:4/ absolute / inch / suppress leading zeros}
; #@! TF.CreationDate,2020-07-08T13:42:59-04:00
; #@! TF.GenerationSoftware,Kicad,Pcbnew,5.1.5+dfsg1-2build2
FMAT,2
INCH,TZ
T1C0.0157
T2C0.0315
T3C0.0394
T4C0.0591
T5C0.0787
T6C0.1260
%
G90
G05
T1
X11417Y-24016
X11417Y-24409
X11417Y-25591
X11417Y-25984
X11811Y-24016
X11811Y-24409
X11811Y-25591
X11811Y-25984
X11811Y-27559
X11811Y-28346
X11811Y-30709
X11811Y-31496
X11811Y-32283
X11811Y-33071
X11811Y-33858
X11811Y-38583
X11811Y-39370
X11811Y-40157
X11811Y-40945
X11811Y-41732
X11811Y-42520
X11811Y-43307
X11811Y-44094
X12205Y-24016
X12205Y-24409
X12205Y-25591
X12205Y-25984
X12598Y-24016
X12598Y-24409
X12598Y-25591
X12598Y-25984
X12598Y-27559
X12598Y-28346
X12598Y-29921
X12598Y-30709
X12598Y-31496
X12598Y-32283
X12598Y-33071
X12598Y-33858
X12598Y-38583
X12598Y-39370
X12598Y-40157
X12598Y-40945
X12598Y-41732
X12598Y-42520
X12598Y-43307
X12598Y-44094
X12992Y-24016
X12992Y-24409
X12992Y-25591
X12992Y-25984
X13386Y-24016
X13386Y-24409
X13386Y-25591
X13386Y-25984
X13386Y-27559
X13386Y-28346
X13386Y-29921
X13386Y-30709
X13386Y-31496
X13386Y-32283
X13386Y-33071
X13386Y-33858
X13386Y-38583
X13386Y-39370
X13386Y-40157
X13386Y-40945
X13386Y-41732
X13386Y-42520
X13386Y-43307
X13386Y-44094
X13386Y-44882
X13780Y-27953
X13780Y-33071
X13780Y-33465
X13780Y-33858
X13780Y-38976
X13780Y-44094
X13780Y-44488
X13780Y-44882
X14173Y-27953
X14173Y-30709
X14173Y-33071
X14173Y-33465
X14173Y-33858
X14173Y-38976
X14173Y-41732
X14173Y-44094
X14173Y-44488
X14173Y-44882
X14370Y-29921
X14370Y-31496
X14380Y-40982
X14380Y-42482
X14567Y-27953
X14567Y-30709
X14567Y-38976
X14567Y-41732
X14961Y-27953
X14961Y-38976
X16329Y-29959
X16329Y-30459
X16329Y-30959
X16329Y-40982
X16329Y-41482
X16348Y-42002
X17717Y-30709
X17717Y-41732
X18110Y-28396
X18110Y-29134
X18110Y-39370
X18110Y-40157
X18898Y-29921
X18898Y-40945
X19291Y-27953
X19291Y-38976
X19685Y-27953
X19685Y-38976
X20079Y-27953
X20079Y-38976
X20472Y-27953
X20472Y-29921
X20472Y-30315
X20472Y-30709
X20472Y-38976
X20472Y-40945
X20472Y-41339
X20472Y-41732
X26969Y-20079
X26969Y-20866
X26969Y-21654
X26969Y-22441
X26969Y-23228
X27756Y-20079
X27756Y-20866
X27756Y-21654
X27756Y-22441
X27756Y-23228
X27953Y-26772
X28543Y-20079
X28543Y-20866
X28543Y-21654
X28543Y-22441
X28543Y-23228
X29331Y-20079
X29331Y-20866
X29331Y-21654
X29331Y-22441
X29331Y-23228
X29528Y-24409
X29528Y-24803
X29528Y-25197
X29528Y-25591
X29528Y-25984
X29528Y-26772
X29921Y-41339
X29921Y-41732
X29921Y-42126
X29921Y-42913
X29921Y-43307
X29921Y-43701
X30118Y-20079
X30118Y-20866
X30118Y-21654
X30118Y-22441
X30118Y-23228
X30315Y-31102
X30315Y-33858
X30315Y-41339
X30315Y-41732
X30315Y-42126
X30315Y-42913
X30315Y-43307
X30315Y-43701
X31496Y-41339
X31496Y-41732
X31496Y-42126
X31496Y-42913
X31496Y-43307
X31496Y-43701
X31693Y-35039
X31890Y-41339
X31890Y-41732
X31890Y-42126
X31890Y-42913
X31890Y-43307
X31890Y-43701
X35236Y-35039
X35433Y-33858
X37402Y-29528
X37402Y-29921
X37402Y-30315
X37795Y-29528
X37795Y-29921
X37795Y-30315
X38189Y-29921
X38189Y-30315
X38583Y-22441
X38583Y-24409
X38583Y-27559
X38583Y-29528
X38583Y-32677
X38583Y-34646
X38583Y-37795
X38583Y-38976
X39370Y-24409
X39370Y-24803
X39370Y-39961
X39370Y-40354
X39370Y-40748
X39764Y-24409
X39764Y-24803
X39764Y-25197
X39764Y-39961
X39764Y-40354
X39764Y-40748
X40157Y-24409
X40157Y-24803
X40157Y-39961
X40157Y-40354
X40157Y-40748
X40551Y-21654
X40551Y-22047
X40551Y-27559
X40945Y-21654
X40945Y-22047
X40945Y-22441
X41339Y-22047
X41339Y-27559
X43307Y-21654
X43307Y-22441
X43307Y-23228
X43307Y-24016
X43307Y-24803
X43307Y-25591
X43307Y-26772
X43307Y-27559
X43307Y-28346
X43307Y-29134
X43307Y-29921
X43307Y-30709
X43307Y-31890
X43307Y-32677
X43307Y-33465
X43307Y-34252
X43307Y-35039
X43307Y-35827
X43307Y-36614
X43307Y-37402
X44094Y-21654
X44094Y-22441
X44094Y-23228
X44094Y-24016
X44094Y-24803
X44094Y-25591
X44094Y-26772
X44094Y-27559
X44094Y-28346
X44094Y-29134
X44094Y-29921
X44094Y-30709
X44094Y-31890
X44094Y-32677
X44094Y-33465
X44094Y-34252
X44094Y-35039
X44094Y-35827
X44094Y-36614
X44094Y-37402
X44882Y-21654
X44882Y-22441
X44882Y-23228
X44882Y-24016
X44882Y-24803
X44882Y-25591
X44882Y-26772
X44882Y-27559
X44882Y-28346
X44882Y-29921
X44882Y-30709
X44882Y-31890
X44882Y-32677
X44882Y-33465
X44882Y-34252
X44882Y-35039
X44882Y-35827
X44882Y-36614
X44882Y-37402
X44882Y-38189
X44882Y-38976
X44882Y-39764
X44882Y-40551
X45276Y-18504
X45276Y-18898
X45276Y-20079
X45276Y-20472
X45669Y-18504
X45669Y-18898
X45669Y-20079
X45669Y-20472
X45669Y-21654
X45669Y-22441
X45669Y-23228
X45669Y-24016
X45669Y-24803
X45669Y-25591
X45669Y-26772
X45669Y-27559
X45669Y-28346
X45669Y-29134
X45669Y-29921
X45669Y-30709
X45669Y-31890
X45669Y-32677
X45669Y-33465
X45669Y-34252
X45669Y-35039
X45669Y-35827
X45669Y-36614
X45669Y-37402
X45669Y-38189
X45669Y-38976
X45669Y-39764
X45669Y-40551
X46063Y-18504
X46063Y-18898
X46063Y-20079
X46063Y-20472
X46457Y-18504
X46457Y-18898
X46457Y-20079
X46457Y-20472
X46457Y-21654
X46457Y-22441
X46457Y-23228
X46457Y-24016
X46457Y-24803
X46457Y-25591
X46457Y-26772
X46457Y-27559
X46457Y-28346
X46457Y-29134
X46457Y-29921
X46457Y-30709
X46457Y-31890
X46457Y-32677
X46457Y-33465
X46457Y-34252
X46457Y-35039
X46457Y-35827
X46457Y-36614
X46457Y-37402
X46457Y-38189
X46457Y-38976
X46457Y-39764
X46457Y-40551
X46850Y-18504
X46850Y-18898
X46850Y-20079
X46850Y-20472
X47244Y-18504
X47244Y-18898
X47244Y-20079
X47244Y-20472
X47244Y-20866
X47244Y-21654
X47244Y-22441
X47244Y-23228
X47244Y-24016
X47244Y-24803
X47244Y-25591
X47244Y-26772
X47244Y-27559
X47244Y-28346
X47244Y-29134
X47244Y-29921
X47244Y-30709
X47244Y-31890
X47244Y-32677
X47244Y-33465
X47244Y-34252
X47244Y-35039
X47244Y-35827
X47244Y-36614
X47244Y-37402
X47244Y-38189
X47244Y-38976
X47244Y-39764
X47244Y-40551
X48031Y-20866
X48031Y-21654
X48031Y-22441
X48031Y-23228
X48031Y-24016
X48031Y-24803
X48031Y-25591
X48031Y-26772
X48031Y-27559
X48031Y-28346
X48031Y-29134
X48031Y-29921
X48031Y-30709
X48031Y-31890
X48031Y-32677
X48031Y-33465
X48031Y-34252
X48031Y-35039
X48031Y-35827
X48031Y-36614
X48031Y-37402
X48031Y-38189
X48031Y-38976
X48031Y-39764
X48031Y-40551
X48819Y-20866
X48819Y-21654
X48819Y-22441
X48819Y-23228
X48819Y-24016
X48819Y-24803
X48819Y-25591
X48819Y-26772
X48819Y-27559
X48819Y-28346
X48819Y-29134
X48819Y-29921
X48819Y-30709
X48819Y-31890
X48819Y-32677
X48819Y-33465
X48819Y-34252
X48819Y-35039
X48819Y-35827
X48819Y-36614
X48819Y-37402
X48819Y-38189
X48819Y-38976
X48819Y-39764
X48819Y-40551
T2
X24409Y-27953
X25787Y-27953
X33071Y-38976
X33071Y-40354
X33071Y-31890
X33071Y-33268
T3
X32677Y-21260
X32677Y-22260
X32677Y-23260
X32677Y-24260
X32677Y-25260
X32677Y-26260
X32677Y-27260
X32677Y-28260
X26378Y-35039
X26378Y-36039
X26378Y-37039
X26378Y-38039
X26378Y-39039
X26378Y-40039
X28740Y-31677
X28740Y-32677
X35614Y-37008
X36614Y-37008
X28740Y-27740
X28740Y-28740
X28740Y-35039
X28740Y-36039
X28740Y-37039
X28740Y-38039
X28740Y-39039
X28740Y-40039
T4
X12205Y-14567
X12205Y-16535
X12205Y-18504
T5
X31102Y-11024
X31102Y-14961
X15748Y-22441
X17795Y-22441
X21575Y-22441
X23622Y-22441
X15748Y-9843
X17795Y-9843
X21575Y-9843
X23622Y-9843
X42126Y-11024
X42126Y-14961
X16791Y-13642
X16791Y-18642
X21791Y-13642
X21791Y-18642
T6
X47638Y-45669
X11417Y-9449
X11417Y-45669
X47638Y-9449
T0
M30
