G04 #@! TF.GenerationSoftware,KiCad,Pcbnew,5.1.5+dfsg1-2build2*
G04 #@! TF.CreationDate,2020-07-08T13:44:09-04:00*
G04 #@! TF.ProjectId,psu,7073752e-6b69-4636-9164-5f7063625858,rev?*
G04 #@! TF.SameCoordinates,Original*
G04 #@! TF.FileFunction,Copper,L2,Bot*
G04 #@! TF.FilePolarity,Positive*
%FSLAX46Y46*%
G04 Gerber Fmt 4.6, Leading zero omitted, Abs format (unit mm)*
G04 Created by KiCad (PCBNEW 5.1.5+dfsg1-2build2) date 2020-07-08 13:44:09*
%MOMM*%
%LPD*%
G04 APERTURE LIST*
%ADD10C,2.500000*%
%ADD11O,1.700000X1.700000*%
%ADD12R,1.700000X1.700000*%
%ADD13C,4.000000*%
%ADD14C,3.000000*%
%ADD15C,1.600000*%
%ADD16R,1.600000X1.600000*%
%ADD17R,4.000000X4.000000*%
%ADD18C,0.800000*%
%ADD19C,0.250000*%
%ADD20C,0.508000*%
%ADD21C,2.540000*%
%ADD22C,5.080000*%
%ADD23C,0.254000*%
G04 APERTURE END LIST*
D10*
X31000000Y-37000000D03*
X31000000Y-42000000D03*
X31000000Y-47000000D03*
D11*
X73000000Y-70460000D03*
D12*
X73000000Y-73000000D03*
D11*
X90460000Y-94000000D03*
D12*
X93000000Y-94000000D03*
D11*
X67000000Y-101700000D03*
X67000000Y-99160000D03*
X67000000Y-96620000D03*
X67000000Y-94080000D03*
X67000000Y-91540000D03*
D12*
X67000000Y-89000000D03*
D11*
X83000000Y-71780000D03*
X83000000Y-69240000D03*
X83000000Y-66700000D03*
X83000000Y-64160000D03*
X83000000Y-61620000D03*
X83000000Y-59080000D03*
X83000000Y-56540000D03*
D12*
X83000000Y-54000000D03*
D11*
X73000000Y-101700000D03*
X73000000Y-99160000D03*
X73000000Y-96620000D03*
X73000000Y-94080000D03*
X73000000Y-91540000D03*
D12*
X73000000Y-89000000D03*
D13*
X54800000Y-57000000D03*
X45200000Y-57000000D03*
X40000000Y-57000000D03*
X60000000Y-57000000D03*
X54800000Y-25000000D03*
X45200000Y-25000000D03*
X40000000Y-25000000D03*
X60000000Y-25000000D03*
D11*
X73000000Y-80460000D03*
D12*
X73000000Y-83000000D03*
D14*
X55350000Y-34650000D03*
X42650000Y-34650000D03*
X42650000Y-47350000D03*
X55350000Y-47350000D03*
D15*
X65500000Y-71000000D03*
D16*
X62000000Y-71000000D03*
X84000000Y-99000000D03*
D15*
X84000000Y-102500000D03*
X84000000Y-84500000D03*
D16*
X84000000Y-81000000D03*
D13*
X107000000Y-38000000D03*
D17*
X107000000Y-28000000D03*
D13*
X79000000Y-28000000D03*
D17*
X79000000Y-38000000D03*
D18*
X30000000Y-62000000D03*
X33000000Y-62000000D03*
X116000000Y-48000000D03*
X119000000Y-48000000D03*
X118000000Y-47000000D03*
X120000000Y-47000000D03*
X120000000Y-48000000D03*
X119000000Y-47000000D03*
X118000000Y-48000000D03*
X117000000Y-48000000D03*
X117000000Y-47000000D03*
X116000000Y-47000000D03*
X115000000Y-47000000D03*
X115000000Y-48000000D03*
X29000000Y-62000000D03*
X29000000Y-61000000D03*
X30000000Y-61000000D03*
X31000000Y-61000000D03*
X31000000Y-62000000D03*
X32000000Y-62000000D03*
X32000000Y-61000000D03*
X33000000Y-61000000D03*
X34000000Y-61000000D03*
X34000000Y-62000000D03*
X104000000Y-57000000D03*
X36500000Y-80000000D03*
X41475000Y-77365000D03*
X36525000Y-107905000D03*
X41475000Y-105365000D03*
X103000000Y-55000000D03*
X104000000Y-55000000D03*
X105000000Y-56000000D03*
X104000000Y-56000000D03*
X103000000Y-56000000D03*
X110000000Y-76000000D03*
X110000000Y-78000000D03*
X112000000Y-78000000D03*
X112000000Y-76000000D03*
X114000000Y-76000000D03*
X114000000Y-78000000D03*
X118000000Y-78000000D03*
X116000000Y-78000000D03*
X116000000Y-76000000D03*
X118000000Y-76000000D03*
X118000000Y-74000000D03*
X116000000Y-74000000D03*
X112000000Y-74000000D03*
X110000000Y-74000000D03*
X110000000Y-72000000D03*
X112000000Y-72000000D03*
X114000000Y-72000000D03*
X116000000Y-72000000D03*
X118000000Y-72000000D03*
X118000000Y-70000000D03*
X116000000Y-70000000D03*
X114000000Y-70000000D03*
X112000000Y-70000000D03*
X110000000Y-70000000D03*
X110000000Y-68000000D03*
X112000000Y-68000000D03*
X114000000Y-68000000D03*
X116000000Y-68000000D03*
X118000000Y-68000000D03*
X120000000Y-68000000D03*
X122000000Y-68000000D03*
X124000000Y-68000000D03*
X124000000Y-70000000D03*
X122000000Y-70000000D03*
X120000000Y-70000000D03*
X120000000Y-72000000D03*
X122000000Y-72000000D03*
X124000000Y-72000000D03*
X124000000Y-74000000D03*
X120000000Y-74000000D03*
X122000000Y-74000000D03*
X120000000Y-76000000D03*
X122000000Y-76000000D03*
X124000000Y-76000000D03*
X124000000Y-78000000D03*
X122000000Y-78000000D03*
X120000000Y-78000000D03*
X115000000Y-51000000D03*
X103000000Y-70000000D03*
X105000000Y-70000000D03*
X80000000Y-110000000D03*
X80000000Y-106000000D03*
X116000000Y-51000000D03*
X110000000Y-65000000D03*
X110000000Y-63000000D03*
X110000000Y-61000000D03*
X110000000Y-59000000D03*
X110000000Y-57000000D03*
X110000000Y-55000000D03*
X112000000Y-55000000D03*
X112000000Y-57000000D03*
X112000000Y-59000000D03*
X112000000Y-61000000D03*
X112000000Y-63000000D03*
X112000000Y-65000000D03*
X114000000Y-65000000D03*
X114000000Y-63000000D03*
X114000000Y-61000000D03*
X114000000Y-59000000D03*
X114000000Y-57000000D03*
X114000000Y-55000000D03*
X116000000Y-55000000D03*
X116000000Y-57000000D03*
X116000000Y-59000000D03*
X116000000Y-61000000D03*
X116000000Y-63000000D03*
X116000000Y-65000000D03*
X118000000Y-65000000D03*
X118000000Y-63000000D03*
X118000000Y-61000000D03*
X118000000Y-59000000D03*
X118000000Y-57000000D03*
X118000000Y-55000000D03*
X120000000Y-95000000D03*
X122000000Y-95000000D03*
X124000000Y-95000000D03*
X124000000Y-97000000D03*
X122000000Y-97000000D03*
X120000000Y-97000000D03*
X120000000Y-99000000D03*
X122000000Y-99000000D03*
X124000000Y-99000000D03*
X124000000Y-101000000D03*
X122000000Y-101000000D03*
X120000000Y-101000000D03*
X118000000Y-101000000D03*
X118000000Y-99000000D03*
X118000000Y-97000000D03*
X118000000Y-95000000D03*
X118000000Y-93000000D03*
X116000000Y-93000000D03*
X124000000Y-103000000D03*
X122000000Y-103000000D03*
X120000000Y-103000000D03*
X118000000Y-103000000D03*
X116000000Y-95000000D03*
X114000000Y-93000000D03*
X114000000Y-95000000D03*
X114000000Y-97000000D03*
X114000000Y-99000000D03*
X114000000Y-101000000D03*
X116000000Y-101000000D03*
X116000000Y-99000000D03*
X114000000Y-103000000D03*
X116000000Y-103000000D03*
X116000000Y-97000000D03*
X112000000Y-93000000D03*
X112000000Y-95000000D03*
X110000000Y-95000000D03*
X110000000Y-93000000D03*
X110000000Y-81000000D03*
X110000000Y-83000000D03*
X110000000Y-85000000D03*
X110000000Y-87000000D03*
X110000000Y-89000000D03*
X110000000Y-91000000D03*
X112000000Y-91000000D03*
X112000000Y-89000000D03*
X112000000Y-87000000D03*
X112000000Y-85000000D03*
X112000000Y-83000000D03*
X112000000Y-81000000D03*
X114000000Y-81000000D03*
X114000000Y-83000000D03*
X114000000Y-85000000D03*
X114000000Y-87000000D03*
X114000000Y-89000000D03*
X114000000Y-91000000D03*
X116000000Y-91000000D03*
X116000000Y-89000000D03*
X116000000Y-87000000D03*
X116000000Y-85000000D03*
X116000000Y-83000000D03*
X116000000Y-81000000D03*
X118000000Y-81000000D03*
X118000000Y-83000000D03*
X118000000Y-85000000D03*
X118000000Y-87000000D03*
X118000000Y-89000000D03*
X118000000Y-91000000D03*
X124000000Y-57000000D03*
X124000000Y-59000000D03*
X124000000Y-61000000D03*
X124000000Y-63000000D03*
X124000000Y-65000000D03*
X122000000Y-65000000D03*
X122000000Y-63000000D03*
X122000000Y-61000000D03*
X122000000Y-59000000D03*
X120000000Y-59000000D03*
X120000000Y-61000000D03*
X120000000Y-63000000D03*
X120000000Y-65000000D03*
X124000000Y-81000000D03*
X122000000Y-81000000D03*
X120000000Y-81000000D03*
X120000000Y-83000000D03*
X122000000Y-83000000D03*
X124000000Y-83000000D03*
X124000000Y-85000000D03*
X122000000Y-85000000D03*
X120000000Y-85000000D03*
X120000000Y-87000000D03*
X122000000Y-87000000D03*
X124000000Y-87000000D03*
X120000000Y-89000000D03*
X122000000Y-89000000D03*
X124000000Y-89000000D03*
X120000000Y-91000000D03*
X122000000Y-91000000D03*
X124000000Y-91000000D03*
X124000000Y-93000000D03*
X122000000Y-93000000D03*
X120000000Y-93000000D03*
X122000000Y-57000000D03*
X120000000Y-57000000D03*
X120000000Y-55000000D03*
X122000000Y-55000000D03*
X124000000Y-55000000D03*
X124000000Y-53000000D03*
X122000000Y-53000000D03*
X120000000Y-53000000D03*
X119000000Y-51000000D03*
X120000000Y-51000000D03*
X120000000Y-52000000D03*
X119000000Y-52000000D03*
X118000000Y-52000000D03*
X118000000Y-51000000D03*
X98000000Y-57000000D03*
X98000000Y-62000000D03*
X98000000Y-70000000D03*
X98000000Y-75000000D03*
X98000000Y-83000000D03*
X98000000Y-88000000D03*
X98000000Y-96000000D03*
X98000000Y-99000000D03*
X117000000Y-51000000D03*
X117000000Y-52000000D03*
X116000000Y-52000000D03*
X115000000Y-52000000D03*
X80000000Y-105000000D03*
X81000000Y-105000000D03*
X81000000Y-106000000D03*
X81000000Y-107000000D03*
X80000000Y-107000000D03*
X80000000Y-109000000D03*
X81000000Y-109000000D03*
X81000000Y-110000000D03*
X81000000Y-111000000D03*
X80000000Y-111000000D03*
X97000000Y-76000000D03*
X97000000Y-77000000D03*
X96000000Y-77000000D03*
X96000000Y-76000000D03*
X96000000Y-75000000D03*
X95000000Y-77000000D03*
X95000000Y-76000000D03*
X95000000Y-75000000D03*
X89500000Y-89000000D03*
X80500000Y-89000000D03*
X90000000Y-86000000D03*
X102000000Y-62000000D03*
X101000000Y-64000000D03*
X100000000Y-63000000D03*
X101000000Y-62000000D03*
X101000000Y-63000000D03*
X100000000Y-62000000D03*
X102000000Y-63000000D03*
X34000000Y-78000000D03*
X32000000Y-78000000D03*
X30000000Y-78000000D03*
X30000000Y-80000000D03*
X32000000Y-80000000D03*
X34000000Y-80000000D03*
X34000000Y-82000000D03*
X32000000Y-82000000D03*
X30000000Y-82000000D03*
X30000000Y-84000000D03*
X32000000Y-84000000D03*
X34000000Y-84000000D03*
X34000000Y-86000000D03*
X32000000Y-86000000D03*
X30000000Y-86000000D03*
X32000000Y-76000000D03*
X34000000Y-76000000D03*
X34000000Y-72000000D03*
X34000000Y-70000000D03*
X32000000Y-70000000D03*
X32000000Y-72000000D03*
X30000000Y-72000000D03*
X30000000Y-70000000D03*
X34000000Y-104000000D03*
X32000000Y-104000000D03*
X32000000Y-106000000D03*
X34000000Y-106000000D03*
X34000000Y-108000000D03*
X32000000Y-108000000D03*
X32000000Y-110000000D03*
X34000000Y-110000000D03*
X34000000Y-112000000D03*
X32000000Y-112000000D03*
X34000000Y-114000000D03*
X30000000Y-112000000D03*
X30000000Y-110000000D03*
X30000000Y-108000000D03*
X30000000Y-106000000D03*
X30000000Y-104000000D03*
X30000000Y-102000000D03*
X32000000Y-102000000D03*
X34000000Y-102000000D03*
X34000000Y-100000000D03*
X32000000Y-100000000D03*
X30000000Y-100000000D03*
X34000000Y-98000000D03*
X32000000Y-98000000D03*
X30000000Y-98000000D03*
X36000000Y-114000000D03*
X35000000Y-114000000D03*
X35000000Y-113000000D03*
X36000000Y-113000000D03*
X36000000Y-112000000D03*
X35000000Y-112000000D03*
X37000000Y-106000000D03*
X36000000Y-106000000D03*
X75000000Y-66000000D03*
X75000000Y-65000000D03*
X75000000Y-64000000D03*
X75000000Y-63000000D03*
X75000000Y-62000000D03*
X46000000Y-102000000D03*
X52000000Y-99000000D03*
X51000000Y-99000000D03*
X50000000Y-99000000D03*
X49000000Y-99000000D03*
X35000000Y-99000000D03*
X36000000Y-99000000D03*
X37000000Y-99000000D03*
X38000000Y-99000000D03*
X52000000Y-104000000D03*
X52000000Y-106000000D03*
X52000000Y-105000000D03*
X38000000Y-71000000D03*
X35000000Y-71000000D03*
X36000000Y-71000000D03*
X37000000Y-71000000D03*
X35000000Y-86000000D03*
X36000000Y-86000000D03*
X36000000Y-85000000D03*
X35000000Y-85000000D03*
X35000000Y-84000000D03*
X36000000Y-84000000D03*
X36000000Y-78000000D03*
X37000000Y-78000000D03*
X52000000Y-76000000D03*
X52000000Y-78000000D03*
X52000000Y-77000000D03*
X52000000Y-71000000D03*
X49000000Y-71000000D03*
X50000000Y-71000000D03*
X51000000Y-71000000D03*
X45000000Y-78000000D03*
X46000000Y-74000000D03*
X77000000Y-110000000D03*
X77000000Y-106000000D03*
X33000000Y-65000000D03*
X30000000Y-65000000D03*
X34000000Y-65000000D03*
X34000000Y-66000000D03*
X33000000Y-66000000D03*
X32000000Y-66000000D03*
X32000000Y-65000000D03*
X31000000Y-65000000D03*
X31000000Y-66000000D03*
X30000000Y-66000000D03*
X29000000Y-66000000D03*
X29000000Y-65000000D03*
X77000000Y-109000000D03*
X76000000Y-109000000D03*
X76000000Y-110000000D03*
X76000000Y-111000000D03*
X77000000Y-111000000D03*
X77000000Y-107000000D03*
X76000000Y-107000000D03*
X76000000Y-106000000D03*
X76000000Y-105000000D03*
X77000000Y-105000000D03*
X41475000Y-78635000D03*
X41523870Y-106683870D03*
X45000000Y-106000000D03*
X48000000Y-76000000D03*
X41475000Y-76095000D03*
X36500000Y-76000000D03*
X46000000Y-72125000D03*
X48000000Y-104000000D03*
X41475000Y-104095000D03*
X46000000Y-100000000D03*
X36525000Y-104095000D03*
X100000000Y-101500000D03*
X101000000Y-101500000D03*
X102000000Y-101500000D03*
X101000000Y-102500000D03*
X100000000Y-102500000D03*
X100000000Y-103500000D03*
X101000000Y-103500000D03*
X102000000Y-103500000D03*
X102000000Y-102500000D03*
X77000000Y-86000000D03*
X77000000Y-79000000D03*
X75000000Y-68000000D03*
X71000000Y-68000000D03*
X68500000Y-59000000D03*
X72500000Y-59000000D03*
X76500000Y-59000000D03*
X68500000Y-51000000D03*
X72500000Y-55000000D03*
X68500000Y-55000000D03*
X76500000Y-55000000D03*
X76500000Y-51000000D03*
X72500000Y-51000000D03*
X76500000Y-57000000D03*
X76500000Y-53000000D03*
X68500000Y-53000000D03*
X68500000Y-57000000D03*
X72500000Y-57000000D03*
X74500000Y-57000000D03*
X70500000Y-57000000D03*
X70500000Y-59000000D03*
X74500000Y-59000000D03*
X74500000Y-55000000D03*
X70500000Y-55000000D03*
X70500000Y-53000000D03*
X72500000Y-53000000D03*
X74500000Y-53000000D03*
X74500000Y-51000000D03*
X70500000Y-51000000D03*
D19*
X120000000Y-48000000D02*
X119000000Y-47000000D01*
X118000000Y-47000000D02*
X119000000Y-47000000D01*
X119000000Y-47000000D02*
X120000000Y-47000000D01*
X119000000Y-48000000D02*
X118000000Y-48000000D01*
X117000000Y-48000000D02*
X117000000Y-47000000D01*
X116000000Y-47000000D02*
X115000000Y-47000000D01*
X29000000Y-62000000D02*
X29000000Y-61000000D01*
X30000000Y-61000000D02*
X31000000Y-61000000D01*
X33000000Y-62000000D02*
X32000000Y-62000000D01*
X32000000Y-61000000D02*
X33000000Y-61000000D01*
X34000000Y-61000000D02*
X34000000Y-62000000D01*
D20*
X38840000Y-80000000D02*
X41475000Y-77365000D01*
X36500000Y-80000000D02*
X38840000Y-80000000D01*
X41500000Y-105500000D02*
X39095000Y-107905000D01*
X39095000Y-107905000D02*
X36525000Y-107905000D01*
X39095000Y-107905000D02*
X41100001Y-105899999D01*
X41100001Y-105899999D02*
X41500000Y-105500000D01*
D21*
X83540000Y-38000000D02*
X91540000Y-46000000D01*
X79000000Y-38000000D02*
X83540000Y-38000000D01*
X91540000Y-46000000D02*
X94000000Y-46000000D01*
X94000000Y-46000000D02*
X104000000Y-56000000D01*
D19*
X119000000Y-51000000D02*
X120000000Y-51000000D01*
X120000000Y-52000000D02*
X119000000Y-52000000D01*
X118000000Y-52000000D02*
X118000000Y-51000000D01*
X116000000Y-51000000D02*
X117000000Y-51000000D01*
X116000000Y-52000000D02*
X115000000Y-52000000D01*
X80000000Y-106000000D02*
X80000000Y-105000000D01*
X81000000Y-105000000D02*
X81000000Y-106000000D01*
X81000000Y-107000000D02*
X80000000Y-107000000D01*
X80000000Y-109000000D02*
X81000000Y-109000000D01*
X81000000Y-110000000D02*
X81000000Y-111000000D01*
D21*
X101000000Y-62434315D02*
X101000000Y-63000000D01*
X101000000Y-62300000D02*
X101000000Y-62434315D01*
X98829999Y-60129999D02*
X101000000Y-62300000D01*
X92519999Y-60129999D02*
X98829999Y-60129999D01*
X86390000Y-54000000D02*
X92519999Y-60129999D01*
X83000000Y-54000000D02*
X86390000Y-54000000D01*
D19*
X34000000Y-65000000D02*
X34000000Y-66000000D01*
X33000000Y-66000000D02*
X32000000Y-66000000D01*
X30000000Y-65000000D02*
X31000000Y-65000000D01*
X31000000Y-66000000D02*
X30000000Y-66000000D01*
X29000000Y-66000000D02*
X29000000Y-65000000D01*
X77000000Y-110000000D02*
X77000000Y-109000000D01*
X76000000Y-109000000D02*
X76000000Y-110000000D01*
X76000000Y-111000000D02*
X77000000Y-111000000D01*
X77000000Y-107000000D02*
X76000000Y-107000000D01*
X76000000Y-106000000D02*
X76000000Y-105000000D01*
D20*
X48000000Y-76000000D02*
X41570000Y-76000000D01*
X41570000Y-76000000D02*
X41475000Y-76095000D01*
X40375000Y-72125000D02*
X46000000Y-72125000D01*
X36500000Y-76000000D02*
X40375000Y-72125000D01*
X48000000Y-104000000D02*
X41570000Y-104000000D01*
X41570000Y-104000000D02*
X41475000Y-104095000D01*
X46000000Y-100000000D02*
X40620000Y-100000000D01*
X40620000Y-100000000D02*
X36525000Y-104095000D01*
D21*
X74000000Y-89000000D02*
X84000000Y-99000000D01*
X73000000Y-89000000D02*
X74000000Y-89000000D01*
X100434315Y-102500000D02*
X101000000Y-102500000D01*
X98732398Y-102500000D02*
X100434315Y-102500000D01*
X80679999Y-65277920D02*
X80679999Y-84447601D01*
X81797919Y-64160000D02*
X80679999Y-65277920D01*
X83000000Y-64160000D02*
X81797919Y-64160000D01*
X102000000Y-102500000D02*
X98732398Y-102500000D01*
X80679999Y-84447601D02*
X83000000Y-86767602D01*
X83000000Y-86767602D02*
X83000000Y-91000000D01*
X94500000Y-102500000D02*
X102000000Y-102500000D01*
X83000000Y-91000000D02*
X94500000Y-102500000D01*
D22*
X60000000Y-25000000D02*
X54800000Y-25000000D01*
X54800000Y-34100000D02*
X55350000Y-34650000D01*
X54800000Y-25000000D02*
X54800000Y-34100000D01*
X60000000Y-57000000D02*
X54800000Y-57000000D01*
X52300000Y-57000000D02*
X42650000Y-47350000D01*
X54800000Y-57000000D02*
X52300000Y-57000000D01*
D20*
X77000000Y-86000000D02*
X77000000Y-79000000D01*
X75000000Y-68000000D02*
X71000000Y-68000000D01*
D23*
G36*
X124340000Y-48873000D02*
G01*
X99567076Y-48873000D01*
X95413220Y-44719145D01*
X95353556Y-44646444D01*
X95063482Y-44408387D01*
X94732539Y-44231494D01*
X94373445Y-44122564D01*
X94093582Y-44095000D01*
X94093580Y-44095000D01*
X94000000Y-44085783D01*
X93906420Y-44095000D01*
X92329077Y-44095000D01*
X85974551Y-37740475D01*
X104365000Y-37740475D01*
X104365000Y-38259525D01*
X104466261Y-38768601D01*
X104664893Y-39248141D01*
X104953262Y-39679715D01*
X105320285Y-40046738D01*
X105751859Y-40335107D01*
X106231399Y-40533739D01*
X106740475Y-40635000D01*
X107259525Y-40635000D01*
X107768601Y-40533739D01*
X108248141Y-40335107D01*
X108679715Y-40046738D01*
X109046738Y-39679715D01*
X109335107Y-39248141D01*
X109533739Y-38768601D01*
X109635000Y-38259525D01*
X109635000Y-37740475D01*
X109533739Y-37231399D01*
X109335107Y-36751859D01*
X109046738Y-36320285D01*
X108679715Y-35953262D01*
X108248141Y-35664893D01*
X107768601Y-35466261D01*
X107259525Y-35365000D01*
X106740475Y-35365000D01*
X106231399Y-35466261D01*
X105751859Y-35664893D01*
X105320285Y-35953262D01*
X104953262Y-36320285D01*
X104664893Y-36751859D01*
X104466261Y-37231399D01*
X104365000Y-37740475D01*
X85974551Y-37740475D01*
X84953220Y-36719145D01*
X84893556Y-36646444D01*
X84603482Y-36408387D01*
X84272539Y-36231494D01*
X83913445Y-36122564D01*
X83633582Y-36095000D01*
X83633580Y-36095000D01*
X83540000Y-36085783D01*
X83446420Y-36095000D01*
X81638072Y-36095000D01*
X81638072Y-36000000D01*
X81625812Y-35875518D01*
X81589502Y-35755820D01*
X81530537Y-35645506D01*
X81451185Y-35548815D01*
X81354494Y-35469463D01*
X81244180Y-35410498D01*
X81124482Y-35374188D01*
X81000000Y-35361928D01*
X77000000Y-35361928D01*
X76875518Y-35374188D01*
X76755820Y-35410498D01*
X76645506Y-35469463D01*
X76548815Y-35548815D01*
X76469463Y-35645506D01*
X76410498Y-35755820D01*
X76374188Y-35875518D01*
X76361928Y-36000000D01*
X76361928Y-40000000D01*
X76374188Y-40124482D01*
X76410498Y-40244180D01*
X76469463Y-40354494D01*
X76548815Y-40451185D01*
X76645506Y-40530537D01*
X76755820Y-40589502D01*
X76875518Y-40625812D01*
X77000000Y-40638072D01*
X81000000Y-40638072D01*
X81124482Y-40625812D01*
X81244180Y-40589502D01*
X81354494Y-40530537D01*
X81451185Y-40451185D01*
X81530537Y-40354494D01*
X81589502Y-40244180D01*
X81625812Y-40124482D01*
X81638072Y-40000000D01*
X81638072Y-39905000D01*
X82750925Y-39905000D01*
X90126788Y-47280865D01*
X90186444Y-47353556D01*
X90476518Y-47591613D01*
X90807461Y-47768506D01*
X91166555Y-47877436D01*
X91446418Y-47905000D01*
X91446427Y-47905000D01*
X91539999Y-47914216D01*
X91633571Y-47905000D01*
X93210925Y-47905000D01*
X94178925Y-48873000D01*
X66000000Y-48873000D01*
X65975224Y-48875440D01*
X65951399Y-48882667D01*
X65929443Y-48894403D01*
X65910197Y-48910197D01*
X65894403Y-48929443D01*
X65882667Y-48951399D01*
X65875440Y-48975224D01*
X65873000Y-49000000D01*
X65873000Y-62873000D01*
X25660000Y-62873000D01*
X25660000Y-56740475D01*
X37365000Y-56740475D01*
X37365000Y-57259525D01*
X37466261Y-57768601D01*
X37664893Y-58248141D01*
X37953262Y-58679715D01*
X38320285Y-59046738D01*
X38751859Y-59335107D01*
X39231399Y-59533739D01*
X39740475Y-59635000D01*
X40259525Y-59635000D01*
X40768601Y-59533739D01*
X41248141Y-59335107D01*
X41679715Y-59046738D01*
X42046738Y-58679715D01*
X42335107Y-58248141D01*
X42533739Y-57768601D01*
X42600000Y-57435483D01*
X42666261Y-57768601D01*
X42864893Y-58248141D01*
X43153262Y-58679715D01*
X43520285Y-59046738D01*
X43951859Y-59335107D01*
X44431399Y-59533739D01*
X44940475Y-59635000D01*
X45459525Y-59635000D01*
X45968601Y-59533739D01*
X46448141Y-59335107D01*
X46879715Y-59046738D01*
X47246738Y-58679715D01*
X47535107Y-58248141D01*
X47733739Y-57768601D01*
X47835000Y-57259525D01*
X47835000Y-57025128D01*
X49944643Y-59134771D01*
X50044073Y-59255927D01*
X50357511Y-59513158D01*
X50527530Y-59652689D01*
X51079101Y-59947510D01*
X51677591Y-60129060D01*
X52300000Y-60190362D01*
X52455973Y-60175000D01*
X60155973Y-60175000D01*
X60622409Y-60129060D01*
X61220899Y-59947510D01*
X61772470Y-59652689D01*
X62255927Y-59255927D01*
X62652689Y-58772470D01*
X62947510Y-58220899D01*
X63129060Y-57622409D01*
X63190362Y-57000000D01*
X63129060Y-56377591D01*
X62947510Y-55779101D01*
X62652689Y-55227530D01*
X62255927Y-54744073D01*
X61772470Y-54347311D01*
X61220899Y-54052490D01*
X60622409Y-53870940D01*
X60155973Y-53825000D01*
X53615128Y-53825000D01*
X46929849Y-47139721D01*
X53215000Y-47139721D01*
X53215000Y-47560279D01*
X53297047Y-47972756D01*
X53457988Y-48361302D01*
X53691637Y-48710983D01*
X53989017Y-49008363D01*
X54338698Y-49242012D01*
X54727244Y-49402953D01*
X55139721Y-49485000D01*
X55560279Y-49485000D01*
X55972756Y-49402953D01*
X56361302Y-49242012D01*
X56710983Y-49008363D01*
X57008363Y-48710983D01*
X57242012Y-48361302D01*
X57402953Y-47972756D01*
X57485000Y-47560279D01*
X57485000Y-47139721D01*
X57402953Y-46727244D01*
X57242012Y-46338698D01*
X57008363Y-45989017D01*
X56710983Y-45691637D01*
X56361302Y-45457988D01*
X55972756Y-45297047D01*
X55560279Y-45215000D01*
X55139721Y-45215000D01*
X54727244Y-45297047D01*
X54338698Y-45457988D01*
X53989017Y-45691637D01*
X53691637Y-45989017D01*
X53457988Y-46338698D01*
X53297047Y-46727244D01*
X53215000Y-47139721D01*
X46929849Y-47139721D01*
X44784774Y-44994647D01*
X44422469Y-44697311D01*
X43870898Y-44402490D01*
X43272408Y-44220941D01*
X42650000Y-44159638D01*
X42027592Y-44220941D01*
X41429102Y-44402490D01*
X40877531Y-44697311D01*
X40394074Y-45094074D01*
X39997311Y-45577531D01*
X39702490Y-46129102D01*
X39520941Y-46727592D01*
X39459638Y-47350000D01*
X39520941Y-47972408D01*
X39702490Y-48570898D01*
X39997311Y-49122469D01*
X40294647Y-49484774D01*
X45174873Y-54365000D01*
X44940475Y-54365000D01*
X44431399Y-54466261D01*
X43951859Y-54664893D01*
X43520285Y-54953262D01*
X43153262Y-55320285D01*
X42864893Y-55751859D01*
X42666261Y-56231399D01*
X42600000Y-56564517D01*
X42533739Y-56231399D01*
X42335107Y-55751859D01*
X42046738Y-55320285D01*
X41679715Y-54953262D01*
X41248141Y-54664893D01*
X40768601Y-54466261D01*
X40259525Y-54365000D01*
X39740475Y-54365000D01*
X39231399Y-54466261D01*
X38751859Y-54664893D01*
X38320285Y-54953262D01*
X37953262Y-55320285D01*
X37664893Y-55751859D01*
X37466261Y-56231399D01*
X37365000Y-56740475D01*
X25660000Y-56740475D01*
X25660000Y-46814344D01*
X29115000Y-46814344D01*
X29115000Y-47185656D01*
X29187439Y-47549834D01*
X29329534Y-47892882D01*
X29535825Y-48201618D01*
X29798382Y-48464175D01*
X30107118Y-48670466D01*
X30450166Y-48812561D01*
X30814344Y-48885000D01*
X31185656Y-48885000D01*
X31549834Y-48812561D01*
X31892882Y-48670466D01*
X32201618Y-48464175D01*
X32464175Y-48201618D01*
X32670466Y-47892882D01*
X32812561Y-47549834D01*
X32885000Y-47185656D01*
X32885000Y-46814344D01*
X32812561Y-46450166D01*
X32670466Y-46107118D01*
X32464175Y-45798382D01*
X32201618Y-45535825D01*
X31892882Y-45329534D01*
X31549834Y-45187439D01*
X31185656Y-45115000D01*
X30814344Y-45115000D01*
X30450166Y-45187439D01*
X30107118Y-45329534D01*
X29798382Y-45535825D01*
X29535825Y-45798382D01*
X29329534Y-46107118D01*
X29187439Y-46450166D01*
X29115000Y-46814344D01*
X25660000Y-46814344D01*
X25660000Y-36814344D01*
X29115000Y-36814344D01*
X29115000Y-37185656D01*
X29187439Y-37549834D01*
X29329534Y-37892882D01*
X29535825Y-38201618D01*
X29798382Y-38464175D01*
X30107118Y-38670466D01*
X30450166Y-38812561D01*
X30814344Y-38885000D01*
X31185656Y-38885000D01*
X31549834Y-38812561D01*
X31892882Y-38670466D01*
X32201618Y-38464175D01*
X32464175Y-38201618D01*
X32670466Y-37892882D01*
X32812561Y-37549834D01*
X32885000Y-37185656D01*
X32885000Y-36814344D01*
X32812561Y-36450166D01*
X32670466Y-36107118D01*
X32464175Y-35798382D01*
X32201618Y-35535825D01*
X31892882Y-35329534D01*
X31549834Y-35187439D01*
X31185656Y-35115000D01*
X30814344Y-35115000D01*
X30450166Y-35187439D01*
X30107118Y-35329534D01*
X29798382Y-35535825D01*
X29535825Y-35798382D01*
X29329534Y-36107118D01*
X29187439Y-36450166D01*
X29115000Y-36814344D01*
X25660000Y-36814344D01*
X25660000Y-34439721D01*
X40515000Y-34439721D01*
X40515000Y-34860279D01*
X40597047Y-35272756D01*
X40757988Y-35661302D01*
X40991637Y-36010983D01*
X41289017Y-36308363D01*
X41638698Y-36542012D01*
X42027244Y-36702953D01*
X42439721Y-36785000D01*
X42860279Y-36785000D01*
X43272756Y-36702953D01*
X43661302Y-36542012D01*
X44010983Y-36308363D01*
X44308363Y-36010983D01*
X44542012Y-35661302D01*
X44702953Y-35272756D01*
X44785000Y-34860279D01*
X44785000Y-34439721D01*
X44702953Y-34027244D01*
X44542012Y-33638698D01*
X44308363Y-33289017D01*
X44010983Y-32991637D01*
X43661302Y-32757988D01*
X43272756Y-32597047D01*
X42860279Y-32515000D01*
X42439721Y-32515000D01*
X42027244Y-32597047D01*
X41638698Y-32757988D01*
X41289017Y-32991637D01*
X40991637Y-33289017D01*
X40757988Y-33638698D01*
X40597047Y-34027244D01*
X40515000Y-34439721D01*
X25660000Y-34439721D01*
X25660000Y-23779872D01*
X26765000Y-23779872D01*
X26765000Y-24220128D01*
X26850890Y-24651925D01*
X27019369Y-25058669D01*
X27263962Y-25424729D01*
X27575271Y-25736038D01*
X27941331Y-25980631D01*
X28348075Y-26149110D01*
X28779872Y-26235000D01*
X29220128Y-26235000D01*
X29651925Y-26149110D01*
X30058669Y-25980631D01*
X30424729Y-25736038D01*
X30736038Y-25424729D01*
X30980631Y-25058669D01*
X31112431Y-24740475D01*
X37365000Y-24740475D01*
X37365000Y-25259525D01*
X37466261Y-25768601D01*
X37664893Y-26248141D01*
X37953262Y-26679715D01*
X38320285Y-27046738D01*
X38751859Y-27335107D01*
X39231399Y-27533739D01*
X39740475Y-27635000D01*
X40259525Y-27635000D01*
X40768601Y-27533739D01*
X41248141Y-27335107D01*
X41679715Y-27046738D01*
X42046738Y-26679715D01*
X42335107Y-26248141D01*
X42533739Y-25768601D01*
X42600000Y-25435483D01*
X42666261Y-25768601D01*
X42864893Y-26248141D01*
X43153262Y-26679715D01*
X43520285Y-27046738D01*
X43951859Y-27335107D01*
X44431399Y-27533739D01*
X44940475Y-27635000D01*
X45459525Y-27635000D01*
X45968601Y-27533739D01*
X46448141Y-27335107D01*
X46879715Y-27046738D01*
X47246738Y-26679715D01*
X47535107Y-26248141D01*
X47733739Y-25768601D01*
X47835000Y-25259525D01*
X47835000Y-25000000D01*
X51609638Y-25000000D01*
X51625000Y-25155973D01*
X51625001Y-33944020D01*
X51609638Y-34100000D01*
X51670941Y-34722408D01*
X51852490Y-35320898D01*
X52147311Y-35872469D01*
X52147312Y-35872470D01*
X52544074Y-36355927D01*
X52665230Y-36455357D01*
X53215226Y-37005353D01*
X53577530Y-37302688D01*
X54129102Y-37597509D01*
X54727591Y-37779059D01*
X55349999Y-37840362D01*
X55972408Y-37779059D01*
X56570898Y-37597509D01*
X57122469Y-37302688D01*
X57605926Y-36905926D01*
X58002688Y-36422469D01*
X58297509Y-35870898D01*
X58479059Y-35272408D01*
X58540362Y-34649999D01*
X58479059Y-34027591D01*
X58297509Y-33429102D01*
X58002688Y-32877530D01*
X57975000Y-32843792D01*
X57975000Y-28175000D01*
X60155973Y-28175000D01*
X60622409Y-28129060D01*
X61220899Y-27947510D01*
X61772470Y-27652689D01*
X62255927Y-27255927D01*
X62652689Y-26772470D01*
X62947510Y-26220899D01*
X63129060Y-25622409D01*
X63190362Y-25000000D01*
X63129060Y-24377591D01*
X62947744Y-23779872D01*
X118765000Y-23779872D01*
X118765000Y-24220128D01*
X118850890Y-24651925D01*
X119019369Y-25058669D01*
X119263962Y-25424729D01*
X119575271Y-25736038D01*
X119941331Y-25980631D01*
X120348075Y-26149110D01*
X120779872Y-26235000D01*
X121220128Y-26235000D01*
X121651925Y-26149110D01*
X122058669Y-25980631D01*
X122424729Y-25736038D01*
X122736038Y-25424729D01*
X122980631Y-25058669D01*
X123149110Y-24651925D01*
X123235000Y-24220128D01*
X123235000Y-23779872D01*
X123149110Y-23348075D01*
X122980631Y-22941331D01*
X122736038Y-22575271D01*
X122424729Y-22263962D01*
X122058669Y-22019369D01*
X121651925Y-21850890D01*
X121220128Y-21765000D01*
X120779872Y-21765000D01*
X120348075Y-21850890D01*
X119941331Y-22019369D01*
X119575271Y-22263962D01*
X119263962Y-22575271D01*
X119019369Y-22941331D01*
X118850890Y-23348075D01*
X118765000Y-23779872D01*
X62947744Y-23779872D01*
X62947510Y-23779101D01*
X62652689Y-23227530D01*
X62255927Y-22744073D01*
X61772470Y-22347311D01*
X61220899Y-22052490D01*
X60622409Y-21870940D01*
X60155973Y-21825000D01*
X54955973Y-21825000D01*
X54800000Y-21809638D01*
X54644027Y-21825000D01*
X54177591Y-21870940D01*
X53579101Y-22052490D01*
X53027530Y-22347311D01*
X52544073Y-22744073D01*
X52147311Y-23227530D01*
X51852490Y-23779101D01*
X51670940Y-24377591D01*
X51609638Y-25000000D01*
X47835000Y-25000000D01*
X47835000Y-24740475D01*
X47733739Y-24231399D01*
X47535107Y-23751859D01*
X47246738Y-23320285D01*
X46879715Y-22953262D01*
X46448141Y-22664893D01*
X45968601Y-22466261D01*
X45459525Y-22365000D01*
X44940475Y-22365000D01*
X44431399Y-22466261D01*
X43951859Y-22664893D01*
X43520285Y-22953262D01*
X43153262Y-23320285D01*
X42864893Y-23751859D01*
X42666261Y-24231399D01*
X42600000Y-24564517D01*
X42533739Y-24231399D01*
X42335107Y-23751859D01*
X42046738Y-23320285D01*
X41679715Y-22953262D01*
X41248141Y-22664893D01*
X40768601Y-22466261D01*
X40259525Y-22365000D01*
X39740475Y-22365000D01*
X39231399Y-22466261D01*
X38751859Y-22664893D01*
X38320285Y-22953262D01*
X37953262Y-23320285D01*
X37664893Y-23751859D01*
X37466261Y-24231399D01*
X37365000Y-24740475D01*
X31112431Y-24740475D01*
X31149110Y-24651925D01*
X31235000Y-24220128D01*
X31235000Y-23779872D01*
X31149110Y-23348075D01*
X30980631Y-22941331D01*
X30736038Y-22575271D01*
X30424729Y-22263962D01*
X30058669Y-22019369D01*
X29651925Y-21850890D01*
X29220128Y-21765000D01*
X28779872Y-21765000D01*
X28348075Y-21850890D01*
X27941331Y-22019369D01*
X27575271Y-22263962D01*
X27263962Y-22575271D01*
X27019369Y-22941331D01*
X26850890Y-23348075D01*
X26765000Y-23779872D01*
X25660000Y-23779872D01*
X25660000Y-20660000D01*
X124340000Y-20660000D01*
X124340000Y-48873000D01*
G37*
X124340000Y-48873000D02*
X99567076Y-48873000D01*
X95413220Y-44719145D01*
X95353556Y-44646444D01*
X95063482Y-44408387D01*
X94732539Y-44231494D01*
X94373445Y-44122564D01*
X94093582Y-44095000D01*
X94093580Y-44095000D01*
X94000000Y-44085783D01*
X93906420Y-44095000D01*
X92329077Y-44095000D01*
X85974551Y-37740475D01*
X104365000Y-37740475D01*
X104365000Y-38259525D01*
X104466261Y-38768601D01*
X104664893Y-39248141D01*
X104953262Y-39679715D01*
X105320285Y-40046738D01*
X105751859Y-40335107D01*
X106231399Y-40533739D01*
X106740475Y-40635000D01*
X107259525Y-40635000D01*
X107768601Y-40533739D01*
X108248141Y-40335107D01*
X108679715Y-40046738D01*
X109046738Y-39679715D01*
X109335107Y-39248141D01*
X109533739Y-38768601D01*
X109635000Y-38259525D01*
X109635000Y-37740475D01*
X109533739Y-37231399D01*
X109335107Y-36751859D01*
X109046738Y-36320285D01*
X108679715Y-35953262D01*
X108248141Y-35664893D01*
X107768601Y-35466261D01*
X107259525Y-35365000D01*
X106740475Y-35365000D01*
X106231399Y-35466261D01*
X105751859Y-35664893D01*
X105320285Y-35953262D01*
X104953262Y-36320285D01*
X104664893Y-36751859D01*
X104466261Y-37231399D01*
X104365000Y-37740475D01*
X85974551Y-37740475D01*
X84953220Y-36719145D01*
X84893556Y-36646444D01*
X84603482Y-36408387D01*
X84272539Y-36231494D01*
X83913445Y-36122564D01*
X83633582Y-36095000D01*
X83633580Y-36095000D01*
X83540000Y-36085783D01*
X83446420Y-36095000D01*
X81638072Y-36095000D01*
X81638072Y-36000000D01*
X81625812Y-35875518D01*
X81589502Y-35755820D01*
X81530537Y-35645506D01*
X81451185Y-35548815D01*
X81354494Y-35469463D01*
X81244180Y-35410498D01*
X81124482Y-35374188D01*
X81000000Y-35361928D01*
X77000000Y-35361928D01*
X76875518Y-35374188D01*
X76755820Y-35410498D01*
X76645506Y-35469463D01*
X76548815Y-35548815D01*
X76469463Y-35645506D01*
X76410498Y-35755820D01*
X76374188Y-35875518D01*
X76361928Y-36000000D01*
X76361928Y-40000000D01*
X76374188Y-40124482D01*
X76410498Y-40244180D01*
X76469463Y-40354494D01*
X76548815Y-40451185D01*
X76645506Y-40530537D01*
X76755820Y-40589502D01*
X76875518Y-40625812D01*
X77000000Y-40638072D01*
X81000000Y-40638072D01*
X81124482Y-40625812D01*
X81244180Y-40589502D01*
X81354494Y-40530537D01*
X81451185Y-40451185D01*
X81530537Y-40354494D01*
X81589502Y-40244180D01*
X81625812Y-40124482D01*
X81638072Y-40000000D01*
X81638072Y-39905000D01*
X82750925Y-39905000D01*
X90126788Y-47280865D01*
X90186444Y-47353556D01*
X90476518Y-47591613D01*
X90807461Y-47768506D01*
X91166555Y-47877436D01*
X91446418Y-47905000D01*
X91446427Y-47905000D01*
X91539999Y-47914216D01*
X91633571Y-47905000D01*
X93210925Y-47905000D01*
X94178925Y-48873000D01*
X66000000Y-48873000D01*
X65975224Y-48875440D01*
X65951399Y-48882667D01*
X65929443Y-48894403D01*
X65910197Y-48910197D01*
X65894403Y-48929443D01*
X65882667Y-48951399D01*
X65875440Y-48975224D01*
X65873000Y-49000000D01*
X65873000Y-62873000D01*
X25660000Y-62873000D01*
X25660000Y-56740475D01*
X37365000Y-56740475D01*
X37365000Y-57259525D01*
X37466261Y-57768601D01*
X37664893Y-58248141D01*
X37953262Y-58679715D01*
X38320285Y-59046738D01*
X38751859Y-59335107D01*
X39231399Y-59533739D01*
X39740475Y-59635000D01*
X40259525Y-59635000D01*
X40768601Y-59533739D01*
X41248141Y-59335107D01*
X41679715Y-59046738D01*
X42046738Y-58679715D01*
X42335107Y-58248141D01*
X42533739Y-57768601D01*
X42600000Y-57435483D01*
X42666261Y-57768601D01*
X42864893Y-58248141D01*
X43153262Y-58679715D01*
X43520285Y-59046738D01*
X43951859Y-59335107D01*
X44431399Y-59533739D01*
X44940475Y-59635000D01*
X45459525Y-59635000D01*
X45968601Y-59533739D01*
X46448141Y-59335107D01*
X46879715Y-59046738D01*
X47246738Y-58679715D01*
X47535107Y-58248141D01*
X47733739Y-57768601D01*
X47835000Y-57259525D01*
X47835000Y-57025128D01*
X49944643Y-59134771D01*
X50044073Y-59255927D01*
X50357511Y-59513158D01*
X50527530Y-59652689D01*
X51079101Y-59947510D01*
X51677591Y-60129060D01*
X52300000Y-60190362D01*
X52455973Y-60175000D01*
X60155973Y-60175000D01*
X60622409Y-60129060D01*
X61220899Y-59947510D01*
X61772470Y-59652689D01*
X62255927Y-59255927D01*
X62652689Y-58772470D01*
X62947510Y-58220899D01*
X63129060Y-57622409D01*
X63190362Y-57000000D01*
X63129060Y-56377591D01*
X62947510Y-55779101D01*
X62652689Y-55227530D01*
X62255927Y-54744073D01*
X61772470Y-54347311D01*
X61220899Y-54052490D01*
X60622409Y-53870940D01*
X60155973Y-53825000D01*
X53615128Y-53825000D01*
X46929849Y-47139721D01*
X53215000Y-47139721D01*
X53215000Y-47560279D01*
X53297047Y-47972756D01*
X53457988Y-48361302D01*
X53691637Y-48710983D01*
X53989017Y-49008363D01*
X54338698Y-49242012D01*
X54727244Y-49402953D01*
X55139721Y-49485000D01*
X55560279Y-49485000D01*
X55972756Y-49402953D01*
X56361302Y-49242012D01*
X56710983Y-49008363D01*
X57008363Y-48710983D01*
X57242012Y-48361302D01*
X57402953Y-47972756D01*
X57485000Y-47560279D01*
X57485000Y-47139721D01*
X57402953Y-46727244D01*
X57242012Y-46338698D01*
X57008363Y-45989017D01*
X56710983Y-45691637D01*
X56361302Y-45457988D01*
X55972756Y-45297047D01*
X55560279Y-45215000D01*
X55139721Y-45215000D01*
X54727244Y-45297047D01*
X54338698Y-45457988D01*
X53989017Y-45691637D01*
X53691637Y-45989017D01*
X53457988Y-46338698D01*
X53297047Y-46727244D01*
X53215000Y-47139721D01*
X46929849Y-47139721D01*
X44784774Y-44994647D01*
X44422469Y-44697311D01*
X43870898Y-44402490D01*
X43272408Y-44220941D01*
X42650000Y-44159638D01*
X42027592Y-44220941D01*
X41429102Y-44402490D01*
X40877531Y-44697311D01*
X40394074Y-45094074D01*
X39997311Y-45577531D01*
X39702490Y-46129102D01*
X39520941Y-46727592D01*
X39459638Y-47350000D01*
X39520941Y-47972408D01*
X39702490Y-48570898D01*
X39997311Y-49122469D01*
X40294647Y-49484774D01*
X45174873Y-54365000D01*
X44940475Y-54365000D01*
X44431399Y-54466261D01*
X43951859Y-54664893D01*
X43520285Y-54953262D01*
X43153262Y-55320285D01*
X42864893Y-55751859D01*
X42666261Y-56231399D01*
X42600000Y-56564517D01*
X42533739Y-56231399D01*
X42335107Y-55751859D01*
X42046738Y-55320285D01*
X41679715Y-54953262D01*
X41248141Y-54664893D01*
X40768601Y-54466261D01*
X40259525Y-54365000D01*
X39740475Y-54365000D01*
X39231399Y-54466261D01*
X38751859Y-54664893D01*
X38320285Y-54953262D01*
X37953262Y-55320285D01*
X37664893Y-55751859D01*
X37466261Y-56231399D01*
X37365000Y-56740475D01*
X25660000Y-56740475D01*
X25660000Y-46814344D01*
X29115000Y-46814344D01*
X29115000Y-47185656D01*
X29187439Y-47549834D01*
X29329534Y-47892882D01*
X29535825Y-48201618D01*
X29798382Y-48464175D01*
X30107118Y-48670466D01*
X30450166Y-48812561D01*
X30814344Y-48885000D01*
X31185656Y-48885000D01*
X31549834Y-48812561D01*
X31892882Y-48670466D01*
X32201618Y-48464175D01*
X32464175Y-48201618D01*
X32670466Y-47892882D01*
X32812561Y-47549834D01*
X32885000Y-47185656D01*
X32885000Y-46814344D01*
X32812561Y-46450166D01*
X32670466Y-46107118D01*
X32464175Y-45798382D01*
X32201618Y-45535825D01*
X31892882Y-45329534D01*
X31549834Y-45187439D01*
X31185656Y-45115000D01*
X30814344Y-45115000D01*
X30450166Y-45187439D01*
X30107118Y-45329534D01*
X29798382Y-45535825D01*
X29535825Y-45798382D01*
X29329534Y-46107118D01*
X29187439Y-46450166D01*
X29115000Y-46814344D01*
X25660000Y-46814344D01*
X25660000Y-36814344D01*
X29115000Y-36814344D01*
X29115000Y-37185656D01*
X29187439Y-37549834D01*
X29329534Y-37892882D01*
X29535825Y-38201618D01*
X29798382Y-38464175D01*
X30107118Y-38670466D01*
X30450166Y-38812561D01*
X30814344Y-38885000D01*
X31185656Y-38885000D01*
X31549834Y-38812561D01*
X31892882Y-38670466D01*
X32201618Y-38464175D01*
X32464175Y-38201618D01*
X32670466Y-37892882D01*
X32812561Y-37549834D01*
X32885000Y-37185656D01*
X32885000Y-36814344D01*
X32812561Y-36450166D01*
X32670466Y-36107118D01*
X32464175Y-35798382D01*
X32201618Y-35535825D01*
X31892882Y-35329534D01*
X31549834Y-35187439D01*
X31185656Y-35115000D01*
X30814344Y-35115000D01*
X30450166Y-35187439D01*
X30107118Y-35329534D01*
X29798382Y-35535825D01*
X29535825Y-35798382D01*
X29329534Y-36107118D01*
X29187439Y-36450166D01*
X29115000Y-36814344D01*
X25660000Y-36814344D01*
X25660000Y-34439721D01*
X40515000Y-34439721D01*
X40515000Y-34860279D01*
X40597047Y-35272756D01*
X40757988Y-35661302D01*
X40991637Y-36010983D01*
X41289017Y-36308363D01*
X41638698Y-36542012D01*
X42027244Y-36702953D01*
X42439721Y-36785000D01*
X42860279Y-36785000D01*
X43272756Y-36702953D01*
X43661302Y-36542012D01*
X44010983Y-36308363D01*
X44308363Y-36010983D01*
X44542012Y-35661302D01*
X44702953Y-35272756D01*
X44785000Y-34860279D01*
X44785000Y-34439721D01*
X44702953Y-34027244D01*
X44542012Y-33638698D01*
X44308363Y-33289017D01*
X44010983Y-32991637D01*
X43661302Y-32757988D01*
X43272756Y-32597047D01*
X42860279Y-32515000D01*
X42439721Y-32515000D01*
X42027244Y-32597047D01*
X41638698Y-32757988D01*
X41289017Y-32991637D01*
X40991637Y-33289017D01*
X40757988Y-33638698D01*
X40597047Y-34027244D01*
X40515000Y-34439721D01*
X25660000Y-34439721D01*
X25660000Y-23779872D01*
X26765000Y-23779872D01*
X26765000Y-24220128D01*
X26850890Y-24651925D01*
X27019369Y-25058669D01*
X27263962Y-25424729D01*
X27575271Y-25736038D01*
X27941331Y-25980631D01*
X28348075Y-26149110D01*
X28779872Y-26235000D01*
X29220128Y-26235000D01*
X29651925Y-26149110D01*
X30058669Y-25980631D01*
X30424729Y-25736038D01*
X30736038Y-25424729D01*
X30980631Y-25058669D01*
X31112431Y-24740475D01*
X37365000Y-24740475D01*
X37365000Y-25259525D01*
X37466261Y-25768601D01*
X37664893Y-26248141D01*
X37953262Y-26679715D01*
X38320285Y-27046738D01*
X38751859Y-27335107D01*
X39231399Y-27533739D01*
X39740475Y-27635000D01*
X40259525Y-27635000D01*
X40768601Y-27533739D01*
X41248141Y-27335107D01*
X41679715Y-27046738D01*
X42046738Y-26679715D01*
X42335107Y-26248141D01*
X42533739Y-25768601D01*
X42600000Y-25435483D01*
X42666261Y-25768601D01*
X42864893Y-26248141D01*
X43153262Y-26679715D01*
X43520285Y-27046738D01*
X43951859Y-27335107D01*
X44431399Y-27533739D01*
X44940475Y-27635000D01*
X45459525Y-27635000D01*
X45968601Y-27533739D01*
X46448141Y-27335107D01*
X46879715Y-27046738D01*
X47246738Y-26679715D01*
X47535107Y-26248141D01*
X47733739Y-25768601D01*
X47835000Y-25259525D01*
X47835000Y-25000000D01*
X51609638Y-25000000D01*
X51625000Y-25155973D01*
X51625001Y-33944020D01*
X51609638Y-34100000D01*
X51670941Y-34722408D01*
X51852490Y-35320898D01*
X52147311Y-35872469D01*
X52147312Y-35872470D01*
X52544074Y-36355927D01*
X52665230Y-36455357D01*
X53215226Y-37005353D01*
X53577530Y-37302688D01*
X54129102Y-37597509D01*
X54727591Y-37779059D01*
X55349999Y-37840362D01*
X55972408Y-37779059D01*
X56570898Y-37597509D01*
X57122469Y-37302688D01*
X57605926Y-36905926D01*
X58002688Y-36422469D01*
X58297509Y-35870898D01*
X58479059Y-35272408D01*
X58540362Y-34649999D01*
X58479059Y-34027591D01*
X58297509Y-33429102D01*
X58002688Y-32877530D01*
X57975000Y-32843792D01*
X57975000Y-28175000D01*
X60155973Y-28175000D01*
X60622409Y-28129060D01*
X61220899Y-27947510D01*
X61772470Y-27652689D01*
X62255927Y-27255927D01*
X62652689Y-26772470D01*
X62947510Y-26220899D01*
X63129060Y-25622409D01*
X63190362Y-25000000D01*
X63129060Y-24377591D01*
X62947744Y-23779872D01*
X118765000Y-23779872D01*
X118765000Y-24220128D01*
X118850890Y-24651925D01*
X119019369Y-25058669D01*
X119263962Y-25424729D01*
X119575271Y-25736038D01*
X119941331Y-25980631D01*
X120348075Y-26149110D01*
X120779872Y-26235000D01*
X121220128Y-26235000D01*
X121651925Y-26149110D01*
X122058669Y-25980631D01*
X122424729Y-25736038D01*
X122736038Y-25424729D01*
X122980631Y-25058669D01*
X123149110Y-24651925D01*
X123235000Y-24220128D01*
X123235000Y-23779872D01*
X123149110Y-23348075D01*
X122980631Y-22941331D01*
X122736038Y-22575271D01*
X122424729Y-22263962D01*
X122058669Y-22019369D01*
X121651925Y-21850890D01*
X121220128Y-21765000D01*
X120779872Y-21765000D01*
X120348075Y-21850890D01*
X119941331Y-22019369D01*
X119575271Y-22263962D01*
X119263962Y-22575271D01*
X119019369Y-22941331D01*
X118850890Y-23348075D01*
X118765000Y-23779872D01*
X62947744Y-23779872D01*
X62947510Y-23779101D01*
X62652689Y-23227530D01*
X62255927Y-22744073D01*
X61772470Y-22347311D01*
X61220899Y-22052490D01*
X60622409Y-21870940D01*
X60155973Y-21825000D01*
X54955973Y-21825000D01*
X54800000Y-21809638D01*
X54644027Y-21825000D01*
X54177591Y-21870940D01*
X53579101Y-22052490D01*
X53027530Y-22347311D01*
X52544073Y-22744073D01*
X52147311Y-23227530D01*
X51852490Y-23779101D01*
X51670940Y-24377591D01*
X51609638Y-25000000D01*
X47835000Y-25000000D01*
X47835000Y-24740475D01*
X47733739Y-24231399D01*
X47535107Y-23751859D01*
X47246738Y-23320285D01*
X46879715Y-22953262D01*
X46448141Y-22664893D01*
X45968601Y-22466261D01*
X45459525Y-22365000D01*
X44940475Y-22365000D01*
X44431399Y-22466261D01*
X43951859Y-22664893D01*
X43520285Y-22953262D01*
X43153262Y-23320285D01*
X42864893Y-23751859D01*
X42666261Y-24231399D01*
X42600000Y-24564517D01*
X42533739Y-24231399D01*
X42335107Y-23751859D01*
X42046738Y-23320285D01*
X41679715Y-22953262D01*
X41248141Y-22664893D01*
X40768601Y-22466261D01*
X40259525Y-22365000D01*
X39740475Y-22365000D01*
X39231399Y-22466261D01*
X38751859Y-22664893D01*
X38320285Y-22953262D01*
X37953262Y-23320285D01*
X37664893Y-23751859D01*
X37466261Y-24231399D01*
X37365000Y-24740475D01*
X31112431Y-24740475D01*
X31149110Y-24651925D01*
X31235000Y-24220128D01*
X31235000Y-23779872D01*
X31149110Y-23348075D01*
X30980631Y-22941331D01*
X30736038Y-22575271D01*
X30424729Y-22263962D01*
X30058669Y-22019369D01*
X29651925Y-21850890D01*
X29220128Y-21765000D01*
X28779872Y-21765000D01*
X28348075Y-21850890D01*
X27941331Y-22019369D01*
X27575271Y-22263962D01*
X27263962Y-22575271D01*
X27019369Y-22941331D01*
X26850890Y-23348075D01*
X26765000Y-23779872D01*
X25660000Y-23779872D01*
X25660000Y-20660000D01*
X124340000Y-20660000D01*
X124340000Y-48873000D01*
G36*
X102719134Y-57413211D02*
G01*
X102936518Y-57591613D01*
X103267460Y-57768506D01*
X103321052Y-57784763D01*
X103340226Y-57803937D01*
X103509744Y-57917205D01*
X103698102Y-57995226D01*
X103898061Y-58035000D01*
X104101939Y-58035000D01*
X104301898Y-57995226D01*
X104490256Y-57917205D01*
X104659774Y-57803937D01*
X104678949Y-57784762D01*
X104732539Y-57768506D01*
X105063482Y-57591613D01*
X105353556Y-57353556D01*
X105591613Y-57063482D01*
X105768506Y-56732539D01*
X105784762Y-56678949D01*
X105803937Y-56659774D01*
X105917205Y-56490256D01*
X105995226Y-56301898D01*
X106035000Y-56101939D01*
X106035000Y-55898061D01*
X105995226Y-55698102D01*
X105917205Y-55509744D01*
X105803937Y-55340226D01*
X105784763Y-55321052D01*
X105768506Y-55267460D01*
X105591613Y-54936518D01*
X105413211Y-54719134D01*
X100821076Y-50127000D01*
X124340000Y-50127000D01*
X124340000Y-65873000D01*
X107000000Y-65873000D01*
X106975224Y-65875440D01*
X106951399Y-65882667D01*
X106929443Y-65894403D01*
X106910197Y-65910197D01*
X106894403Y-65929443D01*
X106882667Y-65951399D01*
X106875440Y-65975224D01*
X106873000Y-66000000D01*
X106873000Y-80000000D01*
X106875440Y-80024776D01*
X106882667Y-80048601D01*
X106894403Y-80070557D01*
X106910197Y-80089803D01*
X106929443Y-80105597D01*
X106951399Y-80117333D01*
X106975224Y-80124560D01*
X107000000Y-80127000D01*
X124340001Y-80127000D01*
X124340001Y-113873000D01*
X121705303Y-113873000D01*
X121651925Y-113850890D01*
X121220128Y-113765000D01*
X120779872Y-113765000D01*
X120348075Y-113850890D01*
X120294697Y-113873000D01*
X79127000Y-113873000D01*
X79127000Y-96821076D01*
X82719134Y-100413211D01*
X82936518Y-100591613D01*
X83267460Y-100768506D01*
X83626555Y-100877435D01*
X84000000Y-100914217D01*
X84373445Y-100877435D01*
X84732539Y-100768506D01*
X85063482Y-100591613D01*
X85353556Y-100353556D01*
X85591613Y-100063482D01*
X85768506Y-99732539D01*
X85877435Y-99373445D01*
X85914217Y-99000000D01*
X85877435Y-98626555D01*
X85768506Y-98267460D01*
X85591613Y-97936518D01*
X85413211Y-97719134D01*
X79127000Y-91432924D01*
X79127000Y-85558134D01*
X79186585Y-85630738D01*
X79326444Y-85801157D01*
X79399139Y-85860816D01*
X81095000Y-87556678D01*
X81095001Y-90906411D01*
X81085783Y-91000000D01*
X81122565Y-91373445D01*
X81231495Y-91732539D01*
X81408387Y-92063482D01*
X81506586Y-92183137D01*
X81646445Y-92353556D01*
X81719140Y-92413216D01*
X93086784Y-103780860D01*
X93146444Y-103853556D01*
X93313014Y-103990256D01*
X93436517Y-104091613D01*
X93564038Y-104159774D01*
X93767461Y-104268506D01*
X94126555Y-104377436D01*
X94406418Y-104405000D01*
X94406420Y-104405000D01*
X94500000Y-104414217D01*
X94593580Y-104405000D01*
X99491478Y-104405000D01*
X99509744Y-104417205D01*
X99698102Y-104495226D01*
X99898061Y-104535000D01*
X100101939Y-104535000D01*
X100301898Y-104495226D01*
X100490256Y-104417205D01*
X100500000Y-104410694D01*
X100509744Y-104417205D01*
X100698102Y-104495226D01*
X100898061Y-104535000D01*
X101101939Y-104535000D01*
X101301898Y-104495226D01*
X101490256Y-104417205D01*
X101500000Y-104410694D01*
X101509744Y-104417205D01*
X101698102Y-104495226D01*
X101898061Y-104535000D01*
X102101939Y-104535000D01*
X102301898Y-104495226D01*
X102490256Y-104417205D01*
X102659774Y-104303937D01*
X102678948Y-104284763D01*
X102732539Y-104268506D01*
X103063482Y-104091613D01*
X103353556Y-103853556D01*
X103591613Y-103563482D01*
X103768506Y-103232539D01*
X103877436Y-102873445D01*
X103914217Y-102500000D01*
X103877436Y-102126555D01*
X103768506Y-101767461D01*
X103591613Y-101436518D01*
X103353556Y-101146444D01*
X103063482Y-100908387D01*
X102732539Y-100731494D01*
X102678948Y-100715237D01*
X102659774Y-100696063D01*
X102490256Y-100582795D01*
X102301898Y-100504774D01*
X102101939Y-100465000D01*
X101898061Y-100465000D01*
X101698102Y-100504774D01*
X101509744Y-100582795D01*
X101500000Y-100589306D01*
X101490256Y-100582795D01*
X101301898Y-100504774D01*
X101101939Y-100465000D01*
X100898061Y-100465000D01*
X100698102Y-100504774D01*
X100509744Y-100582795D01*
X100500000Y-100589306D01*
X100490256Y-100582795D01*
X100301898Y-100504774D01*
X100101939Y-100465000D01*
X99898061Y-100465000D01*
X99698102Y-100504774D01*
X99509744Y-100582795D01*
X99491478Y-100595000D01*
X95289076Y-100595000D01*
X87844076Y-93150000D01*
X91511928Y-93150000D01*
X91511928Y-94850000D01*
X91524188Y-94974482D01*
X91560498Y-95094180D01*
X91619463Y-95204494D01*
X91698815Y-95301185D01*
X91795506Y-95380537D01*
X91905820Y-95439502D01*
X92025518Y-95475812D01*
X92150000Y-95488072D01*
X93850000Y-95488072D01*
X93974482Y-95475812D01*
X94094180Y-95439502D01*
X94204494Y-95380537D01*
X94301185Y-95301185D01*
X94380537Y-95204494D01*
X94439502Y-95094180D01*
X94475812Y-94974482D01*
X94488072Y-94850000D01*
X94488072Y-93150000D01*
X94475812Y-93025518D01*
X94439502Y-92905820D01*
X94380537Y-92795506D01*
X94301185Y-92698815D01*
X94204494Y-92619463D01*
X94094180Y-92560498D01*
X93974482Y-92524188D01*
X93850000Y-92511928D01*
X92150000Y-92511928D01*
X92025518Y-92524188D01*
X91905820Y-92560498D01*
X91795506Y-92619463D01*
X91698815Y-92698815D01*
X91619463Y-92795506D01*
X91560498Y-92905820D01*
X91524188Y-93025518D01*
X91511928Y-93150000D01*
X87844076Y-93150000D01*
X84905000Y-90210925D01*
X84905000Y-86861182D01*
X84914217Y-86767602D01*
X84905000Y-86674020D01*
X84877436Y-86394157D01*
X84768506Y-86035063D01*
X84686164Y-85881012D01*
X84591613Y-85704119D01*
X84511023Y-85605921D01*
X84353556Y-85414046D01*
X84280860Y-85354386D01*
X82584999Y-83658526D01*
X82584999Y-81960121D01*
X82610498Y-82044180D01*
X82669463Y-82154494D01*
X82748815Y-82251185D01*
X82845506Y-82330537D01*
X82955820Y-82389502D01*
X83075518Y-82425812D01*
X83200000Y-82438072D01*
X84800000Y-82438072D01*
X84924482Y-82425812D01*
X85044180Y-82389502D01*
X85154494Y-82330537D01*
X85251185Y-82251185D01*
X85330537Y-82154494D01*
X85389502Y-82044180D01*
X85425812Y-81924482D01*
X85438072Y-81800000D01*
X85438072Y-80200000D01*
X85425812Y-80075518D01*
X85389502Y-79955820D01*
X85330537Y-79845506D01*
X85251185Y-79748815D01*
X85154494Y-79669463D01*
X85044180Y-79610498D01*
X84924482Y-79574188D01*
X84800000Y-79561928D01*
X83200000Y-79561928D01*
X83075518Y-79574188D01*
X82955820Y-79610498D01*
X82845506Y-79669463D01*
X82748815Y-79748815D01*
X82669463Y-79845506D01*
X82610498Y-79955820D01*
X82584999Y-80039879D01*
X82584999Y-66066995D01*
X82586995Y-66065000D01*
X83093582Y-66065000D01*
X83373445Y-66037436D01*
X83732539Y-65928506D01*
X84063482Y-65751613D01*
X84353556Y-65513556D01*
X84591613Y-65223482D01*
X84768506Y-64892539D01*
X84877436Y-64533445D01*
X84914217Y-64160000D01*
X84877436Y-63786555D01*
X84768506Y-63427461D01*
X84591613Y-63096518D01*
X84353556Y-62806444D01*
X84111946Y-62608161D01*
X84153475Y-62566632D01*
X84315990Y-62323411D01*
X84427932Y-62053158D01*
X84485000Y-61766260D01*
X84485000Y-61473740D01*
X84427932Y-61186842D01*
X84315990Y-60916589D01*
X84153475Y-60673368D01*
X83946632Y-60466525D01*
X83772240Y-60350000D01*
X83946632Y-60233475D01*
X84153475Y-60026632D01*
X84315990Y-59783411D01*
X84427932Y-59513158D01*
X84485000Y-59226260D01*
X84485000Y-58933740D01*
X84427932Y-58646842D01*
X84315990Y-58376589D01*
X84153475Y-58133368D01*
X83946632Y-57926525D01*
X83772240Y-57810000D01*
X83946632Y-57693475D01*
X84153475Y-57486632D01*
X84315990Y-57243411D01*
X84427932Y-56973158D01*
X84485000Y-56686260D01*
X84485000Y-56393740D01*
X84427932Y-56106842D01*
X84344327Y-55905000D01*
X85600925Y-55905000D01*
X91106787Y-61410864D01*
X91166443Y-61483555D01*
X91239133Y-61543210D01*
X91456516Y-61721612D01*
X91787459Y-61898505D01*
X91871036Y-61923858D01*
X92146554Y-62007435D01*
X92426417Y-62034999D01*
X92426419Y-62034999D01*
X92519999Y-62044216D01*
X92613579Y-62034999D01*
X98040924Y-62034999D01*
X98965000Y-62959076D01*
X98965000Y-63101939D01*
X99004774Y-63301898D01*
X99082795Y-63490256D01*
X99196063Y-63659774D01*
X99215237Y-63678948D01*
X99231494Y-63732539D01*
X99408387Y-64063482D01*
X99646445Y-64353556D01*
X99936519Y-64591613D01*
X100267462Y-64768506D01*
X100321051Y-64784762D01*
X100340226Y-64803937D01*
X100509744Y-64917205D01*
X100698102Y-64995226D01*
X100898061Y-65035000D01*
X101101939Y-65035000D01*
X101301898Y-64995226D01*
X101490256Y-64917205D01*
X101659774Y-64803937D01*
X101678948Y-64784763D01*
X101732539Y-64768506D01*
X102063482Y-64591613D01*
X102353556Y-64353556D01*
X102591613Y-64063482D01*
X102768506Y-63732539D01*
X102784762Y-63678949D01*
X102803937Y-63659774D01*
X102917205Y-63490256D01*
X102995226Y-63301898D01*
X103035000Y-63101939D01*
X103035000Y-62898061D01*
X102995226Y-62698102D01*
X102917205Y-62509744D01*
X102910694Y-62500000D01*
X102917205Y-62490256D01*
X102995226Y-62301898D01*
X103035000Y-62101939D01*
X103035000Y-61898061D01*
X102995226Y-61698102D01*
X102917205Y-61509744D01*
X102803937Y-61340226D01*
X102659774Y-61196063D01*
X102490256Y-61082795D01*
X102452684Y-61067232D01*
X102353556Y-60946444D01*
X102280860Y-60886784D01*
X100243219Y-58849144D01*
X100183555Y-58776443D01*
X99893481Y-58538386D01*
X99562538Y-58361493D01*
X99203444Y-58252563D01*
X98923581Y-58224999D01*
X98923579Y-58224999D01*
X98829999Y-58215782D01*
X98736419Y-58224999D01*
X93309076Y-58224999D01*
X87803220Y-52719145D01*
X87743556Y-52646444D01*
X87453482Y-52408387D01*
X87122539Y-52231494D01*
X86763445Y-52122564D01*
X86483582Y-52095000D01*
X86483580Y-52095000D01*
X86390000Y-52085783D01*
X86296420Y-52095000D01*
X82906418Y-52095000D01*
X82626555Y-52122564D01*
X82267461Y-52231494D01*
X81936518Y-52408387D01*
X81646444Y-52646444D01*
X81408387Y-52936518D01*
X81231494Y-53267461D01*
X81122564Y-53626555D01*
X81085783Y-54000000D01*
X81122564Y-54373445D01*
X81231494Y-54732539D01*
X81408387Y-55063482D01*
X81646444Y-55353556D01*
X81888054Y-55551839D01*
X81846525Y-55593368D01*
X81684010Y-55836589D01*
X81572068Y-56106842D01*
X81515000Y-56393740D01*
X81515000Y-56686260D01*
X81572068Y-56973158D01*
X81684010Y-57243411D01*
X81846525Y-57486632D01*
X82053368Y-57693475D01*
X82227760Y-57810000D01*
X82053368Y-57926525D01*
X81846525Y-58133368D01*
X81684010Y-58376589D01*
X81572068Y-58646842D01*
X81515000Y-58933740D01*
X81515000Y-59226260D01*
X81572068Y-59513158D01*
X81684010Y-59783411D01*
X81846525Y-60026632D01*
X82053368Y-60233475D01*
X82227760Y-60350000D01*
X82053368Y-60466525D01*
X81846525Y-60673368D01*
X81684010Y-60916589D01*
X81572068Y-61186842D01*
X81515000Y-61473740D01*
X81515000Y-61766260D01*
X81572068Y-62053158D01*
X81657581Y-62259605D01*
X81424474Y-62282564D01*
X81148956Y-62366141D01*
X81065379Y-62391494D01*
X80844150Y-62509744D01*
X80734437Y-62568387D01*
X80444363Y-62806444D01*
X80384703Y-62879140D01*
X79399144Y-63864700D01*
X79326443Y-63924364D01*
X79127000Y-64167387D01*
X79127000Y-50127000D01*
X95432924Y-50127000D01*
X102719134Y-57413211D01*
G37*
X102719134Y-57413211D02*
X102936518Y-57591613D01*
X103267460Y-57768506D01*
X103321052Y-57784763D01*
X103340226Y-57803937D01*
X103509744Y-57917205D01*
X103698102Y-57995226D01*
X103898061Y-58035000D01*
X104101939Y-58035000D01*
X104301898Y-57995226D01*
X104490256Y-57917205D01*
X104659774Y-57803937D01*
X104678949Y-57784762D01*
X104732539Y-57768506D01*
X105063482Y-57591613D01*
X105353556Y-57353556D01*
X105591613Y-57063482D01*
X105768506Y-56732539D01*
X105784762Y-56678949D01*
X105803937Y-56659774D01*
X105917205Y-56490256D01*
X105995226Y-56301898D01*
X106035000Y-56101939D01*
X106035000Y-55898061D01*
X105995226Y-55698102D01*
X105917205Y-55509744D01*
X105803937Y-55340226D01*
X105784763Y-55321052D01*
X105768506Y-55267460D01*
X105591613Y-54936518D01*
X105413211Y-54719134D01*
X100821076Y-50127000D01*
X124340000Y-50127000D01*
X124340000Y-65873000D01*
X107000000Y-65873000D01*
X106975224Y-65875440D01*
X106951399Y-65882667D01*
X106929443Y-65894403D01*
X106910197Y-65910197D01*
X106894403Y-65929443D01*
X106882667Y-65951399D01*
X106875440Y-65975224D01*
X106873000Y-66000000D01*
X106873000Y-80000000D01*
X106875440Y-80024776D01*
X106882667Y-80048601D01*
X106894403Y-80070557D01*
X106910197Y-80089803D01*
X106929443Y-80105597D01*
X106951399Y-80117333D01*
X106975224Y-80124560D01*
X107000000Y-80127000D01*
X124340001Y-80127000D01*
X124340001Y-113873000D01*
X121705303Y-113873000D01*
X121651925Y-113850890D01*
X121220128Y-113765000D01*
X120779872Y-113765000D01*
X120348075Y-113850890D01*
X120294697Y-113873000D01*
X79127000Y-113873000D01*
X79127000Y-96821076D01*
X82719134Y-100413211D01*
X82936518Y-100591613D01*
X83267460Y-100768506D01*
X83626555Y-100877435D01*
X84000000Y-100914217D01*
X84373445Y-100877435D01*
X84732539Y-100768506D01*
X85063482Y-100591613D01*
X85353556Y-100353556D01*
X85591613Y-100063482D01*
X85768506Y-99732539D01*
X85877435Y-99373445D01*
X85914217Y-99000000D01*
X85877435Y-98626555D01*
X85768506Y-98267460D01*
X85591613Y-97936518D01*
X85413211Y-97719134D01*
X79127000Y-91432924D01*
X79127000Y-85558134D01*
X79186585Y-85630738D01*
X79326444Y-85801157D01*
X79399139Y-85860816D01*
X81095000Y-87556678D01*
X81095001Y-90906411D01*
X81085783Y-91000000D01*
X81122565Y-91373445D01*
X81231495Y-91732539D01*
X81408387Y-92063482D01*
X81506586Y-92183137D01*
X81646445Y-92353556D01*
X81719140Y-92413216D01*
X93086784Y-103780860D01*
X93146444Y-103853556D01*
X93313014Y-103990256D01*
X93436517Y-104091613D01*
X93564038Y-104159774D01*
X93767461Y-104268506D01*
X94126555Y-104377436D01*
X94406418Y-104405000D01*
X94406420Y-104405000D01*
X94500000Y-104414217D01*
X94593580Y-104405000D01*
X99491478Y-104405000D01*
X99509744Y-104417205D01*
X99698102Y-104495226D01*
X99898061Y-104535000D01*
X100101939Y-104535000D01*
X100301898Y-104495226D01*
X100490256Y-104417205D01*
X100500000Y-104410694D01*
X100509744Y-104417205D01*
X100698102Y-104495226D01*
X100898061Y-104535000D01*
X101101939Y-104535000D01*
X101301898Y-104495226D01*
X101490256Y-104417205D01*
X101500000Y-104410694D01*
X101509744Y-104417205D01*
X101698102Y-104495226D01*
X101898061Y-104535000D01*
X102101939Y-104535000D01*
X102301898Y-104495226D01*
X102490256Y-104417205D01*
X102659774Y-104303937D01*
X102678948Y-104284763D01*
X102732539Y-104268506D01*
X103063482Y-104091613D01*
X103353556Y-103853556D01*
X103591613Y-103563482D01*
X103768506Y-103232539D01*
X103877436Y-102873445D01*
X103914217Y-102500000D01*
X103877436Y-102126555D01*
X103768506Y-101767461D01*
X103591613Y-101436518D01*
X103353556Y-101146444D01*
X103063482Y-100908387D01*
X102732539Y-100731494D01*
X102678948Y-100715237D01*
X102659774Y-100696063D01*
X102490256Y-100582795D01*
X102301898Y-100504774D01*
X102101939Y-100465000D01*
X101898061Y-100465000D01*
X101698102Y-100504774D01*
X101509744Y-100582795D01*
X101500000Y-100589306D01*
X101490256Y-100582795D01*
X101301898Y-100504774D01*
X101101939Y-100465000D01*
X100898061Y-100465000D01*
X100698102Y-100504774D01*
X100509744Y-100582795D01*
X100500000Y-100589306D01*
X100490256Y-100582795D01*
X100301898Y-100504774D01*
X100101939Y-100465000D01*
X99898061Y-100465000D01*
X99698102Y-100504774D01*
X99509744Y-100582795D01*
X99491478Y-100595000D01*
X95289076Y-100595000D01*
X87844076Y-93150000D01*
X91511928Y-93150000D01*
X91511928Y-94850000D01*
X91524188Y-94974482D01*
X91560498Y-95094180D01*
X91619463Y-95204494D01*
X91698815Y-95301185D01*
X91795506Y-95380537D01*
X91905820Y-95439502D01*
X92025518Y-95475812D01*
X92150000Y-95488072D01*
X93850000Y-95488072D01*
X93974482Y-95475812D01*
X94094180Y-95439502D01*
X94204494Y-95380537D01*
X94301185Y-95301185D01*
X94380537Y-95204494D01*
X94439502Y-95094180D01*
X94475812Y-94974482D01*
X94488072Y-94850000D01*
X94488072Y-93150000D01*
X94475812Y-93025518D01*
X94439502Y-92905820D01*
X94380537Y-92795506D01*
X94301185Y-92698815D01*
X94204494Y-92619463D01*
X94094180Y-92560498D01*
X93974482Y-92524188D01*
X93850000Y-92511928D01*
X92150000Y-92511928D01*
X92025518Y-92524188D01*
X91905820Y-92560498D01*
X91795506Y-92619463D01*
X91698815Y-92698815D01*
X91619463Y-92795506D01*
X91560498Y-92905820D01*
X91524188Y-93025518D01*
X91511928Y-93150000D01*
X87844076Y-93150000D01*
X84905000Y-90210925D01*
X84905000Y-86861182D01*
X84914217Y-86767602D01*
X84905000Y-86674020D01*
X84877436Y-86394157D01*
X84768506Y-86035063D01*
X84686164Y-85881012D01*
X84591613Y-85704119D01*
X84511023Y-85605921D01*
X84353556Y-85414046D01*
X84280860Y-85354386D01*
X82584999Y-83658526D01*
X82584999Y-81960121D01*
X82610498Y-82044180D01*
X82669463Y-82154494D01*
X82748815Y-82251185D01*
X82845506Y-82330537D01*
X82955820Y-82389502D01*
X83075518Y-82425812D01*
X83200000Y-82438072D01*
X84800000Y-82438072D01*
X84924482Y-82425812D01*
X85044180Y-82389502D01*
X85154494Y-82330537D01*
X85251185Y-82251185D01*
X85330537Y-82154494D01*
X85389502Y-82044180D01*
X85425812Y-81924482D01*
X85438072Y-81800000D01*
X85438072Y-80200000D01*
X85425812Y-80075518D01*
X85389502Y-79955820D01*
X85330537Y-79845506D01*
X85251185Y-79748815D01*
X85154494Y-79669463D01*
X85044180Y-79610498D01*
X84924482Y-79574188D01*
X84800000Y-79561928D01*
X83200000Y-79561928D01*
X83075518Y-79574188D01*
X82955820Y-79610498D01*
X82845506Y-79669463D01*
X82748815Y-79748815D01*
X82669463Y-79845506D01*
X82610498Y-79955820D01*
X82584999Y-80039879D01*
X82584999Y-66066995D01*
X82586995Y-66065000D01*
X83093582Y-66065000D01*
X83373445Y-66037436D01*
X83732539Y-65928506D01*
X84063482Y-65751613D01*
X84353556Y-65513556D01*
X84591613Y-65223482D01*
X84768506Y-64892539D01*
X84877436Y-64533445D01*
X84914217Y-64160000D01*
X84877436Y-63786555D01*
X84768506Y-63427461D01*
X84591613Y-63096518D01*
X84353556Y-62806444D01*
X84111946Y-62608161D01*
X84153475Y-62566632D01*
X84315990Y-62323411D01*
X84427932Y-62053158D01*
X84485000Y-61766260D01*
X84485000Y-61473740D01*
X84427932Y-61186842D01*
X84315990Y-60916589D01*
X84153475Y-60673368D01*
X83946632Y-60466525D01*
X83772240Y-60350000D01*
X83946632Y-60233475D01*
X84153475Y-60026632D01*
X84315990Y-59783411D01*
X84427932Y-59513158D01*
X84485000Y-59226260D01*
X84485000Y-58933740D01*
X84427932Y-58646842D01*
X84315990Y-58376589D01*
X84153475Y-58133368D01*
X83946632Y-57926525D01*
X83772240Y-57810000D01*
X83946632Y-57693475D01*
X84153475Y-57486632D01*
X84315990Y-57243411D01*
X84427932Y-56973158D01*
X84485000Y-56686260D01*
X84485000Y-56393740D01*
X84427932Y-56106842D01*
X84344327Y-55905000D01*
X85600925Y-55905000D01*
X91106787Y-61410864D01*
X91166443Y-61483555D01*
X91239133Y-61543210D01*
X91456516Y-61721612D01*
X91787459Y-61898505D01*
X91871036Y-61923858D01*
X92146554Y-62007435D01*
X92426417Y-62034999D01*
X92426419Y-62034999D01*
X92519999Y-62044216D01*
X92613579Y-62034999D01*
X98040924Y-62034999D01*
X98965000Y-62959076D01*
X98965000Y-63101939D01*
X99004774Y-63301898D01*
X99082795Y-63490256D01*
X99196063Y-63659774D01*
X99215237Y-63678948D01*
X99231494Y-63732539D01*
X99408387Y-64063482D01*
X99646445Y-64353556D01*
X99936519Y-64591613D01*
X100267462Y-64768506D01*
X100321051Y-64784762D01*
X100340226Y-64803937D01*
X100509744Y-64917205D01*
X100698102Y-64995226D01*
X100898061Y-65035000D01*
X101101939Y-65035000D01*
X101301898Y-64995226D01*
X101490256Y-64917205D01*
X101659774Y-64803937D01*
X101678948Y-64784763D01*
X101732539Y-64768506D01*
X102063482Y-64591613D01*
X102353556Y-64353556D01*
X102591613Y-64063482D01*
X102768506Y-63732539D01*
X102784762Y-63678949D01*
X102803937Y-63659774D01*
X102917205Y-63490256D01*
X102995226Y-63301898D01*
X103035000Y-63101939D01*
X103035000Y-62898061D01*
X102995226Y-62698102D01*
X102917205Y-62509744D01*
X102910694Y-62500000D01*
X102917205Y-62490256D01*
X102995226Y-62301898D01*
X103035000Y-62101939D01*
X103035000Y-61898061D01*
X102995226Y-61698102D01*
X102917205Y-61509744D01*
X102803937Y-61340226D01*
X102659774Y-61196063D01*
X102490256Y-61082795D01*
X102452684Y-61067232D01*
X102353556Y-60946444D01*
X102280860Y-60886784D01*
X100243219Y-58849144D01*
X100183555Y-58776443D01*
X99893481Y-58538386D01*
X99562538Y-58361493D01*
X99203444Y-58252563D01*
X98923581Y-58224999D01*
X98923579Y-58224999D01*
X98829999Y-58215782D01*
X98736419Y-58224999D01*
X93309076Y-58224999D01*
X87803220Y-52719145D01*
X87743556Y-52646444D01*
X87453482Y-52408387D01*
X87122539Y-52231494D01*
X86763445Y-52122564D01*
X86483582Y-52095000D01*
X86483580Y-52095000D01*
X86390000Y-52085783D01*
X86296420Y-52095000D01*
X82906418Y-52095000D01*
X82626555Y-52122564D01*
X82267461Y-52231494D01*
X81936518Y-52408387D01*
X81646444Y-52646444D01*
X81408387Y-52936518D01*
X81231494Y-53267461D01*
X81122564Y-53626555D01*
X81085783Y-54000000D01*
X81122564Y-54373445D01*
X81231494Y-54732539D01*
X81408387Y-55063482D01*
X81646444Y-55353556D01*
X81888054Y-55551839D01*
X81846525Y-55593368D01*
X81684010Y-55836589D01*
X81572068Y-56106842D01*
X81515000Y-56393740D01*
X81515000Y-56686260D01*
X81572068Y-56973158D01*
X81684010Y-57243411D01*
X81846525Y-57486632D01*
X82053368Y-57693475D01*
X82227760Y-57810000D01*
X82053368Y-57926525D01*
X81846525Y-58133368D01*
X81684010Y-58376589D01*
X81572068Y-58646842D01*
X81515000Y-58933740D01*
X81515000Y-59226260D01*
X81572068Y-59513158D01*
X81684010Y-59783411D01*
X81846525Y-60026632D01*
X82053368Y-60233475D01*
X82227760Y-60350000D01*
X82053368Y-60466525D01*
X81846525Y-60673368D01*
X81684010Y-60916589D01*
X81572068Y-61186842D01*
X81515000Y-61473740D01*
X81515000Y-61766260D01*
X81572068Y-62053158D01*
X81657581Y-62259605D01*
X81424474Y-62282564D01*
X81148956Y-62366141D01*
X81065379Y-62391494D01*
X80844150Y-62509744D01*
X80734437Y-62568387D01*
X80444363Y-62806444D01*
X80384703Y-62879140D01*
X79399144Y-63864700D01*
X79326443Y-63924364D01*
X79127000Y-64167387D01*
X79127000Y-50127000D01*
X95432924Y-50127000D01*
X102719134Y-57413211D01*
G36*
X124340001Y-119340000D02*
G01*
X79127000Y-119340000D01*
X79127000Y-115779872D01*
X118765000Y-115779872D01*
X118765000Y-116220128D01*
X118850890Y-116651925D01*
X119019369Y-117058669D01*
X119263962Y-117424729D01*
X119575271Y-117736038D01*
X119941331Y-117980631D01*
X120348075Y-118149110D01*
X120779872Y-118235000D01*
X121220128Y-118235000D01*
X121651925Y-118149110D01*
X122058669Y-117980631D01*
X122424729Y-117736038D01*
X122736038Y-117424729D01*
X122980631Y-117058669D01*
X123149110Y-116651925D01*
X123235000Y-116220128D01*
X123235000Y-115779872D01*
X123149110Y-115348075D01*
X122980631Y-114941331D01*
X122736038Y-114575271D01*
X122424729Y-114263962D01*
X122058669Y-114019369D01*
X121651925Y-113850890D01*
X121220128Y-113765000D01*
X120779872Y-113765000D01*
X120348075Y-113850890D01*
X119941331Y-114019369D01*
X119575271Y-114263962D01*
X119263962Y-114575271D01*
X119019369Y-114941331D01*
X118850890Y-115348075D01*
X118765000Y-115779872D01*
X79127000Y-115779872D01*
X79127000Y-113127000D01*
X124340001Y-113127000D01*
X124340001Y-119340000D01*
G37*
X124340001Y-119340000D02*
X79127000Y-119340000D01*
X79127000Y-115779872D01*
X118765000Y-115779872D01*
X118765000Y-116220128D01*
X118850890Y-116651925D01*
X119019369Y-117058669D01*
X119263962Y-117424729D01*
X119575271Y-117736038D01*
X119941331Y-117980631D01*
X120348075Y-118149110D01*
X120779872Y-118235000D01*
X121220128Y-118235000D01*
X121651925Y-118149110D01*
X122058669Y-117980631D01*
X122424729Y-117736038D01*
X122736038Y-117424729D01*
X122980631Y-117058669D01*
X123149110Y-116651925D01*
X123235000Y-116220128D01*
X123235000Y-115779872D01*
X123149110Y-115348075D01*
X122980631Y-114941331D01*
X122736038Y-114575271D01*
X122424729Y-114263962D01*
X122058669Y-114019369D01*
X121651925Y-113850890D01*
X121220128Y-113765000D01*
X120779872Y-113765000D01*
X120348075Y-113850890D01*
X119941331Y-114019369D01*
X119575271Y-114263962D01*
X119263962Y-114575271D01*
X119019369Y-114941331D01*
X118850890Y-115348075D01*
X118765000Y-115779872D01*
X79127000Y-115779872D01*
X79127000Y-113127000D01*
X124340001Y-113127000D01*
X124340001Y-119340000D01*
G36*
X77873000Y-78443586D02*
G01*
X77803937Y-78340226D01*
X77659774Y-78196063D01*
X77490256Y-78082795D01*
X77301898Y-78004774D01*
X77101939Y-77965000D01*
X76898061Y-77965000D01*
X76698102Y-78004774D01*
X76509744Y-78082795D01*
X76340226Y-78196063D01*
X76196063Y-78340226D01*
X76082795Y-78509744D01*
X76004774Y-78698102D01*
X75965000Y-78898061D01*
X75965000Y-79101939D01*
X76004774Y-79301898D01*
X76082795Y-79490256D01*
X76111001Y-79532469D01*
X76111000Y-85467532D01*
X76082795Y-85509744D01*
X76004774Y-85698102D01*
X75965000Y-85898061D01*
X75965000Y-86101939D01*
X76004774Y-86301898D01*
X76082795Y-86490256D01*
X76196063Y-86659774D01*
X76340226Y-86803937D01*
X76509744Y-86917205D01*
X76698102Y-86995226D01*
X76898061Y-87035000D01*
X77101939Y-87035000D01*
X77301898Y-86995226D01*
X77490256Y-86917205D01*
X77659774Y-86803937D01*
X77803937Y-86659774D01*
X77873000Y-86556414D01*
X77873000Y-90178925D01*
X75413220Y-87719145D01*
X75353556Y-87646444D01*
X75063482Y-87408387D01*
X74732539Y-87231494D01*
X74373445Y-87122564D01*
X74093582Y-87095000D01*
X74093580Y-87095000D01*
X74000000Y-87085783D01*
X73906420Y-87095000D01*
X72906418Y-87095000D01*
X72626555Y-87122564D01*
X72267461Y-87231494D01*
X71936518Y-87408387D01*
X71646444Y-87646444D01*
X71408387Y-87936518D01*
X71231494Y-88267461D01*
X71122564Y-88626555D01*
X71085783Y-89000000D01*
X71122564Y-89373445D01*
X71231494Y-89732539D01*
X71408387Y-90063482D01*
X71646444Y-90353556D01*
X71888054Y-90551839D01*
X71846525Y-90593368D01*
X71684010Y-90836589D01*
X71572068Y-91106842D01*
X71515000Y-91393740D01*
X71515000Y-91686260D01*
X71572068Y-91973158D01*
X71684010Y-92243411D01*
X71846525Y-92486632D01*
X72053368Y-92693475D01*
X72227760Y-92810000D01*
X72053368Y-92926525D01*
X71846525Y-93133368D01*
X71684010Y-93376589D01*
X71572068Y-93646842D01*
X71515000Y-93933740D01*
X71515000Y-94226260D01*
X71572068Y-94513158D01*
X71684010Y-94783411D01*
X71846525Y-95026632D01*
X72053368Y-95233475D01*
X72296589Y-95395990D01*
X72566842Y-95507932D01*
X72853740Y-95565000D01*
X73146260Y-95565000D01*
X73433158Y-95507932D01*
X73703411Y-95395990D01*
X73946632Y-95233475D01*
X74153475Y-95026632D01*
X74315990Y-94783411D01*
X74427932Y-94513158D01*
X74485000Y-94226260D01*
X74485000Y-93933740D01*
X74427932Y-93646842D01*
X74315990Y-93376589D01*
X74153475Y-93133368D01*
X73946632Y-92926525D01*
X73772240Y-92810000D01*
X73946632Y-92693475D01*
X74153475Y-92486632D01*
X74315990Y-92243411D01*
X74384335Y-92078411D01*
X77873000Y-95567076D01*
X77873000Y-119340000D01*
X25660000Y-119340000D01*
X25660000Y-115779872D01*
X26765000Y-115779872D01*
X26765000Y-116220128D01*
X26850890Y-116651925D01*
X27019369Y-117058669D01*
X27263962Y-117424729D01*
X27575271Y-117736038D01*
X27941331Y-117980631D01*
X28348075Y-118149110D01*
X28779872Y-118235000D01*
X29220128Y-118235000D01*
X29651925Y-118149110D01*
X30058669Y-117980631D01*
X30424729Y-117736038D01*
X30736038Y-117424729D01*
X30980631Y-117058669D01*
X31149110Y-116651925D01*
X31235000Y-116220128D01*
X31235000Y-115779872D01*
X31149110Y-115348075D01*
X30980631Y-114941331D01*
X30736038Y-114575271D01*
X30424729Y-114263962D01*
X30058669Y-114019369D01*
X29651925Y-113850890D01*
X29220128Y-113765000D01*
X28779872Y-113765000D01*
X28348075Y-113850890D01*
X27941331Y-114019369D01*
X27575271Y-114263962D01*
X27263962Y-114575271D01*
X27019369Y-114941331D01*
X26850890Y-115348075D01*
X26765000Y-115779872D01*
X25660000Y-115779872D01*
X25660000Y-107803061D01*
X35490000Y-107803061D01*
X35490000Y-108006939D01*
X35529774Y-108206898D01*
X35607795Y-108395256D01*
X35721063Y-108564774D01*
X35865226Y-108708937D01*
X36034744Y-108822205D01*
X36223102Y-108900226D01*
X36423061Y-108940000D01*
X36626939Y-108940000D01*
X36826898Y-108900226D01*
X37015256Y-108822205D01*
X37057468Y-108794000D01*
X39051340Y-108794000D01*
X39095000Y-108798300D01*
X39138660Y-108794000D01*
X39138667Y-108794000D01*
X39269274Y-108781136D01*
X39436851Y-108730303D01*
X39591291Y-108647753D01*
X39726659Y-108536659D01*
X39754499Y-108502736D01*
X40694087Y-107563148D01*
X41759496Y-106497740D01*
X41994714Y-106262522D01*
X42134774Y-106168937D01*
X42278937Y-106024774D01*
X42392205Y-105855256D01*
X42470226Y-105666898D01*
X42510000Y-105466939D01*
X42510000Y-105263061D01*
X42470226Y-105063102D01*
X42398110Y-104889000D01*
X47467532Y-104889000D01*
X47509744Y-104917205D01*
X47698102Y-104995226D01*
X47898061Y-105035000D01*
X48101939Y-105035000D01*
X48301898Y-104995226D01*
X48490256Y-104917205D01*
X48659774Y-104803937D01*
X48803937Y-104659774D01*
X48917205Y-104490256D01*
X48995226Y-104301898D01*
X49035000Y-104101939D01*
X49035000Y-103898061D01*
X48995226Y-103698102D01*
X48917205Y-103509744D01*
X48803937Y-103340226D01*
X48659774Y-103196063D01*
X48490256Y-103082795D01*
X48301898Y-103004774D01*
X48101939Y-102965000D01*
X47898061Y-102965000D01*
X47698102Y-103004774D01*
X47509744Y-103082795D01*
X47467532Y-103111000D01*
X41804000Y-103111000D01*
X41776898Y-103099774D01*
X41576939Y-103060000D01*
X41373061Y-103060000D01*
X41173102Y-103099774D01*
X40984744Y-103177795D01*
X40815226Y-103291063D01*
X40671063Y-103435226D01*
X40557795Y-103604744D01*
X40479774Y-103793102D01*
X40440000Y-103993061D01*
X40440000Y-104196939D01*
X40479774Y-104396898D01*
X40557795Y-104585256D01*
X40654510Y-104730000D01*
X40557795Y-104874744D01*
X40479774Y-105063102D01*
X40440000Y-105263061D01*
X40440000Y-105302764D01*
X38726765Y-107016000D01*
X37057468Y-107016000D01*
X37015256Y-106987795D01*
X36826898Y-106909774D01*
X36626939Y-106870000D01*
X36423061Y-106870000D01*
X36223102Y-106909774D01*
X36034744Y-106987795D01*
X35865226Y-107101063D01*
X35721063Y-107245226D01*
X35607795Y-107414744D01*
X35529774Y-107603102D01*
X35490000Y-107803061D01*
X25660000Y-107803061D01*
X25660000Y-103993061D01*
X35490000Y-103993061D01*
X35490000Y-104196939D01*
X35529774Y-104396898D01*
X35607795Y-104585256D01*
X35721063Y-104754774D01*
X35865226Y-104898937D01*
X36034744Y-105012205D01*
X36223102Y-105090226D01*
X36423061Y-105130000D01*
X36626939Y-105130000D01*
X36826898Y-105090226D01*
X37015256Y-105012205D01*
X37184774Y-104898937D01*
X37328937Y-104754774D01*
X37442205Y-104585256D01*
X37520226Y-104396898D01*
X37530130Y-104347105D01*
X40988236Y-100889000D01*
X45467532Y-100889000D01*
X45509744Y-100917205D01*
X45698102Y-100995226D01*
X45898061Y-101035000D01*
X46101939Y-101035000D01*
X46301898Y-100995226D01*
X46490256Y-100917205D01*
X46659774Y-100803937D01*
X46803937Y-100659774D01*
X46917205Y-100490256D01*
X46995226Y-100301898D01*
X47035000Y-100101939D01*
X47035000Y-99898061D01*
X46995226Y-99698102D01*
X46917205Y-99509744D01*
X46803937Y-99340226D01*
X46659774Y-99196063D01*
X46490256Y-99082795D01*
X46301898Y-99004774D01*
X46101939Y-98965000D01*
X45898061Y-98965000D01*
X45698102Y-99004774D01*
X45509744Y-99082795D01*
X45467532Y-99111000D01*
X40663668Y-99111000D01*
X40620000Y-99106699D01*
X40445725Y-99123864D01*
X40394892Y-99139284D01*
X40278149Y-99174697D01*
X40123709Y-99257247D01*
X39988341Y-99368341D01*
X39960506Y-99402258D01*
X36272895Y-103089870D01*
X36223102Y-103099774D01*
X36034744Y-103177795D01*
X35865226Y-103291063D01*
X35721063Y-103435226D01*
X35607795Y-103604744D01*
X35529774Y-103793102D01*
X35490000Y-103993061D01*
X25660000Y-103993061D01*
X25660000Y-88150000D01*
X65511928Y-88150000D01*
X65511928Y-89850000D01*
X65524188Y-89974482D01*
X65560498Y-90094180D01*
X65619463Y-90204494D01*
X65698815Y-90301185D01*
X65795506Y-90380537D01*
X65905820Y-90439502D01*
X65978380Y-90461513D01*
X65846525Y-90593368D01*
X65684010Y-90836589D01*
X65572068Y-91106842D01*
X65515000Y-91393740D01*
X65515000Y-91686260D01*
X65572068Y-91973158D01*
X65684010Y-92243411D01*
X65846525Y-92486632D01*
X66053368Y-92693475D01*
X66227760Y-92810000D01*
X66053368Y-92926525D01*
X65846525Y-93133368D01*
X65684010Y-93376589D01*
X65572068Y-93646842D01*
X65515000Y-93933740D01*
X65515000Y-94226260D01*
X65572068Y-94513158D01*
X65684010Y-94783411D01*
X65846525Y-95026632D01*
X66053368Y-95233475D01*
X66296589Y-95395990D01*
X66566842Y-95507932D01*
X66853740Y-95565000D01*
X67146260Y-95565000D01*
X67433158Y-95507932D01*
X67703411Y-95395990D01*
X67946632Y-95233475D01*
X68153475Y-95026632D01*
X68315990Y-94783411D01*
X68427932Y-94513158D01*
X68485000Y-94226260D01*
X68485000Y-93933740D01*
X68427932Y-93646842D01*
X68315990Y-93376589D01*
X68153475Y-93133368D01*
X67946632Y-92926525D01*
X67772240Y-92810000D01*
X67946632Y-92693475D01*
X68153475Y-92486632D01*
X68315990Y-92243411D01*
X68427932Y-91973158D01*
X68485000Y-91686260D01*
X68485000Y-91393740D01*
X68427932Y-91106842D01*
X68315990Y-90836589D01*
X68153475Y-90593368D01*
X68021620Y-90461513D01*
X68094180Y-90439502D01*
X68204494Y-90380537D01*
X68301185Y-90301185D01*
X68380537Y-90204494D01*
X68439502Y-90094180D01*
X68475812Y-89974482D01*
X68488072Y-89850000D01*
X68488072Y-88150000D01*
X68475812Y-88025518D01*
X68439502Y-87905820D01*
X68380537Y-87795506D01*
X68301185Y-87698815D01*
X68204494Y-87619463D01*
X68094180Y-87560498D01*
X67974482Y-87524188D01*
X67850000Y-87511928D01*
X66150000Y-87511928D01*
X66025518Y-87524188D01*
X65905820Y-87560498D01*
X65795506Y-87619463D01*
X65698815Y-87698815D01*
X65619463Y-87795506D01*
X65560498Y-87905820D01*
X65524188Y-88025518D01*
X65511928Y-88150000D01*
X25660000Y-88150000D01*
X25660000Y-79898061D01*
X35465000Y-79898061D01*
X35465000Y-80101939D01*
X35504774Y-80301898D01*
X35582795Y-80490256D01*
X35696063Y-80659774D01*
X35840226Y-80803937D01*
X36009744Y-80917205D01*
X36198102Y-80995226D01*
X36398061Y-81035000D01*
X36601939Y-81035000D01*
X36801898Y-80995226D01*
X36990256Y-80917205D01*
X37032468Y-80889000D01*
X38796340Y-80889000D01*
X38840000Y-80893300D01*
X38883660Y-80889000D01*
X38883667Y-80889000D01*
X39014274Y-80876136D01*
X39181851Y-80825303D01*
X39336291Y-80742753D01*
X39471659Y-80631659D01*
X39499499Y-80597736D01*
X39783495Y-80313740D01*
X71515000Y-80313740D01*
X71515000Y-80606260D01*
X71572068Y-80893158D01*
X71684010Y-81163411D01*
X71846525Y-81406632D01*
X72053368Y-81613475D01*
X72296589Y-81775990D01*
X72566842Y-81887932D01*
X72853740Y-81945000D01*
X73146260Y-81945000D01*
X73433158Y-81887932D01*
X73703411Y-81775990D01*
X73946632Y-81613475D01*
X74153475Y-81406632D01*
X74315990Y-81163411D01*
X74427932Y-80893158D01*
X74485000Y-80606260D01*
X74485000Y-80313740D01*
X74427932Y-80026842D01*
X74315990Y-79756589D01*
X74153475Y-79513368D01*
X73946632Y-79306525D01*
X73703411Y-79144010D01*
X73433158Y-79032068D01*
X73146260Y-78975000D01*
X72853740Y-78975000D01*
X72566842Y-79032068D01*
X72296589Y-79144010D01*
X72053368Y-79306525D01*
X71846525Y-79513368D01*
X71684010Y-79756589D01*
X71572068Y-80026842D01*
X71515000Y-80313740D01*
X39783495Y-80313740D01*
X41727106Y-78370130D01*
X41776898Y-78360226D01*
X41965256Y-78282205D01*
X42134774Y-78168937D01*
X42278937Y-78024774D01*
X42392205Y-77855256D01*
X42470226Y-77666898D01*
X42510000Y-77466939D01*
X42510000Y-77263061D01*
X42470226Y-77063102D01*
X42398110Y-76889000D01*
X47467532Y-76889000D01*
X47509744Y-76917205D01*
X47698102Y-76995226D01*
X47898061Y-77035000D01*
X48101939Y-77035000D01*
X48301898Y-76995226D01*
X48490256Y-76917205D01*
X48659774Y-76803937D01*
X48803937Y-76659774D01*
X48917205Y-76490256D01*
X48995226Y-76301898D01*
X49035000Y-76101939D01*
X49035000Y-75898061D01*
X48995226Y-75698102D01*
X48917205Y-75509744D01*
X48803937Y-75340226D01*
X48659774Y-75196063D01*
X48490256Y-75082795D01*
X48301898Y-75004774D01*
X48101939Y-74965000D01*
X47898061Y-74965000D01*
X47698102Y-75004774D01*
X47509744Y-75082795D01*
X47467532Y-75111000D01*
X41804000Y-75111000D01*
X41776898Y-75099774D01*
X41576939Y-75060000D01*
X41373061Y-75060000D01*
X41173102Y-75099774D01*
X40984744Y-75177795D01*
X40815226Y-75291063D01*
X40671063Y-75435226D01*
X40557795Y-75604744D01*
X40479774Y-75793102D01*
X40440000Y-75993061D01*
X40440000Y-76196939D01*
X40479774Y-76396898D01*
X40557795Y-76585256D01*
X40654510Y-76730000D01*
X40557795Y-76874744D01*
X40479774Y-77063102D01*
X40469870Y-77112894D01*
X38471765Y-79111000D01*
X37032468Y-79111000D01*
X36990256Y-79082795D01*
X36801898Y-79004774D01*
X36601939Y-78965000D01*
X36398061Y-78965000D01*
X36198102Y-79004774D01*
X36009744Y-79082795D01*
X35840226Y-79196063D01*
X35696063Y-79340226D01*
X35582795Y-79509744D01*
X35504774Y-79698102D01*
X35465000Y-79898061D01*
X25660000Y-79898061D01*
X25660000Y-75898061D01*
X35465000Y-75898061D01*
X35465000Y-76101939D01*
X35504774Y-76301898D01*
X35582795Y-76490256D01*
X35696063Y-76659774D01*
X35840226Y-76803937D01*
X36009744Y-76917205D01*
X36198102Y-76995226D01*
X36398061Y-77035000D01*
X36601939Y-77035000D01*
X36801898Y-76995226D01*
X36990256Y-76917205D01*
X37159774Y-76803937D01*
X37303937Y-76659774D01*
X37417205Y-76490256D01*
X37495226Y-76301898D01*
X37505130Y-76252105D01*
X40743236Y-73014000D01*
X45467532Y-73014000D01*
X45509744Y-73042205D01*
X45698102Y-73120226D01*
X45898061Y-73160000D01*
X46101939Y-73160000D01*
X46301898Y-73120226D01*
X46490256Y-73042205D01*
X46659774Y-72928937D01*
X46803937Y-72784774D01*
X46917205Y-72615256D01*
X46995226Y-72426898D01*
X47035000Y-72226939D01*
X47035000Y-72023061D01*
X46995226Y-71823102D01*
X46917205Y-71634744D01*
X46803937Y-71465226D01*
X46659774Y-71321063D01*
X46490256Y-71207795D01*
X46301898Y-71129774D01*
X46101939Y-71090000D01*
X45898061Y-71090000D01*
X45698102Y-71129774D01*
X45509744Y-71207795D01*
X45467532Y-71236000D01*
X40418668Y-71236000D01*
X40375000Y-71231699D01*
X40200725Y-71248864D01*
X40149892Y-71264284D01*
X40033149Y-71299697D01*
X39878709Y-71382247D01*
X39743341Y-71493341D01*
X39715506Y-71527258D01*
X36247895Y-74994870D01*
X36198102Y-75004774D01*
X36009744Y-75082795D01*
X35840226Y-75196063D01*
X35696063Y-75340226D01*
X35582795Y-75509744D01*
X35504774Y-75698102D01*
X35465000Y-75898061D01*
X25660000Y-75898061D01*
X25660000Y-70200000D01*
X60561928Y-70200000D01*
X60561928Y-71800000D01*
X60574188Y-71924482D01*
X60610498Y-72044180D01*
X60669463Y-72154494D01*
X60748815Y-72251185D01*
X60845506Y-72330537D01*
X60955820Y-72389502D01*
X61075518Y-72425812D01*
X61200000Y-72438072D01*
X62800000Y-72438072D01*
X62924482Y-72425812D01*
X63044180Y-72389502D01*
X63154494Y-72330537D01*
X63251185Y-72251185D01*
X63330537Y-72154494D01*
X63332939Y-72150000D01*
X71511928Y-72150000D01*
X71511928Y-73850000D01*
X71524188Y-73974482D01*
X71560498Y-74094180D01*
X71619463Y-74204494D01*
X71698815Y-74301185D01*
X71795506Y-74380537D01*
X71905820Y-74439502D01*
X72025518Y-74475812D01*
X72150000Y-74488072D01*
X73850000Y-74488072D01*
X73974482Y-74475812D01*
X74094180Y-74439502D01*
X74204494Y-74380537D01*
X74301185Y-74301185D01*
X74380537Y-74204494D01*
X74439502Y-74094180D01*
X74475812Y-73974482D01*
X74488072Y-73850000D01*
X74488072Y-72150000D01*
X74475812Y-72025518D01*
X74439502Y-71905820D01*
X74380537Y-71795506D01*
X74301185Y-71698815D01*
X74204494Y-71619463D01*
X74094180Y-71560498D01*
X74021620Y-71538487D01*
X74153475Y-71406632D01*
X74315990Y-71163411D01*
X74427932Y-70893158D01*
X74485000Y-70606260D01*
X74485000Y-70313740D01*
X74427932Y-70026842D01*
X74315990Y-69756589D01*
X74153475Y-69513368D01*
X73946632Y-69306525D01*
X73703411Y-69144010D01*
X73433158Y-69032068D01*
X73146260Y-68975000D01*
X72853740Y-68975000D01*
X72566842Y-69032068D01*
X72296589Y-69144010D01*
X72053368Y-69306525D01*
X71846525Y-69513368D01*
X71684010Y-69756589D01*
X71572068Y-70026842D01*
X71515000Y-70313740D01*
X71515000Y-70606260D01*
X71572068Y-70893158D01*
X71684010Y-71163411D01*
X71846525Y-71406632D01*
X71978380Y-71538487D01*
X71905820Y-71560498D01*
X71795506Y-71619463D01*
X71698815Y-71698815D01*
X71619463Y-71795506D01*
X71560498Y-71905820D01*
X71524188Y-72025518D01*
X71511928Y-72150000D01*
X63332939Y-72150000D01*
X63389502Y-72044180D01*
X63425812Y-71924482D01*
X63438072Y-71800000D01*
X63438072Y-70200000D01*
X63425812Y-70075518D01*
X63389502Y-69955820D01*
X63330537Y-69845506D01*
X63251185Y-69748815D01*
X63154494Y-69669463D01*
X63044180Y-69610498D01*
X62924482Y-69574188D01*
X62800000Y-69561928D01*
X61200000Y-69561928D01*
X61075518Y-69574188D01*
X60955820Y-69610498D01*
X60845506Y-69669463D01*
X60748815Y-69748815D01*
X60669463Y-69845506D01*
X60610498Y-69955820D01*
X60574188Y-70075518D01*
X60561928Y-70200000D01*
X25660000Y-70200000D01*
X25660000Y-67898061D01*
X69965000Y-67898061D01*
X69965000Y-68101939D01*
X70004774Y-68301898D01*
X70082795Y-68490256D01*
X70196063Y-68659774D01*
X70340226Y-68803937D01*
X70509744Y-68917205D01*
X70698102Y-68995226D01*
X70898061Y-69035000D01*
X71101939Y-69035000D01*
X71301898Y-68995226D01*
X71490256Y-68917205D01*
X71532468Y-68889000D01*
X74467532Y-68889000D01*
X74509744Y-68917205D01*
X74698102Y-68995226D01*
X74898061Y-69035000D01*
X75101939Y-69035000D01*
X75301898Y-68995226D01*
X75490256Y-68917205D01*
X75659774Y-68803937D01*
X75803937Y-68659774D01*
X75917205Y-68490256D01*
X75995226Y-68301898D01*
X76035000Y-68101939D01*
X76035000Y-67898061D01*
X75995226Y-67698102D01*
X75917205Y-67509744D01*
X75803937Y-67340226D01*
X75659774Y-67196063D01*
X75490256Y-67082795D01*
X75301898Y-67004774D01*
X75101939Y-66965000D01*
X74898061Y-66965000D01*
X74698102Y-67004774D01*
X74509744Y-67082795D01*
X74467532Y-67111000D01*
X71532468Y-67111000D01*
X71490256Y-67082795D01*
X71301898Y-67004774D01*
X71101939Y-66965000D01*
X70898061Y-66965000D01*
X70698102Y-67004774D01*
X70509744Y-67082795D01*
X70340226Y-67196063D01*
X70196063Y-67340226D01*
X70082795Y-67509744D01*
X70004774Y-67698102D01*
X69965000Y-67898061D01*
X25660000Y-67898061D01*
X25660000Y-64127000D01*
X67000000Y-64127000D01*
X67024776Y-64124560D01*
X67048601Y-64117333D01*
X67070557Y-64105597D01*
X67089803Y-64089803D01*
X67105597Y-64070557D01*
X67117333Y-64048601D01*
X67124560Y-64024776D01*
X67127000Y-64000000D01*
X67127000Y-61127000D01*
X77873000Y-61127000D01*
X77873000Y-78443586D01*
G37*
X77873000Y-78443586D02*
X77803937Y-78340226D01*
X77659774Y-78196063D01*
X77490256Y-78082795D01*
X77301898Y-78004774D01*
X77101939Y-77965000D01*
X76898061Y-77965000D01*
X76698102Y-78004774D01*
X76509744Y-78082795D01*
X76340226Y-78196063D01*
X76196063Y-78340226D01*
X76082795Y-78509744D01*
X76004774Y-78698102D01*
X75965000Y-78898061D01*
X75965000Y-79101939D01*
X76004774Y-79301898D01*
X76082795Y-79490256D01*
X76111001Y-79532469D01*
X76111000Y-85467532D01*
X76082795Y-85509744D01*
X76004774Y-85698102D01*
X75965000Y-85898061D01*
X75965000Y-86101939D01*
X76004774Y-86301898D01*
X76082795Y-86490256D01*
X76196063Y-86659774D01*
X76340226Y-86803937D01*
X76509744Y-86917205D01*
X76698102Y-86995226D01*
X76898061Y-87035000D01*
X77101939Y-87035000D01*
X77301898Y-86995226D01*
X77490256Y-86917205D01*
X77659774Y-86803937D01*
X77803937Y-86659774D01*
X77873000Y-86556414D01*
X77873000Y-90178925D01*
X75413220Y-87719145D01*
X75353556Y-87646444D01*
X75063482Y-87408387D01*
X74732539Y-87231494D01*
X74373445Y-87122564D01*
X74093582Y-87095000D01*
X74093580Y-87095000D01*
X74000000Y-87085783D01*
X73906420Y-87095000D01*
X72906418Y-87095000D01*
X72626555Y-87122564D01*
X72267461Y-87231494D01*
X71936518Y-87408387D01*
X71646444Y-87646444D01*
X71408387Y-87936518D01*
X71231494Y-88267461D01*
X71122564Y-88626555D01*
X71085783Y-89000000D01*
X71122564Y-89373445D01*
X71231494Y-89732539D01*
X71408387Y-90063482D01*
X71646444Y-90353556D01*
X71888054Y-90551839D01*
X71846525Y-90593368D01*
X71684010Y-90836589D01*
X71572068Y-91106842D01*
X71515000Y-91393740D01*
X71515000Y-91686260D01*
X71572068Y-91973158D01*
X71684010Y-92243411D01*
X71846525Y-92486632D01*
X72053368Y-92693475D01*
X72227760Y-92810000D01*
X72053368Y-92926525D01*
X71846525Y-93133368D01*
X71684010Y-93376589D01*
X71572068Y-93646842D01*
X71515000Y-93933740D01*
X71515000Y-94226260D01*
X71572068Y-94513158D01*
X71684010Y-94783411D01*
X71846525Y-95026632D01*
X72053368Y-95233475D01*
X72296589Y-95395990D01*
X72566842Y-95507932D01*
X72853740Y-95565000D01*
X73146260Y-95565000D01*
X73433158Y-95507932D01*
X73703411Y-95395990D01*
X73946632Y-95233475D01*
X74153475Y-95026632D01*
X74315990Y-94783411D01*
X74427932Y-94513158D01*
X74485000Y-94226260D01*
X74485000Y-93933740D01*
X74427932Y-93646842D01*
X74315990Y-93376589D01*
X74153475Y-93133368D01*
X73946632Y-92926525D01*
X73772240Y-92810000D01*
X73946632Y-92693475D01*
X74153475Y-92486632D01*
X74315990Y-92243411D01*
X74384335Y-92078411D01*
X77873000Y-95567076D01*
X77873000Y-119340000D01*
X25660000Y-119340000D01*
X25660000Y-115779872D01*
X26765000Y-115779872D01*
X26765000Y-116220128D01*
X26850890Y-116651925D01*
X27019369Y-117058669D01*
X27263962Y-117424729D01*
X27575271Y-117736038D01*
X27941331Y-117980631D01*
X28348075Y-118149110D01*
X28779872Y-118235000D01*
X29220128Y-118235000D01*
X29651925Y-118149110D01*
X30058669Y-117980631D01*
X30424729Y-117736038D01*
X30736038Y-117424729D01*
X30980631Y-117058669D01*
X31149110Y-116651925D01*
X31235000Y-116220128D01*
X31235000Y-115779872D01*
X31149110Y-115348075D01*
X30980631Y-114941331D01*
X30736038Y-114575271D01*
X30424729Y-114263962D01*
X30058669Y-114019369D01*
X29651925Y-113850890D01*
X29220128Y-113765000D01*
X28779872Y-113765000D01*
X28348075Y-113850890D01*
X27941331Y-114019369D01*
X27575271Y-114263962D01*
X27263962Y-114575271D01*
X27019369Y-114941331D01*
X26850890Y-115348075D01*
X26765000Y-115779872D01*
X25660000Y-115779872D01*
X25660000Y-107803061D01*
X35490000Y-107803061D01*
X35490000Y-108006939D01*
X35529774Y-108206898D01*
X35607795Y-108395256D01*
X35721063Y-108564774D01*
X35865226Y-108708937D01*
X36034744Y-108822205D01*
X36223102Y-108900226D01*
X36423061Y-108940000D01*
X36626939Y-108940000D01*
X36826898Y-108900226D01*
X37015256Y-108822205D01*
X37057468Y-108794000D01*
X39051340Y-108794000D01*
X39095000Y-108798300D01*
X39138660Y-108794000D01*
X39138667Y-108794000D01*
X39269274Y-108781136D01*
X39436851Y-108730303D01*
X39591291Y-108647753D01*
X39726659Y-108536659D01*
X39754499Y-108502736D01*
X40694087Y-107563148D01*
X41759496Y-106497740D01*
X41994714Y-106262522D01*
X42134774Y-106168937D01*
X42278937Y-106024774D01*
X42392205Y-105855256D01*
X42470226Y-105666898D01*
X42510000Y-105466939D01*
X42510000Y-105263061D01*
X42470226Y-105063102D01*
X42398110Y-104889000D01*
X47467532Y-104889000D01*
X47509744Y-104917205D01*
X47698102Y-104995226D01*
X47898061Y-105035000D01*
X48101939Y-105035000D01*
X48301898Y-104995226D01*
X48490256Y-104917205D01*
X48659774Y-104803937D01*
X48803937Y-104659774D01*
X48917205Y-104490256D01*
X48995226Y-104301898D01*
X49035000Y-104101939D01*
X49035000Y-103898061D01*
X48995226Y-103698102D01*
X48917205Y-103509744D01*
X48803937Y-103340226D01*
X48659774Y-103196063D01*
X48490256Y-103082795D01*
X48301898Y-103004774D01*
X48101939Y-102965000D01*
X47898061Y-102965000D01*
X47698102Y-103004774D01*
X47509744Y-103082795D01*
X47467532Y-103111000D01*
X41804000Y-103111000D01*
X41776898Y-103099774D01*
X41576939Y-103060000D01*
X41373061Y-103060000D01*
X41173102Y-103099774D01*
X40984744Y-103177795D01*
X40815226Y-103291063D01*
X40671063Y-103435226D01*
X40557795Y-103604744D01*
X40479774Y-103793102D01*
X40440000Y-103993061D01*
X40440000Y-104196939D01*
X40479774Y-104396898D01*
X40557795Y-104585256D01*
X40654510Y-104730000D01*
X40557795Y-104874744D01*
X40479774Y-105063102D01*
X40440000Y-105263061D01*
X40440000Y-105302764D01*
X38726765Y-107016000D01*
X37057468Y-107016000D01*
X37015256Y-106987795D01*
X36826898Y-106909774D01*
X36626939Y-106870000D01*
X36423061Y-106870000D01*
X36223102Y-106909774D01*
X36034744Y-106987795D01*
X35865226Y-107101063D01*
X35721063Y-107245226D01*
X35607795Y-107414744D01*
X35529774Y-107603102D01*
X35490000Y-107803061D01*
X25660000Y-107803061D01*
X25660000Y-103993061D01*
X35490000Y-103993061D01*
X35490000Y-104196939D01*
X35529774Y-104396898D01*
X35607795Y-104585256D01*
X35721063Y-104754774D01*
X35865226Y-104898937D01*
X36034744Y-105012205D01*
X36223102Y-105090226D01*
X36423061Y-105130000D01*
X36626939Y-105130000D01*
X36826898Y-105090226D01*
X37015256Y-105012205D01*
X37184774Y-104898937D01*
X37328937Y-104754774D01*
X37442205Y-104585256D01*
X37520226Y-104396898D01*
X37530130Y-104347105D01*
X40988236Y-100889000D01*
X45467532Y-100889000D01*
X45509744Y-100917205D01*
X45698102Y-100995226D01*
X45898061Y-101035000D01*
X46101939Y-101035000D01*
X46301898Y-100995226D01*
X46490256Y-100917205D01*
X46659774Y-100803937D01*
X46803937Y-100659774D01*
X46917205Y-100490256D01*
X46995226Y-100301898D01*
X47035000Y-100101939D01*
X47035000Y-99898061D01*
X46995226Y-99698102D01*
X46917205Y-99509744D01*
X46803937Y-99340226D01*
X46659774Y-99196063D01*
X46490256Y-99082795D01*
X46301898Y-99004774D01*
X46101939Y-98965000D01*
X45898061Y-98965000D01*
X45698102Y-99004774D01*
X45509744Y-99082795D01*
X45467532Y-99111000D01*
X40663668Y-99111000D01*
X40620000Y-99106699D01*
X40445725Y-99123864D01*
X40394892Y-99139284D01*
X40278149Y-99174697D01*
X40123709Y-99257247D01*
X39988341Y-99368341D01*
X39960506Y-99402258D01*
X36272895Y-103089870D01*
X36223102Y-103099774D01*
X36034744Y-103177795D01*
X35865226Y-103291063D01*
X35721063Y-103435226D01*
X35607795Y-103604744D01*
X35529774Y-103793102D01*
X35490000Y-103993061D01*
X25660000Y-103993061D01*
X25660000Y-88150000D01*
X65511928Y-88150000D01*
X65511928Y-89850000D01*
X65524188Y-89974482D01*
X65560498Y-90094180D01*
X65619463Y-90204494D01*
X65698815Y-90301185D01*
X65795506Y-90380537D01*
X65905820Y-90439502D01*
X65978380Y-90461513D01*
X65846525Y-90593368D01*
X65684010Y-90836589D01*
X65572068Y-91106842D01*
X65515000Y-91393740D01*
X65515000Y-91686260D01*
X65572068Y-91973158D01*
X65684010Y-92243411D01*
X65846525Y-92486632D01*
X66053368Y-92693475D01*
X66227760Y-92810000D01*
X66053368Y-92926525D01*
X65846525Y-93133368D01*
X65684010Y-93376589D01*
X65572068Y-93646842D01*
X65515000Y-93933740D01*
X65515000Y-94226260D01*
X65572068Y-94513158D01*
X65684010Y-94783411D01*
X65846525Y-95026632D01*
X66053368Y-95233475D01*
X66296589Y-95395990D01*
X66566842Y-95507932D01*
X66853740Y-95565000D01*
X67146260Y-95565000D01*
X67433158Y-95507932D01*
X67703411Y-95395990D01*
X67946632Y-95233475D01*
X68153475Y-95026632D01*
X68315990Y-94783411D01*
X68427932Y-94513158D01*
X68485000Y-94226260D01*
X68485000Y-93933740D01*
X68427932Y-93646842D01*
X68315990Y-93376589D01*
X68153475Y-93133368D01*
X67946632Y-92926525D01*
X67772240Y-92810000D01*
X67946632Y-92693475D01*
X68153475Y-92486632D01*
X68315990Y-92243411D01*
X68427932Y-91973158D01*
X68485000Y-91686260D01*
X68485000Y-91393740D01*
X68427932Y-91106842D01*
X68315990Y-90836589D01*
X68153475Y-90593368D01*
X68021620Y-90461513D01*
X68094180Y-90439502D01*
X68204494Y-90380537D01*
X68301185Y-90301185D01*
X68380537Y-90204494D01*
X68439502Y-90094180D01*
X68475812Y-89974482D01*
X68488072Y-89850000D01*
X68488072Y-88150000D01*
X68475812Y-88025518D01*
X68439502Y-87905820D01*
X68380537Y-87795506D01*
X68301185Y-87698815D01*
X68204494Y-87619463D01*
X68094180Y-87560498D01*
X67974482Y-87524188D01*
X67850000Y-87511928D01*
X66150000Y-87511928D01*
X66025518Y-87524188D01*
X65905820Y-87560498D01*
X65795506Y-87619463D01*
X65698815Y-87698815D01*
X65619463Y-87795506D01*
X65560498Y-87905820D01*
X65524188Y-88025518D01*
X65511928Y-88150000D01*
X25660000Y-88150000D01*
X25660000Y-79898061D01*
X35465000Y-79898061D01*
X35465000Y-80101939D01*
X35504774Y-80301898D01*
X35582795Y-80490256D01*
X35696063Y-80659774D01*
X35840226Y-80803937D01*
X36009744Y-80917205D01*
X36198102Y-80995226D01*
X36398061Y-81035000D01*
X36601939Y-81035000D01*
X36801898Y-80995226D01*
X36990256Y-80917205D01*
X37032468Y-80889000D01*
X38796340Y-80889000D01*
X38840000Y-80893300D01*
X38883660Y-80889000D01*
X38883667Y-80889000D01*
X39014274Y-80876136D01*
X39181851Y-80825303D01*
X39336291Y-80742753D01*
X39471659Y-80631659D01*
X39499499Y-80597736D01*
X39783495Y-80313740D01*
X71515000Y-80313740D01*
X71515000Y-80606260D01*
X71572068Y-80893158D01*
X71684010Y-81163411D01*
X71846525Y-81406632D01*
X72053368Y-81613475D01*
X72296589Y-81775990D01*
X72566842Y-81887932D01*
X72853740Y-81945000D01*
X73146260Y-81945000D01*
X73433158Y-81887932D01*
X73703411Y-81775990D01*
X73946632Y-81613475D01*
X74153475Y-81406632D01*
X74315990Y-81163411D01*
X74427932Y-80893158D01*
X74485000Y-80606260D01*
X74485000Y-80313740D01*
X74427932Y-80026842D01*
X74315990Y-79756589D01*
X74153475Y-79513368D01*
X73946632Y-79306525D01*
X73703411Y-79144010D01*
X73433158Y-79032068D01*
X73146260Y-78975000D01*
X72853740Y-78975000D01*
X72566842Y-79032068D01*
X72296589Y-79144010D01*
X72053368Y-79306525D01*
X71846525Y-79513368D01*
X71684010Y-79756589D01*
X71572068Y-80026842D01*
X71515000Y-80313740D01*
X39783495Y-80313740D01*
X41727106Y-78370130D01*
X41776898Y-78360226D01*
X41965256Y-78282205D01*
X42134774Y-78168937D01*
X42278937Y-78024774D01*
X42392205Y-77855256D01*
X42470226Y-77666898D01*
X42510000Y-77466939D01*
X42510000Y-77263061D01*
X42470226Y-77063102D01*
X42398110Y-76889000D01*
X47467532Y-76889000D01*
X47509744Y-76917205D01*
X47698102Y-76995226D01*
X47898061Y-77035000D01*
X48101939Y-77035000D01*
X48301898Y-76995226D01*
X48490256Y-76917205D01*
X48659774Y-76803937D01*
X48803937Y-76659774D01*
X48917205Y-76490256D01*
X48995226Y-76301898D01*
X49035000Y-76101939D01*
X49035000Y-75898061D01*
X48995226Y-75698102D01*
X48917205Y-75509744D01*
X48803937Y-75340226D01*
X48659774Y-75196063D01*
X48490256Y-75082795D01*
X48301898Y-75004774D01*
X48101939Y-74965000D01*
X47898061Y-74965000D01*
X47698102Y-75004774D01*
X47509744Y-75082795D01*
X47467532Y-75111000D01*
X41804000Y-75111000D01*
X41776898Y-75099774D01*
X41576939Y-75060000D01*
X41373061Y-75060000D01*
X41173102Y-75099774D01*
X40984744Y-75177795D01*
X40815226Y-75291063D01*
X40671063Y-75435226D01*
X40557795Y-75604744D01*
X40479774Y-75793102D01*
X40440000Y-75993061D01*
X40440000Y-76196939D01*
X40479774Y-76396898D01*
X40557795Y-76585256D01*
X40654510Y-76730000D01*
X40557795Y-76874744D01*
X40479774Y-77063102D01*
X40469870Y-77112894D01*
X38471765Y-79111000D01*
X37032468Y-79111000D01*
X36990256Y-79082795D01*
X36801898Y-79004774D01*
X36601939Y-78965000D01*
X36398061Y-78965000D01*
X36198102Y-79004774D01*
X36009744Y-79082795D01*
X35840226Y-79196063D01*
X35696063Y-79340226D01*
X35582795Y-79509744D01*
X35504774Y-79698102D01*
X35465000Y-79898061D01*
X25660000Y-79898061D01*
X25660000Y-75898061D01*
X35465000Y-75898061D01*
X35465000Y-76101939D01*
X35504774Y-76301898D01*
X35582795Y-76490256D01*
X35696063Y-76659774D01*
X35840226Y-76803937D01*
X36009744Y-76917205D01*
X36198102Y-76995226D01*
X36398061Y-77035000D01*
X36601939Y-77035000D01*
X36801898Y-76995226D01*
X36990256Y-76917205D01*
X37159774Y-76803937D01*
X37303937Y-76659774D01*
X37417205Y-76490256D01*
X37495226Y-76301898D01*
X37505130Y-76252105D01*
X40743236Y-73014000D01*
X45467532Y-73014000D01*
X45509744Y-73042205D01*
X45698102Y-73120226D01*
X45898061Y-73160000D01*
X46101939Y-73160000D01*
X46301898Y-73120226D01*
X46490256Y-73042205D01*
X46659774Y-72928937D01*
X46803937Y-72784774D01*
X46917205Y-72615256D01*
X46995226Y-72426898D01*
X47035000Y-72226939D01*
X47035000Y-72023061D01*
X46995226Y-71823102D01*
X46917205Y-71634744D01*
X46803937Y-71465226D01*
X46659774Y-71321063D01*
X46490256Y-71207795D01*
X46301898Y-71129774D01*
X46101939Y-71090000D01*
X45898061Y-71090000D01*
X45698102Y-71129774D01*
X45509744Y-71207795D01*
X45467532Y-71236000D01*
X40418668Y-71236000D01*
X40375000Y-71231699D01*
X40200725Y-71248864D01*
X40149892Y-71264284D01*
X40033149Y-71299697D01*
X39878709Y-71382247D01*
X39743341Y-71493341D01*
X39715506Y-71527258D01*
X36247895Y-74994870D01*
X36198102Y-75004774D01*
X36009744Y-75082795D01*
X35840226Y-75196063D01*
X35696063Y-75340226D01*
X35582795Y-75509744D01*
X35504774Y-75698102D01*
X35465000Y-75898061D01*
X25660000Y-75898061D01*
X25660000Y-70200000D01*
X60561928Y-70200000D01*
X60561928Y-71800000D01*
X60574188Y-71924482D01*
X60610498Y-72044180D01*
X60669463Y-72154494D01*
X60748815Y-72251185D01*
X60845506Y-72330537D01*
X60955820Y-72389502D01*
X61075518Y-72425812D01*
X61200000Y-72438072D01*
X62800000Y-72438072D01*
X62924482Y-72425812D01*
X63044180Y-72389502D01*
X63154494Y-72330537D01*
X63251185Y-72251185D01*
X63330537Y-72154494D01*
X63332939Y-72150000D01*
X71511928Y-72150000D01*
X71511928Y-73850000D01*
X71524188Y-73974482D01*
X71560498Y-74094180D01*
X71619463Y-74204494D01*
X71698815Y-74301185D01*
X71795506Y-74380537D01*
X71905820Y-74439502D01*
X72025518Y-74475812D01*
X72150000Y-74488072D01*
X73850000Y-74488072D01*
X73974482Y-74475812D01*
X74094180Y-74439502D01*
X74204494Y-74380537D01*
X74301185Y-74301185D01*
X74380537Y-74204494D01*
X74439502Y-74094180D01*
X74475812Y-73974482D01*
X74488072Y-73850000D01*
X74488072Y-72150000D01*
X74475812Y-72025518D01*
X74439502Y-71905820D01*
X74380537Y-71795506D01*
X74301185Y-71698815D01*
X74204494Y-71619463D01*
X74094180Y-71560498D01*
X74021620Y-71538487D01*
X74153475Y-71406632D01*
X74315990Y-71163411D01*
X74427932Y-70893158D01*
X74485000Y-70606260D01*
X74485000Y-70313740D01*
X74427932Y-70026842D01*
X74315990Y-69756589D01*
X74153475Y-69513368D01*
X73946632Y-69306525D01*
X73703411Y-69144010D01*
X73433158Y-69032068D01*
X73146260Y-68975000D01*
X72853740Y-68975000D01*
X72566842Y-69032068D01*
X72296589Y-69144010D01*
X72053368Y-69306525D01*
X71846525Y-69513368D01*
X71684010Y-69756589D01*
X71572068Y-70026842D01*
X71515000Y-70313740D01*
X71515000Y-70606260D01*
X71572068Y-70893158D01*
X71684010Y-71163411D01*
X71846525Y-71406632D01*
X71978380Y-71538487D01*
X71905820Y-71560498D01*
X71795506Y-71619463D01*
X71698815Y-71698815D01*
X71619463Y-71795506D01*
X71560498Y-71905820D01*
X71524188Y-72025518D01*
X71511928Y-72150000D01*
X63332939Y-72150000D01*
X63389502Y-72044180D01*
X63425812Y-71924482D01*
X63438072Y-71800000D01*
X63438072Y-70200000D01*
X63425812Y-70075518D01*
X63389502Y-69955820D01*
X63330537Y-69845506D01*
X63251185Y-69748815D01*
X63154494Y-69669463D01*
X63044180Y-69610498D01*
X62924482Y-69574188D01*
X62800000Y-69561928D01*
X61200000Y-69561928D01*
X61075518Y-69574188D01*
X60955820Y-69610498D01*
X60845506Y-69669463D01*
X60748815Y-69748815D01*
X60669463Y-69845506D01*
X60610498Y-69955820D01*
X60574188Y-70075518D01*
X60561928Y-70200000D01*
X25660000Y-70200000D01*
X25660000Y-67898061D01*
X69965000Y-67898061D01*
X69965000Y-68101939D01*
X70004774Y-68301898D01*
X70082795Y-68490256D01*
X70196063Y-68659774D01*
X70340226Y-68803937D01*
X70509744Y-68917205D01*
X70698102Y-68995226D01*
X70898061Y-69035000D01*
X71101939Y-69035000D01*
X71301898Y-68995226D01*
X71490256Y-68917205D01*
X71532468Y-68889000D01*
X74467532Y-68889000D01*
X74509744Y-68917205D01*
X74698102Y-68995226D01*
X74898061Y-69035000D01*
X75101939Y-69035000D01*
X75301898Y-68995226D01*
X75490256Y-68917205D01*
X75659774Y-68803937D01*
X75803937Y-68659774D01*
X75917205Y-68490256D01*
X75995226Y-68301898D01*
X76035000Y-68101939D01*
X76035000Y-67898061D01*
X75995226Y-67698102D01*
X75917205Y-67509744D01*
X75803937Y-67340226D01*
X75659774Y-67196063D01*
X75490256Y-67082795D01*
X75301898Y-67004774D01*
X75101939Y-66965000D01*
X74898061Y-66965000D01*
X74698102Y-67004774D01*
X74509744Y-67082795D01*
X74467532Y-67111000D01*
X71532468Y-67111000D01*
X71490256Y-67082795D01*
X71301898Y-67004774D01*
X71101939Y-66965000D01*
X70898061Y-66965000D01*
X70698102Y-67004774D01*
X70509744Y-67082795D01*
X70340226Y-67196063D01*
X70196063Y-67340226D01*
X70082795Y-67509744D01*
X70004774Y-67698102D01*
X69965000Y-67898061D01*
X25660000Y-67898061D01*
X25660000Y-64127000D01*
X67000000Y-64127000D01*
X67024776Y-64124560D01*
X67048601Y-64117333D01*
X67070557Y-64105597D01*
X67089803Y-64089803D01*
X67105597Y-64070557D01*
X67117333Y-64048601D01*
X67124560Y-64024776D01*
X67127000Y-64000000D01*
X67127000Y-61127000D01*
X77873000Y-61127000D01*
X77873000Y-78443586D01*
G36*
X77873000Y-59873000D02*
G01*
X67127000Y-59873000D01*
X67127000Y-50127000D01*
X77873000Y-50127000D01*
X77873000Y-59873000D01*
G37*
X77873000Y-59873000D02*
X67127000Y-59873000D01*
X67127000Y-50127000D01*
X77873000Y-50127000D01*
X77873000Y-59873000D01*
G36*
X124340001Y-78873000D02*
G01*
X108127000Y-78873000D01*
X108127000Y-67127000D01*
X124340000Y-67127000D01*
X124340001Y-78873000D01*
G37*
X124340001Y-78873000D02*
X108127000Y-78873000D01*
X108127000Y-67127000D01*
X124340000Y-67127000D01*
X124340001Y-78873000D01*
M02*
