M48
; DRILL file {KiCad 5.1.5+dfsg1-2build2} date jeu 09 jui 2020 14:04:30
; FORMAT={3:3/ absolute / metric / suppress leading zeros}
; #@! TF.CreationDate,2020-07-09T14:04:30-04:00
; #@! TF.GenerationSoftware,Kicad,Pcbnew,5.1.5+dfsg1-2build2
FMAT,2
METRIC,TZ
T1C0.400
T2C0.800
T3C1.000
T4C1.500
T5C2.000
T6C3.200
%
G90
G05
T1
X29000Y-61000
X29000Y-62000
X29000Y-65000
X29000Y-66000
X30000Y-61000
X30000Y-62000
X30000Y-65000
X30000Y-66000
X30000Y-70000
X30000Y-72000
X30000Y-78000
X30000Y-80000
X30000Y-82000
X30000Y-84000
X30000Y-86000
X30000Y-98000
X30000Y-100000
X30000Y-102000
X30000Y-104000
X30000Y-106000
X30000Y-108000
X30000Y-110000
X30000Y-112000
X31000Y-61000
X31000Y-62000
X31000Y-65000
X31000Y-66000
X32000Y-61000
X32000Y-62000
X32000Y-65000
X32000Y-66000
X32000Y-70000
X32000Y-72000
X32000Y-76000
X32000Y-78000
X32000Y-80000
X32000Y-82000
X32000Y-84000
X32000Y-86000
X32000Y-98000
X32000Y-100000
X32000Y-102000
X32000Y-104000
X32000Y-106000
X32000Y-108000
X32000Y-110000
X32000Y-112000
X33000Y-61000
X33000Y-62000
X33000Y-65000
X33000Y-66000
X34000Y-61000
X34000Y-62000
X34000Y-65000
X34000Y-66000
X34000Y-70000
X34000Y-72000
X34000Y-76000
X34000Y-78000
X34000Y-80000
X34000Y-82000
X34000Y-84000
X34000Y-86000
X34000Y-98000
X34000Y-100000
X34000Y-102000
X34000Y-104000
X34000Y-106000
X34000Y-108000
X34000Y-110000
X34000Y-112000
X34000Y-114000
X35000Y-71000
X35000Y-84000
X35000Y-85000
X35000Y-86000
X35000Y-99000
X35000Y-112000
X35000Y-113000
X35000Y-114000
X36000Y-71000
X36000Y-78000
X36000Y-84000
X36000Y-85000
X36000Y-86000
X36000Y-99000
X36000Y-106000
X36000Y-112000
X36000Y-113000
X36000Y-114000
X36500Y-76000
X36500Y-80000
X36525Y-104095
X36525Y-107905
X37000Y-71000
X37000Y-78000
X37000Y-99000
X37000Y-106000
X38000Y-71000
X38000Y-99000
X41475Y-76095
X41475Y-77365
X41475Y-78635
X41475Y-104095
X41475Y-105365
X41524Y-106684
X45000Y-78000
X45000Y-106000
X46000Y-72125
X46000Y-74000
X46000Y-100000
X46000Y-102000
X48000Y-76000
X48000Y-104000
X49000Y-71000
X49000Y-99000
X50000Y-71000
X50000Y-99000
X51000Y-71000
X51000Y-99000
X52000Y-71000
X52000Y-76000
X52000Y-77000
X52000Y-78000
X52000Y-99000
X52000Y-104000
X52000Y-105000
X52000Y-106000
X68500Y-51000
X68500Y-53000
X68500Y-55000
X68500Y-57000
X68500Y-59000
X70500Y-51000
X70500Y-53000
X70500Y-55000
X70500Y-57000
X70500Y-59000
X71000Y-68000
X72500Y-51000
X72500Y-53000
X72500Y-55000
X72500Y-57000
X72500Y-59000
X74500Y-51000
X74500Y-53000
X74500Y-55000
X74500Y-57000
X74500Y-59000
X75000Y-62000
X75000Y-63000
X75000Y-64000
X75000Y-65000
X75000Y-66000
X75000Y-68000
X76000Y-105000
X76000Y-106000
X76000Y-107000
X76000Y-109000
X76000Y-110000
X76000Y-111000
X76500Y-51000
X76500Y-53000
X76500Y-55000
X76500Y-57000
X76500Y-59000
X77000Y-79000
X77000Y-86000
X77000Y-105000
X77000Y-106000
X77000Y-107000
X77000Y-109000
X77000Y-110000
X77000Y-111000
X80000Y-105000
X80000Y-106000
X80000Y-107000
X80000Y-109000
X80000Y-110000
X80000Y-111000
X80500Y-89000
X81000Y-105000
X81000Y-106000
X81000Y-107000
X81000Y-109000
X81000Y-110000
X81000Y-111000
X89500Y-89000
X90000Y-86000
X95000Y-75000
X95000Y-76000
X95000Y-77000
X96000Y-75000
X96000Y-76000
X96000Y-77000
X97000Y-76000
X97000Y-77000
X98000Y-57000
X98000Y-62000
X98000Y-70000
X98000Y-75000
X98000Y-83000
X98000Y-88000
X98000Y-96000
X98000Y-99000
X100000Y-62000
X100000Y-63000
X100000Y-101500
X100000Y-102500
X100000Y-103500
X101000Y-62000
X101000Y-63000
X101000Y-64000
X101000Y-101500
X101000Y-102500
X101000Y-103500
X102000Y-62000
X102000Y-63000
X102000Y-101500
X102000Y-102500
X102000Y-103500
X103000Y-55000
X103000Y-56000
X103000Y-70000
X104000Y-55000
X104000Y-56000
X104000Y-57000
X105000Y-56000
X105000Y-70000
X110000Y-55000
X110000Y-57000
X110000Y-59000
X110000Y-61000
X110000Y-63000
X110000Y-65000
X110000Y-68000
X110000Y-70000
X110000Y-72000
X110000Y-74000
X110000Y-76000
X110000Y-78000
X110000Y-81000
X110000Y-83000
X110000Y-85000
X110000Y-87000
X110000Y-89000
X110000Y-91000
X110000Y-93000
X110000Y-95000
X112000Y-55000
X112000Y-57000
X112000Y-59000
X112000Y-61000
X112000Y-63000
X112000Y-65000
X112000Y-68000
X112000Y-70000
X112000Y-72000
X112000Y-74000
X112000Y-76000
X112000Y-78000
X112000Y-81000
X112000Y-83000
X112000Y-85000
X112000Y-87000
X112000Y-89000
X112000Y-91000
X112000Y-93000
X112000Y-95000
X114000Y-55000
X114000Y-57000
X114000Y-59000
X114000Y-61000
X114000Y-63000
X114000Y-65000
X114000Y-68000
X114000Y-70000
X114000Y-72000
X114000Y-76000
X114000Y-78000
X114000Y-81000
X114000Y-83000
X114000Y-85000
X114000Y-87000
X114000Y-89000
X114000Y-91000
X114000Y-93000
X114000Y-95000
X114000Y-97000
X114000Y-99000
X114000Y-101000
X114000Y-103000
X115000Y-47000
X115000Y-48000
X115000Y-51000
X115000Y-52000
X116000Y-47000
X116000Y-48000
X116000Y-51000
X116000Y-52000
X116000Y-55000
X116000Y-57000
X116000Y-59000
X116000Y-61000
X116000Y-63000
X116000Y-65000
X116000Y-68000
X116000Y-70000
X116000Y-72000
X116000Y-74000
X116000Y-76000
X116000Y-78000
X116000Y-81000
X116000Y-83000
X116000Y-85000
X116000Y-87000
X116000Y-89000
X116000Y-91000
X116000Y-93000
X116000Y-95000
X116000Y-97000
X116000Y-99000
X116000Y-101000
X116000Y-103000
X117000Y-47000
X117000Y-48000
X117000Y-51000
X117000Y-52000
X118000Y-47000
X118000Y-48000
X118000Y-51000
X118000Y-52000
X118000Y-55000
X118000Y-57000
X118000Y-59000
X118000Y-61000
X118000Y-63000
X118000Y-65000
X118000Y-68000
X118000Y-70000
X118000Y-72000
X118000Y-74000
X118000Y-76000
X118000Y-78000
X118000Y-81000
X118000Y-83000
X118000Y-85000
X118000Y-87000
X118000Y-89000
X118000Y-91000
X118000Y-93000
X118000Y-95000
X118000Y-97000
X118000Y-99000
X118000Y-101000
X118000Y-103000
X119000Y-47000
X119000Y-48000
X119000Y-51000
X119000Y-52000
X120000Y-47000
X120000Y-48000
X120000Y-51000
X120000Y-52000
X120000Y-53000
X120000Y-55000
X120000Y-57000
X120000Y-59000
X120000Y-61000
X120000Y-63000
X120000Y-65000
X120000Y-68000
X120000Y-70000
X120000Y-72000
X120000Y-74000
X120000Y-76000
X120000Y-78000
X120000Y-81000
X120000Y-83000
X120000Y-85000
X120000Y-87000
X120000Y-89000
X120000Y-91000
X120000Y-93000
X120000Y-95000
X120000Y-97000
X120000Y-99000
X120000Y-101000
X120000Y-103000
X122000Y-53000
X122000Y-55000
X122000Y-57000
X122000Y-59000
X122000Y-61000
X122000Y-63000
X122000Y-65000
X122000Y-68000
X122000Y-70000
X122000Y-72000
X122000Y-74000
X122000Y-76000
X122000Y-78000
X122000Y-81000
X122000Y-83000
X122000Y-85000
X122000Y-87000
X122000Y-89000
X122000Y-91000
X122000Y-93000
X122000Y-95000
X122000Y-97000
X122000Y-99000
X122000Y-101000
X122000Y-103000
X124000Y-53000
X124000Y-55000
X124000Y-57000
X124000Y-59000
X124000Y-61000
X124000Y-63000
X124000Y-65000
X124000Y-68000
X124000Y-70000
X124000Y-72000
X124000Y-74000
X124000Y-76000
X124000Y-78000
X124000Y-81000
X124000Y-83000
X124000Y-85000
X124000Y-87000
X124000Y-89000
X124000Y-91000
X124000Y-93000
X124000Y-95000
X124000Y-97000
X124000Y-99000
X124000Y-101000
X124000Y-103000
T2
X84000Y-99000
X84000Y-102500
X84000Y-81000
X84000Y-84500
X62000Y-71000
X65500Y-71000
T3
X73000Y-89000
X73000Y-91540
X73000Y-94080
X73000Y-96620
X73000Y-99160
X73000Y-101700
X67000Y-89000
X67000Y-91540
X67000Y-94080
X67000Y-96620
X67000Y-99160
X67000Y-101700
X83000Y-54000
X83000Y-56540
X83000Y-59080
X83000Y-61620
X83000Y-64160
X83000Y-66700
X83000Y-69240
X83000Y-71780
X73000Y-70460
X73000Y-73000
X73000Y-80460
X73000Y-83000
X90460Y-94000
X93000Y-94000
T4
X31000Y-37000
X31000Y-42000
X31000Y-47000
T5
X40000Y-25000
X45200Y-25000
X54800Y-25000
X60000Y-25000
X42650Y-34650
X42650Y-47350
X55350Y-34650
X55350Y-47350
X107000Y-28000
X107000Y-38000
X40000Y-57000
X45200Y-57000
X54800Y-57000
X60000Y-57000
X79000Y-28000
X79000Y-38000
T6
X29000Y-116000
X121000Y-24000
X29000Y-24000
X121000Y-116000
T0
M30
