G04 #@! TF.GenerationSoftware,KiCad,Pcbnew,5.1.5+dfsg1-2build2*
G04 #@! TF.CreationDate,2020-07-08T13:44:09-04:00*
G04 #@! TF.ProjectId,psu,7073752e-6b69-4636-9164-5f7063625858,rev?*
G04 #@! TF.SameCoordinates,Original*
G04 #@! TF.FileFunction,Soldermask,Bot*
G04 #@! TF.FilePolarity,Negative*
%FSLAX46Y46*%
G04 Gerber Fmt 4.6, Leading zero omitted, Abs format (unit mm)*
G04 Created by KiCad (PCBNEW 5.1.5+dfsg1-2build2) date 2020-07-08 13:44:09*
%MOMM*%
%LPD*%
G04 APERTURE LIST*
%ADD10C,0.100000*%
G04 APERTURE END LIST*
D10*
G36*
X121375256Y-114391298D02*
G01*
X121481579Y-114412447D01*
X121782042Y-114536903D01*
X122052451Y-114717585D01*
X122282415Y-114947549D01*
X122463097Y-115217958D01*
X122587553Y-115518421D01*
X122651000Y-115837391D01*
X122651000Y-116162609D01*
X122587553Y-116481579D01*
X122463097Y-116782042D01*
X122282415Y-117052451D01*
X122052451Y-117282415D01*
X121782042Y-117463097D01*
X121481579Y-117587553D01*
X121375256Y-117608702D01*
X121162611Y-117651000D01*
X120837389Y-117651000D01*
X120624744Y-117608702D01*
X120518421Y-117587553D01*
X120217958Y-117463097D01*
X119947549Y-117282415D01*
X119717585Y-117052451D01*
X119536903Y-116782042D01*
X119412447Y-116481579D01*
X119349000Y-116162609D01*
X119349000Y-115837391D01*
X119412447Y-115518421D01*
X119536903Y-115217958D01*
X119717585Y-114947549D01*
X119947549Y-114717585D01*
X120217958Y-114536903D01*
X120518421Y-114412447D01*
X120624744Y-114391298D01*
X120837389Y-114349000D01*
X121162611Y-114349000D01*
X121375256Y-114391298D01*
G37*
G36*
X29375256Y-114391298D02*
G01*
X29481579Y-114412447D01*
X29782042Y-114536903D01*
X30052451Y-114717585D01*
X30282415Y-114947549D01*
X30463097Y-115217958D01*
X30587553Y-115518421D01*
X30651000Y-115837391D01*
X30651000Y-116162609D01*
X30587553Y-116481579D01*
X30463097Y-116782042D01*
X30282415Y-117052451D01*
X30052451Y-117282415D01*
X29782042Y-117463097D01*
X29481579Y-117587553D01*
X29375256Y-117608702D01*
X29162611Y-117651000D01*
X28837389Y-117651000D01*
X28624744Y-117608702D01*
X28518421Y-117587553D01*
X28217958Y-117463097D01*
X27947549Y-117282415D01*
X27717585Y-117052451D01*
X27536903Y-116782042D01*
X27412447Y-116481579D01*
X27349000Y-116162609D01*
X27349000Y-115837391D01*
X27412447Y-115518421D01*
X27536903Y-115217958D01*
X27717585Y-114947549D01*
X27947549Y-114717585D01*
X28217958Y-114536903D01*
X28518421Y-114412447D01*
X28624744Y-114391298D01*
X28837389Y-114349000D01*
X29162611Y-114349000D01*
X29375256Y-114391298D01*
G37*
G36*
X84248228Y-101681703D02*
G01*
X84403100Y-101745853D01*
X84542481Y-101838985D01*
X84661015Y-101957519D01*
X84754147Y-102096900D01*
X84818297Y-102251772D01*
X84851000Y-102416184D01*
X84851000Y-102583816D01*
X84818297Y-102748228D01*
X84754147Y-102903100D01*
X84661015Y-103042481D01*
X84542481Y-103161015D01*
X84403100Y-103254147D01*
X84248228Y-103318297D01*
X84083816Y-103351000D01*
X83916184Y-103351000D01*
X83751772Y-103318297D01*
X83596900Y-103254147D01*
X83457519Y-103161015D01*
X83338985Y-103042481D01*
X83245853Y-102903100D01*
X83181703Y-102748228D01*
X83149000Y-102583816D01*
X83149000Y-102416184D01*
X83181703Y-102251772D01*
X83245853Y-102096900D01*
X83338985Y-101957519D01*
X83457519Y-101838985D01*
X83596900Y-101745853D01*
X83751772Y-101681703D01*
X83916184Y-101649000D01*
X84083816Y-101649000D01*
X84248228Y-101681703D01*
G37*
G36*
X73113512Y-100803927D02*
G01*
X73262812Y-100833624D01*
X73426784Y-100901544D01*
X73574354Y-101000147D01*
X73699853Y-101125646D01*
X73798456Y-101273216D01*
X73866376Y-101437188D01*
X73901000Y-101611259D01*
X73901000Y-101788741D01*
X73866376Y-101962812D01*
X73798456Y-102126784D01*
X73699853Y-102274354D01*
X73574354Y-102399853D01*
X73426784Y-102498456D01*
X73262812Y-102566376D01*
X73113512Y-102596073D01*
X73088742Y-102601000D01*
X72911258Y-102601000D01*
X72886488Y-102596073D01*
X72737188Y-102566376D01*
X72573216Y-102498456D01*
X72425646Y-102399853D01*
X72300147Y-102274354D01*
X72201544Y-102126784D01*
X72133624Y-101962812D01*
X72099000Y-101788741D01*
X72099000Y-101611259D01*
X72133624Y-101437188D01*
X72201544Y-101273216D01*
X72300147Y-101125646D01*
X72425646Y-101000147D01*
X72573216Y-100901544D01*
X72737188Y-100833624D01*
X72886488Y-100803927D01*
X72911258Y-100799000D01*
X73088742Y-100799000D01*
X73113512Y-100803927D01*
G37*
G36*
X67113512Y-100803927D02*
G01*
X67262812Y-100833624D01*
X67426784Y-100901544D01*
X67574354Y-101000147D01*
X67699853Y-101125646D01*
X67798456Y-101273216D01*
X67866376Y-101437188D01*
X67901000Y-101611259D01*
X67901000Y-101788741D01*
X67866376Y-101962812D01*
X67798456Y-102126784D01*
X67699853Y-102274354D01*
X67574354Y-102399853D01*
X67426784Y-102498456D01*
X67262812Y-102566376D01*
X67113512Y-102596073D01*
X67088742Y-102601000D01*
X66911258Y-102601000D01*
X66886488Y-102596073D01*
X66737188Y-102566376D01*
X66573216Y-102498456D01*
X66425646Y-102399853D01*
X66300147Y-102274354D01*
X66201544Y-102126784D01*
X66133624Y-101962812D01*
X66099000Y-101788741D01*
X66099000Y-101611259D01*
X66133624Y-101437188D01*
X66201544Y-101273216D01*
X66300147Y-101125646D01*
X66425646Y-101000147D01*
X66573216Y-100901544D01*
X66737188Y-100833624D01*
X66886488Y-100803927D01*
X66911258Y-100799000D01*
X67088742Y-100799000D01*
X67113512Y-100803927D01*
G37*
G36*
X73113512Y-98263927D02*
G01*
X73262812Y-98293624D01*
X73426784Y-98361544D01*
X73574354Y-98460147D01*
X73699853Y-98585646D01*
X73798456Y-98733216D01*
X73866376Y-98897188D01*
X73901000Y-99071259D01*
X73901000Y-99248741D01*
X73866376Y-99422812D01*
X73798456Y-99586784D01*
X73699853Y-99734354D01*
X73574354Y-99859853D01*
X73426784Y-99958456D01*
X73262812Y-100026376D01*
X73113512Y-100056073D01*
X73088742Y-100061000D01*
X72911258Y-100061000D01*
X72886488Y-100056073D01*
X72737188Y-100026376D01*
X72573216Y-99958456D01*
X72425646Y-99859853D01*
X72300147Y-99734354D01*
X72201544Y-99586784D01*
X72133624Y-99422812D01*
X72099000Y-99248741D01*
X72099000Y-99071259D01*
X72133624Y-98897188D01*
X72201544Y-98733216D01*
X72300147Y-98585646D01*
X72425646Y-98460147D01*
X72573216Y-98361544D01*
X72737188Y-98293624D01*
X72886488Y-98263927D01*
X72911258Y-98259000D01*
X73088742Y-98259000D01*
X73113512Y-98263927D01*
G37*
G36*
X67113512Y-98263927D02*
G01*
X67262812Y-98293624D01*
X67426784Y-98361544D01*
X67574354Y-98460147D01*
X67699853Y-98585646D01*
X67798456Y-98733216D01*
X67866376Y-98897188D01*
X67901000Y-99071259D01*
X67901000Y-99248741D01*
X67866376Y-99422812D01*
X67798456Y-99586784D01*
X67699853Y-99734354D01*
X67574354Y-99859853D01*
X67426784Y-99958456D01*
X67262812Y-100026376D01*
X67113512Y-100056073D01*
X67088742Y-100061000D01*
X66911258Y-100061000D01*
X66886488Y-100056073D01*
X66737188Y-100026376D01*
X66573216Y-99958456D01*
X66425646Y-99859853D01*
X66300147Y-99734354D01*
X66201544Y-99586784D01*
X66133624Y-99422812D01*
X66099000Y-99248741D01*
X66099000Y-99071259D01*
X66133624Y-98897188D01*
X66201544Y-98733216D01*
X66300147Y-98585646D01*
X66425646Y-98460147D01*
X66573216Y-98361544D01*
X66737188Y-98293624D01*
X66886488Y-98263927D01*
X66911258Y-98259000D01*
X67088742Y-98259000D01*
X67113512Y-98263927D01*
G37*
G36*
X84851000Y-99851000D02*
G01*
X83149000Y-99851000D01*
X83149000Y-98149000D01*
X84851000Y-98149000D01*
X84851000Y-99851000D01*
G37*
G36*
X73113512Y-95723927D02*
G01*
X73262812Y-95753624D01*
X73426784Y-95821544D01*
X73574354Y-95920147D01*
X73699853Y-96045646D01*
X73798456Y-96193216D01*
X73866376Y-96357188D01*
X73901000Y-96531259D01*
X73901000Y-96708741D01*
X73866376Y-96882812D01*
X73798456Y-97046784D01*
X73699853Y-97194354D01*
X73574354Y-97319853D01*
X73426784Y-97418456D01*
X73262812Y-97486376D01*
X73113512Y-97516073D01*
X73088742Y-97521000D01*
X72911258Y-97521000D01*
X72886488Y-97516073D01*
X72737188Y-97486376D01*
X72573216Y-97418456D01*
X72425646Y-97319853D01*
X72300147Y-97194354D01*
X72201544Y-97046784D01*
X72133624Y-96882812D01*
X72099000Y-96708741D01*
X72099000Y-96531259D01*
X72133624Y-96357188D01*
X72201544Y-96193216D01*
X72300147Y-96045646D01*
X72425646Y-95920147D01*
X72573216Y-95821544D01*
X72737188Y-95753624D01*
X72886488Y-95723927D01*
X72911258Y-95719000D01*
X73088742Y-95719000D01*
X73113512Y-95723927D01*
G37*
G36*
X67113512Y-95723927D02*
G01*
X67262812Y-95753624D01*
X67426784Y-95821544D01*
X67574354Y-95920147D01*
X67699853Y-96045646D01*
X67798456Y-96193216D01*
X67866376Y-96357188D01*
X67901000Y-96531259D01*
X67901000Y-96708741D01*
X67866376Y-96882812D01*
X67798456Y-97046784D01*
X67699853Y-97194354D01*
X67574354Y-97319853D01*
X67426784Y-97418456D01*
X67262812Y-97486376D01*
X67113512Y-97516073D01*
X67088742Y-97521000D01*
X66911258Y-97521000D01*
X66886488Y-97516073D01*
X66737188Y-97486376D01*
X66573216Y-97418456D01*
X66425646Y-97319853D01*
X66300147Y-97194354D01*
X66201544Y-97046784D01*
X66133624Y-96882812D01*
X66099000Y-96708741D01*
X66099000Y-96531259D01*
X66133624Y-96357188D01*
X66201544Y-96193216D01*
X66300147Y-96045646D01*
X66425646Y-95920147D01*
X66573216Y-95821544D01*
X66737188Y-95753624D01*
X66886488Y-95723927D01*
X66911258Y-95719000D01*
X67088742Y-95719000D01*
X67113512Y-95723927D01*
G37*
G36*
X73113512Y-93183927D02*
G01*
X73262812Y-93213624D01*
X73426784Y-93281544D01*
X73574354Y-93380147D01*
X73699853Y-93505646D01*
X73798456Y-93653216D01*
X73866376Y-93817188D01*
X73901000Y-93991259D01*
X73901000Y-94168741D01*
X73866376Y-94342812D01*
X73798456Y-94506784D01*
X73699853Y-94654354D01*
X73574354Y-94779853D01*
X73426784Y-94878456D01*
X73262812Y-94946376D01*
X73113512Y-94976073D01*
X73088742Y-94981000D01*
X72911258Y-94981000D01*
X72886488Y-94976073D01*
X72737188Y-94946376D01*
X72573216Y-94878456D01*
X72425646Y-94779853D01*
X72300147Y-94654354D01*
X72201544Y-94506784D01*
X72133624Y-94342812D01*
X72099000Y-94168741D01*
X72099000Y-93991259D01*
X72133624Y-93817188D01*
X72201544Y-93653216D01*
X72300147Y-93505646D01*
X72425646Y-93380147D01*
X72573216Y-93281544D01*
X72737188Y-93213624D01*
X72886488Y-93183927D01*
X72911258Y-93179000D01*
X73088742Y-93179000D01*
X73113512Y-93183927D01*
G37*
G36*
X67113512Y-93183927D02*
G01*
X67262812Y-93213624D01*
X67426784Y-93281544D01*
X67574354Y-93380147D01*
X67699853Y-93505646D01*
X67798456Y-93653216D01*
X67866376Y-93817188D01*
X67901000Y-93991259D01*
X67901000Y-94168741D01*
X67866376Y-94342812D01*
X67798456Y-94506784D01*
X67699853Y-94654354D01*
X67574354Y-94779853D01*
X67426784Y-94878456D01*
X67262812Y-94946376D01*
X67113512Y-94976073D01*
X67088742Y-94981000D01*
X66911258Y-94981000D01*
X66886488Y-94976073D01*
X66737188Y-94946376D01*
X66573216Y-94878456D01*
X66425646Y-94779853D01*
X66300147Y-94654354D01*
X66201544Y-94506784D01*
X66133624Y-94342812D01*
X66099000Y-94168741D01*
X66099000Y-93991259D01*
X66133624Y-93817188D01*
X66201544Y-93653216D01*
X66300147Y-93505646D01*
X66425646Y-93380147D01*
X66573216Y-93281544D01*
X66737188Y-93213624D01*
X66886488Y-93183927D01*
X66911258Y-93179000D01*
X67088742Y-93179000D01*
X67113512Y-93183927D01*
G37*
G36*
X90573512Y-93103927D02*
G01*
X90722812Y-93133624D01*
X90886784Y-93201544D01*
X91034354Y-93300147D01*
X91159853Y-93425646D01*
X91258456Y-93573216D01*
X91326376Y-93737188D01*
X91361000Y-93911259D01*
X91361000Y-94088741D01*
X91326376Y-94262812D01*
X91258456Y-94426784D01*
X91159853Y-94574354D01*
X91034354Y-94699853D01*
X90886784Y-94798456D01*
X90722812Y-94866376D01*
X90573512Y-94896073D01*
X90548742Y-94901000D01*
X90371258Y-94901000D01*
X90346488Y-94896073D01*
X90197188Y-94866376D01*
X90033216Y-94798456D01*
X89885646Y-94699853D01*
X89760147Y-94574354D01*
X89661544Y-94426784D01*
X89593624Y-94262812D01*
X89559000Y-94088741D01*
X89559000Y-93911259D01*
X89593624Y-93737188D01*
X89661544Y-93573216D01*
X89760147Y-93425646D01*
X89885646Y-93300147D01*
X90033216Y-93201544D01*
X90197188Y-93133624D01*
X90346488Y-93103927D01*
X90371258Y-93099000D01*
X90548742Y-93099000D01*
X90573512Y-93103927D01*
G37*
G36*
X93901000Y-94901000D02*
G01*
X92099000Y-94901000D01*
X92099000Y-93099000D01*
X93901000Y-93099000D01*
X93901000Y-94901000D01*
G37*
G36*
X67113512Y-90643927D02*
G01*
X67262812Y-90673624D01*
X67426784Y-90741544D01*
X67574354Y-90840147D01*
X67699853Y-90965646D01*
X67798456Y-91113216D01*
X67866376Y-91277188D01*
X67901000Y-91451259D01*
X67901000Y-91628741D01*
X67866376Y-91802812D01*
X67798456Y-91966784D01*
X67699853Y-92114354D01*
X67574354Y-92239853D01*
X67426784Y-92338456D01*
X67262812Y-92406376D01*
X67113512Y-92436073D01*
X67088742Y-92441000D01*
X66911258Y-92441000D01*
X66886488Y-92436073D01*
X66737188Y-92406376D01*
X66573216Y-92338456D01*
X66425646Y-92239853D01*
X66300147Y-92114354D01*
X66201544Y-91966784D01*
X66133624Y-91802812D01*
X66099000Y-91628741D01*
X66099000Y-91451259D01*
X66133624Y-91277188D01*
X66201544Y-91113216D01*
X66300147Y-90965646D01*
X66425646Y-90840147D01*
X66573216Y-90741544D01*
X66737188Y-90673624D01*
X66886488Y-90643927D01*
X66911258Y-90639000D01*
X67088742Y-90639000D01*
X67113512Y-90643927D01*
G37*
G36*
X73113512Y-90643927D02*
G01*
X73262812Y-90673624D01*
X73426784Y-90741544D01*
X73574354Y-90840147D01*
X73699853Y-90965646D01*
X73798456Y-91113216D01*
X73866376Y-91277188D01*
X73901000Y-91451259D01*
X73901000Y-91628741D01*
X73866376Y-91802812D01*
X73798456Y-91966784D01*
X73699853Y-92114354D01*
X73574354Y-92239853D01*
X73426784Y-92338456D01*
X73262812Y-92406376D01*
X73113512Y-92436073D01*
X73088742Y-92441000D01*
X72911258Y-92441000D01*
X72886488Y-92436073D01*
X72737188Y-92406376D01*
X72573216Y-92338456D01*
X72425646Y-92239853D01*
X72300147Y-92114354D01*
X72201544Y-91966784D01*
X72133624Y-91802812D01*
X72099000Y-91628741D01*
X72099000Y-91451259D01*
X72133624Y-91277188D01*
X72201544Y-91113216D01*
X72300147Y-90965646D01*
X72425646Y-90840147D01*
X72573216Y-90741544D01*
X72737188Y-90673624D01*
X72886488Y-90643927D01*
X72911258Y-90639000D01*
X73088742Y-90639000D01*
X73113512Y-90643927D01*
G37*
G36*
X67901000Y-89901000D02*
G01*
X66099000Y-89901000D01*
X66099000Y-88099000D01*
X67901000Y-88099000D01*
X67901000Y-89901000D01*
G37*
G36*
X73901000Y-89901000D02*
G01*
X72099000Y-89901000D01*
X72099000Y-88099000D01*
X73901000Y-88099000D01*
X73901000Y-89901000D01*
G37*
G36*
X84248228Y-83681703D02*
G01*
X84403100Y-83745853D01*
X84542481Y-83838985D01*
X84661015Y-83957519D01*
X84754147Y-84096900D01*
X84818297Y-84251772D01*
X84851000Y-84416184D01*
X84851000Y-84583816D01*
X84818297Y-84748228D01*
X84754147Y-84903100D01*
X84661015Y-85042481D01*
X84542481Y-85161015D01*
X84403100Y-85254147D01*
X84248228Y-85318297D01*
X84083816Y-85351000D01*
X83916184Y-85351000D01*
X83751772Y-85318297D01*
X83596900Y-85254147D01*
X83457519Y-85161015D01*
X83338985Y-85042481D01*
X83245853Y-84903100D01*
X83181703Y-84748228D01*
X83149000Y-84583816D01*
X83149000Y-84416184D01*
X83181703Y-84251772D01*
X83245853Y-84096900D01*
X83338985Y-83957519D01*
X83457519Y-83838985D01*
X83596900Y-83745853D01*
X83751772Y-83681703D01*
X83916184Y-83649000D01*
X84083816Y-83649000D01*
X84248228Y-83681703D01*
G37*
G36*
X73901000Y-83901000D02*
G01*
X72099000Y-83901000D01*
X72099000Y-82099000D01*
X73901000Y-82099000D01*
X73901000Y-83901000D01*
G37*
G36*
X84851000Y-81851000D02*
G01*
X83149000Y-81851000D01*
X83149000Y-80149000D01*
X84851000Y-80149000D01*
X84851000Y-81851000D01*
G37*
G36*
X73113512Y-79563927D02*
G01*
X73262812Y-79593624D01*
X73426784Y-79661544D01*
X73574354Y-79760147D01*
X73699853Y-79885646D01*
X73798456Y-80033216D01*
X73866376Y-80197188D01*
X73901000Y-80371259D01*
X73901000Y-80548741D01*
X73866376Y-80722812D01*
X73798456Y-80886784D01*
X73699853Y-81034354D01*
X73574354Y-81159853D01*
X73426784Y-81258456D01*
X73262812Y-81326376D01*
X73113512Y-81356073D01*
X73088742Y-81361000D01*
X72911258Y-81361000D01*
X72886488Y-81356073D01*
X72737188Y-81326376D01*
X72573216Y-81258456D01*
X72425646Y-81159853D01*
X72300147Y-81034354D01*
X72201544Y-80886784D01*
X72133624Y-80722812D01*
X72099000Y-80548741D01*
X72099000Y-80371259D01*
X72133624Y-80197188D01*
X72201544Y-80033216D01*
X72300147Y-79885646D01*
X72425646Y-79760147D01*
X72573216Y-79661544D01*
X72737188Y-79593624D01*
X72886488Y-79563927D01*
X72911258Y-79559000D01*
X73088742Y-79559000D01*
X73113512Y-79563927D01*
G37*
G36*
X73901000Y-73901000D02*
G01*
X72099000Y-73901000D01*
X72099000Y-72099000D01*
X73901000Y-72099000D01*
X73901000Y-73901000D01*
G37*
G36*
X83113512Y-70883927D02*
G01*
X83262812Y-70913624D01*
X83426784Y-70981544D01*
X83574354Y-71080147D01*
X83699853Y-71205646D01*
X83798456Y-71353216D01*
X83866376Y-71517188D01*
X83901000Y-71691259D01*
X83901000Y-71868741D01*
X83866376Y-72042812D01*
X83798456Y-72206784D01*
X83699853Y-72354354D01*
X83574354Y-72479853D01*
X83426784Y-72578456D01*
X83262812Y-72646376D01*
X83113512Y-72676073D01*
X83088742Y-72681000D01*
X82911258Y-72681000D01*
X82886488Y-72676073D01*
X82737188Y-72646376D01*
X82573216Y-72578456D01*
X82425646Y-72479853D01*
X82300147Y-72354354D01*
X82201544Y-72206784D01*
X82133624Y-72042812D01*
X82099000Y-71868741D01*
X82099000Y-71691259D01*
X82133624Y-71517188D01*
X82201544Y-71353216D01*
X82300147Y-71205646D01*
X82425646Y-71080147D01*
X82573216Y-70981544D01*
X82737188Y-70913624D01*
X82886488Y-70883927D01*
X82911258Y-70879000D01*
X83088742Y-70879000D01*
X83113512Y-70883927D01*
G37*
G36*
X62851000Y-71851000D02*
G01*
X61149000Y-71851000D01*
X61149000Y-70149000D01*
X62851000Y-70149000D01*
X62851000Y-71851000D01*
G37*
G36*
X65748228Y-70181703D02*
G01*
X65903100Y-70245853D01*
X66042481Y-70338985D01*
X66161015Y-70457519D01*
X66254147Y-70596900D01*
X66318297Y-70751772D01*
X66351000Y-70916184D01*
X66351000Y-71083816D01*
X66318297Y-71248228D01*
X66254147Y-71403100D01*
X66161015Y-71542481D01*
X66042481Y-71661015D01*
X65903100Y-71754147D01*
X65748228Y-71818297D01*
X65583816Y-71851000D01*
X65416184Y-71851000D01*
X65251772Y-71818297D01*
X65096900Y-71754147D01*
X64957519Y-71661015D01*
X64838985Y-71542481D01*
X64745853Y-71403100D01*
X64681703Y-71248228D01*
X64649000Y-71083816D01*
X64649000Y-70916184D01*
X64681703Y-70751772D01*
X64745853Y-70596900D01*
X64838985Y-70457519D01*
X64957519Y-70338985D01*
X65096900Y-70245853D01*
X65251772Y-70181703D01*
X65416184Y-70149000D01*
X65583816Y-70149000D01*
X65748228Y-70181703D01*
G37*
G36*
X73113512Y-69563927D02*
G01*
X73262812Y-69593624D01*
X73426784Y-69661544D01*
X73574354Y-69760147D01*
X73699853Y-69885646D01*
X73798456Y-70033216D01*
X73866376Y-70197188D01*
X73901000Y-70371259D01*
X73901000Y-70548741D01*
X73866376Y-70722812D01*
X73798456Y-70886784D01*
X73699853Y-71034354D01*
X73574354Y-71159853D01*
X73426784Y-71258456D01*
X73262812Y-71326376D01*
X73113512Y-71356073D01*
X73088742Y-71361000D01*
X72911258Y-71361000D01*
X72886488Y-71356073D01*
X72737188Y-71326376D01*
X72573216Y-71258456D01*
X72425646Y-71159853D01*
X72300147Y-71034354D01*
X72201544Y-70886784D01*
X72133624Y-70722812D01*
X72099000Y-70548741D01*
X72099000Y-70371259D01*
X72133624Y-70197188D01*
X72201544Y-70033216D01*
X72300147Y-69885646D01*
X72425646Y-69760147D01*
X72573216Y-69661544D01*
X72737188Y-69593624D01*
X72886488Y-69563927D01*
X72911258Y-69559000D01*
X73088742Y-69559000D01*
X73113512Y-69563927D01*
G37*
G36*
X83113512Y-68343927D02*
G01*
X83262812Y-68373624D01*
X83426784Y-68441544D01*
X83574354Y-68540147D01*
X83699853Y-68665646D01*
X83798456Y-68813216D01*
X83866376Y-68977188D01*
X83901000Y-69151259D01*
X83901000Y-69328741D01*
X83866376Y-69502812D01*
X83798456Y-69666784D01*
X83699853Y-69814354D01*
X83574354Y-69939853D01*
X83426784Y-70038456D01*
X83262812Y-70106376D01*
X83113512Y-70136073D01*
X83088742Y-70141000D01*
X82911258Y-70141000D01*
X82886488Y-70136073D01*
X82737188Y-70106376D01*
X82573216Y-70038456D01*
X82425646Y-69939853D01*
X82300147Y-69814354D01*
X82201544Y-69666784D01*
X82133624Y-69502812D01*
X82099000Y-69328741D01*
X82099000Y-69151259D01*
X82133624Y-68977188D01*
X82201544Y-68813216D01*
X82300147Y-68665646D01*
X82425646Y-68540147D01*
X82573216Y-68441544D01*
X82737188Y-68373624D01*
X82886488Y-68343927D01*
X82911258Y-68339000D01*
X83088742Y-68339000D01*
X83113512Y-68343927D01*
G37*
G36*
X83113512Y-65803927D02*
G01*
X83262812Y-65833624D01*
X83426784Y-65901544D01*
X83574354Y-66000147D01*
X83699853Y-66125646D01*
X83798456Y-66273216D01*
X83866376Y-66437188D01*
X83901000Y-66611259D01*
X83901000Y-66788741D01*
X83866376Y-66962812D01*
X83798456Y-67126784D01*
X83699853Y-67274354D01*
X83574354Y-67399853D01*
X83426784Y-67498456D01*
X83262812Y-67566376D01*
X83113512Y-67596073D01*
X83088742Y-67601000D01*
X82911258Y-67601000D01*
X82886488Y-67596073D01*
X82737188Y-67566376D01*
X82573216Y-67498456D01*
X82425646Y-67399853D01*
X82300147Y-67274354D01*
X82201544Y-67126784D01*
X82133624Y-66962812D01*
X82099000Y-66788741D01*
X82099000Y-66611259D01*
X82133624Y-66437188D01*
X82201544Y-66273216D01*
X82300147Y-66125646D01*
X82425646Y-66000147D01*
X82573216Y-65901544D01*
X82737188Y-65833624D01*
X82886488Y-65803927D01*
X82911258Y-65799000D01*
X83088742Y-65799000D01*
X83113512Y-65803927D01*
G37*
G36*
X83113512Y-63263927D02*
G01*
X83262812Y-63293624D01*
X83426784Y-63361544D01*
X83574354Y-63460147D01*
X83699853Y-63585646D01*
X83798456Y-63733216D01*
X83866376Y-63897188D01*
X83901000Y-64071259D01*
X83901000Y-64248741D01*
X83866376Y-64422812D01*
X83798456Y-64586784D01*
X83699853Y-64734354D01*
X83574354Y-64859853D01*
X83426784Y-64958456D01*
X83262812Y-65026376D01*
X83113512Y-65056073D01*
X83088742Y-65061000D01*
X82911258Y-65061000D01*
X82886488Y-65056073D01*
X82737188Y-65026376D01*
X82573216Y-64958456D01*
X82425646Y-64859853D01*
X82300147Y-64734354D01*
X82201544Y-64586784D01*
X82133624Y-64422812D01*
X82099000Y-64248741D01*
X82099000Y-64071259D01*
X82133624Y-63897188D01*
X82201544Y-63733216D01*
X82300147Y-63585646D01*
X82425646Y-63460147D01*
X82573216Y-63361544D01*
X82737188Y-63293624D01*
X82886488Y-63263927D01*
X82911258Y-63259000D01*
X83088742Y-63259000D01*
X83113512Y-63263927D01*
G37*
G36*
X83113512Y-60723927D02*
G01*
X83262812Y-60753624D01*
X83426784Y-60821544D01*
X83574354Y-60920147D01*
X83699853Y-61045646D01*
X83798456Y-61193216D01*
X83866376Y-61357188D01*
X83901000Y-61531259D01*
X83901000Y-61708741D01*
X83866376Y-61882812D01*
X83798456Y-62046784D01*
X83699853Y-62194354D01*
X83574354Y-62319853D01*
X83426784Y-62418456D01*
X83262812Y-62486376D01*
X83113512Y-62516073D01*
X83088742Y-62521000D01*
X82911258Y-62521000D01*
X82886488Y-62516073D01*
X82737188Y-62486376D01*
X82573216Y-62418456D01*
X82425646Y-62319853D01*
X82300147Y-62194354D01*
X82201544Y-62046784D01*
X82133624Y-61882812D01*
X82099000Y-61708741D01*
X82099000Y-61531259D01*
X82133624Y-61357188D01*
X82201544Y-61193216D01*
X82300147Y-61045646D01*
X82425646Y-60920147D01*
X82573216Y-60821544D01*
X82737188Y-60753624D01*
X82886488Y-60723927D01*
X82911258Y-60719000D01*
X83088742Y-60719000D01*
X83113512Y-60723927D01*
G37*
G36*
X83113512Y-58183927D02*
G01*
X83262812Y-58213624D01*
X83426784Y-58281544D01*
X83574354Y-58380147D01*
X83699853Y-58505646D01*
X83798456Y-58653216D01*
X83866376Y-58817188D01*
X83901000Y-58991259D01*
X83901000Y-59168741D01*
X83866376Y-59342812D01*
X83798456Y-59506784D01*
X83699853Y-59654354D01*
X83574354Y-59779853D01*
X83426784Y-59878456D01*
X83262812Y-59946376D01*
X83113512Y-59976073D01*
X83088742Y-59981000D01*
X82911258Y-59981000D01*
X82886488Y-59976073D01*
X82737188Y-59946376D01*
X82573216Y-59878456D01*
X82425646Y-59779853D01*
X82300147Y-59654354D01*
X82201544Y-59506784D01*
X82133624Y-59342812D01*
X82099000Y-59168741D01*
X82099000Y-58991259D01*
X82133624Y-58817188D01*
X82201544Y-58653216D01*
X82300147Y-58505646D01*
X82425646Y-58380147D01*
X82573216Y-58281544D01*
X82737188Y-58213624D01*
X82886488Y-58183927D01*
X82911258Y-58179000D01*
X83088742Y-58179000D01*
X83113512Y-58183927D01*
G37*
G36*
X55398254Y-55027818D02*
G01*
X55771511Y-55182426D01*
X55771513Y-55182427D01*
X56107436Y-55406884D01*
X56393116Y-55692564D01*
X56575585Y-55965647D01*
X56617574Y-56028489D01*
X56772182Y-56401746D01*
X56851000Y-56797993D01*
X56851000Y-57202007D01*
X56772182Y-57598254D01*
X56617574Y-57971511D01*
X56617573Y-57971513D01*
X56393116Y-58307436D01*
X56107436Y-58593116D01*
X55771513Y-58817573D01*
X55771512Y-58817574D01*
X55771511Y-58817574D01*
X55398254Y-58972182D01*
X55002007Y-59051000D01*
X54597993Y-59051000D01*
X54201746Y-58972182D01*
X53828489Y-58817574D01*
X53828488Y-58817574D01*
X53828487Y-58817573D01*
X53492564Y-58593116D01*
X53206884Y-58307436D01*
X52982427Y-57971513D01*
X52982426Y-57971511D01*
X52827818Y-57598254D01*
X52749000Y-57202007D01*
X52749000Y-56797993D01*
X52827818Y-56401746D01*
X52982426Y-56028489D01*
X53024416Y-55965647D01*
X53206884Y-55692564D01*
X53492564Y-55406884D01*
X53828487Y-55182427D01*
X53828489Y-55182426D01*
X54201746Y-55027818D01*
X54597993Y-54949000D01*
X55002007Y-54949000D01*
X55398254Y-55027818D01*
G37*
G36*
X60598254Y-55027818D02*
G01*
X60971511Y-55182426D01*
X60971513Y-55182427D01*
X61307436Y-55406884D01*
X61593116Y-55692564D01*
X61775585Y-55965647D01*
X61817574Y-56028489D01*
X61972182Y-56401746D01*
X62051000Y-56797993D01*
X62051000Y-57202007D01*
X61972182Y-57598254D01*
X61817574Y-57971511D01*
X61817573Y-57971513D01*
X61593116Y-58307436D01*
X61307436Y-58593116D01*
X60971513Y-58817573D01*
X60971512Y-58817574D01*
X60971511Y-58817574D01*
X60598254Y-58972182D01*
X60202007Y-59051000D01*
X59797993Y-59051000D01*
X59401746Y-58972182D01*
X59028489Y-58817574D01*
X59028488Y-58817574D01*
X59028487Y-58817573D01*
X58692564Y-58593116D01*
X58406884Y-58307436D01*
X58182427Y-57971513D01*
X58182426Y-57971511D01*
X58027818Y-57598254D01*
X57949000Y-57202007D01*
X57949000Y-56797993D01*
X58027818Y-56401746D01*
X58182426Y-56028489D01*
X58224416Y-55965647D01*
X58406884Y-55692564D01*
X58692564Y-55406884D01*
X59028487Y-55182427D01*
X59028489Y-55182426D01*
X59401746Y-55027818D01*
X59797993Y-54949000D01*
X60202007Y-54949000D01*
X60598254Y-55027818D01*
G37*
G36*
X40598254Y-55027818D02*
G01*
X40971511Y-55182426D01*
X40971513Y-55182427D01*
X41307436Y-55406884D01*
X41593116Y-55692564D01*
X41775585Y-55965647D01*
X41817574Y-56028489D01*
X41972182Y-56401746D01*
X42051000Y-56797993D01*
X42051000Y-57202007D01*
X41972182Y-57598254D01*
X41817574Y-57971511D01*
X41817573Y-57971513D01*
X41593116Y-58307436D01*
X41307436Y-58593116D01*
X40971513Y-58817573D01*
X40971512Y-58817574D01*
X40971511Y-58817574D01*
X40598254Y-58972182D01*
X40202007Y-59051000D01*
X39797993Y-59051000D01*
X39401746Y-58972182D01*
X39028489Y-58817574D01*
X39028488Y-58817574D01*
X39028487Y-58817573D01*
X38692564Y-58593116D01*
X38406884Y-58307436D01*
X38182427Y-57971513D01*
X38182426Y-57971511D01*
X38027818Y-57598254D01*
X37949000Y-57202007D01*
X37949000Y-56797993D01*
X38027818Y-56401746D01*
X38182426Y-56028489D01*
X38224416Y-55965647D01*
X38406884Y-55692564D01*
X38692564Y-55406884D01*
X39028487Y-55182427D01*
X39028489Y-55182426D01*
X39401746Y-55027818D01*
X39797993Y-54949000D01*
X40202007Y-54949000D01*
X40598254Y-55027818D01*
G37*
G36*
X45798254Y-55027818D02*
G01*
X46171511Y-55182426D01*
X46171513Y-55182427D01*
X46507436Y-55406884D01*
X46793116Y-55692564D01*
X46975585Y-55965647D01*
X47017574Y-56028489D01*
X47172182Y-56401746D01*
X47251000Y-56797993D01*
X47251000Y-57202007D01*
X47172182Y-57598254D01*
X47017574Y-57971511D01*
X47017573Y-57971513D01*
X46793116Y-58307436D01*
X46507436Y-58593116D01*
X46171513Y-58817573D01*
X46171512Y-58817574D01*
X46171511Y-58817574D01*
X45798254Y-58972182D01*
X45402007Y-59051000D01*
X44997993Y-59051000D01*
X44601746Y-58972182D01*
X44228489Y-58817574D01*
X44228488Y-58817574D01*
X44228487Y-58817573D01*
X43892564Y-58593116D01*
X43606884Y-58307436D01*
X43382427Y-57971513D01*
X43382426Y-57971511D01*
X43227818Y-57598254D01*
X43149000Y-57202007D01*
X43149000Y-56797993D01*
X43227818Y-56401746D01*
X43382426Y-56028489D01*
X43424416Y-55965647D01*
X43606884Y-55692564D01*
X43892564Y-55406884D01*
X44228487Y-55182427D01*
X44228489Y-55182426D01*
X44601746Y-55027818D01*
X44997993Y-54949000D01*
X45402007Y-54949000D01*
X45798254Y-55027818D01*
G37*
G36*
X83113512Y-55643927D02*
G01*
X83262812Y-55673624D01*
X83426784Y-55741544D01*
X83574354Y-55840147D01*
X83699853Y-55965646D01*
X83798456Y-56113216D01*
X83866376Y-56277188D01*
X83901000Y-56451259D01*
X83901000Y-56628741D01*
X83866376Y-56802812D01*
X83798456Y-56966784D01*
X83699853Y-57114354D01*
X83574354Y-57239853D01*
X83426784Y-57338456D01*
X83262812Y-57406376D01*
X83113512Y-57436073D01*
X83088742Y-57441000D01*
X82911258Y-57441000D01*
X82886488Y-57436073D01*
X82737188Y-57406376D01*
X82573216Y-57338456D01*
X82425646Y-57239853D01*
X82300147Y-57114354D01*
X82201544Y-56966784D01*
X82133624Y-56802812D01*
X82099000Y-56628741D01*
X82099000Y-56451259D01*
X82133624Y-56277188D01*
X82201544Y-56113216D01*
X82300147Y-55965646D01*
X82425646Y-55840147D01*
X82573216Y-55741544D01*
X82737188Y-55673624D01*
X82886488Y-55643927D01*
X82911258Y-55639000D01*
X83088742Y-55639000D01*
X83113512Y-55643927D01*
G37*
G36*
X83901000Y-54901000D02*
G01*
X82099000Y-54901000D01*
X82099000Y-53099000D01*
X83901000Y-53099000D01*
X83901000Y-54901000D01*
G37*
G36*
X55652585Y-45828802D02*
G01*
X55802410Y-45858604D01*
X56084674Y-45975521D01*
X56338705Y-46145259D01*
X56554741Y-46361295D01*
X56724479Y-46615326D01*
X56841396Y-46897590D01*
X56841396Y-46897591D01*
X56901000Y-47197239D01*
X56901000Y-47502761D01*
X56871198Y-47652585D01*
X56841396Y-47802410D01*
X56724479Y-48084674D01*
X56554741Y-48338705D01*
X56338705Y-48554741D01*
X56084674Y-48724479D01*
X55802410Y-48841396D01*
X55652585Y-48871198D01*
X55502761Y-48901000D01*
X55197239Y-48901000D01*
X55047415Y-48871198D01*
X54897590Y-48841396D01*
X54615326Y-48724479D01*
X54361295Y-48554741D01*
X54145259Y-48338705D01*
X53975521Y-48084674D01*
X53858604Y-47802410D01*
X53828802Y-47652585D01*
X53799000Y-47502761D01*
X53799000Y-47197239D01*
X53858604Y-46897591D01*
X53858604Y-46897590D01*
X53975521Y-46615326D01*
X54145259Y-46361295D01*
X54361295Y-46145259D01*
X54615326Y-45975521D01*
X54897590Y-45858604D01*
X55047415Y-45828802D01*
X55197239Y-45799000D01*
X55502761Y-45799000D01*
X55652585Y-45828802D01*
G37*
G36*
X42952585Y-45828802D02*
G01*
X43102410Y-45858604D01*
X43384674Y-45975521D01*
X43638705Y-46145259D01*
X43854741Y-46361295D01*
X44024479Y-46615326D01*
X44141396Y-46897590D01*
X44141396Y-46897591D01*
X44201000Y-47197239D01*
X44201000Y-47502761D01*
X44171198Y-47652585D01*
X44141396Y-47802410D01*
X44024479Y-48084674D01*
X43854741Y-48338705D01*
X43638705Y-48554741D01*
X43384674Y-48724479D01*
X43102410Y-48841396D01*
X42952585Y-48871198D01*
X42802761Y-48901000D01*
X42497239Y-48901000D01*
X42347415Y-48871198D01*
X42197590Y-48841396D01*
X41915326Y-48724479D01*
X41661295Y-48554741D01*
X41445259Y-48338705D01*
X41275521Y-48084674D01*
X41158604Y-47802410D01*
X41128802Y-47652585D01*
X41099000Y-47502761D01*
X41099000Y-47197239D01*
X41158604Y-46897591D01*
X41158604Y-46897590D01*
X41275521Y-46615326D01*
X41445259Y-46361295D01*
X41661295Y-46145259D01*
X41915326Y-45975521D01*
X42197590Y-45858604D01*
X42347415Y-45828802D01*
X42497239Y-45799000D01*
X42802761Y-45799000D01*
X42952585Y-45828802D01*
G37*
G36*
X31379487Y-45748996D02*
G01*
X31616253Y-45847068D01*
X31616255Y-45847069D01*
X31633518Y-45858604D01*
X31829339Y-45989447D01*
X32010553Y-46170661D01*
X32152932Y-46383747D01*
X32251004Y-46620513D01*
X32301000Y-46871861D01*
X32301000Y-47128139D01*
X32251004Y-47379487D01*
X32199942Y-47502760D01*
X32152931Y-47616255D01*
X32010553Y-47829339D01*
X31829339Y-48010553D01*
X31616255Y-48152931D01*
X31616254Y-48152932D01*
X31616253Y-48152932D01*
X31379487Y-48251004D01*
X31128139Y-48301000D01*
X30871861Y-48301000D01*
X30620513Y-48251004D01*
X30383747Y-48152932D01*
X30383746Y-48152932D01*
X30383745Y-48152931D01*
X30170661Y-48010553D01*
X29989447Y-47829339D01*
X29847069Y-47616255D01*
X29800058Y-47502760D01*
X29748996Y-47379487D01*
X29699000Y-47128139D01*
X29699000Y-46871861D01*
X29748996Y-46620513D01*
X29847068Y-46383747D01*
X29989447Y-46170661D01*
X30170661Y-45989447D01*
X30366482Y-45858604D01*
X30383745Y-45847069D01*
X30383747Y-45847068D01*
X30620513Y-45748996D01*
X30871861Y-45699000D01*
X31128139Y-45699000D01*
X31379487Y-45748996D01*
G37*
G36*
X31379487Y-40748996D02*
G01*
X31616253Y-40847068D01*
X31616255Y-40847069D01*
X31829339Y-40989447D01*
X32010553Y-41170661D01*
X32152932Y-41383747D01*
X32251004Y-41620513D01*
X32301000Y-41871861D01*
X32301000Y-42128139D01*
X32251004Y-42379487D01*
X32152932Y-42616253D01*
X32152931Y-42616255D01*
X32010553Y-42829339D01*
X31829339Y-43010553D01*
X31616255Y-43152931D01*
X31616254Y-43152932D01*
X31616253Y-43152932D01*
X31379487Y-43251004D01*
X31128139Y-43301000D01*
X30871861Y-43301000D01*
X30620513Y-43251004D01*
X30383747Y-43152932D01*
X30383746Y-43152932D01*
X30383745Y-43152931D01*
X30170661Y-43010553D01*
X29989447Y-42829339D01*
X29847069Y-42616255D01*
X29847068Y-42616253D01*
X29748996Y-42379487D01*
X29699000Y-42128139D01*
X29699000Y-41871861D01*
X29748996Y-41620513D01*
X29847068Y-41383747D01*
X29989447Y-41170661D01*
X30170661Y-40989447D01*
X30383745Y-40847069D01*
X30383747Y-40847068D01*
X30620513Y-40748996D01*
X30871861Y-40699000D01*
X31128139Y-40699000D01*
X31379487Y-40748996D01*
G37*
G36*
X107598254Y-36027818D02*
G01*
X107971511Y-36182426D01*
X107971513Y-36182427D01*
X108307436Y-36406884D01*
X108593116Y-36692564D01*
X108712919Y-36871861D01*
X108817574Y-37028489D01*
X108972182Y-37401746D01*
X109051000Y-37797993D01*
X109051000Y-38202007D01*
X108972182Y-38598254D01*
X108817574Y-38971511D01*
X108817573Y-38971513D01*
X108593116Y-39307436D01*
X108307436Y-39593116D01*
X107971513Y-39817573D01*
X107971512Y-39817574D01*
X107971511Y-39817574D01*
X107598254Y-39972182D01*
X107202007Y-40051000D01*
X106797993Y-40051000D01*
X106401746Y-39972182D01*
X106028489Y-39817574D01*
X106028488Y-39817574D01*
X106028487Y-39817573D01*
X105692564Y-39593116D01*
X105406884Y-39307436D01*
X105182427Y-38971513D01*
X105182426Y-38971511D01*
X105027818Y-38598254D01*
X104949000Y-38202007D01*
X104949000Y-37797993D01*
X105027818Y-37401746D01*
X105182426Y-37028489D01*
X105287082Y-36871861D01*
X105406884Y-36692564D01*
X105692564Y-36406884D01*
X106028487Y-36182427D01*
X106028489Y-36182426D01*
X106401746Y-36027818D01*
X106797993Y-35949000D01*
X107202007Y-35949000D01*
X107598254Y-36027818D01*
G37*
G36*
X81051000Y-40051000D02*
G01*
X76949000Y-40051000D01*
X76949000Y-35949000D01*
X81051000Y-35949000D01*
X81051000Y-40051000D01*
G37*
G36*
X31379487Y-35748996D02*
G01*
X31616253Y-35847068D01*
X31616255Y-35847069D01*
X31768806Y-35949000D01*
X31829339Y-35989447D01*
X32010553Y-36170661D01*
X32152932Y-36383747D01*
X32251004Y-36620513D01*
X32301000Y-36871861D01*
X32301000Y-37128139D01*
X32251004Y-37379487D01*
X32152932Y-37616253D01*
X32152931Y-37616255D01*
X32010553Y-37829339D01*
X31829339Y-38010553D01*
X31616255Y-38152931D01*
X31616254Y-38152932D01*
X31616253Y-38152932D01*
X31379487Y-38251004D01*
X31128139Y-38301000D01*
X30871861Y-38301000D01*
X30620513Y-38251004D01*
X30383747Y-38152932D01*
X30383746Y-38152932D01*
X30383745Y-38152931D01*
X30170661Y-38010553D01*
X29989447Y-37829339D01*
X29847069Y-37616255D01*
X29847068Y-37616253D01*
X29748996Y-37379487D01*
X29699000Y-37128139D01*
X29699000Y-36871861D01*
X29748996Y-36620513D01*
X29847068Y-36383747D01*
X29989447Y-36170661D01*
X30170661Y-35989447D01*
X30231194Y-35949000D01*
X30383745Y-35847069D01*
X30383747Y-35847068D01*
X30620513Y-35748996D01*
X30871861Y-35699000D01*
X31128139Y-35699000D01*
X31379487Y-35748996D01*
G37*
G36*
X55652585Y-33128802D02*
G01*
X55802410Y-33158604D01*
X56084674Y-33275521D01*
X56338705Y-33445259D01*
X56554741Y-33661295D01*
X56724479Y-33915326D01*
X56841396Y-34197590D01*
X56901000Y-34497240D01*
X56901000Y-34802760D01*
X56841396Y-35102410D01*
X56724479Y-35384674D01*
X56554741Y-35638705D01*
X56338705Y-35854741D01*
X56084674Y-36024479D01*
X55802410Y-36141396D01*
X55655285Y-36170661D01*
X55502761Y-36201000D01*
X55197239Y-36201000D01*
X55044715Y-36170661D01*
X54897590Y-36141396D01*
X54615326Y-36024479D01*
X54361295Y-35854741D01*
X54145259Y-35638705D01*
X53975521Y-35384674D01*
X53858604Y-35102410D01*
X53799000Y-34802760D01*
X53799000Y-34497240D01*
X53858604Y-34197590D01*
X53975521Y-33915326D01*
X54145259Y-33661295D01*
X54361295Y-33445259D01*
X54615326Y-33275521D01*
X54897590Y-33158604D01*
X55047415Y-33128802D01*
X55197239Y-33099000D01*
X55502761Y-33099000D01*
X55652585Y-33128802D01*
G37*
G36*
X42952585Y-33128802D02*
G01*
X43102410Y-33158604D01*
X43384674Y-33275521D01*
X43638705Y-33445259D01*
X43854741Y-33661295D01*
X44024479Y-33915326D01*
X44141396Y-34197590D01*
X44201000Y-34497240D01*
X44201000Y-34802760D01*
X44141396Y-35102410D01*
X44024479Y-35384674D01*
X43854741Y-35638705D01*
X43638705Y-35854741D01*
X43384674Y-36024479D01*
X43102410Y-36141396D01*
X42955285Y-36170661D01*
X42802761Y-36201000D01*
X42497239Y-36201000D01*
X42344715Y-36170661D01*
X42197590Y-36141396D01*
X41915326Y-36024479D01*
X41661295Y-35854741D01*
X41445259Y-35638705D01*
X41275521Y-35384674D01*
X41158604Y-35102410D01*
X41099000Y-34802760D01*
X41099000Y-34497240D01*
X41158604Y-34197590D01*
X41275521Y-33915326D01*
X41445259Y-33661295D01*
X41661295Y-33445259D01*
X41915326Y-33275521D01*
X42197590Y-33158604D01*
X42347415Y-33128802D01*
X42497239Y-33099000D01*
X42802761Y-33099000D01*
X42952585Y-33128802D01*
G37*
G36*
X79598254Y-26027818D02*
G01*
X79971511Y-26182426D01*
X79971513Y-26182427D01*
X80307436Y-26406884D01*
X80593116Y-26692564D01*
X80676645Y-26817573D01*
X80817574Y-27028489D01*
X80972182Y-27401746D01*
X81051000Y-27797993D01*
X81051000Y-28202007D01*
X80972182Y-28598254D01*
X80817574Y-28971511D01*
X80817573Y-28971513D01*
X80593116Y-29307436D01*
X80307436Y-29593116D01*
X79971513Y-29817573D01*
X79971512Y-29817574D01*
X79971511Y-29817574D01*
X79598254Y-29972182D01*
X79202007Y-30051000D01*
X78797993Y-30051000D01*
X78401746Y-29972182D01*
X78028489Y-29817574D01*
X78028488Y-29817574D01*
X78028487Y-29817573D01*
X77692564Y-29593116D01*
X77406884Y-29307436D01*
X77182427Y-28971513D01*
X77182426Y-28971511D01*
X77027818Y-28598254D01*
X76949000Y-28202007D01*
X76949000Y-27797993D01*
X77027818Y-27401746D01*
X77182426Y-27028489D01*
X77323356Y-26817573D01*
X77406884Y-26692564D01*
X77692564Y-26406884D01*
X78028487Y-26182427D01*
X78028489Y-26182426D01*
X78401746Y-26027818D01*
X78797993Y-25949000D01*
X79202007Y-25949000D01*
X79598254Y-26027818D01*
G37*
G36*
X109051000Y-30051000D02*
G01*
X104949000Y-30051000D01*
X104949000Y-25949000D01*
X109051000Y-25949000D01*
X109051000Y-30051000D01*
G37*
G36*
X40598254Y-23027818D02*
G01*
X40971511Y-23182426D01*
X40971513Y-23182427D01*
X41307436Y-23406884D01*
X41593116Y-23692564D01*
X41817574Y-24028489D01*
X41972182Y-24401746D01*
X42051000Y-24797993D01*
X42051000Y-25202007D01*
X41972182Y-25598254D01*
X41826898Y-25949000D01*
X41817573Y-25971513D01*
X41593116Y-26307436D01*
X41307436Y-26593116D01*
X40971513Y-26817573D01*
X40971512Y-26817574D01*
X40971511Y-26817574D01*
X40598254Y-26972182D01*
X40202007Y-27051000D01*
X39797993Y-27051000D01*
X39401746Y-26972182D01*
X39028489Y-26817574D01*
X39028488Y-26817574D01*
X39028487Y-26817573D01*
X38692564Y-26593116D01*
X38406884Y-26307436D01*
X38182427Y-25971513D01*
X38173102Y-25949000D01*
X38027818Y-25598254D01*
X37949000Y-25202007D01*
X37949000Y-24797993D01*
X38027818Y-24401746D01*
X38182426Y-24028489D01*
X38406884Y-23692564D01*
X38692564Y-23406884D01*
X39028487Y-23182427D01*
X39028489Y-23182426D01*
X39401746Y-23027818D01*
X39797993Y-22949000D01*
X40202007Y-22949000D01*
X40598254Y-23027818D01*
G37*
G36*
X60598254Y-23027818D02*
G01*
X60971511Y-23182426D01*
X60971513Y-23182427D01*
X61307436Y-23406884D01*
X61593116Y-23692564D01*
X61817574Y-24028489D01*
X61972182Y-24401746D01*
X62051000Y-24797993D01*
X62051000Y-25202007D01*
X61972182Y-25598254D01*
X61826898Y-25949000D01*
X61817573Y-25971513D01*
X61593116Y-26307436D01*
X61307436Y-26593116D01*
X60971513Y-26817573D01*
X60971512Y-26817574D01*
X60971511Y-26817574D01*
X60598254Y-26972182D01*
X60202007Y-27051000D01*
X59797993Y-27051000D01*
X59401746Y-26972182D01*
X59028489Y-26817574D01*
X59028488Y-26817574D01*
X59028487Y-26817573D01*
X58692564Y-26593116D01*
X58406884Y-26307436D01*
X58182427Y-25971513D01*
X58173102Y-25949000D01*
X58027818Y-25598254D01*
X57949000Y-25202007D01*
X57949000Y-24797993D01*
X58027818Y-24401746D01*
X58182426Y-24028489D01*
X58406884Y-23692564D01*
X58692564Y-23406884D01*
X59028487Y-23182427D01*
X59028489Y-23182426D01*
X59401746Y-23027818D01*
X59797993Y-22949000D01*
X60202007Y-22949000D01*
X60598254Y-23027818D01*
G37*
G36*
X55398254Y-23027818D02*
G01*
X55771511Y-23182426D01*
X55771513Y-23182427D01*
X56107436Y-23406884D01*
X56393116Y-23692564D01*
X56617574Y-24028489D01*
X56772182Y-24401746D01*
X56851000Y-24797993D01*
X56851000Y-25202007D01*
X56772182Y-25598254D01*
X56626898Y-25949000D01*
X56617573Y-25971513D01*
X56393116Y-26307436D01*
X56107436Y-26593116D01*
X55771513Y-26817573D01*
X55771512Y-26817574D01*
X55771511Y-26817574D01*
X55398254Y-26972182D01*
X55002007Y-27051000D01*
X54597993Y-27051000D01*
X54201746Y-26972182D01*
X53828489Y-26817574D01*
X53828488Y-26817574D01*
X53828487Y-26817573D01*
X53492564Y-26593116D01*
X53206884Y-26307436D01*
X52982427Y-25971513D01*
X52973102Y-25949000D01*
X52827818Y-25598254D01*
X52749000Y-25202007D01*
X52749000Y-24797993D01*
X52827818Y-24401746D01*
X52982426Y-24028489D01*
X53206884Y-23692564D01*
X53492564Y-23406884D01*
X53828487Y-23182427D01*
X53828489Y-23182426D01*
X54201746Y-23027818D01*
X54597993Y-22949000D01*
X55002007Y-22949000D01*
X55398254Y-23027818D01*
G37*
G36*
X45798254Y-23027818D02*
G01*
X46171511Y-23182426D01*
X46171513Y-23182427D01*
X46507436Y-23406884D01*
X46793116Y-23692564D01*
X47017574Y-24028489D01*
X47172182Y-24401746D01*
X47251000Y-24797993D01*
X47251000Y-25202007D01*
X47172182Y-25598254D01*
X47026898Y-25949000D01*
X47017573Y-25971513D01*
X46793116Y-26307436D01*
X46507436Y-26593116D01*
X46171513Y-26817573D01*
X46171512Y-26817574D01*
X46171511Y-26817574D01*
X45798254Y-26972182D01*
X45402007Y-27051000D01*
X44997993Y-27051000D01*
X44601746Y-26972182D01*
X44228489Y-26817574D01*
X44228488Y-26817574D01*
X44228487Y-26817573D01*
X43892564Y-26593116D01*
X43606884Y-26307436D01*
X43382427Y-25971513D01*
X43373102Y-25949000D01*
X43227818Y-25598254D01*
X43149000Y-25202007D01*
X43149000Y-24797993D01*
X43227818Y-24401746D01*
X43382426Y-24028489D01*
X43606884Y-23692564D01*
X43892564Y-23406884D01*
X44228487Y-23182427D01*
X44228489Y-23182426D01*
X44601746Y-23027818D01*
X44997993Y-22949000D01*
X45402007Y-22949000D01*
X45798254Y-23027818D01*
G37*
G36*
X121375256Y-22391298D02*
G01*
X121481579Y-22412447D01*
X121782042Y-22536903D01*
X122052451Y-22717585D01*
X122282415Y-22947549D01*
X122463097Y-23217958D01*
X122587553Y-23518421D01*
X122651000Y-23837391D01*
X122651000Y-24162609D01*
X122587553Y-24481579D01*
X122463097Y-24782042D01*
X122282415Y-25052451D01*
X122052451Y-25282415D01*
X121782042Y-25463097D01*
X121481579Y-25587553D01*
X121427781Y-25598254D01*
X121162611Y-25651000D01*
X120837389Y-25651000D01*
X120572219Y-25598254D01*
X120518421Y-25587553D01*
X120217958Y-25463097D01*
X119947549Y-25282415D01*
X119717585Y-25052451D01*
X119536903Y-24782042D01*
X119412447Y-24481579D01*
X119349000Y-24162609D01*
X119349000Y-23837391D01*
X119412447Y-23518421D01*
X119536903Y-23217958D01*
X119717585Y-22947549D01*
X119947549Y-22717585D01*
X120217958Y-22536903D01*
X120518421Y-22412447D01*
X120624744Y-22391298D01*
X120837389Y-22349000D01*
X121162611Y-22349000D01*
X121375256Y-22391298D01*
G37*
G36*
X29375256Y-22391298D02*
G01*
X29481579Y-22412447D01*
X29782042Y-22536903D01*
X30052451Y-22717585D01*
X30282415Y-22947549D01*
X30463097Y-23217958D01*
X30587553Y-23518421D01*
X30651000Y-23837391D01*
X30651000Y-24162609D01*
X30587553Y-24481579D01*
X30463097Y-24782042D01*
X30282415Y-25052451D01*
X30052451Y-25282415D01*
X29782042Y-25463097D01*
X29481579Y-25587553D01*
X29427781Y-25598254D01*
X29162611Y-25651000D01*
X28837389Y-25651000D01*
X28572219Y-25598254D01*
X28518421Y-25587553D01*
X28217958Y-25463097D01*
X27947549Y-25282415D01*
X27717585Y-25052451D01*
X27536903Y-24782042D01*
X27412447Y-24481579D01*
X27349000Y-24162609D01*
X27349000Y-23837391D01*
X27412447Y-23518421D01*
X27536903Y-23217958D01*
X27717585Y-22947549D01*
X27947549Y-22717585D01*
X28217958Y-22536903D01*
X28518421Y-22412447D01*
X28624744Y-22391298D01*
X28837389Y-22349000D01*
X29162611Y-22349000D01*
X29375256Y-22391298D01*
G37*
M02*
