G04 #@! TF.GenerationSoftware,KiCad,Pcbnew,5.1.5-52549c5~84~ubuntu18.04.1*
G04 #@! TF.CreationDate,2020-03-25T21:31:25-04:00*
G04 #@! TF.ProjectId,control,636f6e74-726f-46c2-9e6b-696361645f70,rev?*
G04 #@! TF.SameCoordinates,Original*
G04 #@! TF.FileFunction,Legend,Top*
G04 #@! TF.FilePolarity,Positive*
%FSLAX46Y46*%
G04 Gerber Fmt 4.6, Leading zero omitted, Abs format (unit mm)*
G04 Created by KiCad (PCBNEW 5.1.5-52549c5~84~ubuntu18.04.1) date 2020-03-25 21:31:25*
%MOMM*%
%LPD*%
G04 APERTURE LIST*
%ADD10C,0.150000*%
%ADD11C,0.120000*%
G04 APERTURE END LIST*
D10*
X90333333Y-21452380D02*
X90333333Y-20785714D01*
X90333333Y-20880952D02*
X90380952Y-20833333D01*
X90476190Y-20785714D01*
X90619047Y-20785714D01*
X90714285Y-20833333D01*
X90761904Y-20928571D01*
X90761904Y-21452380D01*
X90761904Y-20928571D02*
X90809523Y-20833333D01*
X90904761Y-20785714D01*
X91047619Y-20785714D01*
X91142857Y-20833333D01*
X91190476Y-20928571D01*
X91190476Y-21452380D01*
X92095238Y-20785714D02*
X92095238Y-21452380D01*
X91666666Y-20785714D02*
X91666666Y-21309523D01*
X91714285Y-21404761D01*
X91809523Y-21452380D01*
X91952380Y-21452380D01*
X92047619Y-21404761D01*
X92095238Y-21357142D01*
X92428571Y-20785714D02*
X92809523Y-20785714D01*
X92571428Y-20452380D02*
X92571428Y-21309523D01*
X92619047Y-21404761D01*
X92714285Y-21452380D01*
X92809523Y-21452380D01*
X93523809Y-21404761D02*
X93428571Y-21452380D01*
X93238095Y-21452380D01*
X93142857Y-21404761D01*
X93095238Y-21309523D01*
X93095238Y-20928571D01*
X93142857Y-20833333D01*
X93238095Y-20785714D01*
X93428571Y-20785714D01*
X93523809Y-20833333D01*
X93571428Y-20928571D01*
X93571428Y-21023809D01*
X93095238Y-21119047D01*
X94714285Y-20404761D02*
X93857142Y-21690476D01*
X95476190Y-21452380D02*
X95476190Y-20452380D01*
X95476190Y-21404761D02*
X95380952Y-21452380D01*
X95190476Y-21452380D01*
X95095238Y-21404761D01*
X95047619Y-21357142D01*
X95000000Y-21261904D01*
X95000000Y-20976190D01*
X95047619Y-20880952D01*
X95095238Y-20833333D01*
X95190476Y-20785714D01*
X95380952Y-20785714D01*
X95476190Y-20833333D01*
X96333333Y-21404761D02*
X96238095Y-21452380D01*
X96047619Y-21452380D01*
X95952380Y-21404761D01*
X95904761Y-21309523D01*
X95904761Y-20928571D01*
X95952380Y-20833333D01*
X96047619Y-20785714D01*
X96238095Y-20785714D01*
X96333333Y-20833333D01*
X96380952Y-20928571D01*
X96380952Y-21023809D01*
X95904761Y-21119047D01*
X96952380Y-21452380D02*
X96857142Y-21404761D01*
X96809523Y-21309523D01*
X96809523Y-20452380D01*
X97761904Y-21452380D02*
X97761904Y-20928571D01*
X97714285Y-20833333D01*
X97619047Y-20785714D01*
X97428571Y-20785714D01*
X97333333Y-20833333D01*
X97761904Y-21404761D02*
X97666666Y-21452380D01*
X97428571Y-21452380D01*
X97333333Y-21404761D01*
X97285714Y-21309523D01*
X97285714Y-21214285D01*
X97333333Y-21119047D01*
X97428571Y-21071428D01*
X97666666Y-21071428D01*
X97761904Y-21023809D01*
X98142857Y-20785714D02*
X98380952Y-21452380D01*
X98619047Y-20785714D02*
X98380952Y-21452380D01*
X98285714Y-21690476D01*
X98238095Y-21738095D01*
X98142857Y-21785714D01*
X99619047Y-20785714D02*
X100000000Y-20785714D01*
X99761904Y-20452380D02*
X99761904Y-21309523D01*
X99809523Y-21404761D01*
X99904761Y-21452380D01*
X100000000Y-21452380D01*
X100761904Y-21452380D02*
X100761904Y-20928571D01*
X100714285Y-20833333D01*
X100619047Y-20785714D01*
X100428571Y-20785714D01*
X100333333Y-20833333D01*
X100761904Y-21404761D02*
X100666666Y-21452380D01*
X100428571Y-21452380D01*
X100333333Y-21404761D01*
X100285714Y-21309523D01*
X100285714Y-21214285D01*
X100333333Y-21119047D01*
X100428571Y-21071428D01*
X100666666Y-21071428D01*
X100761904Y-21023809D01*
X101238095Y-20785714D02*
X101238095Y-21785714D01*
X101238095Y-20833333D02*
X101333333Y-20785714D01*
X101523809Y-20785714D01*
X101619047Y-20833333D01*
X101666666Y-20880952D01*
X101714285Y-20976190D01*
X101714285Y-21261904D01*
X101666666Y-21357142D01*
X101619047Y-21404761D01*
X101523809Y-21452380D01*
X101333333Y-21452380D01*
X101238095Y-21404761D01*
X89976190Y-27904761D02*
X89880952Y-27952380D01*
X89690476Y-27952380D01*
X89595238Y-27904761D01*
X89547619Y-27857142D01*
X89500000Y-27761904D01*
X89500000Y-27476190D01*
X89547619Y-27380952D01*
X89595238Y-27333333D01*
X89690476Y-27285714D01*
X89880952Y-27285714D01*
X89976190Y-27333333D01*
X90547619Y-27952380D02*
X90452380Y-27904761D01*
X90404761Y-27857142D01*
X90357142Y-27761904D01*
X90357142Y-27476190D01*
X90404761Y-27380952D01*
X90452380Y-27333333D01*
X90547619Y-27285714D01*
X90690476Y-27285714D01*
X90785714Y-27333333D01*
X90833333Y-27380952D01*
X90880952Y-27476190D01*
X90880952Y-27761904D01*
X90833333Y-27857142D01*
X90785714Y-27904761D01*
X90690476Y-27952380D01*
X90547619Y-27952380D01*
X91309523Y-27285714D02*
X91309523Y-27952380D01*
X91309523Y-27380952D02*
X91357142Y-27333333D01*
X91452380Y-27285714D01*
X91595238Y-27285714D01*
X91690476Y-27333333D01*
X91738095Y-27428571D01*
X91738095Y-27952380D01*
X92071428Y-27285714D02*
X92452380Y-27285714D01*
X92214285Y-26952380D02*
X92214285Y-27809523D01*
X92261904Y-27904761D01*
X92357142Y-27952380D01*
X92452380Y-27952380D01*
X92928571Y-27952380D02*
X92833333Y-27904761D01*
X92785714Y-27857142D01*
X92738095Y-27761904D01*
X92738095Y-27476190D01*
X92785714Y-27380952D01*
X92833333Y-27333333D01*
X92928571Y-27285714D01*
X93071428Y-27285714D01*
X93166666Y-27333333D01*
X93214285Y-27380952D01*
X93261904Y-27476190D01*
X93261904Y-27761904D01*
X93214285Y-27857142D01*
X93166666Y-27904761D01*
X93071428Y-27952380D01*
X92928571Y-27952380D01*
X94119047Y-27285714D02*
X94119047Y-27952380D01*
X93690476Y-27285714D02*
X93690476Y-27809523D01*
X93738095Y-27904761D01*
X93833333Y-27952380D01*
X93976190Y-27952380D01*
X94071428Y-27904761D01*
X94119047Y-27857142D01*
X94595238Y-27952380D02*
X94595238Y-27285714D01*
X94595238Y-27476190D02*
X94642857Y-27380952D01*
X94690476Y-27333333D01*
X94785714Y-27285714D01*
X94880952Y-27285714D01*
X95928571Y-26904761D02*
X95071428Y-28190476D01*
X96261904Y-27285714D02*
X96261904Y-28285714D01*
X96261904Y-27333333D02*
X96357142Y-27285714D01*
X96547619Y-27285714D01*
X96642857Y-27333333D01*
X96690476Y-27380952D01*
X96738095Y-27476190D01*
X96738095Y-27761904D01*
X96690476Y-27857142D01*
X96642857Y-27904761D01*
X96547619Y-27952380D01*
X96357142Y-27952380D01*
X96261904Y-27904761D01*
X97166666Y-27952380D02*
X97166666Y-27285714D01*
X97166666Y-27476190D02*
X97214285Y-27380952D01*
X97261904Y-27333333D01*
X97357142Y-27285714D01*
X97452380Y-27285714D01*
X98166666Y-27904761D02*
X98071428Y-27952380D01*
X97880952Y-27952380D01*
X97785714Y-27904761D01*
X97738095Y-27809523D01*
X97738095Y-27428571D01*
X97785714Y-27333333D01*
X97880952Y-27285714D01*
X98071428Y-27285714D01*
X98166666Y-27333333D01*
X98214285Y-27428571D01*
X98214285Y-27523809D01*
X97738095Y-27619047D01*
X98595238Y-27904761D02*
X98690476Y-27952380D01*
X98880952Y-27952380D01*
X98976190Y-27904761D01*
X99023809Y-27809523D01*
X99023809Y-27761904D01*
X98976190Y-27666666D01*
X98880952Y-27619047D01*
X98738095Y-27619047D01*
X98642857Y-27571428D01*
X98595238Y-27476190D01*
X98595238Y-27428571D01*
X98642857Y-27333333D01*
X98738095Y-27285714D01*
X98880952Y-27285714D01*
X98976190Y-27333333D01*
X99833333Y-27904761D02*
X99738095Y-27952380D01*
X99547619Y-27952380D01*
X99452380Y-27904761D01*
X99404761Y-27809523D01*
X99404761Y-27428571D01*
X99452380Y-27333333D01*
X99547619Y-27285714D01*
X99738095Y-27285714D01*
X99833333Y-27333333D01*
X99880952Y-27428571D01*
X99880952Y-27523809D01*
X99404761Y-27619047D01*
X100309523Y-27285714D02*
X100309523Y-27952380D01*
X100309523Y-27380952D02*
X100357142Y-27333333D01*
X100452380Y-27285714D01*
X100595238Y-27285714D01*
X100690476Y-27333333D01*
X100738095Y-27428571D01*
X100738095Y-27952380D01*
X101642857Y-27904761D02*
X101547619Y-27952380D01*
X101357142Y-27952380D01*
X101261904Y-27904761D01*
X101214285Y-27857142D01*
X101166666Y-27761904D01*
X101166666Y-27476190D01*
X101214285Y-27380952D01*
X101261904Y-27333333D01*
X101357142Y-27285714D01*
X101547619Y-27285714D01*
X101642857Y-27333333D01*
X102452380Y-27904761D02*
X102357142Y-27952380D01*
X102166666Y-27952380D01*
X102071428Y-27904761D01*
X102023809Y-27809523D01*
X102023809Y-27428571D01*
X102071428Y-27333333D01*
X102166666Y-27285714D01*
X102357142Y-27285714D01*
X102452380Y-27333333D01*
X102500000Y-27428571D01*
X102500000Y-27523809D01*
X102023809Y-27619047D01*
X90142857Y-33428571D02*
X90476190Y-33428571D01*
X90619047Y-33952380D02*
X90142857Y-33952380D01*
X90142857Y-32952380D01*
X90619047Y-32952380D01*
X91714285Y-34047619D02*
X91619047Y-34000000D01*
X91523809Y-33904761D01*
X91380952Y-33761904D01*
X91285714Y-33714285D01*
X91190476Y-33714285D01*
X91238095Y-33952380D02*
X91142857Y-33904761D01*
X91047619Y-33809523D01*
X91000000Y-33619047D01*
X91000000Y-33285714D01*
X91047619Y-33095238D01*
X91142857Y-33000000D01*
X91238095Y-32952380D01*
X91428571Y-32952380D01*
X91523809Y-33000000D01*
X91619047Y-33095238D01*
X91666666Y-33285714D01*
X91666666Y-33619047D01*
X91619047Y-33809523D01*
X91523809Y-33904761D01*
X91428571Y-33952380D01*
X91238095Y-33952380D01*
X93000000Y-33952380D02*
X92904761Y-33904761D01*
X92857142Y-33809523D01*
X92857142Y-32952380D01*
X93523809Y-33952380D02*
X93428571Y-33904761D01*
X93380952Y-33857142D01*
X93333333Y-33761904D01*
X93333333Y-33476190D01*
X93380952Y-33380952D01*
X93428571Y-33333333D01*
X93523809Y-33285714D01*
X93666666Y-33285714D01*
X93761904Y-33333333D01*
X93809523Y-33380952D01*
X93857142Y-33476190D01*
X93857142Y-33761904D01*
X93809523Y-33857142D01*
X93761904Y-33904761D01*
X93666666Y-33952380D01*
X93523809Y-33952380D01*
X94190476Y-33285714D02*
X94380952Y-33952380D01*
X94571428Y-33476190D01*
X94761904Y-33952380D01*
X94952380Y-33285714D01*
X96047619Y-32904761D02*
X95190476Y-34190476D01*
X96523809Y-33952380D02*
X96428571Y-33904761D01*
X96380952Y-33809523D01*
X96380952Y-32952380D01*
X97047619Y-33952380D02*
X96952380Y-33904761D01*
X96904761Y-33857142D01*
X96857142Y-33761904D01*
X96857142Y-33476190D01*
X96904761Y-33380952D01*
X96952380Y-33333333D01*
X97047619Y-33285714D01*
X97190476Y-33285714D01*
X97285714Y-33333333D01*
X97333333Y-33380952D01*
X97380952Y-33476190D01*
X97380952Y-33761904D01*
X97333333Y-33857142D01*
X97285714Y-33904761D01*
X97190476Y-33952380D01*
X97047619Y-33952380D01*
X97714285Y-33285714D02*
X97904761Y-33952380D01*
X98095238Y-33476190D01*
X98285714Y-33952380D01*
X98476190Y-33285714D01*
X99619047Y-33952380D02*
X99619047Y-33285714D01*
X99619047Y-33380952D02*
X99666666Y-33333333D01*
X99761904Y-33285714D01*
X99904761Y-33285714D01*
X100000000Y-33333333D01*
X100047619Y-33428571D01*
X100047619Y-33952380D01*
X100047619Y-33428571D02*
X100095238Y-33333333D01*
X100190476Y-33285714D01*
X100333333Y-33285714D01*
X100428571Y-33333333D01*
X100476190Y-33428571D01*
X100476190Y-33952380D01*
X100952380Y-33952380D02*
X100952380Y-33285714D01*
X100952380Y-32952380D02*
X100904761Y-33000000D01*
X100952380Y-33047619D01*
X101000000Y-33000000D01*
X100952380Y-32952380D01*
X100952380Y-33047619D01*
X101857142Y-33952380D02*
X101857142Y-32952380D01*
X101857142Y-33904761D02*
X101761904Y-33952380D01*
X101571428Y-33952380D01*
X101476190Y-33904761D01*
X101428571Y-33857142D01*
X101380952Y-33761904D01*
X101380952Y-33476190D01*
X101428571Y-33380952D01*
X101476190Y-33333333D01*
X101571428Y-33285714D01*
X101761904Y-33285714D01*
X101857142Y-33333333D01*
X89428571Y-39428571D02*
X89761904Y-39428571D01*
X89904761Y-39952380D02*
X89428571Y-39952380D01*
X89428571Y-38952380D01*
X89904761Y-38952380D01*
X91000000Y-40047619D02*
X90904761Y-40000000D01*
X90809523Y-39904761D01*
X90666666Y-39761904D01*
X90571428Y-39714285D01*
X90476190Y-39714285D01*
X90523809Y-39952380D02*
X90428571Y-39904761D01*
X90333333Y-39809523D01*
X90285714Y-39619047D01*
X90285714Y-39285714D01*
X90333333Y-39095238D01*
X90428571Y-39000000D01*
X90523809Y-38952380D01*
X90714285Y-38952380D01*
X90809523Y-39000000D01*
X90904761Y-39095238D01*
X90952380Y-39285714D01*
X90952380Y-39619047D01*
X90904761Y-39809523D01*
X90809523Y-39904761D01*
X90714285Y-39952380D01*
X90523809Y-39952380D01*
X92142857Y-39952380D02*
X92142857Y-38952380D01*
X92571428Y-39952380D02*
X92571428Y-39428571D01*
X92523809Y-39333333D01*
X92428571Y-39285714D01*
X92285714Y-39285714D01*
X92190476Y-39333333D01*
X92142857Y-39380952D01*
X93047619Y-39952380D02*
X93047619Y-39285714D01*
X93047619Y-38952380D02*
X93000000Y-39000000D01*
X93047619Y-39047619D01*
X93095238Y-39000000D01*
X93047619Y-38952380D01*
X93047619Y-39047619D01*
X93952380Y-39285714D02*
X93952380Y-40095238D01*
X93904761Y-40190476D01*
X93857142Y-40238095D01*
X93761904Y-40285714D01*
X93619047Y-40285714D01*
X93523809Y-40238095D01*
X93952380Y-39904761D02*
X93857142Y-39952380D01*
X93666666Y-39952380D01*
X93571428Y-39904761D01*
X93523809Y-39857142D01*
X93476190Y-39761904D01*
X93476190Y-39476190D01*
X93523809Y-39380952D01*
X93571428Y-39333333D01*
X93666666Y-39285714D01*
X93857142Y-39285714D01*
X93952380Y-39333333D01*
X94428571Y-39952380D02*
X94428571Y-38952380D01*
X94857142Y-39952380D02*
X94857142Y-39428571D01*
X94809523Y-39333333D01*
X94714285Y-39285714D01*
X94571428Y-39285714D01*
X94476190Y-39333333D01*
X94428571Y-39380952D01*
X96095238Y-39952380D02*
X96095238Y-39285714D01*
X96095238Y-39380952D02*
X96142857Y-39333333D01*
X96238095Y-39285714D01*
X96380952Y-39285714D01*
X96476190Y-39333333D01*
X96523809Y-39428571D01*
X96523809Y-39952380D01*
X96523809Y-39428571D02*
X96571428Y-39333333D01*
X96666666Y-39285714D01*
X96809523Y-39285714D01*
X96904761Y-39333333D01*
X96952380Y-39428571D01*
X96952380Y-39952380D01*
X97428571Y-39952380D02*
X97428571Y-39285714D01*
X97428571Y-38952380D02*
X97380952Y-39000000D01*
X97428571Y-39047619D01*
X97476190Y-39000000D01*
X97428571Y-38952380D01*
X97428571Y-39047619D01*
X98333333Y-39952380D02*
X98333333Y-38952380D01*
X98333333Y-39904761D02*
X98238095Y-39952380D01*
X98047619Y-39952380D01*
X97952380Y-39904761D01*
X97904761Y-39857142D01*
X97857142Y-39761904D01*
X97857142Y-39476190D01*
X97904761Y-39380952D01*
X97952380Y-39333333D01*
X98047619Y-39285714D01*
X98238095Y-39285714D01*
X98333333Y-39333333D01*
X99523809Y-38904761D02*
X98666666Y-40190476D01*
X99857142Y-39952380D02*
X99857142Y-38952380D01*
X100285714Y-39952380D02*
X100285714Y-39428571D01*
X100238095Y-39333333D01*
X100142857Y-39285714D01*
X100000000Y-39285714D01*
X99904761Y-39333333D01*
X99857142Y-39380952D01*
X100761904Y-39952380D02*
X100761904Y-39285714D01*
X100761904Y-38952380D02*
X100714285Y-39000000D01*
X100761904Y-39047619D01*
X100809523Y-39000000D01*
X100761904Y-38952380D01*
X100761904Y-39047619D01*
X101666666Y-39285714D02*
X101666666Y-40095238D01*
X101619047Y-40190476D01*
X101571428Y-40238095D01*
X101476190Y-40285714D01*
X101333333Y-40285714D01*
X101238095Y-40238095D01*
X101666666Y-39904761D02*
X101571428Y-39952380D01*
X101380952Y-39952380D01*
X101285714Y-39904761D01*
X101238095Y-39857142D01*
X101190476Y-39761904D01*
X101190476Y-39476190D01*
X101238095Y-39380952D01*
X101285714Y-39333333D01*
X101380952Y-39285714D01*
X101571428Y-39285714D01*
X101666666Y-39333333D01*
X102142857Y-39952380D02*
X102142857Y-38952380D01*
X102571428Y-39952380D02*
X102571428Y-39428571D01*
X102523809Y-39333333D01*
X102428571Y-39285714D01*
X102285714Y-39285714D01*
X102190476Y-39333333D01*
X102142857Y-39380952D01*
X88523809Y-45904761D02*
X88428571Y-45952380D01*
X88238095Y-45952380D01*
X88142857Y-45904761D01*
X88095238Y-45857142D01*
X88047619Y-45761904D01*
X88047619Y-45476190D01*
X88095238Y-45380952D01*
X88142857Y-45333333D01*
X88238095Y-45285714D01*
X88428571Y-45285714D01*
X88523809Y-45333333D01*
X89095238Y-45952380D02*
X89000000Y-45904761D01*
X88952380Y-45857142D01*
X88904761Y-45761904D01*
X88904761Y-45476190D01*
X88952380Y-45380952D01*
X89000000Y-45333333D01*
X89095238Y-45285714D01*
X89238095Y-45285714D01*
X89333333Y-45333333D01*
X89380952Y-45380952D01*
X89428571Y-45476190D01*
X89428571Y-45761904D01*
X89380952Y-45857142D01*
X89333333Y-45904761D01*
X89238095Y-45952380D01*
X89095238Y-45952380D01*
X89857142Y-45952380D02*
X89857142Y-45285714D01*
X89857142Y-45380952D02*
X89904761Y-45333333D01*
X90000000Y-45285714D01*
X90142857Y-45285714D01*
X90238095Y-45333333D01*
X90285714Y-45428571D01*
X90285714Y-45952380D01*
X90285714Y-45428571D02*
X90333333Y-45333333D01*
X90428571Y-45285714D01*
X90571428Y-45285714D01*
X90666666Y-45333333D01*
X90714285Y-45428571D01*
X90714285Y-45952380D01*
X91190476Y-45285714D02*
X91190476Y-46285714D01*
X91190476Y-45333333D02*
X91285714Y-45285714D01*
X91476190Y-45285714D01*
X91571428Y-45333333D01*
X91619047Y-45380952D01*
X91666666Y-45476190D01*
X91666666Y-45761904D01*
X91619047Y-45857142D01*
X91571428Y-45904761D01*
X91476190Y-45952380D01*
X91285714Y-45952380D01*
X91190476Y-45904761D01*
X92857142Y-45952380D02*
X92857142Y-45285714D01*
X92857142Y-45476190D02*
X92904761Y-45380952D01*
X92952380Y-45333333D01*
X93047619Y-45285714D01*
X93142857Y-45285714D01*
X93904761Y-45952380D02*
X93904761Y-45428571D01*
X93857142Y-45333333D01*
X93761904Y-45285714D01*
X93571428Y-45285714D01*
X93476190Y-45333333D01*
X93904761Y-45904761D02*
X93809523Y-45952380D01*
X93571428Y-45952380D01*
X93476190Y-45904761D01*
X93428571Y-45809523D01*
X93428571Y-45714285D01*
X93476190Y-45619047D01*
X93571428Y-45571428D01*
X93809523Y-45571428D01*
X93904761Y-45523809D01*
X94238095Y-45285714D02*
X94619047Y-45285714D01*
X94380952Y-44952380D02*
X94380952Y-45809523D01*
X94428571Y-45904761D01*
X94523809Y-45952380D01*
X94619047Y-45952380D01*
X94952380Y-45952380D02*
X94952380Y-45285714D01*
X94952380Y-44952380D02*
X94904761Y-45000000D01*
X94952380Y-45047619D01*
X95000000Y-45000000D01*
X94952380Y-44952380D01*
X94952380Y-45047619D01*
X95571428Y-45952380D02*
X95476190Y-45904761D01*
X95428571Y-45857142D01*
X95380952Y-45761904D01*
X95380952Y-45476190D01*
X95428571Y-45380952D01*
X95476190Y-45333333D01*
X95571428Y-45285714D01*
X95714285Y-45285714D01*
X95809523Y-45333333D01*
X95857142Y-45380952D01*
X95904761Y-45476190D01*
X95904761Y-45761904D01*
X95857142Y-45857142D01*
X95809523Y-45904761D01*
X95714285Y-45952380D01*
X95571428Y-45952380D01*
X97047619Y-44904761D02*
X96190476Y-46190476D01*
X97238095Y-45285714D02*
X97619047Y-45285714D01*
X97380952Y-44952380D02*
X97380952Y-45809523D01*
X97428571Y-45904761D01*
X97523809Y-45952380D01*
X97619047Y-45952380D01*
X97952380Y-45952380D02*
X97952380Y-44952380D01*
X98380952Y-45952380D02*
X98380952Y-45428571D01*
X98333333Y-45333333D01*
X98238095Y-45285714D01*
X98095238Y-45285714D01*
X98000000Y-45333333D01*
X97952380Y-45380952D01*
X98857142Y-45952380D02*
X98857142Y-45285714D01*
X98857142Y-45476190D02*
X98904761Y-45380952D01*
X98952380Y-45333333D01*
X99047619Y-45285714D01*
X99142857Y-45285714D01*
X99857142Y-45904761D02*
X99761904Y-45952380D01*
X99571428Y-45952380D01*
X99476190Y-45904761D01*
X99428571Y-45809523D01*
X99428571Y-45428571D01*
X99476190Y-45333333D01*
X99571428Y-45285714D01*
X99761904Y-45285714D01*
X99857142Y-45333333D01*
X99904761Y-45428571D01*
X99904761Y-45523809D01*
X99428571Y-45619047D01*
X100285714Y-45904761D02*
X100380952Y-45952380D01*
X100571428Y-45952380D01*
X100666666Y-45904761D01*
X100714285Y-45809523D01*
X100714285Y-45761904D01*
X100666666Y-45666666D01*
X100571428Y-45619047D01*
X100428571Y-45619047D01*
X100333333Y-45571428D01*
X100285714Y-45476190D01*
X100285714Y-45428571D01*
X100333333Y-45333333D01*
X100428571Y-45285714D01*
X100571428Y-45285714D01*
X100666666Y-45333333D01*
X101142857Y-45952380D02*
X101142857Y-44952380D01*
X101571428Y-45952380D02*
X101571428Y-45428571D01*
X101523809Y-45333333D01*
X101428571Y-45285714D01*
X101285714Y-45285714D01*
X101190476Y-45333333D01*
X101142857Y-45380952D01*
X102190476Y-45952380D02*
X102095238Y-45904761D01*
X102047619Y-45857142D01*
X102000000Y-45761904D01*
X102000000Y-45476190D01*
X102047619Y-45380952D01*
X102095238Y-45333333D01*
X102190476Y-45285714D01*
X102333333Y-45285714D01*
X102428571Y-45333333D01*
X102476190Y-45380952D01*
X102523809Y-45476190D01*
X102523809Y-45761904D01*
X102476190Y-45857142D01*
X102428571Y-45904761D01*
X102333333Y-45952380D01*
X102190476Y-45952380D01*
X103095238Y-45952380D02*
X103000000Y-45904761D01*
X102952380Y-45809523D01*
X102952380Y-44952380D01*
X103904761Y-45952380D02*
X103904761Y-44952380D01*
X103904761Y-45904761D02*
X103809523Y-45952380D01*
X103619047Y-45952380D01*
X103523809Y-45904761D01*
X103476190Y-45857142D01*
X103428571Y-45761904D01*
X103428571Y-45476190D01*
X103476190Y-45380952D01*
X103523809Y-45333333D01*
X103619047Y-45285714D01*
X103809523Y-45285714D01*
X103904761Y-45333333D01*
X88880952Y-51952380D02*
X88785714Y-51904761D01*
X88738095Y-51857142D01*
X88690476Y-51761904D01*
X88690476Y-51476190D01*
X88738095Y-51380952D01*
X88785714Y-51333333D01*
X88880952Y-51285714D01*
X89023809Y-51285714D01*
X89119047Y-51333333D01*
X89166666Y-51380952D01*
X89214285Y-51476190D01*
X89214285Y-51761904D01*
X89166666Y-51857142D01*
X89119047Y-51904761D01*
X89023809Y-51952380D01*
X88880952Y-51952380D01*
X89547619Y-51285714D02*
X89785714Y-51952380D01*
X90023809Y-51285714D01*
X90785714Y-51904761D02*
X90690476Y-51952380D01*
X90500000Y-51952380D01*
X90404761Y-51904761D01*
X90357142Y-51809523D01*
X90357142Y-51428571D01*
X90404761Y-51333333D01*
X90500000Y-51285714D01*
X90690476Y-51285714D01*
X90785714Y-51333333D01*
X90833333Y-51428571D01*
X90833333Y-51523809D01*
X90357142Y-51619047D01*
X91261904Y-51952380D02*
X91261904Y-51285714D01*
X91261904Y-51476190D02*
X91309523Y-51380952D01*
X91357142Y-51333333D01*
X91452380Y-51285714D01*
X91547619Y-51285714D01*
X92309523Y-51952380D02*
X92309523Y-50952380D01*
X92309523Y-51904761D02*
X92214285Y-51952380D01*
X92023809Y-51952380D01*
X91928571Y-51904761D01*
X91880952Y-51857142D01*
X91833333Y-51761904D01*
X91833333Y-51476190D01*
X91880952Y-51380952D01*
X91928571Y-51333333D01*
X92023809Y-51285714D01*
X92214285Y-51285714D01*
X92309523Y-51333333D01*
X92785714Y-51952380D02*
X92785714Y-51285714D01*
X92785714Y-51476190D02*
X92833333Y-51380952D01*
X92880952Y-51333333D01*
X92976190Y-51285714D01*
X93071428Y-51285714D01*
X93404761Y-51952380D02*
X93404761Y-51285714D01*
X93404761Y-50952380D02*
X93357142Y-51000000D01*
X93404761Y-51047619D01*
X93452380Y-51000000D01*
X93404761Y-50952380D01*
X93404761Y-51047619D01*
X93785714Y-51285714D02*
X94023809Y-51952380D01*
X94261904Y-51285714D01*
X95023809Y-51904761D02*
X94928571Y-51952380D01*
X94738095Y-51952380D01*
X94642857Y-51904761D01*
X94595238Y-51809523D01*
X94595238Y-51428571D01*
X94642857Y-51333333D01*
X94738095Y-51285714D01*
X94928571Y-51285714D01*
X95023809Y-51333333D01*
X95071428Y-51428571D01*
X95071428Y-51523809D01*
X94595238Y-51619047D01*
X96690476Y-51285714D02*
X96690476Y-52095238D01*
X96642857Y-52190476D01*
X96595238Y-52238095D01*
X96500000Y-52285714D01*
X96357142Y-52285714D01*
X96261904Y-52238095D01*
X96690476Y-51904761D02*
X96595238Y-51952380D01*
X96404761Y-51952380D01*
X96309523Y-51904761D01*
X96261904Y-51857142D01*
X96214285Y-51761904D01*
X96214285Y-51476190D01*
X96261904Y-51380952D01*
X96309523Y-51333333D01*
X96404761Y-51285714D01*
X96595238Y-51285714D01*
X96690476Y-51333333D01*
X97595238Y-51952380D02*
X97595238Y-51428571D01*
X97547619Y-51333333D01*
X97452380Y-51285714D01*
X97261904Y-51285714D01*
X97166666Y-51333333D01*
X97595238Y-51904761D02*
X97500000Y-51952380D01*
X97261904Y-51952380D01*
X97166666Y-51904761D01*
X97119047Y-51809523D01*
X97119047Y-51714285D01*
X97166666Y-51619047D01*
X97261904Y-51571428D01*
X97500000Y-51571428D01*
X97595238Y-51523809D01*
X98071428Y-51952380D02*
X98071428Y-51285714D01*
X98071428Y-50952380D02*
X98023809Y-51000000D01*
X98071428Y-51047619D01*
X98119047Y-51000000D01*
X98071428Y-50952380D01*
X98071428Y-51047619D01*
X98547619Y-51285714D02*
X98547619Y-51952380D01*
X98547619Y-51380952D02*
X98595238Y-51333333D01*
X98690476Y-51285714D01*
X98833333Y-51285714D01*
X98928571Y-51333333D01*
X98976190Y-51428571D01*
X98976190Y-51952380D01*
X100166666Y-50904761D02*
X99309523Y-52190476D01*
X100357142Y-51285714D02*
X100738095Y-51285714D01*
X100500000Y-50952380D02*
X100500000Y-51809523D01*
X100547619Y-51904761D01*
X100642857Y-51952380D01*
X100738095Y-51952380D01*
X101214285Y-51952380D02*
X101119047Y-51904761D01*
X101071428Y-51857142D01*
X101023809Y-51761904D01*
X101023809Y-51476190D01*
X101071428Y-51380952D01*
X101119047Y-51333333D01*
X101214285Y-51285714D01*
X101357142Y-51285714D01*
X101452380Y-51333333D01*
X101500000Y-51380952D01*
X101547619Y-51476190D01*
X101547619Y-51761904D01*
X101500000Y-51857142D01*
X101452380Y-51904761D01*
X101357142Y-51952380D01*
X101214285Y-51952380D01*
X101976190Y-51285714D02*
X101976190Y-51952380D01*
X101976190Y-51380952D02*
X102023809Y-51333333D01*
X102119047Y-51285714D01*
X102261904Y-51285714D01*
X102357142Y-51333333D01*
X102404761Y-51428571D01*
X102404761Y-51952380D01*
X103261904Y-51904761D02*
X103166666Y-51952380D01*
X102976190Y-51952380D01*
X102880952Y-51904761D01*
X102833333Y-51809523D01*
X102833333Y-51428571D01*
X102880952Y-51333333D01*
X102976190Y-51285714D01*
X103166666Y-51285714D01*
X103261904Y-51333333D01*
X103309523Y-51428571D01*
X103309523Y-51523809D01*
X102833333Y-51619047D01*
X89952380Y-57952380D02*
X89857142Y-57904761D01*
X89809523Y-57857142D01*
X89761904Y-57761904D01*
X89761904Y-57476190D01*
X89809523Y-57380952D01*
X89857142Y-57333333D01*
X89952380Y-57285714D01*
X90095238Y-57285714D01*
X90190476Y-57333333D01*
X90238095Y-57380952D01*
X90285714Y-57476190D01*
X90285714Y-57761904D01*
X90238095Y-57857142D01*
X90190476Y-57904761D01*
X90095238Y-57952380D01*
X89952380Y-57952380D01*
X91142857Y-57904761D02*
X91047619Y-57952380D01*
X90857142Y-57952380D01*
X90761904Y-57904761D01*
X90714285Y-57857142D01*
X90666666Y-57761904D01*
X90666666Y-57476190D01*
X90714285Y-57380952D01*
X90761904Y-57333333D01*
X90857142Y-57285714D01*
X91047619Y-57285714D01*
X91142857Y-57333333D01*
X91428571Y-57285714D02*
X91809523Y-57285714D01*
X91571428Y-56952380D02*
X91571428Y-57809523D01*
X91619047Y-57904761D01*
X91714285Y-57952380D01*
X91809523Y-57952380D01*
X92571428Y-57952380D02*
X92571428Y-57428571D01*
X92523809Y-57333333D01*
X92428571Y-57285714D01*
X92238095Y-57285714D01*
X92142857Y-57333333D01*
X92571428Y-57904761D02*
X92476190Y-57952380D01*
X92238095Y-57952380D01*
X92142857Y-57904761D01*
X92095238Y-57809523D01*
X92095238Y-57714285D01*
X92142857Y-57619047D01*
X92238095Y-57571428D01*
X92476190Y-57571428D01*
X92571428Y-57523809D01*
X92952380Y-57285714D02*
X93190476Y-57952380D01*
X93428571Y-57285714D01*
X94190476Y-57904761D02*
X94095238Y-57952380D01*
X93904761Y-57952380D01*
X93809523Y-57904761D01*
X93761904Y-57809523D01*
X93761904Y-57428571D01*
X93809523Y-57333333D01*
X93904761Y-57285714D01*
X94095238Y-57285714D01*
X94190476Y-57333333D01*
X94238095Y-57428571D01*
X94238095Y-57523809D01*
X93761904Y-57619047D01*
X94666666Y-57952380D02*
X94666666Y-57285714D01*
X94666666Y-57476190D02*
X94714285Y-57380952D01*
X94761904Y-57333333D01*
X94857142Y-57285714D01*
X94952380Y-57285714D01*
X96476190Y-57952380D02*
X96476190Y-56952380D01*
X96476190Y-57904761D02*
X96380952Y-57952380D01*
X96190476Y-57952380D01*
X96095238Y-57904761D01*
X96047619Y-57857142D01*
X96000000Y-57761904D01*
X96000000Y-57476190D01*
X96047619Y-57380952D01*
X96095238Y-57333333D01*
X96190476Y-57285714D01*
X96380952Y-57285714D01*
X96476190Y-57333333D01*
X97095238Y-57952380D02*
X97000000Y-57904761D01*
X96952380Y-57857142D01*
X96904761Y-57761904D01*
X96904761Y-57476190D01*
X96952380Y-57380952D01*
X97000000Y-57333333D01*
X97095238Y-57285714D01*
X97238095Y-57285714D01*
X97333333Y-57333333D01*
X97380952Y-57380952D01*
X97428571Y-57476190D01*
X97428571Y-57761904D01*
X97380952Y-57857142D01*
X97333333Y-57904761D01*
X97238095Y-57952380D01*
X97095238Y-57952380D01*
X97761904Y-57285714D02*
X97952380Y-57952380D01*
X98142857Y-57476190D01*
X98333333Y-57952380D01*
X98523809Y-57285714D01*
X98904761Y-57285714D02*
X98904761Y-57952380D01*
X98904761Y-57380952D02*
X98952380Y-57333333D01*
X99047619Y-57285714D01*
X99190476Y-57285714D01*
X99285714Y-57333333D01*
X99333333Y-57428571D01*
X99333333Y-57952380D01*
X100523809Y-56904761D02*
X99666666Y-58190476D01*
X101285714Y-57285714D02*
X101285714Y-57952380D01*
X100857142Y-57285714D02*
X100857142Y-57809523D01*
X100904761Y-57904761D01*
X101000000Y-57952380D01*
X101142857Y-57952380D01*
X101238095Y-57904761D01*
X101285714Y-57857142D01*
X101761904Y-57285714D02*
X101761904Y-58285714D01*
X101761904Y-57333333D02*
X101857142Y-57285714D01*
X102047619Y-57285714D01*
X102142857Y-57333333D01*
X102190476Y-57380952D01*
X102238095Y-57476190D01*
X102238095Y-57761904D01*
X102190476Y-57857142D01*
X102142857Y-57904761D01*
X102047619Y-57952380D01*
X101857142Y-57952380D01*
X101761904Y-57904761D01*
X92357142Y-63952380D02*
X92357142Y-62952380D01*
X92357142Y-63904761D02*
X92261904Y-63952380D01*
X92071428Y-63952380D01*
X91976190Y-63904761D01*
X91928571Y-63857142D01*
X91880952Y-63761904D01*
X91880952Y-63476190D01*
X91928571Y-63380952D01*
X91976190Y-63333333D01*
X92071428Y-63285714D01*
X92261904Y-63285714D01*
X92357142Y-63333333D01*
X93214285Y-63904761D02*
X93119047Y-63952380D01*
X92928571Y-63952380D01*
X92833333Y-63904761D01*
X92785714Y-63809523D01*
X92785714Y-63428571D01*
X92833333Y-63333333D01*
X92928571Y-63285714D01*
X93119047Y-63285714D01*
X93214285Y-63333333D01*
X93261904Y-63428571D01*
X93261904Y-63523809D01*
X92785714Y-63619047D01*
X93833333Y-63952380D02*
X93738095Y-63904761D01*
X93690476Y-63809523D01*
X93690476Y-62952380D01*
X94642857Y-63952380D02*
X94642857Y-63428571D01*
X94595238Y-63333333D01*
X94500000Y-63285714D01*
X94309523Y-63285714D01*
X94214285Y-63333333D01*
X94642857Y-63904761D02*
X94547619Y-63952380D01*
X94309523Y-63952380D01*
X94214285Y-63904761D01*
X94166666Y-63809523D01*
X94166666Y-63714285D01*
X94214285Y-63619047D01*
X94309523Y-63571428D01*
X94547619Y-63571428D01*
X94642857Y-63523809D01*
X95023809Y-63285714D02*
X95261904Y-63952380D01*
X95500000Y-63285714D02*
X95261904Y-63952380D01*
X95166666Y-64190476D01*
X95119047Y-64238095D01*
X95023809Y-64285714D01*
X96595238Y-62904761D02*
X95738095Y-64190476D01*
X96928571Y-63952380D02*
X96928571Y-63285714D01*
X96928571Y-63476190D02*
X96976190Y-63380952D01*
X97023809Y-63333333D01*
X97119047Y-63285714D01*
X97214285Y-63285714D01*
X97928571Y-63904761D02*
X97833333Y-63952380D01*
X97642857Y-63952380D01*
X97547619Y-63904761D01*
X97500000Y-63809523D01*
X97500000Y-63428571D01*
X97547619Y-63333333D01*
X97642857Y-63285714D01*
X97833333Y-63285714D01*
X97928571Y-63333333D01*
X97976190Y-63428571D01*
X97976190Y-63523809D01*
X97500000Y-63619047D01*
X98309523Y-63285714D02*
X98547619Y-63952380D01*
X98785714Y-63285714D01*
X99547619Y-63904761D02*
X99452380Y-63952380D01*
X99261904Y-63952380D01*
X99166666Y-63904761D01*
X99119047Y-63809523D01*
X99119047Y-63428571D01*
X99166666Y-63333333D01*
X99261904Y-63285714D01*
X99452380Y-63285714D01*
X99547619Y-63333333D01*
X99595238Y-63428571D01*
X99595238Y-63523809D01*
X99119047Y-63619047D01*
X100023809Y-63952380D02*
X100023809Y-63285714D01*
X100023809Y-63476190D02*
X100071428Y-63380952D01*
X100119047Y-63333333D01*
X100214285Y-63285714D01*
X100309523Y-63285714D01*
X100642857Y-63952380D02*
X100642857Y-62952380D01*
X100642857Y-63333333D02*
X100738095Y-63285714D01*
X100928571Y-63285714D01*
X101023809Y-63333333D01*
X101071428Y-63380952D01*
X101119047Y-63476190D01*
X101119047Y-63761904D01*
X101071428Y-63857142D01*
X101023809Y-63904761D01*
X100928571Y-63952380D01*
X100738095Y-63952380D01*
X100642857Y-63904761D01*
X49761904Y-63571428D02*
X50523809Y-63571428D01*
X51761904Y-63571428D02*
X52523809Y-63571428D01*
X52142857Y-63952380D02*
X52142857Y-63190476D01*
X53904761Y-63952380D02*
X53809523Y-63904761D01*
X53761904Y-63857142D01*
X53714285Y-63761904D01*
X53714285Y-63476190D01*
X53761904Y-63380952D01*
X53809523Y-63333333D01*
X53904761Y-63285714D01*
X54047619Y-63285714D01*
X54142857Y-63333333D01*
X54190476Y-63380952D01*
X54238095Y-63476190D01*
X54238095Y-63761904D01*
X54190476Y-63857142D01*
X54142857Y-63904761D01*
X54047619Y-63952380D01*
X53904761Y-63952380D01*
X55095238Y-63904761D02*
X55000000Y-63952380D01*
X54809523Y-63952380D01*
X54714285Y-63904761D01*
X54666666Y-63857142D01*
X54619047Y-63761904D01*
X54619047Y-63476190D01*
X54666666Y-63380952D01*
X54714285Y-63333333D01*
X54809523Y-63285714D01*
X55000000Y-63285714D01*
X55095238Y-63333333D01*
X55380952Y-63285714D02*
X55761904Y-63285714D01*
X55523809Y-62952380D02*
X55523809Y-63809523D01*
X55571428Y-63904761D01*
X55666666Y-63952380D01*
X55761904Y-63952380D01*
X56523809Y-63952380D02*
X56523809Y-63428571D01*
X56476190Y-63333333D01*
X56380952Y-63285714D01*
X56190476Y-63285714D01*
X56095238Y-63333333D01*
X56523809Y-63904761D02*
X56428571Y-63952380D01*
X56190476Y-63952380D01*
X56095238Y-63904761D01*
X56047619Y-63809523D01*
X56047619Y-63714285D01*
X56095238Y-63619047D01*
X56190476Y-63571428D01*
X56428571Y-63571428D01*
X56523809Y-63523809D01*
X56904761Y-63285714D02*
X57142857Y-63952380D01*
X57380952Y-63285714D01*
X58142857Y-63904761D02*
X58047619Y-63952380D01*
X57857142Y-63952380D01*
X57761904Y-63904761D01*
X57714285Y-63809523D01*
X57714285Y-63428571D01*
X57761904Y-63333333D01*
X57857142Y-63285714D01*
X58047619Y-63285714D01*
X58142857Y-63333333D01*
X58190476Y-63428571D01*
X58190476Y-63523809D01*
X57714285Y-63619047D01*
X58619047Y-63952380D02*
X58619047Y-63285714D01*
X58619047Y-63476190D02*
X58666666Y-63380952D01*
X58714285Y-63333333D01*
X58809523Y-63285714D01*
X58904761Y-63285714D01*
X59952380Y-62904761D02*
X59095238Y-64190476D01*
X60714285Y-63952380D02*
X60714285Y-62952380D01*
X60714285Y-63904761D02*
X60619047Y-63952380D01*
X60428571Y-63952380D01*
X60333333Y-63904761D01*
X60285714Y-63857142D01*
X60238095Y-63761904D01*
X60238095Y-63476190D01*
X60285714Y-63380952D01*
X60333333Y-63333333D01*
X60428571Y-63285714D01*
X60619047Y-63285714D01*
X60714285Y-63333333D01*
X61571428Y-63904761D02*
X61476190Y-63952380D01*
X61285714Y-63952380D01*
X61190476Y-63904761D01*
X61142857Y-63809523D01*
X61142857Y-63428571D01*
X61190476Y-63333333D01*
X61285714Y-63285714D01*
X61476190Y-63285714D01*
X61571428Y-63333333D01*
X61619047Y-63428571D01*
X61619047Y-63523809D01*
X61142857Y-63619047D01*
X62190476Y-63952380D02*
X62095238Y-63904761D01*
X62047619Y-63809523D01*
X62047619Y-62952380D01*
X63000000Y-63952380D02*
X63000000Y-63428571D01*
X62952380Y-63333333D01*
X62857142Y-63285714D01*
X62666666Y-63285714D01*
X62571428Y-63333333D01*
X63000000Y-63904761D02*
X62904761Y-63952380D01*
X62666666Y-63952380D01*
X62571428Y-63904761D01*
X62523809Y-63809523D01*
X62523809Y-63714285D01*
X62571428Y-63619047D01*
X62666666Y-63571428D01*
X62904761Y-63571428D01*
X63000000Y-63523809D01*
X63380952Y-63285714D02*
X63619047Y-63952380D01*
X63857142Y-63285714D02*
X63619047Y-63952380D01*
X63523809Y-64190476D01*
X63476190Y-64238095D01*
X63380952Y-64285714D01*
X64952380Y-62904761D02*
X64095238Y-64190476D01*
X65285714Y-63952380D02*
X65285714Y-63285714D01*
X65285714Y-63476190D02*
X65333333Y-63380952D01*
X65380952Y-63333333D01*
X65476190Y-63285714D01*
X65571428Y-63285714D01*
X66285714Y-63904761D02*
X66190476Y-63952380D01*
X66000000Y-63952380D01*
X65904761Y-63904761D01*
X65857142Y-63809523D01*
X65857142Y-63428571D01*
X65904761Y-63333333D01*
X66000000Y-63285714D01*
X66190476Y-63285714D01*
X66285714Y-63333333D01*
X66333333Y-63428571D01*
X66333333Y-63523809D01*
X65857142Y-63619047D01*
X66666666Y-63285714D02*
X66904761Y-63952380D01*
X67142857Y-63285714D01*
X67904761Y-63904761D02*
X67809523Y-63952380D01*
X67619047Y-63952380D01*
X67523809Y-63904761D01*
X67476190Y-63809523D01*
X67476190Y-63428571D01*
X67523809Y-63333333D01*
X67619047Y-63285714D01*
X67809523Y-63285714D01*
X67904761Y-63333333D01*
X67952380Y-63428571D01*
X67952380Y-63523809D01*
X67476190Y-63619047D01*
X68380952Y-63952380D02*
X68380952Y-63285714D01*
X68380952Y-63476190D02*
X68428571Y-63380952D01*
X68476190Y-63333333D01*
X68571428Y-63285714D01*
X68666666Y-63285714D01*
X69000000Y-63952380D02*
X69000000Y-62952380D01*
X69000000Y-63333333D02*
X69095238Y-63285714D01*
X69285714Y-63285714D01*
X69380952Y-63333333D01*
X69428571Y-63380952D01*
X69476190Y-63476190D01*
X69476190Y-63761904D01*
X69428571Y-63857142D01*
X69380952Y-63904761D01*
X69285714Y-63952380D01*
X69095238Y-63952380D01*
X69000000Y-63904761D01*
X70619047Y-62904761D02*
X69761904Y-64190476D01*
X71380952Y-63904761D02*
X71285714Y-63952380D01*
X71095238Y-63952380D01*
X71000000Y-63904761D01*
X70952380Y-63857142D01*
X70904761Y-63761904D01*
X70904761Y-63476190D01*
X70952380Y-63380952D01*
X71000000Y-63333333D01*
X71095238Y-63285714D01*
X71285714Y-63285714D01*
X71380952Y-63333333D01*
X71952380Y-63952380D02*
X71857142Y-63904761D01*
X71809523Y-63809523D01*
X71809523Y-62952380D01*
X72333333Y-63952380D02*
X72333333Y-63285714D01*
X72333333Y-62952380D02*
X72285714Y-63000000D01*
X72333333Y-63047619D01*
X72380952Y-63000000D01*
X72333333Y-62952380D01*
X72333333Y-63047619D01*
X72809523Y-63285714D02*
X72809523Y-64285714D01*
X72809523Y-63333333D02*
X72904761Y-63285714D01*
X73095238Y-63285714D01*
X73190476Y-63333333D01*
X73238095Y-63380952D01*
X73285714Y-63476190D01*
X73285714Y-63761904D01*
X73238095Y-63857142D01*
X73190476Y-63904761D01*
X73095238Y-63952380D01*
X72904761Y-63952380D01*
X72809523Y-63904761D01*
X23095238Y-63571428D02*
X23857142Y-63571428D01*
X23476190Y-63952380D02*
X23476190Y-63190476D01*
X25095238Y-63571428D02*
X25857142Y-63571428D01*
X27238095Y-63952380D02*
X27142857Y-63904761D01*
X27095238Y-63857142D01*
X27047619Y-63761904D01*
X27047619Y-63476190D01*
X27095238Y-63380952D01*
X27142857Y-63333333D01*
X27238095Y-63285714D01*
X27380952Y-63285714D01*
X27476190Y-63333333D01*
X27523809Y-63380952D01*
X27571428Y-63476190D01*
X27571428Y-63761904D01*
X27523809Y-63857142D01*
X27476190Y-63904761D01*
X27380952Y-63952380D01*
X27238095Y-63952380D01*
X27904761Y-63285714D02*
X28142857Y-63952380D01*
X28380952Y-63285714D01*
X29142857Y-63904761D02*
X29047619Y-63952380D01*
X28857142Y-63952380D01*
X28761904Y-63904761D01*
X28714285Y-63809523D01*
X28714285Y-63428571D01*
X28761904Y-63333333D01*
X28857142Y-63285714D01*
X29047619Y-63285714D01*
X29142857Y-63333333D01*
X29190476Y-63428571D01*
X29190476Y-63523809D01*
X28714285Y-63619047D01*
X29619047Y-63952380D02*
X29619047Y-63285714D01*
X29619047Y-63476190D02*
X29666666Y-63380952D01*
X29714285Y-63333333D01*
X29809523Y-63285714D01*
X29904761Y-63285714D01*
X30666666Y-63952380D02*
X30666666Y-62952380D01*
X30666666Y-63904761D02*
X30571428Y-63952380D01*
X30380952Y-63952380D01*
X30285714Y-63904761D01*
X30238095Y-63857142D01*
X30190476Y-63761904D01*
X30190476Y-63476190D01*
X30238095Y-63380952D01*
X30285714Y-63333333D01*
X30380952Y-63285714D01*
X30571428Y-63285714D01*
X30666666Y-63333333D01*
X31142857Y-63952380D02*
X31142857Y-63285714D01*
X31142857Y-63476190D02*
X31190476Y-63380952D01*
X31238095Y-63333333D01*
X31333333Y-63285714D01*
X31428571Y-63285714D01*
X31761904Y-63952380D02*
X31761904Y-63285714D01*
X31761904Y-62952380D02*
X31714285Y-63000000D01*
X31761904Y-63047619D01*
X31809523Y-63000000D01*
X31761904Y-62952380D01*
X31761904Y-63047619D01*
X32142857Y-63285714D02*
X32380952Y-63952380D01*
X32619047Y-63285714D01*
X33380952Y-63904761D02*
X33285714Y-63952380D01*
X33095238Y-63952380D01*
X33000000Y-63904761D01*
X32952380Y-63809523D01*
X32952380Y-63428571D01*
X33000000Y-63333333D01*
X33095238Y-63285714D01*
X33285714Y-63285714D01*
X33380952Y-63333333D01*
X33428571Y-63428571D01*
X33428571Y-63523809D01*
X32952380Y-63619047D01*
X34571428Y-62904761D02*
X33714285Y-64190476D01*
X35333333Y-63904761D02*
X35238095Y-63952380D01*
X35047619Y-63952380D01*
X34952380Y-63904761D01*
X34904761Y-63857142D01*
X34857142Y-63761904D01*
X34857142Y-63476190D01*
X34904761Y-63380952D01*
X34952380Y-63333333D01*
X35047619Y-63285714D01*
X35238095Y-63285714D01*
X35333333Y-63333333D01*
X35904761Y-63952380D02*
X35809523Y-63904761D01*
X35761904Y-63857142D01*
X35714285Y-63761904D01*
X35714285Y-63476190D01*
X35761904Y-63380952D01*
X35809523Y-63333333D01*
X35904761Y-63285714D01*
X36047619Y-63285714D01*
X36142857Y-63333333D01*
X36190476Y-63380952D01*
X36238095Y-63476190D01*
X36238095Y-63761904D01*
X36190476Y-63857142D01*
X36142857Y-63904761D01*
X36047619Y-63952380D01*
X35904761Y-63952380D01*
X36666666Y-63952380D02*
X36666666Y-63285714D01*
X36666666Y-63380952D02*
X36714285Y-63333333D01*
X36809523Y-63285714D01*
X36952380Y-63285714D01*
X37047619Y-63333333D01*
X37095238Y-63428571D01*
X37095238Y-63952380D01*
X37095238Y-63428571D02*
X37142857Y-63333333D01*
X37238095Y-63285714D01*
X37380952Y-63285714D01*
X37476190Y-63333333D01*
X37523809Y-63428571D01*
X37523809Y-63952380D01*
X38000000Y-63285714D02*
X38000000Y-64285714D01*
X38000000Y-63333333D02*
X38095238Y-63285714D01*
X38285714Y-63285714D01*
X38380952Y-63333333D01*
X38428571Y-63380952D01*
X38476190Y-63476190D01*
X38476190Y-63761904D01*
X38428571Y-63857142D01*
X38380952Y-63904761D01*
X38285714Y-63952380D01*
X38095238Y-63952380D01*
X38000000Y-63904761D01*
X39619047Y-62904761D02*
X38761904Y-64190476D01*
X39952380Y-63952380D02*
X39952380Y-63285714D01*
X39952380Y-63380952D02*
X40000000Y-63333333D01*
X40095238Y-63285714D01*
X40238095Y-63285714D01*
X40333333Y-63333333D01*
X40380952Y-63428571D01*
X40380952Y-63952380D01*
X40380952Y-63428571D02*
X40428571Y-63333333D01*
X40523809Y-63285714D01*
X40666666Y-63285714D01*
X40761904Y-63333333D01*
X40809523Y-63428571D01*
X40809523Y-63952380D01*
X41714285Y-63285714D02*
X41714285Y-63952380D01*
X41285714Y-63285714D02*
X41285714Y-63809523D01*
X41333333Y-63904761D01*
X41428571Y-63952380D01*
X41571428Y-63952380D01*
X41666666Y-63904761D01*
X41714285Y-63857142D01*
X42047619Y-63285714D02*
X42428571Y-63285714D01*
X42190476Y-62952380D02*
X42190476Y-63809523D01*
X42238095Y-63904761D01*
X42333333Y-63952380D01*
X42428571Y-63952380D01*
X43142857Y-63904761D02*
X43047619Y-63952380D01*
X42857142Y-63952380D01*
X42761904Y-63904761D01*
X42714285Y-63809523D01*
X42714285Y-63428571D01*
X42761904Y-63333333D01*
X42857142Y-63285714D01*
X43047619Y-63285714D01*
X43142857Y-63333333D01*
X43190476Y-63428571D01*
X43190476Y-63523809D01*
X42714285Y-63619047D01*
X44333333Y-62904761D02*
X43476190Y-64190476D01*
X44666666Y-63285714D02*
X44666666Y-64285714D01*
X44666666Y-63333333D02*
X44761904Y-63285714D01*
X44952380Y-63285714D01*
X45047619Y-63333333D01*
X45095238Y-63380952D01*
X45142857Y-63476190D01*
X45142857Y-63761904D01*
X45095238Y-63857142D01*
X45047619Y-63904761D01*
X44952380Y-63952380D01*
X44761904Y-63952380D01*
X44666666Y-63904761D01*
X45999999Y-63952380D02*
X45999999Y-63428571D01*
X45952380Y-63333333D01*
X45857142Y-63285714D01*
X45666666Y-63285714D01*
X45571428Y-63333333D01*
X45999999Y-63904761D02*
X45904761Y-63952380D01*
X45666666Y-63952380D01*
X45571428Y-63904761D01*
X45523809Y-63809523D01*
X45523809Y-63714285D01*
X45571428Y-63619047D01*
X45666666Y-63571428D01*
X45904761Y-63571428D01*
X45999999Y-63523809D01*
X46904761Y-63952380D02*
X46904761Y-62952380D01*
X46904761Y-63904761D02*
X46809523Y-63952380D01*
X46619047Y-63952380D01*
X46523809Y-63904761D01*
X46476190Y-63857142D01*
X46428571Y-63761904D01*
X46428571Y-63476190D01*
X46476190Y-63380952D01*
X46523809Y-63333333D01*
X46619047Y-63285714D01*
X46809523Y-63285714D01*
X46904761Y-63333333D01*
X37452380Y-22761904D02*
X37452380Y-22190476D01*
X38452380Y-22476190D02*
X37452380Y-22476190D01*
X37452380Y-21952380D02*
X38452380Y-21285714D01*
X37452380Y-21285714D02*
X38452380Y-21952380D01*
X35452380Y-22166666D02*
X34976190Y-22500000D01*
X35452380Y-22738095D02*
X34452380Y-22738095D01*
X34452380Y-22357142D01*
X34500000Y-22261904D01*
X34547619Y-22214285D01*
X34642857Y-22166666D01*
X34785714Y-22166666D01*
X34880952Y-22214285D01*
X34928571Y-22261904D01*
X34976190Y-22357142D01*
X34976190Y-22738095D01*
X34452380Y-21833333D02*
X35452380Y-21166666D01*
X34452380Y-21166666D02*
X35452380Y-21833333D01*
X32952380Y-22619047D02*
X32952380Y-23190476D01*
X32952380Y-22904761D02*
X31952380Y-22904761D01*
X32095238Y-23000000D01*
X32190476Y-23095238D01*
X32238095Y-23190476D01*
X32047619Y-22238095D02*
X32000000Y-22190476D01*
X31952380Y-22095238D01*
X31952380Y-21857142D01*
X32000000Y-21761904D01*
X32047619Y-21714285D01*
X32142857Y-21666666D01*
X32238095Y-21666666D01*
X32380952Y-21714285D01*
X32952380Y-22285714D01*
X32952380Y-21666666D01*
X31952380Y-21380952D02*
X32952380Y-21047619D01*
X31952380Y-20714285D01*
X27000000Y-21238095D02*
X26952380Y-21333333D01*
X26952380Y-21476190D01*
X27000000Y-21619047D01*
X27095238Y-21714285D01*
X27190476Y-21761904D01*
X27380952Y-21809523D01*
X27523809Y-21809523D01*
X27714285Y-21761904D01*
X27809523Y-21714285D01*
X27904761Y-21619047D01*
X27952380Y-21476190D01*
X27952380Y-21380952D01*
X27904761Y-21238095D01*
X27857142Y-21190476D01*
X27523809Y-21190476D01*
X27523809Y-21380952D01*
X24500000Y-21238095D02*
X24452380Y-21333333D01*
X24452380Y-21476190D01*
X24500000Y-21619047D01*
X24595238Y-21714285D01*
X24690476Y-21761904D01*
X24880952Y-21809523D01*
X25023809Y-21809523D01*
X25214285Y-21761904D01*
X25309523Y-21714285D01*
X25404761Y-21619047D01*
X25452380Y-21476190D01*
X25452380Y-21380952D01*
X25404761Y-21238095D01*
X25357142Y-21190476D01*
X25023809Y-21190476D01*
X25023809Y-21380952D01*
X34000000Y-36738095D02*
X33952380Y-36833333D01*
X33952380Y-36976190D01*
X34000000Y-37119047D01*
X34095238Y-37214285D01*
X34190476Y-37261904D01*
X34380952Y-37309523D01*
X34523809Y-37309523D01*
X34714285Y-37261904D01*
X34809523Y-37214285D01*
X34904761Y-37119047D01*
X34952380Y-36976190D01*
X34952380Y-36880952D01*
X34904761Y-36738095D01*
X34857142Y-36690476D01*
X34523809Y-36690476D01*
X34523809Y-36880952D01*
X31500000Y-36738095D02*
X31452380Y-36833333D01*
X31452380Y-36976190D01*
X31500000Y-37119047D01*
X31595238Y-37214285D01*
X31690476Y-37261904D01*
X31880952Y-37309523D01*
X32023809Y-37309523D01*
X32214285Y-37261904D01*
X32309523Y-37214285D01*
X32404761Y-37119047D01*
X32452380Y-36976190D01*
X32452380Y-36880952D01*
X32404761Y-36738095D01*
X32357142Y-36690476D01*
X32023809Y-36690476D01*
X32023809Y-36880952D01*
X29000000Y-36738095D02*
X28952380Y-36833333D01*
X28952380Y-36976190D01*
X29000000Y-37119047D01*
X29095238Y-37214285D01*
X29190476Y-37261904D01*
X29380952Y-37309523D01*
X29523809Y-37309523D01*
X29714285Y-37261904D01*
X29809523Y-37214285D01*
X29904761Y-37119047D01*
X29952380Y-36976190D01*
X29952380Y-36880952D01*
X29904761Y-36738095D01*
X29857142Y-36690476D01*
X29523809Y-36690476D01*
X29523809Y-36880952D01*
X29452380Y-22190476D02*
X29452380Y-22666666D01*
X29928571Y-22714285D01*
X29880952Y-22666666D01*
X29833333Y-22571428D01*
X29833333Y-22333333D01*
X29880952Y-22238095D01*
X29928571Y-22190476D01*
X30023809Y-22142857D01*
X30261904Y-22142857D01*
X30357142Y-22190476D01*
X30404761Y-22238095D01*
X30452380Y-22333333D01*
X30452380Y-22571428D01*
X30404761Y-22666666D01*
X30357142Y-22714285D01*
X29452380Y-21857142D02*
X30452380Y-21523809D01*
X29452380Y-21190476D01*
X40666666Y-18928571D02*
X40333333Y-18928571D01*
X40333333Y-19452380D02*
X40333333Y-18452380D01*
X40809523Y-18452380D01*
X41142857Y-19404761D02*
X41285714Y-19452380D01*
X41523809Y-19452380D01*
X41619047Y-19404761D01*
X41666666Y-19357142D01*
X41714285Y-19261904D01*
X41714285Y-19166666D01*
X41666666Y-19071428D01*
X41619047Y-19023809D01*
X41523809Y-18976190D01*
X41333333Y-18928571D01*
X41238095Y-18880952D01*
X41190476Y-18833333D01*
X41142857Y-18738095D01*
X41142857Y-18642857D01*
X41190476Y-18547619D01*
X41238095Y-18500000D01*
X41333333Y-18452380D01*
X41571428Y-18452380D01*
X41714285Y-18500000D01*
X21190476Y-37452380D02*
X21190476Y-36452380D01*
X21571428Y-36452380D01*
X21666666Y-36500000D01*
X21714285Y-36547619D01*
X21761904Y-36642857D01*
X21761904Y-36785714D01*
X21714285Y-36880952D01*
X21666666Y-36928571D01*
X21571428Y-36976190D01*
X21190476Y-36976190D01*
X22380952Y-36452380D02*
X22571428Y-36452380D01*
X22666666Y-36500000D01*
X22761904Y-36595238D01*
X22809523Y-36785714D01*
X22809523Y-37119047D01*
X22761904Y-37309523D01*
X22666666Y-37404761D01*
X22571428Y-37452380D01*
X22380952Y-37452380D01*
X22285714Y-37404761D01*
X22190476Y-37309523D01*
X22142857Y-37119047D01*
X22142857Y-36785714D01*
X22190476Y-36595238D01*
X22285714Y-36500000D01*
X22380952Y-36452380D01*
X23142857Y-36452380D02*
X23380952Y-37452380D01*
X23571428Y-36738095D01*
X23761904Y-37452380D01*
X24000000Y-36452380D01*
X24380952Y-36928571D02*
X24714285Y-36928571D01*
X24857142Y-37452380D02*
X24380952Y-37452380D01*
X24380952Y-36452380D01*
X24857142Y-36452380D01*
X25857142Y-37452380D02*
X25523809Y-36976190D01*
X25285714Y-37452380D02*
X25285714Y-36452380D01*
X25666666Y-36452380D01*
X25761904Y-36500000D01*
X25809523Y-36547619D01*
X25857142Y-36642857D01*
X25857142Y-36785714D01*
X25809523Y-36880952D01*
X25761904Y-36928571D01*
X25666666Y-36976190D01*
X25285714Y-36976190D01*
X26928571Y-43809523D02*
X26928571Y-44142857D01*
X27452380Y-44142857D02*
X26452380Y-44142857D01*
X26452380Y-43666666D01*
X27166666Y-43333333D02*
X27166666Y-42857142D01*
X27452380Y-43428571D02*
X26452380Y-43095238D01*
X27452380Y-42761904D01*
X27452380Y-42428571D02*
X26452380Y-42428571D01*
X27452380Y-41857142D01*
X26452380Y-41857142D01*
X24952380Y-43619047D02*
X24952380Y-44190476D01*
X24952380Y-43904761D02*
X23952380Y-43904761D01*
X24095238Y-44000000D01*
X24190476Y-44095238D01*
X24238095Y-44190476D01*
X24047619Y-43238095D02*
X24000000Y-43190476D01*
X23952380Y-43095238D01*
X23952380Y-42857142D01*
X24000000Y-42761904D01*
X24047619Y-42714285D01*
X24142857Y-42666666D01*
X24238095Y-42666666D01*
X24380952Y-42714285D01*
X24952380Y-43285714D01*
X24952380Y-42666666D01*
X23952380Y-42380952D02*
X24952380Y-42047619D01*
X23952380Y-41714285D01*
X21452380Y-43190476D02*
X21452380Y-43666666D01*
X21928571Y-43714285D01*
X21880952Y-43666666D01*
X21833333Y-43571428D01*
X21833333Y-43333333D01*
X21880952Y-43238095D01*
X21928571Y-43190476D01*
X22023809Y-43142857D01*
X22261904Y-43142857D01*
X22357142Y-43190476D01*
X22404761Y-43238095D01*
X22452380Y-43333333D01*
X22452380Y-43571428D01*
X22404761Y-43666666D01*
X22357142Y-43714285D01*
X21452380Y-42857142D02*
X22452380Y-42523809D01*
X21452380Y-42190476D01*
D11*
X57540000Y-48700000D02*
X57540000Y-46160000D01*
X52460000Y-48700000D02*
X57540000Y-48700000D01*
X52460000Y-46160000D02*
X52460000Y-48700000D01*
X57540000Y-46160000D02*
X52460000Y-46160000D01*
X52460000Y-20760000D02*
X52460000Y-15680000D01*
X57540000Y-20760000D02*
X52460000Y-20760000D01*
X57540000Y-15680000D02*
X57540000Y-20760000D01*
X44840000Y-15680000D02*
X65160000Y-15680000D01*
X44840000Y-53780000D02*
X44840000Y-15680000D01*
X65160000Y-53780000D02*
X44840000Y-53780000D01*
X65160000Y-15680000D02*
X65160000Y-53780000D01*
X29440000Y-46000000D02*
X29440000Y-47950000D01*
X29440000Y-46000000D02*
X29440000Y-44050000D01*
X34560000Y-46000000D02*
X34560000Y-47950000D01*
X34560000Y-46000000D02*
X34560000Y-42550000D01*
X42560000Y-55000000D02*
X42560000Y-51550000D01*
X42560000Y-55000000D02*
X42560000Y-56950000D01*
X37440000Y-55000000D02*
X37440000Y-53050000D01*
X37440000Y-55000000D02*
X37440000Y-56950000D01*
X37000000Y-24940000D02*
X33550000Y-24940000D01*
X37000000Y-24940000D02*
X38950000Y-24940000D01*
X37000000Y-35060000D02*
X35050000Y-35060000D01*
X37000000Y-35060000D02*
X38950000Y-35060000D01*
X41290000Y-25803922D02*
X41290000Y-26321078D01*
X42710000Y-25803922D02*
X42710000Y-26321078D01*
X32710000Y-25196078D02*
X32710000Y-24678922D01*
X31290000Y-25196078D02*
X31290000Y-24678922D01*
X31321078Y-32290000D02*
X30803922Y-32290000D01*
X31321078Y-33710000D02*
X30803922Y-33710000D01*
X31196078Y-27290000D02*
X30678922Y-27290000D01*
X31196078Y-28710000D02*
X30678922Y-28710000D01*
X31196078Y-30290000D02*
X30678922Y-30290000D01*
X31196078Y-31710000D02*
X30678922Y-31710000D01*
X23670000Y-20330000D02*
X23670000Y-19000000D01*
X25000000Y-20330000D02*
X23670000Y-20330000D01*
X26270000Y-20330000D02*
X26270000Y-17670000D01*
X26270000Y-17670000D02*
X39030000Y-17670000D01*
X26270000Y-20330000D02*
X39030000Y-20330000D01*
X39030000Y-20330000D02*
X39030000Y-17670000D01*
X74000000Y-43940000D02*
X72050000Y-43940000D01*
X74000000Y-43940000D02*
X75950000Y-43940000D01*
X74000000Y-54060000D02*
X72050000Y-54060000D01*
X74000000Y-54060000D02*
X77450000Y-54060000D01*
X103438000Y-19618000D02*
X103438000Y-16958000D01*
X90678000Y-19618000D02*
X103438000Y-19618000D01*
X90678000Y-16958000D02*
X103438000Y-16958000D01*
X90678000Y-19618000D02*
X90678000Y-16958000D01*
X89408000Y-19618000D02*
X88078000Y-19618000D01*
X88078000Y-19618000D02*
X88078000Y-18288000D01*
X27620000Y-29000000D02*
G75*
G03X27620000Y-29000000I-5120000J0D01*
G01*
X22500000Y-23920000D02*
X22500000Y-34080000D01*
X22540000Y-23920000D02*
X22540000Y-34080000D01*
X22580000Y-23920000D02*
X22580000Y-34080000D01*
X22620000Y-23921000D02*
X22620000Y-34079000D01*
X22660000Y-23922000D02*
X22660000Y-34078000D01*
X22700000Y-23923000D02*
X22700000Y-34077000D01*
X22740000Y-23925000D02*
X22740000Y-34075000D01*
X22780000Y-23927000D02*
X22780000Y-34073000D01*
X22820000Y-23930000D02*
X22820000Y-34070000D01*
X22860000Y-23932000D02*
X22860000Y-34068000D01*
X22900000Y-23935000D02*
X22900000Y-34065000D01*
X22940000Y-23938000D02*
X22940000Y-34062000D01*
X22980000Y-23942000D02*
X22980000Y-34058000D01*
X23020000Y-23946000D02*
X23020000Y-34054000D01*
X23060000Y-23950000D02*
X23060000Y-34050000D01*
X23100000Y-23955000D02*
X23100000Y-34045000D01*
X23140000Y-23960000D02*
X23140000Y-34040000D01*
X23180000Y-23965000D02*
X23180000Y-34035000D01*
X23221000Y-23970000D02*
X23221000Y-34030000D01*
X23261000Y-23976000D02*
X23261000Y-34024000D01*
X23301000Y-23982000D02*
X23301000Y-34018000D01*
X23341000Y-23989000D02*
X23341000Y-34011000D01*
X23381000Y-23996000D02*
X23381000Y-34004000D01*
X23421000Y-24003000D02*
X23421000Y-33997000D01*
X23461000Y-24010000D02*
X23461000Y-33990000D01*
X23501000Y-24018000D02*
X23501000Y-33982000D01*
X23541000Y-24026000D02*
X23541000Y-33974000D01*
X23581000Y-24035000D02*
X23581000Y-33965000D01*
X23621000Y-24044000D02*
X23621000Y-33956000D01*
X23661000Y-24053000D02*
X23661000Y-33947000D01*
X23701000Y-24062000D02*
X23701000Y-33938000D01*
X23741000Y-24072000D02*
X23741000Y-33928000D01*
X23781000Y-24082000D02*
X23781000Y-27759000D01*
X23781000Y-30241000D02*
X23781000Y-33918000D01*
X23821000Y-24093000D02*
X23821000Y-27759000D01*
X23821000Y-30241000D02*
X23821000Y-33907000D01*
X23861000Y-24103000D02*
X23861000Y-27759000D01*
X23861000Y-30241000D02*
X23861000Y-33897000D01*
X23901000Y-24115000D02*
X23901000Y-27759000D01*
X23901000Y-30241000D02*
X23901000Y-33885000D01*
X23941000Y-24126000D02*
X23941000Y-27759000D01*
X23941000Y-30241000D02*
X23941000Y-33874000D01*
X23981000Y-24138000D02*
X23981000Y-27759000D01*
X23981000Y-30241000D02*
X23981000Y-33862000D01*
X24021000Y-24150000D02*
X24021000Y-27759000D01*
X24021000Y-30241000D02*
X24021000Y-33850000D01*
X24061000Y-24163000D02*
X24061000Y-27759000D01*
X24061000Y-30241000D02*
X24061000Y-33837000D01*
X24101000Y-24176000D02*
X24101000Y-27759000D01*
X24101000Y-30241000D02*
X24101000Y-33824000D01*
X24141000Y-24189000D02*
X24141000Y-27759000D01*
X24141000Y-30241000D02*
X24141000Y-33811000D01*
X24181000Y-24203000D02*
X24181000Y-27759000D01*
X24181000Y-30241000D02*
X24181000Y-33797000D01*
X24221000Y-24217000D02*
X24221000Y-27759000D01*
X24221000Y-30241000D02*
X24221000Y-33783000D01*
X24261000Y-24232000D02*
X24261000Y-27759000D01*
X24261000Y-30241000D02*
X24261000Y-33768000D01*
X24301000Y-24246000D02*
X24301000Y-27759000D01*
X24301000Y-30241000D02*
X24301000Y-33754000D01*
X24341000Y-24262000D02*
X24341000Y-27759000D01*
X24341000Y-30241000D02*
X24341000Y-33738000D01*
X24381000Y-24277000D02*
X24381000Y-27759000D01*
X24381000Y-30241000D02*
X24381000Y-33723000D01*
X24421000Y-24293000D02*
X24421000Y-27759000D01*
X24421000Y-30241000D02*
X24421000Y-33707000D01*
X24461000Y-24310000D02*
X24461000Y-27759000D01*
X24461000Y-30241000D02*
X24461000Y-33690000D01*
X24501000Y-24326000D02*
X24501000Y-27759000D01*
X24501000Y-30241000D02*
X24501000Y-33674000D01*
X24541000Y-24343000D02*
X24541000Y-27759000D01*
X24541000Y-30241000D02*
X24541000Y-33657000D01*
X24581000Y-24361000D02*
X24581000Y-27759000D01*
X24581000Y-30241000D02*
X24581000Y-33639000D01*
X24621000Y-24379000D02*
X24621000Y-27759000D01*
X24621000Y-30241000D02*
X24621000Y-33621000D01*
X24661000Y-24397000D02*
X24661000Y-27759000D01*
X24661000Y-30241000D02*
X24661000Y-33603000D01*
X24701000Y-24416000D02*
X24701000Y-27759000D01*
X24701000Y-30241000D02*
X24701000Y-33584000D01*
X24741000Y-24436000D02*
X24741000Y-27759000D01*
X24741000Y-30241000D02*
X24741000Y-33564000D01*
X24781000Y-24455000D02*
X24781000Y-27759000D01*
X24781000Y-30241000D02*
X24781000Y-33545000D01*
X24821000Y-24475000D02*
X24821000Y-27759000D01*
X24821000Y-30241000D02*
X24821000Y-33525000D01*
X24861000Y-24496000D02*
X24861000Y-27759000D01*
X24861000Y-30241000D02*
X24861000Y-33504000D01*
X24901000Y-24517000D02*
X24901000Y-27759000D01*
X24901000Y-30241000D02*
X24901000Y-33483000D01*
X24941000Y-24538000D02*
X24941000Y-27759000D01*
X24941000Y-30241000D02*
X24941000Y-33462000D01*
X24981000Y-24560000D02*
X24981000Y-27759000D01*
X24981000Y-30241000D02*
X24981000Y-33440000D01*
X25021000Y-24583000D02*
X25021000Y-27759000D01*
X25021000Y-30241000D02*
X25021000Y-33417000D01*
X25061000Y-24605000D02*
X25061000Y-27759000D01*
X25061000Y-30241000D02*
X25061000Y-33395000D01*
X25101000Y-24629000D02*
X25101000Y-27759000D01*
X25101000Y-30241000D02*
X25101000Y-33371000D01*
X25141000Y-24653000D02*
X25141000Y-27759000D01*
X25141000Y-30241000D02*
X25141000Y-33347000D01*
X25181000Y-24677000D02*
X25181000Y-27759000D01*
X25181000Y-30241000D02*
X25181000Y-33323000D01*
X25221000Y-24702000D02*
X25221000Y-27759000D01*
X25221000Y-30241000D02*
X25221000Y-33298000D01*
X25261000Y-24727000D02*
X25261000Y-27759000D01*
X25261000Y-30241000D02*
X25261000Y-33273000D01*
X25301000Y-24753000D02*
X25301000Y-27759000D01*
X25301000Y-30241000D02*
X25301000Y-33247000D01*
X25341000Y-24779000D02*
X25341000Y-27759000D01*
X25341000Y-30241000D02*
X25341000Y-33221000D01*
X25381000Y-24806000D02*
X25381000Y-27759000D01*
X25381000Y-30241000D02*
X25381000Y-33194000D01*
X25421000Y-24834000D02*
X25421000Y-27759000D01*
X25421000Y-30241000D02*
X25421000Y-33166000D01*
X25461000Y-24862000D02*
X25461000Y-27759000D01*
X25461000Y-30241000D02*
X25461000Y-33138000D01*
X25501000Y-24890000D02*
X25501000Y-27759000D01*
X25501000Y-30241000D02*
X25501000Y-33110000D01*
X25541000Y-24920000D02*
X25541000Y-27759000D01*
X25541000Y-30241000D02*
X25541000Y-33080000D01*
X25581000Y-24950000D02*
X25581000Y-27759000D01*
X25581000Y-30241000D02*
X25581000Y-33050000D01*
X25621000Y-24980000D02*
X25621000Y-27759000D01*
X25621000Y-30241000D02*
X25621000Y-33020000D01*
X25661000Y-25011000D02*
X25661000Y-27759000D01*
X25661000Y-30241000D02*
X25661000Y-32989000D01*
X25701000Y-25043000D02*
X25701000Y-27759000D01*
X25701000Y-30241000D02*
X25701000Y-32957000D01*
X25741000Y-25075000D02*
X25741000Y-27759000D01*
X25741000Y-30241000D02*
X25741000Y-32925000D01*
X25781000Y-25108000D02*
X25781000Y-27759000D01*
X25781000Y-30241000D02*
X25781000Y-32892000D01*
X25821000Y-25142000D02*
X25821000Y-27759000D01*
X25821000Y-30241000D02*
X25821000Y-32858000D01*
X25861000Y-25176000D02*
X25861000Y-27759000D01*
X25861000Y-30241000D02*
X25861000Y-32824000D01*
X25901000Y-25211000D02*
X25901000Y-27759000D01*
X25901000Y-30241000D02*
X25901000Y-32789000D01*
X25941000Y-25247000D02*
X25941000Y-27759000D01*
X25941000Y-30241000D02*
X25941000Y-32753000D01*
X25981000Y-25284000D02*
X25981000Y-27759000D01*
X25981000Y-30241000D02*
X25981000Y-32716000D01*
X26021000Y-25321000D02*
X26021000Y-27759000D01*
X26021000Y-30241000D02*
X26021000Y-32679000D01*
X26061000Y-25360000D02*
X26061000Y-27759000D01*
X26061000Y-30241000D02*
X26061000Y-32640000D01*
X26101000Y-25399000D02*
X26101000Y-27759000D01*
X26101000Y-30241000D02*
X26101000Y-32601000D01*
X26141000Y-25439000D02*
X26141000Y-27759000D01*
X26141000Y-30241000D02*
X26141000Y-32561000D01*
X26181000Y-25480000D02*
X26181000Y-27759000D01*
X26181000Y-30241000D02*
X26181000Y-32520000D01*
X26221000Y-25522000D02*
X26221000Y-27759000D01*
X26221000Y-30241000D02*
X26221000Y-32478000D01*
X26261000Y-25564000D02*
X26261000Y-32436000D01*
X26301000Y-25608000D02*
X26301000Y-32392000D01*
X26341000Y-25653000D02*
X26341000Y-32347000D01*
X26381000Y-25699000D02*
X26381000Y-32301000D01*
X26421000Y-25746000D02*
X26421000Y-32254000D01*
X26461000Y-25794000D02*
X26461000Y-32206000D01*
X26501000Y-25844000D02*
X26501000Y-32156000D01*
X26541000Y-25894000D02*
X26541000Y-32106000D01*
X26581000Y-25946000D02*
X26581000Y-32054000D01*
X26621000Y-26000000D02*
X26621000Y-32000000D01*
X26661000Y-26055000D02*
X26661000Y-31945000D01*
X26701000Y-26111000D02*
X26701000Y-31889000D01*
X26741000Y-26170000D02*
X26741000Y-31830000D01*
X26781000Y-26230000D02*
X26781000Y-31770000D01*
X26821000Y-26291000D02*
X26821000Y-31709000D01*
X26861000Y-26355000D02*
X26861000Y-31645000D01*
X26901000Y-26421000D02*
X26901000Y-31579000D01*
X26941000Y-26490000D02*
X26941000Y-31510000D01*
X26981000Y-26561000D02*
X26981000Y-31439000D01*
X27021000Y-26635000D02*
X27021000Y-31365000D01*
X27061000Y-26711000D02*
X27061000Y-31289000D01*
X27101000Y-26791000D02*
X27101000Y-31209000D01*
X27141000Y-26875000D02*
X27141000Y-31125000D01*
X27181000Y-26963000D02*
X27181000Y-31037000D01*
X27221000Y-27056000D02*
X27221000Y-30944000D01*
X27261000Y-27154000D02*
X27261000Y-30846000D01*
X27301000Y-27258000D02*
X27301000Y-30742000D01*
X27341000Y-27370000D02*
X27341000Y-30630000D01*
X27381000Y-27490000D02*
X27381000Y-30510000D01*
X27421000Y-27622000D02*
X27421000Y-30378000D01*
X27461000Y-27770000D02*
X27461000Y-30230000D01*
X27501000Y-27938000D02*
X27501000Y-30062000D01*
X27541000Y-28138000D02*
X27541000Y-29862000D01*
X27581000Y-28401000D02*
X27581000Y-29599000D01*
X17020354Y-26125000D02*
X18020354Y-26125000D01*
X17520354Y-25625000D02*
X17520354Y-26625000D01*
X17520354Y-47625000D02*
X17520354Y-48625000D01*
X17020354Y-48125000D02*
X18020354Y-48125000D01*
X27581000Y-50401000D02*
X27581000Y-51599000D01*
X27541000Y-50138000D02*
X27541000Y-51862000D01*
X27501000Y-49938000D02*
X27501000Y-52062000D01*
X27461000Y-49770000D02*
X27461000Y-52230000D01*
X27421000Y-49622000D02*
X27421000Y-52378000D01*
X27381000Y-49490000D02*
X27381000Y-52510000D01*
X27341000Y-49370000D02*
X27341000Y-52630000D01*
X27301000Y-49258000D02*
X27301000Y-52742000D01*
X27261000Y-49154000D02*
X27261000Y-52846000D01*
X27221000Y-49056000D02*
X27221000Y-52944000D01*
X27181000Y-48963000D02*
X27181000Y-53037000D01*
X27141000Y-48875000D02*
X27141000Y-53125000D01*
X27101000Y-48791000D02*
X27101000Y-53209000D01*
X27061000Y-48711000D02*
X27061000Y-53289000D01*
X27021000Y-48635000D02*
X27021000Y-53365000D01*
X26981000Y-48561000D02*
X26981000Y-53439000D01*
X26941000Y-48490000D02*
X26941000Y-53510000D01*
X26901000Y-48421000D02*
X26901000Y-53579000D01*
X26861000Y-48355000D02*
X26861000Y-53645000D01*
X26821000Y-48291000D02*
X26821000Y-53709000D01*
X26781000Y-48230000D02*
X26781000Y-53770000D01*
X26741000Y-48170000D02*
X26741000Y-53830000D01*
X26701000Y-48111000D02*
X26701000Y-53889000D01*
X26661000Y-48055000D02*
X26661000Y-53945000D01*
X26621000Y-48000000D02*
X26621000Y-54000000D01*
X26581000Y-47946000D02*
X26581000Y-54054000D01*
X26541000Y-47894000D02*
X26541000Y-54106000D01*
X26501000Y-47844000D02*
X26501000Y-54156000D01*
X26461000Y-47794000D02*
X26461000Y-54206000D01*
X26421000Y-47746000D02*
X26421000Y-54254000D01*
X26381000Y-47699000D02*
X26381000Y-54301000D01*
X26341000Y-47653000D02*
X26341000Y-54347000D01*
X26301000Y-47608000D02*
X26301000Y-54392000D01*
X26261000Y-47564000D02*
X26261000Y-54436000D01*
X26221000Y-52241000D02*
X26221000Y-54478000D01*
X26221000Y-47522000D02*
X26221000Y-49759000D01*
X26181000Y-52241000D02*
X26181000Y-54520000D01*
X26181000Y-47480000D02*
X26181000Y-49759000D01*
X26141000Y-52241000D02*
X26141000Y-54561000D01*
X26141000Y-47439000D02*
X26141000Y-49759000D01*
X26101000Y-52241000D02*
X26101000Y-54601000D01*
X26101000Y-47399000D02*
X26101000Y-49759000D01*
X26061000Y-52241000D02*
X26061000Y-54640000D01*
X26061000Y-47360000D02*
X26061000Y-49759000D01*
X26021000Y-52241000D02*
X26021000Y-54679000D01*
X26021000Y-47321000D02*
X26021000Y-49759000D01*
X25981000Y-52241000D02*
X25981000Y-54716000D01*
X25981000Y-47284000D02*
X25981000Y-49759000D01*
X25941000Y-52241000D02*
X25941000Y-54753000D01*
X25941000Y-47247000D02*
X25941000Y-49759000D01*
X25901000Y-52241000D02*
X25901000Y-54789000D01*
X25901000Y-47211000D02*
X25901000Y-49759000D01*
X25861000Y-52241000D02*
X25861000Y-54824000D01*
X25861000Y-47176000D02*
X25861000Y-49759000D01*
X25821000Y-52241000D02*
X25821000Y-54858000D01*
X25821000Y-47142000D02*
X25821000Y-49759000D01*
X25781000Y-52241000D02*
X25781000Y-54892000D01*
X25781000Y-47108000D02*
X25781000Y-49759000D01*
X25741000Y-52241000D02*
X25741000Y-54925000D01*
X25741000Y-47075000D02*
X25741000Y-49759000D01*
X25701000Y-52241000D02*
X25701000Y-54957000D01*
X25701000Y-47043000D02*
X25701000Y-49759000D01*
X25661000Y-52241000D02*
X25661000Y-54989000D01*
X25661000Y-47011000D02*
X25661000Y-49759000D01*
X25621000Y-52241000D02*
X25621000Y-55020000D01*
X25621000Y-46980000D02*
X25621000Y-49759000D01*
X25581000Y-52241000D02*
X25581000Y-55050000D01*
X25581000Y-46950000D02*
X25581000Y-49759000D01*
X25541000Y-52241000D02*
X25541000Y-55080000D01*
X25541000Y-46920000D02*
X25541000Y-49759000D01*
X25501000Y-52241000D02*
X25501000Y-55110000D01*
X25501000Y-46890000D02*
X25501000Y-49759000D01*
X25461000Y-52241000D02*
X25461000Y-55138000D01*
X25461000Y-46862000D02*
X25461000Y-49759000D01*
X25421000Y-52241000D02*
X25421000Y-55166000D01*
X25421000Y-46834000D02*
X25421000Y-49759000D01*
X25381000Y-52241000D02*
X25381000Y-55194000D01*
X25381000Y-46806000D02*
X25381000Y-49759000D01*
X25341000Y-52241000D02*
X25341000Y-55221000D01*
X25341000Y-46779000D02*
X25341000Y-49759000D01*
X25301000Y-52241000D02*
X25301000Y-55247000D01*
X25301000Y-46753000D02*
X25301000Y-49759000D01*
X25261000Y-52241000D02*
X25261000Y-55273000D01*
X25261000Y-46727000D02*
X25261000Y-49759000D01*
X25221000Y-52241000D02*
X25221000Y-55298000D01*
X25221000Y-46702000D02*
X25221000Y-49759000D01*
X25181000Y-52241000D02*
X25181000Y-55323000D01*
X25181000Y-46677000D02*
X25181000Y-49759000D01*
X25141000Y-52241000D02*
X25141000Y-55347000D01*
X25141000Y-46653000D02*
X25141000Y-49759000D01*
X25101000Y-52241000D02*
X25101000Y-55371000D01*
X25101000Y-46629000D02*
X25101000Y-49759000D01*
X25061000Y-52241000D02*
X25061000Y-55395000D01*
X25061000Y-46605000D02*
X25061000Y-49759000D01*
X25021000Y-52241000D02*
X25021000Y-55417000D01*
X25021000Y-46583000D02*
X25021000Y-49759000D01*
X24981000Y-52241000D02*
X24981000Y-55440000D01*
X24981000Y-46560000D02*
X24981000Y-49759000D01*
X24941000Y-52241000D02*
X24941000Y-55462000D01*
X24941000Y-46538000D02*
X24941000Y-49759000D01*
X24901000Y-52241000D02*
X24901000Y-55483000D01*
X24901000Y-46517000D02*
X24901000Y-49759000D01*
X24861000Y-52241000D02*
X24861000Y-55504000D01*
X24861000Y-46496000D02*
X24861000Y-49759000D01*
X24821000Y-52241000D02*
X24821000Y-55525000D01*
X24821000Y-46475000D02*
X24821000Y-49759000D01*
X24781000Y-52241000D02*
X24781000Y-55545000D01*
X24781000Y-46455000D02*
X24781000Y-49759000D01*
X24741000Y-52241000D02*
X24741000Y-55564000D01*
X24741000Y-46436000D02*
X24741000Y-49759000D01*
X24701000Y-52241000D02*
X24701000Y-55584000D01*
X24701000Y-46416000D02*
X24701000Y-49759000D01*
X24661000Y-52241000D02*
X24661000Y-55603000D01*
X24661000Y-46397000D02*
X24661000Y-49759000D01*
X24621000Y-52241000D02*
X24621000Y-55621000D01*
X24621000Y-46379000D02*
X24621000Y-49759000D01*
X24581000Y-52241000D02*
X24581000Y-55639000D01*
X24581000Y-46361000D02*
X24581000Y-49759000D01*
X24541000Y-52241000D02*
X24541000Y-55657000D01*
X24541000Y-46343000D02*
X24541000Y-49759000D01*
X24501000Y-52241000D02*
X24501000Y-55674000D01*
X24501000Y-46326000D02*
X24501000Y-49759000D01*
X24461000Y-52241000D02*
X24461000Y-55690000D01*
X24461000Y-46310000D02*
X24461000Y-49759000D01*
X24421000Y-52241000D02*
X24421000Y-55707000D01*
X24421000Y-46293000D02*
X24421000Y-49759000D01*
X24381000Y-52241000D02*
X24381000Y-55723000D01*
X24381000Y-46277000D02*
X24381000Y-49759000D01*
X24341000Y-52241000D02*
X24341000Y-55738000D01*
X24341000Y-46262000D02*
X24341000Y-49759000D01*
X24301000Y-52241000D02*
X24301000Y-55754000D01*
X24301000Y-46246000D02*
X24301000Y-49759000D01*
X24261000Y-52241000D02*
X24261000Y-55768000D01*
X24261000Y-46232000D02*
X24261000Y-49759000D01*
X24221000Y-52241000D02*
X24221000Y-55783000D01*
X24221000Y-46217000D02*
X24221000Y-49759000D01*
X24181000Y-52241000D02*
X24181000Y-55797000D01*
X24181000Y-46203000D02*
X24181000Y-49759000D01*
X24141000Y-52241000D02*
X24141000Y-55811000D01*
X24141000Y-46189000D02*
X24141000Y-49759000D01*
X24101000Y-52241000D02*
X24101000Y-55824000D01*
X24101000Y-46176000D02*
X24101000Y-49759000D01*
X24061000Y-52241000D02*
X24061000Y-55837000D01*
X24061000Y-46163000D02*
X24061000Y-49759000D01*
X24021000Y-52241000D02*
X24021000Y-55850000D01*
X24021000Y-46150000D02*
X24021000Y-49759000D01*
X23981000Y-52241000D02*
X23981000Y-55862000D01*
X23981000Y-46138000D02*
X23981000Y-49759000D01*
X23941000Y-52241000D02*
X23941000Y-55874000D01*
X23941000Y-46126000D02*
X23941000Y-49759000D01*
X23901000Y-52241000D02*
X23901000Y-55885000D01*
X23901000Y-46115000D02*
X23901000Y-49759000D01*
X23861000Y-52241000D02*
X23861000Y-55897000D01*
X23861000Y-46103000D02*
X23861000Y-49759000D01*
X23821000Y-52241000D02*
X23821000Y-55907000D01*
X23821000Y-46093000D02*
X23821000Y-49759000D01*
X23781000Y-52241000D02*
X23781000Y-55918000D01*
X23781000Y-46082000D02*
X23781000Y-49759000D01*
X23741000Y-46072000D02*
X23741000Y-55928000D01*
X23701000Y-46062000D02*
X23701000Y-55938000D01*
X23661000Y-46053000D02*
X23661000Y-55947000D01*
X23621000Y-46044000D02*
X23621000Y-55956000D01*
X23581000Y-46035000D02*
X23581000Y-55965000D01*
X23541000Y-46026000D02*
X23541000Y-55974000D01*
X23501000Y-46018000D02*
X23501000Y-55982000D01*
X23461000Y-46010000D02*
X23461000Y-55990000D01*
X23421000Y-46003000D02*
X23421000Y-55997000D01*
X23381000Y-45996000D02*
X23381000Y-56004000D01*
X23341000Y-45989000D02*
X23341000Y-56011000D01*
X23301000Y-45982000D02*
X23301000Y-56018000D01*
X23261000Y-45976000D02*
X23261000Y-56024000D01*
X23221000Y-45970000D02*
X23221000Y-56030000D01*
X23180000Y-45965000D02*
X23180000Y-56035000D01*
X23140000Y-45960000D02*
X23140000Y-56040000D01*
X23100000Y-45955000D02*
X23100000Y-56045000D01*
X23060000Y-45950000D02*
X23060000Y-56050000D01*
X23020000Y-45946000D02*
X23020000Y-56054000D01*
X22980000Y-45942000D02*
X22980000Y-56058000D01*
X22940000Y-45938000D02*
X22940000Y-56062000D01*
X22900000Y-45935000D02*
X22900000Y-56065000D01*
X22860000Y-45932000D02*
X22860000Y-56068000D01*
X22820000Y-45930000D02*
X22820000Y-56070000D01*
X22780000Y-45927000D02*
X22780000Y-56073000D01*
X22740000Y-45925000D02*
X22740000Y-56075000D01*
X22700000Y-45923000D02*
X22700000Y-56077000D01*
X22660000Y-45922000D02*
X22660000Y-56078000D01*
X22620000Y-45921000D02*
X22620000Y-56079000D01*
X22580000Y-45920000D02*
X22580000Y-56080000D01*
X22540000Y-45920000D02*
X22540000Y-56080000D01*
X22500000Y-45920000D02*
X22500000Y-56080000D01*
X27620000Y-51000000D02*
G75*
G03X27620000Y-51000000I-5120000J0D01*
G01*
X17290000Y-35678922D02*
X17290000Y-36196078D01*
X18710000Y-35678922D02*
X18710000Y-36196078D01*
X17290000Y-44321078D02*
X17290000Y-43803922D01*
X18710000Y-44321078D02*
X18710000Y-43803922D01*
X69798000Y-52153078D02*
X69798000Y-51635922D01*
X68378000Y-52153078D02*
X68378000Y-51635922D01*
X85321078Y-27710000D02*
X84803922Y-27710000D01*
X85321078Y-26290000D02*
X84803922Y-26290000D01*
X85321078Y-49710000D02*
X84803922Y-49710000D01*
X85321078Y-48290000D02*
X84803922Y-48290000D01*
X82115922Y-23166000D02*
X82633078Y-23166000D01*
X82115922Y-24586000D02*
X82633078Y-24586000D01*
X77553078Y-16054000D02*
X77035922Y-16054000D01*
X77553078Y-17474000D02*
X77035922Y-17474000D01*
X106803922Y-24290000D02*
X107321078Y-24290000D01*
X106803922Y-25710000D02*
X107321078Y-25710000D01*
X106803922Y-48290000D02*
X107321078Y-48290000D01*
X106803922Y-49710000D02*
X107321078Y-49710000D01*
X85196078Y-30290000D02*
X84678922Y-30290000D01*
X85196078Y-31710000D02*
X84678922Y-31710000D01*
X85321078Y-54190000D02*
X84803922Y-54190000D01*
X85321078Y-55610000D02*
X84803922Y-55610000D01*
X106678922Y-30290000D02*
X107196078Y-30290000D01*
X106678922Y-31710000D02*
X107196078Y-31710000D01*
X68917078Y-18086000D02*
X68399922Y-18086000D01*
X68917078Y-19506000D02*
X68399922Y-19506000D01*
X106803922Y-55710000D02*
X107321078Y-55710000D01*
X106803922Y-54290000D02*
X107321078Y-54290000D01*
X85321078Y-36290000D02*
X84803922Y-36290000D01*
X85321078Y-37710000D02*
X84803922Y-37710000D01*
X85321078Y-61710000D02*
X84803922Y-61710000D01*
X85321078Y-60290000D02*
X84803922Y-60290000D01*
X106803922Y-36290000D02*
X107321078Y-36290000D01*
X106803922Y-37710000D02*
X107321078Y-37710000D01*
X105090000Y-61258578D02*
X105090000Y-60741422D01*
X106510000Y-61258578D02*
X106510000Y-60741422D01*
X85196078Y-42290000D02*
X84678922Y-42290000D01*
X85196078Y-43710000D02*
X84678922Y-43710000D01*
X106803922Y-43710000D02*
X107321078Y-43710000D01*
X106803922Y-42290000D02*
X107321078Y-42290000D01*
X47330000Y-59630000D02*
X47330000Y-60960000D01*
X46000000Y-59630000D02*
X47330000Y-59630000D01*
X44730000Y-59630000D02*
X44730000Y-62290000D01*
X44730000Y-62290000D02*
X26890000Y-62290000D01*
X44730000Y-59630000D02*
X26890000Y-59630000D01*
X26890000Y-59630000D02*
X26890000Y-62290000D01*
X71815000Y-62290000D02*
X71815000Y-59630000D01*
X53975000Y-62290000D02*
X71815000Y-62290000D01*
X53975000Y-59630000D02*
X71815000Y-59630000D01*
X53975000Y-62290000D02*
X53975000Y-59630000D01*
X52705000Y-62290000D02*
X51375000Y-62290000D01*
X51375000Y-62290000D02*
X51375000Y-60960000D01*
X35950000Y-41330000D02*
X35950000Y-38670000D01*
X23190000Y-41330000D02*
X35950000Y-41330000D01*
X23190000Y-38670000D02*
X35950000Y-38670000D01*
X23190000Y-41330000D02*
X23190000Y-38670000D01*
X21920000Y-41330000D02*
X20590000Y-41330000D01*
X20590000Y-41330000D02*
X20590000Y-40000000D01*
X74251078Y-57710000D02*
X73733922Y-57710000D01*
X74251078Y-56290000D02*
X73733922Y-56290000D01*
X82115922Y-19506000D02*
X82633078Y-19506000D01*
X82115922Y-18086000D02*
X82633078Y-18086000D01*
X82115922Y-20626000D02*
X82633078Y-20626000D01*
X82115922Y-22046000D02*
X82633078Y-22046000D01*
X68399922Y-26618000D02*
X68917078Y-26618000D01*
X68399922Y-25198000D02*
X68917078Y-25198000D01*
X68399922Y-21642000D02*
X68917078Y-21642000D01*
X68399922Y-23062000D02*
X68917078Y-23062000D01*
X104030000Y-26330000D02*
X104030000Y-23670000D01*
X91270000Y-26330000D02*
X104030000Y-26330000D01*
X91270000Y-23670000D02*
X104030000Y-23670000D01*
X91270000Y-26330000D02*
X91270000Y-23670000D01*
X90000000Y-26330000D02*
X88670000Y-26330000D01*
X88670000Y-26330000D02*
X88670000Y-25000000D01*
X88670000Y-32330000D02*
X88670000Y-31000000D01*
X90000000Y-32330000D02*
X88670000Y-32330000D01*
X91270000Y-32330000D02*
X91270000Y-29670000D01*
X91270000Y-29670000D02*
X104030000Y-29670000D01*
X91270000Y-32330000D02*
X104030000Y-32330000D01*
X104030000Y-32330000D02*
X104030000Y-29670000D01*
X104030000Y-38330000D02*
X104030000Y-35670000D01*
X91270000Y-38330000D02*
X104030000Y-38330000D01*
X91270000Y-35670000D02*
X104030000Y-35670000D01*
X91270000Y-38330000D02*
X91270000Y-35670000D01*
X90000000Y-38330000D02*
X88670000Y-38330000D01*
X88670000Y-38330000D02*
X88670000Y-37000000D01*
X88670000Y-44330000D02*
X88670000Y-43000000D01*
X90000000Y-44330000D02*
X88670000Y-44330000D01*
X91270000Y-44330000D02*
X91270000Y-41670000D01*
X91270000Y-41670000D02*
X104030000Y-41670000D01*
X91270000Y-44330000D02*
X104030000Y-44330000D01*
X104030000Y-44330000D02*
X104030000Y-41670000D01*
X88670000Y-50330000D02*
X88670000Y-49000000D01*
X90000000Y-50330000D02*
X88670000Y-50330000D01*
X91270000Y-50330000D02*
X91270000Y-47670000D01*
X91270000Y-47670000D02*
X104030000Y-47670000D01*
X91270000Y-50330000D02*
X104030000Y-50330000D01*
X104030000Y-50330000D02*
X104030000Y-47670000D01*
X104030000Y-56330000D02*
X104030000Y-53670000D01*
X91270000Y-56330000D02*
X104030000Y-56330000D01*
X91270000Y-53670000D02*
X104030000Y-53670000D01*
X91270000Y-56330000D02*
X91270000Y-53670000D01*
X90000000Y-56330000D02*
X88670000Y-56330000D01*
X88670000Y-56330000D02*
X88670000Y-55000000D01*
X88670000Y-62330000D02*
X88670000Y-61000000D01*
X90000000Y-62330000D02*
X88670000Y-62330000D01*
X91270000Y-62330000D02*
X91270000Y-59670000D01*
X91270000Y-59670000D02*
X104030000Y-59670000D01*
X91270000Y-62330000D02*
X104030000Y-62330000D01*
X104030000Y-62330000D02*
X104030000Y-59670000D01*
X76140000Y-59630000D02*
X76140000Y-62290000D01*
X78740000Y-59630000D02*
X76140000Y-59630000D01*
X78740000Y-62290000D02*
X76140000Y-62290000D01*
X78740000Y-59630000D02*
X78740000Y-62290000D01*
X80010000Y-59630000D02*
X81340000Y-59630000D01*
X81340000Y-59630000D02*
X81340000Y-60960000D01*
X75692000Y-27295000D02*
X77642000Y-27295000D01*
X75692000Y-27295000D02*
X73742000Y-27295000D01*
X75692000Y-18425000D02*
X77642000Y-18425000D01*
X75692000Y-18425000D02*
X72242000Y-18425000D01*
X34560000Y-55000000D02*
X34560000Y-51550000D01*
X34560000Y-55000000D02*
X34560000Y-56950000D01*
X29440000Y-55000000D02*
X29440000Y-53050000D01*
X29440000Y-55000000D02*
X29440000Y-56950000D01*
X37445000Y-46000000D02*
X37445000Y-47950000D01*
X37445000Y-46000000D02*
X37445000Y-44050000D01*
X42565000Y-46000000D02*
X42565000Y-47950000D01*
X42565000Y-46000000D02*
X42565000Y-42550000D01*
D10*
X53952380Y-36761904D02*
X54761904Y-36761904D01*
X54857142Y-36714285D01*
X54904761Y-36666666D01*
X54952380Y-36571428D01*
X54952380Y-36380952D01*
X54904761Y-36285714D01*
X54857142Y-36238095D01*
X54761904Y-36190476D01*
X53952380Y-36190476D01*
X54952380Y-35190476D02*
X54952380Y-35761904D01*
X54952380Y-35476190D02*
X53952380Y-35476190D01*
X54095238Y-35571428D01*
X54190476Y-35666666D01*
X54238095Y-35761904D01*
X51000000Y-45342380D02*
X50666666Y-44866190D01*
X50428571Y-45342380D02*
X50428571Y-44342380D01*
X50809523Y-44342380D01*
X50904761Y-44390000D01*
X50952380Y-44437619D01*
X51000000Y-44532857D01*
X51000000Y-44675714D01*
X50952380Y-44770952D01*
X50904761Y-44818571D01*
X50809523Y-44866190D01*
X50428571Y-44866190D01*
X51809523Y-45294761D02*
X51714285Y-45342380D01*
X51523809Y-45342380D01*
X51428571Y-45294761D01*
X51380952Y-45199523D01*
X51380952Y-44818571D01*
X51428571Y-44723333D01*
X51523809Y-44675714D01*
X51714285Y-44675714D01*
X51809523Y-44723333D01*
X51857142Y-44818571D01*
X51857142Y-44913809D01*
X51380952Y-45009047D01*
X52238095Y-45294761D02*
X52333333Y-45342380D01*
X52523809Y-45342380D01*
X52619047Y-45294761D01*
X52666666Y-45199523D01*
X52666666Y-45151904D01*
X52619047Y-45056666D01*
X52523809Y-45009047D01*
X52380952Y-45009047D01*
X52285714Y-44961428D01*
X52238095Y-44866190D01*
X52238095Y-44818571D01*
X52285714Y-44723333D01*
X52380952Y-44675714D01*
X52523809Y-44675714D01*
X52619047Y-44723333D01*
X53476190Y-45294761D02*
X53380952Y-45342380D01*
X53190476Y-45342380D01*
X53095238Y-45294761D01*
X53047619Y-45199523D01*
X53047619Y-44818571D01*
X53095238Y-44723333D01*
X53190476Y-44675714D01*
X53380952Y-44675714D01*
X53476190Y-44723333D01*
X53523809Y-44818571D01*
X53523809Y-44913809D01*
X53047619Y-45009047D01*
X53809523Y-44675714D02*
X54190476Y-44675714D01*
X53952380Y-44342380D02*
X53952380Y-45199523D01*
X54000000Y-45294761D01*
X54095238Y-45342380D01*
X54190476Y-45342380D01*
X55285714Y-45342380D02*
X55285714Y-44342380D01*
X55285714Y-44723333D02*
X55380952Y-44675714D01*
X55571428Y-44675714D01*
X55666666Y-44723333D01*
X55714285Y-44770952D01*
X55761904Y-44866190D01*
X55761904Y-45151904D01*
X55714285Y-45247142D01*
X55666666Y-45294761D01*
X55571428Y-45342380D01*
X55380952Y-45342380D01*
X55285714Y-45294761D01*
X56619047Y-44675714D02*
X56619047Y-45342380D01*
X56190476Y-44675714D02*
X56190476Y-45199523D01*
X56238095Y-45294761D01*
X56333333Y-45342380D01*
X56476190Y-45342380D01*
X56571428Y-45294761D01*
X56619047Y-45247142D01*
X56952380Y-44675714D02*
X57333333Y-44675714D01*
X57095238Y-44342380D02*
X57095238Y-45199523D01*
X57142857Y-45294761D01*
X57238095Y-45342380D01*
X57333333Y-45342380D01*
X57523809Y-44675714D02*
X57904761Y-44675714D01*
X57666666Y-44342380D02*
X57666666Y-45199523D01*
X57714285Y-45294761D01*
X57809523Y-45342380D01*
X57904761Y-45342380D01*
X58380952Y-45342380D02*
X58285714Y-45294761D01*
X58238095Y-45247142D01*
X58190476Y-45151904D01*
X58190476Y-44866190D01*
X58238095Y-44770952D01*
X58285714Y-44723333D01*
X58380952Y-44675714D01*
X58523809Y-44675714D01*
X58619047Y-44723333D01*
X58666666Y-44770952D01*
X58714285Y-44866190D01*
X58714285Y-45151904D01*
X58666666Y-45247142D01*
X58619047Y-45294761D01*
X58523809Y-45342380D01*
X58380952Y-45342380D01*
X59142857Y-44675714D02*
X59142857Y-45342380D01*
X59142857Y-44770952D02*
X59190476Y-44723333D01*
X59285714Y-44675714D01*
X59428571Y-44675714D01*
X59523809Y-44723333D01*
X59571428Y-44818571D01*
X59571428Y-45342380D01*
X54452380Y-19481904D02*
X55261904Y-19481904D01*
X55357142Y-19434285D01*
X55404761Y-19386666D01*
X55452380Y-19291428D01*
X55452380Y-19100952D01*
X55404761Y-19005714D01*
X55357142Y-18958095D01*
X55261904Y-18910476D01*
X54452380Y-18910476D01*
X55404761Y-18481904D02*
X55452380Y-18339047D01*
X55452380Y-18100952D01*
X55404761Y-18005714D01*
X55357142Y-17958095D01*
X55261904Y-17910476D01*
X55166666Y-17910476D01*
X55071428Y-17958095D01*
X55023809Y-18005714D01*
X54976190Y-18100952D01*
X54928571Y-18291428D01*
X54880952Y-18386666D01*
X54833333Y-18434285D01*
X54738095Y-18481904D01*
X54642857Y-18481904D01*
X54547619Y-18434285D01*
X54500000Y-18386666D01*
X54452380Y-18291428D01*
X54452380Y-18053333D01*
X54500000Y-17910476D01*
X54928571Y-17148571D02*
X54976190Y-17005714D01*
X55023809Y-16958095D01*
X55119047Y-16910476D01*
X55261904Y-16910476D01*
X55357142Y-16958095D01*
X55404761Y-17005714D01*
X55452380Y-17100952D01*
X55452380Y-17481904D01*
X54452380Y-17481904D01*
X54452380Y-17148571D01*
X54500000Y-17053333D01*
X54547619Y-17005714D01*
X54642857Y-16958095D01*
X54738095Y-16958095D01*
X54833333Y-17005714D01*
X54880952Y-17053333D01*
X54928571Y-17148571D01*
X54928571Y-17481904D01*
X35947619Y-46095238D02*
X35900000Y-46190476D01*
X35804761Y-46285714D01*
X35661904Y-46428571D01*
X35614285Y-46523809D01*
X35614285Y-46619047D01*
X35852380Y-46571428D02*
X35804761Y-46666666D01*
X35709523Y-46761904D01*
X35519047Y-46809523D01*
X35185714Y-46809523D01*
X34995238Y-46761904D01*
X34900000Y-46666666D01*
X34852380Y-46571428D01*
X34852380Y-46380952D01*
X34900000Y-46285714D01*
X34995238Y-46190476D01*
X35185714Y-46142857D01*
X35519047Y-46142857D01*
X35709523Y-46190476D01*
X35804761Y-46285714D01*
X35852380Y-46380952D01*
X35852380Y-46571428D01*
X34947619Y-45761904D02*
X34900000Y-45714285D01*
X34852380Y-45619047D01*
X34852380Y-45380952D01*
X34900000Y-45285714D01*
X34947619Y-45238095D01*
X35042857Y-45190476D01*
X35138095Y-45190476D01*
X35280952Y-45238095D01*
X35852380Y-45809523D01*
X35852380Y-45190476D01*
X43947619Y-55095238D02*
X43900000Y-55190476D01*
X43804761Y-55285714D01*
X43661904Y-55428571D01*
X43614285Y-55523809D01*
X43614285Y-55619047D01*
X43852380Y-55571428D02*
X43804761Y-55666666D01*
X43709523Y-55761904D01*
X43519047Y-55809523D01*
X43185714Y-55809523D01*
X42995238Y-55761904D01*
X42900000Y-55666666D01*
X42852380Y-55571428D01*
X42852380Y-55380952D01*
X42900000Y-55285714D01*
X42995238Y-55190476D01*
X43185714Y-55142857D01*
X43519047Y-55142857D01*
X43709523Y-55190476D01*
X43804761Y-55285714D01*
X43852380Y-55380952D01*
X43852380Y-55571428D01*
X43185714Y-54285714D02*
X43852380Y-54285714D01*
X42804761Y-54523809D02*
X43519047Y-54761904D01*
X43519047Y-54142857D01*
X36238095Y-23552380D02*
X36238095Y-24361904D01*
X36285714Y-24457142D01*
X36333333Y-24504761D01*
X36428571Y-24552380D01*
X36619047Y-24552380D01*
X36714285Y-24504761D01*
X36761904Y-24457142D01*
X36809523Y-24361904D01*
X36809523Y-23552380D01*
X37714285Y-23885714D02*
X37714285Y-24552380D01*
X37476190Y-23504761D02*
X37238095Y-24219047D01*
X37857142Y-24219047D01*
X41357142Y-28857142D02*
X41309523Y-28904761D01*
X41166666Y-28952380D01*
X41071428Y-28952380D01*
X40928571Y-28904761D01*
X40833333Y-28809523D01*
X40785714Y-28714285D01*
X40738095Y-28523809D01*
X40738095Y-28380952D01*
X40785714Y-28190476D01*
X40833333Y-28095238D01*
X40928571Y-28000000D01*
X41071428Y-27952380D01*
X41166666Y-27952380D01*
X41309523Y-28000000D01*
X41357142Y-28047619D01*
X41738095Y-28047619D02*
X41785714Y-28000000D01*
X41880952Y-27952380D01*
X42119047Y-27952380D01*
X42214285Y-28000000D01*
X42261904Y-28047619D01*
X42309523Y-28142857D01*
X42309523Y-28238095D01*
X42261904Y-28380952D01*
X41690476Y-28952380D01*
X42309523Y-28952380D01*
X42642857Y-27952380D02*
X43309523Y-27952380D01*
X42880952Y-28952380D01*
X28857142Y-24357142D02*
X28809523Y-24404761D01*
X28666666Y-24452380D01*
X28571428Y-24452380D01*
X28428571Y-24404761D01*
X28333333Y-24309523D01*
X28285714Y-24214285D01*
X28238095Y-24023809D01*
X28238095Y-23880952D01*
X28285714Y-23690476D01*
X28333333Y-23595238D01*
X28428571Y-23500000D01*
X28571428Y-23452380D01*
X28666666Y-23452380D01*
X28809523Y-23500000D01*
X28857142Y-23547619D01*
X29238095Y-23547619D02*
X29285714Y-23500000D01*
X29380952Y-23452380D01*
X29619047Y-23452380D01*
X29714285Y-23500000D01*
X29761904Y-23547619D01*
X29809523Y-23642857D01*
X29809523Y-23738095D01*
X29761904Y-23880952D01*
X29190476Y-24452380D01*
X29809523Y-24452380D01*
X30142857Y-23452380D02*
X30761904Y-23452380D01*
X30428571Y-23833333D01*
X30571428Y-23833333D01*
X30666666Y-23880952D01*
X30714285Y-23928571D01*
X30761904Y-24023809D01*
X30761904Y-24261904D01*
X30714285Y-24357142D01*
X30666666Y-24404761D01*
X30571428Y-24452380D01*
X30285714Y-24452380D01*
X30190476Y-24404761D01*
X30142857Y-24357142D01*
X30419642Y-35007142D02*
X30372023Y-35054761D01*
X30229166Y-35102380D01*
X30133928Y-35102380D01*
X29991071Y-35054761D01*
X29895833Y-34959523D01*
X29848214Y-34864285D01*
X29800595Y-34673809D01*
X29800595Y-34530952D01*
X29848214Y-34340476D01*
X29895833Y-34245238D01*
X29991071Y-34150000D01*
X30133928Y-34102380D01*
X30229166Y-34102380D01*
X30372023Y-34150000D01*
X30419642Y-34197619D01*
X30800595Y-34197619D02*
X30848214Y-34150000D01*
X30943452Y-34102380D01*
X31181547Y-34102380D01*
X31276785Y-34150000D01*
X31324404Y-34197619D01*
X31372023Y-34292857D01*
X31372023Y-34388095D01*
X31324404Y-34530952D01*
X30752976Y-35102380D01*
X31372023Y-35102380D01*
X32229166Y-34435714D02*
X32229166Y-35102380D01*
X31991071Y-34054761D02*
X31752976Y-34769047D01*
X32372023Y-34769047D01*
X28357142Y-26857142D02*
X28309523Y-26904761D01*
X28166666Y-26952380D01*
X28071428Y-26952380D01*
X27928571Y-26904761D01*
X27833333Y-26809523D01*
X27785714Y-26714285D01*
X27738095Y-26523809D01*
X27738095Y-26380952D01*
X27785714Y-26190476D01*
X27833333Y-26095238D01*
X27928571Y-26000000D01*
X28071428Y-25952380D01*
X28166666Y-25952380D01*
X28309523Y-26000000D01*
X28357142Y-26047619D01*
X28738095Y-26047619D02*
X28785714Y-26000000D01*
X28880952Y-25952380D01*
X29119047Y-25952380D01*
X29214285Y-26000000D01*
X29261904Y-26047619D01*
X29309523Y-26142857D01*
X29309523Y-26238095D01*
X29261904Y-26380952D01*
X28690476Y-26952380D01*
X29309523Y-26952380D01*
X30214285Y-25952380D02*
X29738095Y-25952380D01*
X29690476Y-26428571D01*
X29738095Y-26380952D01*
X29833333Y-26333333D01*
X30071428Y-26333333D01*
X30166666Y-26380952D01*
X30214285Y-26428571D01*
X30261904Y-26523809D01*
X30261904Y-26761904D01*
X30214285Y-26857142D01*
X30166666Y-26904761D01*
X30071428Y-26952380D01*
X29833333Y-26952380D01*
X29738095Y-26904761D01*
X29690476Y-26857142D01*
X28857142Y-31642857D02*
X28904761Y-31690476D01*
X28952380Y-31833333D01*
X28952380Y-31928571D01*
X28904761Y-32071428D01*
X28809523Y-32166666D01*
X28714285Y-32214285D01*
X28523809Y-32261904D01*
X28380952Y-32261904D01*
X28190476Y-32214285D01*
X28095238Y-32166666D01*
X28000000Y-32071428D01*
X27952380Y-31928571D01*
X27952380Y-31833333D01*
X28000000Y-31690476D01*
X28047619Y-31642857D01*
X28047619Y-31261904D02*
X28000000Y-31214285D01*
X27952380Y-31119047D01*
X27952380Y-30880952D01*
X28000000Y-30785714D01*
X28047619Y-30738095D01*
X28142857Y-30690476D01*
X28238095Y-30690476D01*
X28380952Y-30738095D01*
X28952380Y-31309523D01*
X28952380Y-30690476D01*
X27952380Y-29833333D02*
X27952380Y-30023809D01*
X28000000Y-30119047D01*
X28047619Y-30166666D01*
X28190476Y-30261904D01*
X28380952Y-30309523D01*
X28761904Y-30309523D01*
X28857142Y-30261904D01*
X28904761Y-30214285D01*
X28952380Y-30119047D01*
X28952380Y-29928571D01*
X28904761Y-29833333D01*
X28857142Y-29785714D01*
X28761904Y-29738095D01*
X28523809Y-29738095D01*
X28428571Y-29785714D01*
X28380952Y-29833333D01*
X28333333Y-29928571D01*
X28333333Y-30119047D01*
X28380952Y-30214285D01*
X28428571Y-30261904D01*
X28523809Y-30309523D01*
X23666666Y-15452380D02*
X23666666Y-16166666D01*
X23619047Y-16309523D01*
X23523809Y-16404761D01*
X23380952Y-16452380D01*
X23285714Y-16452380D01*
X24047619Y-15452380D02*
X24666666Y-15452380D01*
X24333333Y-15833333D01*
X24476190Y-15833333D01*
X24571428Y-15880952D01*
X24619047Y-15928571D01*
X24666666Y-16023809D01*
X24666666Y-16261904D01*
X24619047Y-16357142D01*
X24571428Y-16404761D01*
X24476190Y-16452380D01*
X24190476Y-16452380D01*
X24095238Y-16404761D01*
X24047619Y-16357142D01*
X73238095Y-54352380D02*
X73238095Y-55161904D01*
X73285714Y-55257142D01*
X73333333Y-55304761D01*
X73428571Y-55352380D01*
X73619047Y-55352380D01*
X73714285Y-55304761D01*
X73761904Y-55257142D01*
X73809523Y-55161904D01*
X73809523Y-54352380D01*
X74238095Y-54447619D02*
X74285714Y-54400000D01*
X74380952Y-54352380D01*
X74619047Y-54352380D01*
X74714285Y-54400000D01*
X74761904Y-54447619D01*
X74809523Y-54542857D01*
X74809523Y-54638095D01*
X74761904Y-54780952D01*
X74190476Y-55352380D01*
X74809523Y-55352380D01*
X87482761Y-19621333D02*
X87530380Y-19478476D01*
X87530380Y-19240380D01*
X87482761Y-19145142D01*
X87435142Y-19097523D01*
X87339904Y-19049904D01*
X87244666Y-19049904D01*
X87149428Y-19097523D01*
X87101809Y-19145142D01*
X87054190Y-19240380D01*
X87006571Y-19430857D01*
X86958952Y-19526095D01*
X86911333Y-19573714D01*
X86816095Y-19621333D01*
X86720857Y-19621333D01*
X86625619Y-19573714D01*
X86578000Y-19526095D01*
X86530380Y-19430857D01*
X86530380Y-19192761D01*
X86578000Y-19049904D01*
X86530380Y-18716571D02*
X87530380Y-18478476D01*
X86816095Y-18288000D01*
X87530380Y-18097523D01*
X86530380Y-17859428D01*
X87530380Y-16954666D02*
X87530380Y-17526095D01*
X87530380Y-17240380D02*
X86530380Y-17240380D01*
X86673238Y-17335619D01*
X86768476Y-17430857D01*
X86816095Y-17526095D01*
X16857142Y-29166666D02*
X16904761Y-29214285D01*
X16952380Y-29357142D01*
X16952380Y-29452380D01*
X16904761Y-29595238D01*
X16809523Y-29690476D01*
X16714285Y-29738095D01*
X16523809Y-29785714D01*
X16380952Y-29785714D01*
X16190476Y-29738095D01*
X16095238Y-29690476D01*
X16000000Y-29595238D01*
X15952380Y-29452380D01*
X15952380Y-29357142D01*
X16000000Y-29214285D01*
X16047619Y-29166666D01*
X16952380Y-28214285D02*
X16952380Y-28785714D01*
X16952380Y-28500000D02*
X15952380Y-28500000D01*
X16095238Y-28595238D01*
X16190476Y-28690476D01*
X16238095Y-28785714D01*
X16857142Y-51166666D02*
X16904761Y-51214285D01*
X16952380Y-51357142D01*
X16952380Y-51452380D01*
X16904761Y-51595238D01*
X16809523Y-51690476D01*
X16714285Y-51738095D01*
X16523809Y-51785714D01*
X16380952Y-51785714D01*
X16190476Y-51738095D01*
X16095238Y-51690476D01*
X16000000Y-51595238D01*
X15952380Y-51452380D01*
X15952380Y-51357142D01*
X16000000Y-51214285D01*
X16047619Y-51166666D01*
X16047619Y-50785714D02*
X16000000Y-50738095D01*
X15952380Y-50642857D01*
X15952380Y-50404761D01*
X16000000Y-50309523D01*
X16047619Y-50261904D01*
X16142857Y-50214285D01*
X16238095Y-50214285D01*
X16380952Y-50261904D01*
X16952380Y-50833333D01*
X16952380Y-50214285D01*
X16357142Y-36104166D02*
X16404761Y-36151785D01*
X16452380Y-36294642D01*
X16452380Y-36389880D01*
X16404761Y-36532738D01*
X16309523Y-36627976D01*
X16214285Y-36675595D01*
X16023809Y-36723214D01*
X15880952Y-36723214D01*
X15690476Y-36675595D01*
X15595238Y-36627976D01*
X15500000Y-36532738D01*
X15452380Y-36389880D01*
X15452380Y-36294642D01*
X15500000Y-36151785D01*
X15547619Y-36104166D01*
X15452380Y-35770833D02*
X15452380Y-35151785D01*
X15833333Y-35485119D01*
X15833333Y-35342261D01*
X15880952Y-35247023D01*
X15928571Y-35199404D01*
X16023809Y-35151785D01*
X16261904Y-35151785D01*
X16357142Y-35199404D01*
X16404761Y-35247023D01*
X16452380Y-35342261D01*
X16452380Y-35627976D01*
X16404761Y-35723214D01*
X16357142Y-35770833D01*
X16707142Y-44229166D02*
X16754761Y-44276785D01*
X16802380Y-44419642D01*
X16802380Y-44514880D01*
X16754761Y-44657738D01*
X16659523Y-44752976D01*
X16564285Y-44800595D01*
X16373809Y-44848214D01*
X16230952Y-44848214D01*
X16040476Y-44800595D01*
X15945238Y-44752976D01*
X15850000Y-44657738D01*
X15802380Y-44514880D01*
X15802380Y-44419642D01*
X15850000Y-44276785D01*
X15897619Y-44229166D01*
X16135714Y-43372023D02*
X16802380Y-43372023D01*
X15754761Y-43610119D02*
X16469047Y-43848214D01*
X16469047Y-43229166D01*
X67795142Y-52061166D02*
X67842761Y-52108785D01*
X67890380Y-52251642D01*
X67890380Y-52346880D01*
X67842761Y-52489738D01*
X67747523Y-52584976D01*
X67652285Y-52632595D01*
X67461809Y-52680214D01*
X67318952Y-52680214D01*
X67128476Y-52632595D01*
X67033238Y-52584976D01*
X66938000Y-52489738D01*
X66890380Y-52346880D01*
X66890380Y-52251642D01*
X66938000Y-52108785D01*
X66985619Y-52061166D01*
X66890380Y-51156404D02*
X66890380Y-51632595D01*
X67366571Y-51680214D01*
X67318952Y-51632595D01*
X67271333Y-51537357D01*
X67271333Y-51299261D01*
X67318952Y-51204023D01*
X67366571Y-51156404D01*
X67461809Y-51108785D01*
X67699904Y-51108785D01*
X67795142Y-51156404D01*
X67842761Y-51204023D01*
X67890380Y-51299261D01*
X67890380Y-51537357D01*
X67842761Y-51632595D01*
X67795142Y-51680214D01*
X81833333Y-27357142D02*
X81785714Y-27404761D01*
X81642857Y-27452380D01*
X81547619Y-27452380D01*
X81404761Y-27404761D01*
X81309523Y-27309523D01*
X81261904Y-27214285D01*
X81214285Y-27023809D01*
X81214285Y-26880952D01*
X81261904Y-26690476D01*
X81309523Y-26595238D01*
X81404761Y-26500000D01*
X81547619Y-26452380D01*
X81642857Y-26452380D01*
X81785714Y-26500000D01*
X81833333Y-26547619D01*
X82690476Y-26452380D02*
X82500000Y-26452380D01*
X82404761Y-26500000D01*
X82357142Y-26547619D01*
X82261904Y-26690476D01*
X82214285Y-26880952D01*
X82214285Y-27261904D01*
X82261904Y-27357142D01*
X82309523Y-27404761D01*
X82404761Y-27452380D01*
X82595238Y-27452380D01*
X82690476Y-27404761D01*
X82738095Y-27357142D01*
X82785714Y-27261904D01*
X82785714Y-27023809D01*
X82738095Y-26928571D01*
X82690476Y-26880952D01*
X82595238Y-26833333D01*
X82404761Y-26833333D01*
X82309523Y-26880952D01*
X82261904Y-26928571D01*
X82214285Y-27023809D01*
X84833333Y-47357142D02*
X84785714Y-47404761D01*
X84642857Y-47452380D01*
X84547619Y-47452380D01*
X84404761Y-47404761D01*
X84309523Y-47309523D01*
X84261904Y-47214285D01*
X84214285Y-47023809D01*
X84214285Y-46880952D01*
X84261904Y-46690476D01*
X84309523Y-46595238D01*
X84404761Y-46500000D01*
X84547619Y-46452380D01*
X84642857Y-46452380D01*
X84785714Y-46500000D01*
X84833333Y-46547619D01*
X85166666Y-46452380D02*
X85833333Y-46452380D01*
X85404761Y-47452380D01*
X85177333Y-24233142D02*
X85129714Y-24280761D01*
X84986857Y-24328380D01*
X84891619Y-24328380D01*
X84748761Y-24280761D01*
X84653523Y-24185523D01*
X84605904Y-24090285D01*
X84558285Y-23899809D01*
X84558285Y-23756952D01*
X84605904Y-23566476D01*
X84653523Y-23471238D01*
X84748761Y-23376000D01*
X84891619Y-23328380D01*
X84986857Y-23328380D01*
X85129714Y-23376000D01*
X85177333Y-23423619D01*
X85748761Y-23756952D02*
X85653523Y-23709333D01*
X85605904Y-23661714D01*
X85558285Y-23566476D01*
X85558285Y-23518857D01*
X85605904Y-23423619D01*
X85653523Y-23376000D01*
X85748761Y-23328380D01*
X85939238Y-23328380D01*
X86034476Y-23376000D01*
X86082095Y-23423619D01*
X86129714Y-23518857D01*
X86129714Y-23566476D01*
X86082095Y-23661714D01*
X86034476Y-23709333D01*
X85939238Y-23756952D01*
X85748761Y-23756952D01*
X85653523Y-23804571D01*
X85605904Y-23852190D01*
X85558285Y-23947428D01*
X85558285Y-24137904D01*
X85605904Y-24233142D01*
X85653523Y-24280761D01*
X85748761Y-24328380D01*
X85939238Y-24328380D01*
X86034476Y-24280761D01*
X86082095Y-24233142D01*
X86129714Y-24137904D01*
X86129714Y-23947428D01*
X86082095Y-23852190D01*
X86034476Y-23804571D01*
X85939238Y-23756952D01*
X80254333Y-17121142D02*
X80206714Y-17168761D01*
X80063857Y-17216380D01*
X79968619Y-17216380D01*
X79825761Y-17168761D01*
X79730523Y-17073523D01*
X79682904Y-16978285D01*
X79635285Y-16787809D01*
X79635285Y-16644952D01*
X79682904Y-16454476D01*
X79730523Y-16359238D01*
X79825761Y-16264000D01*
X79968619Y-16216380D01*
X80063857Y-16216380D01*
X80206714Y-16264000D01*
X80254333Y-16311619D01*
X80730523Y-17216380D02*
X80921000Y-17216380D01*
X81016238Y-17168761D01*
X81063857Y-17121142D01*
X81159095Y-16978285D01*
X81206714Y-16787809D01*
X81206714Y-16406857D01*
X81159095Y-16311619D01*
X81111476Y-16264000D01*
X81016238Y-16216380D01*
X80825761Y-16216380D01*
X80730523Y-16264000D01*
X80682904Y-16311619D01*
X80635285Y-16406857D01*
X80635285Y-16644952D01*
X80682904Y-16740190D01*
X80730523Y-16787809D01*
X80825761Y-16835428D01*
X81016238Y-16835428D01*
X81111476Y-16787809D01*
X81159095Y-16740190D01*
X81206714Y-16644952D01*
X106357142Y-23357142D02*
X106309523Y-23404761D01*
X106166666Y-23452380D01*
X106071428Y-23452380D01*
X105928571Y-23404761D01*
X105833333Y-23309523D01*
X105785714Y-23214285D01*
X105738095Y-23023809D01*
X105738095Y-22880952D01*
X105785714Y-22690476D01*
X105833333Y-22595238D01*
X105928571Y-22500000D01*
X106071428Y-22452380D01*
X106166666Y-22452380D01*
X106309523Y-22500000D01*
X106357142Y-22547619D01*
X107309523Y-23452380D02*
X106738095Y-23452380D01*
X107023809Y-23452380D02*
X107023809Y-22452380D01*
X106928571Y-22595238D01*
X106833333Y-22690476D01*
X106738095Y-22738095D01*
X107928571Y-22452380D02*
X108023809Y-22452380D01*
X108119047Y-22500000D01*
X108166666Y-22547619D01*
X108214285Y-22642857D01*
X108261904Y-22833333D01*
X108261904Y-23071428D01*
X108214285Y-23261904D01*
X108166666Y-23357142D01*
X108119047Y-23404761D01*
X108023809Y-23452380D01*
X107928571Y-23452380D01*
X107833333Y-23404761D01*
X107785714Y-23357142D01*
X107738095Y-23261904D01*
X107690476Y-23071428D01*
X107690476Y-22833333D01*
X107738095Y-22642857D01*
X107785714Y-22547619D01*
X107833333Y-22500000D01*
X107928571Y-22452380D01*
X106357142Y-47357142D02*
X106309523Y-47404761D01*
X106166666Y-47452380D01*
X106071428Y-47452380D01*
X105928571Y-47404761D01*
X105833333Y-47309523D01*
X105785714Y-47214285D01*
X105738095Y-47023809D01*
X105738095Y-46880952D01*
X105785714Y-46690476D01*
X105833333Y-46595238D01*
X105928571Y-46500000D01*
X106071428Y-46452380D01*
X106166666Y-46452380D01*
X106309523Y-46500000D01*
X106357142Y-46547619D01*
X107309523Y-47452380D02*
X106738095Y-47452380D01*
X107023809Y-47452380D02*
X107023809Y-46452380D01*
X106928571Y-46595238D01*
X106833333Y-46690476D01*
X106738095Y-46738095D01*
X108261904Y-47452380D02*
X107690476Y-47452380D01*
X107976190Y-47452380D02*
X107976190Y-46452380D01*
X107880952Y-46595238D01*
X107785714Y-46690476D01*
X107690476Y-46738095D01*
X84357142Y-29357142D02*
X84309523Y-29404761D01*
X84166666Y-29452380D01*
X84071428Y-29452380D01*
X83928571Y-29404761D01*
X83833333Y-29309523D01*
X83785714Y-29214285D01*
X83738095Y-29023809D01*
X83738095Y-28880952D01*
X83785714Y-28690476D01*
X83833333Y-28595238D01*
X83928571Y-28500000D01*
X84071428Y-28452380D01*
X84166666Y-28452380D01*
X84309523Y-28500000D01*
X84357142Y-28547619D01*
X85309523Y-29452380D02*
X84738095Y-29452380D01*
X85023809Y-29452380D02*
X85023809Y-28452380D01*
X84928571Y-28595238D01*
X84833333Y-28690476D01*
X84738095Y-28738095D01*
X85690476Y-28547619D02*
X85738095Y-28500000D01*
X85833333Y-28452380D01*
X86071428Y-28452380D01*
X86166666Y-28500000D01*
X86214285Y-28547619D01*
X86261904Y-28642857D01*
X86261904Y-28738095D01*
X86214285Y-28880952D01*
X85642857Y-29452380D01*
X86261904Y-29452380D01*
X84357142Y-53357142D02*
X84309523Y-53404761D01*
X84166666Y-53452380D01*
X84071428Y-53452380D01*
X83928571Y-53404761D01*
X83833333Y-53309523D01*
X83785714Y-53214285D01*
X83738095Y-53023809D01*
X83738095Y-52880952D01*
X83785714Y-52690476D01*
X83833333Y-52595238D01*
X83928571Y-52500000D01*
X84071428Y-52452380D01*
X84166666Y-52452380D01*
X84309523Y-52500000D01*
X84357142Y-52547619D01*
X85309523Y-53452380D02*
X84738095Y-53452380D01*
X85023809Y-53452380D02*
X85023809Y-52452380D01*
X84928571Y-52595238D01*
X84833333Y-52690476D01*
X84738095Y-52738095D01*
X85642857Y-52452380D02*
X86261904Y-52452380D01*
X85928571Y-52833333D01*
X86071428Y-52833333D01*
X86166666Y-52880952D01*
X86214285Y-52928571D01*
X86261904Y-53023809D01*
X86261904Y-53261904D01*
X86214285Y-53357142D01*
X86166666Y-53404761D01*
X86071428Y-53452380D01*
X85785714Y-53452380D01*
X85690476Y-53404761D01*
X85642857Y-53357142D01*
X106357142Y-29357142D02*
X106309523Y-29404761D01*
X106166666Y-29452380D01*
X106071428Y-29452380D01*
X105928571Y-29404761D01*
X105833333Y-29309523D01*
X105785714Y-29214285D01*
X105738095Y-29023809D01*
X105738095Y-28880952D01*
X105785714Y-28690476D01*
X105833333Y-28595238D01*
X105928571Y-28500000D01*
X106071428Y-28452380D01*
X106166666Y-28452380D01*
X106309523Y-28500000D01*
X106357142Y-28547619D01*
X107309523Y-29452380D02*
X106738095Y-29452380D01*
X107023809Y-29452380D02*
X107023809Y-28452380D01*
X106928571Y-28595238D01*
X106833333Y-28690476D01*
X106738095Y-28738095D01*
X108166666Y-28785714D02*
X108166666Y-29452380D01*
X107928571Y-28404761D02*
X107690476Y-29119047D01*
X108309523Y-29119047D01*
X67937142Y-17121142D02*
X67889523Y-17168761D01*
X67746666Y-17216380D01*
X67651428Y-17216380D01*
X67508571Y-17168761D01*
X67413333Y-17073523D01*
X67365714Y-16978285D01*
X67318095Y-16787809D01*
X67318095Y-16644952D01*
X67365714Y-16454476D01*
X67413333Y-16359238D01*
X67508571Y-16264000D01*
X67651428Y-16216380D01*
X67746666Y-16216380D01*
X67889523Y-16264000D01*
X67937142Y-16311619D01*
X68889523Y-17216380D02*
X68318095Y-17216380D01*
X68603809Y-17216380D02*
X68603809Y-16216380D01*
X68508571Y-16359238D01*
X68413333Y-16454476D01*
X68318095Y-16502095D01*
X69794285Y-16216380D02*
X69318095Y-16216380D01*
X69270476Y-16692571D01*
X69318095Y-16644952D01*
X69413333Y-16597333D01*
X69651428Y-16597333D01*
X69746666Y-16644952D01*
X69794285Y-16692571D01*
X69841904Y-16787809D01*
X69841904Y-17025904D01*
X69794285Y-17121142D01*
X69746666Y-17168761D01*
X69651428Y-17216380D01*
X69413333Y-17216380D01*
X69318095Y-17168761D01*
X69270476Y-17121142D01*
X106357142Y-53357142D02*
X106309523Y-53404761D01*
X106166666Y-53452380D01*
X106071428Y-53452380D01*
X105928571Y-53404761D01*
X105833333Y-53309523D01*
X105785714Y-53214285D01*
X105738095Y-53023809D01*
X105738095Y-52880952D01*
X105785714Y-52690476D01*
X105833333Y-52595238D01*
X105928571Y-52500000D01*
X106071428Y-52452380D01*
X106166666Y-52452380D01*
X106309523Y-52500000D01*
X106357142Y-52547619D01*
X107309523Y-53452380D02*
X106738095Y-53452380D01*
X107023809Y-53452380D02*
X107023809Y-52452380D01*
X106928571Y-52595238D01*
X106833333Y-52690476D01*
X106738095Y-52738095D01*
X108166666Y-52452380D02*
X107976190Y-52452380D01*
X107880952Y-52500000D01*
X107833333Y-52547619D01*
X107738095Y-52690476D01*
X107690476Y-52880952D01*
X107690476Y-53261904D01*
X107738095Y-53357142D01*
X107785714Y-53404761D01*
X107880952Y-53452380D01*
X108071428Y-53452380D01*
X108166666Y-53404761D01*
X108214285Y-53357142D01*
X108261904Y-53261904D01*
X108261904Y-53023809D01*
X108214285Y-52928571D01*
X108166666Y-52880952D01*
X108071428Y-52833333D01*
X107880952Y-52833333D01*
X107785714Y-52880952D01*
X107738095Y-52928571D01*
X107690476Y-53023809D01*
X84357142Y-35357142D02*
X84309523Y-35404761D01*
X84166666Y-35452380D01*
X84071428Y-35452380D01*
X83928571Y-35404761D01*
X83833333Y-35309523D01*
X83785714Y-35214285D01*
X83738095Y-35023809D01*
X83738095Y-34880952D01*
X83785714Y-34690476D01*
X83833333Y-34595238D01*
X83928571Y-34500000D01*
X84071428Y-34452380D01*
X84166666Y-34452380D01*
X84309523Y-34500000D01*
X84357142Y-34547619D01*
X85309523Y-35452380D02*
X84738095Y-35452380D01*
X85023809Y-35452380D02*
X85023809Y-34452380D01*
X84928571Y-34595238D01*
X84833333Y-34690476D01*
X84738095Y-34738095D01*
X85642857Y-34452380D02*
X86309523Y-34452380D01*
X85880952Y-35452380D01*
X84257142Y-59457142D02*
X84209523Y-59504761D01*
X84066666Y-59552380D01*
X83971428Y-59552380D01*
X83828571Y-59504761D01*
X83733333Y-59409523D01*
X83685714Y-59314285D01*
X83638095Y-59123809D01*
X83638095Y-58980952D01*
X83685714Y-58790476D01*
X83733333Y-58695238D01*
X83828571Y-58600000D01*
X83971428Y-58552380D01*
X84066666Y-58552380D01*
X84209523Y-58600000D01*
X84257142Y-58647619D01*
X85209523Y-59552380D02*
X84638095Y-59552380D01*
X84923809Y-59552380D02*
X84923809Y-58552380D01*
X84828571Y-58695238D01*
X84733333Y-58790476D01*
X84638095Y-58838095D01*
X85780952Y-58980952D02*
X85685714Y-58933333D01*
X85638095Y-58885714D01*
X85590476Y-58790476D01*
X85590476Y-58742857D01*
X85638095Y-58647619D01*
X85685714Y-58600000D01*
X85780952Y-58552380D01*
X85971428Y-58552380D01*
X86066666Y-58600000D01*
X86114285Y-58647619D01*
X86161904Y-58742857D01*
X86161904Y-58790476D01*
X86114285Y-58885714D01*
X86066666Y-58933333D01*
X85971428Y-58980952D01*
X85780952Y-58980952D01*
X85685714Y-59028571D01*
X85638095Y-59076190D01*
X85590476Y-59171428D01*
X85590476Y-59361904D01*
X85638095Y-59457142D01*
X85685714Y-59504761D01*
X85780952Y-59552380D01*
X85971428Y-59552380D01*
X86066666Y-59504761D01*
X86114285Y-59457142D01*
X86161904Y-59361904D01*
X86161904Y-59171428D01*
X86114285Y-59076190D01*
X86066666Y-59028571D01*
X85971428Y-58980952D01*
X106357142Y-35357142D02*
X106309523Y-35404761D01*
X106166666Y-35452380D01*
X106071428Y-35452380D01*
X105928571Y-35404761D01*
X105833333Y-35309523D01*
X105785714Y-35214285D01*
X105738095Y-35023809D01*
X105738095Y-34880952D01*
X105785714Y-34690476D01*
X105833333Y-34595238D01*
X105928571Y-34500000D01*
X106071428Y-34452380D01*
X106166666Y-34452380D01*
X106309523Y-34500000D01*
X106357142Y-34547619D01*
X107309523Y-35452380D02*
X106738095Y-35452380D01*
X107023809Y-35452380D02*
X107023809Y-34452380D01*
X106928571Y-34595238D01*
X106833333Y-34690476D01*
X106738095Y-34738095D01*
X107785714Y-35452380D02*
X107976190Y-35452380D01*
X108071428Y-35404761D01*
X108119047Y-35357142D01*
X108214285Y-35214285D01*
X108261904Y-35023809D01*
X108261904Y-34642857D01*
X108214285Y-34547619D01*
X108166666Y-34500000D01*
X108071428Y-34452380D01*
X107880952Y-34452380D01*
X107785714Y-34500000D01*
X107738095Y-34547619D01*
X107690476Y-34642857D01*
X107690476Y-34880952D01*
X107738095Y-34976190D01*
X107785714Y-35023809D01*
X107880952Y-35071428D01*
X108071428Y-35071428D01*
X108166666Y-35023809D01*
X108214285Y-34976190D01*
X108261904Y-34880952D01*
X105357142Y-58357142D02*
X105309523Y-58404761D01*
X105166666Y-58452380D01*
X105071428Y-58452380D01*
X104928571Y-58404761D01*
X104833333Y-58309523D01*
X104785714Y-58214285D01*
X104738095Y-58023809D01*
X104738095Y-57880952D01*
X104785714Y-57690476D01*
X104833333Y-57595238D01*
X104928571Y-57500000D01*
X105071428Y-57452380D01*
X105166666Y-57452380D01*
X105309523Y-57500000D01*
X105357142Y-57547619D01*
X105738095Y-57547619D02*
X105785714Y-57500000D01*
X105880952Y-57452380D01*
X106119047Y-57452380D01*
X106214285Y-57500000D01*
X106261904Y-57547619D01*
X106309523Y-57642857D01*
X106309523Y-57738095D01*
X106261904Y-57880952D01*
X105690476Y-58452380D01*
X106309523Y-58452380D01*
X106928571Y-57452380D02*
X107023809Y-57452380D01*
X107119047Y-57500000D01*
X107166666Y-57547619D01*
X107214285Y-57642857D01*
X107261904Y-57833333D01*
X107261904Y-58071428D01*
X107214285Y-58261904D01*
X107166666Y-58357142D01*
X107119047Y-58404761D01*
X107023809Y-58452380D01*
X106928571Y-58452380D01*
X106833333Y-58404761D01*
X106785714Y-58357142D01*
X106738095Y-58261904D01*
X106690476Y-58071428D01*
X106690476Y-57833333D01*
X106738095Y-57642857D01*
X106785714Y-57547619D01*
X106833333Y-57500000D01*
X106928571Y-57452380D01*
X84357142Y-41357142D02*
X84309523Y-41404761D01*
X84166666Y-41452380D01*
X84071428Y-41452380D01*
X83928571Y-41404761D01*
X83833333Y-41309523D01*
X83785714Y-41214285D01*
X83738095Y-41023809D01*
X83738095Y-40880952D01*
X83785714Y-40690476D01*
X83833333Y-40595238D01*
X83928571Y-40500000D01*
X84071428Y-40452380D01*
X84166666Y-40452380D01*
X84309523Y-40500000D01*
X84357142Y-40547619D01*
X84738095Y-40547619D02*
X84785714Y-40500000D01*
X84880952Y-40452380D01*
X85119047Y-40452380D01*
X85214285Y-40500000D01*
X85261904Y-40547619D01*
X85309523Y-40642857D01*
X85309523Y-40738095D01*
X85261904Y-40880952D01*
X84690476Y-41452380D01*
X85309523Y-41452380D01*
X86261904Y-41452380D02*
X85690476Y-41452380D01*
X85976190Y-41452380D02*
X85976190Y-40452380D01*
X85880952Y-40595238D01*
X85785714Y-40690476D01*
X85690476Y-40738095D01*
X106357142Y-41357142D02*
X106309523Y-41404761D01*
X106166666Y-41452380D01*
X106071428Y-41452380D01*
X105928571Y-41404761D01*
X105833333Y-41309523D01*
X105785714Y-41214285D01*
X105738095Y-41023809D01*
X105738095Y-40880952D01*
X105785714Y-40690476D01*
X105833333Y-40595238D01*
X105928571Y-40500000D01*
X106071428Y-40452380D01*
X106166666Y-40452380D01*
X106309523Y-40500000D01*
X106357142Y-40547619D01*
X106738095Y-40547619D02*
X106785714Y-40500000D01*
X106880952Y-40452380D01*
X107119047Y-40452380D01*
X107214285Y-40500000D01*
X107261904Y-40547619D01*
X107309523Y-40642857D01*
X107309523Y-40738095D01*
X107261904Y-40880952D01*
X106690476Y-41452380D01*
X107309523Y-41452380D01*
X107690476Y-40547619D02*
X107738095Y-40500000D01*
X107833333Y-40452380D01*
X108071428Y-40452380D01*
X108166666Y-40500000D01*
X108214285Y-40547619D01*
X108261904Y-40642857D01*
X108261904Y-40738095D01*
X108214285Y-40880952D01*
X107642857Y-41452380D01*
X108261904Y-41452380D01*
X48782380Y-61698095D02*
X47782380Y-61698095D01*
X47782380Y-61460000D01*
X47830000Y-61317142D01*
X47925238Y-61221904D01*
X48020476Y-61174285D01*
X48210952Y-61126666D01*
X48353809Y-61126666D01*
X48544285Y-61174285D01*
X48639523Y-61221904D01*
X48734761Y-61317142D01*
X48782380Y-61460000D01*
X48782380Y-61698095D01*
X48782380Y-60174285D02*
X48782380Y-60745714D01*
X48782380Y-60460000D02*
X47782380Y-60460000D01*
X47925238Y-60555238D01*
X48020476Y-60650476D01*
X48068095Y-60745714D01*
X50827380Y-61698095D02*
X49827380Y-61698095D01*
X49827380Y-61460000D01*
X49875000Y-61317142D01*
X49970238Y-61221904D01*
X50065476Y-61174285D01*
X50255952Y-61126666D01*
X50398809Y-61126666D01*
X50589285Y-61174285D01*
X50684523Y-61221904D01*
X50779761Y-61317142D01*
X50827380Y-61460000D01*
X50827380Y-61698095D01*
X49922619Y-60745714D02*
X49875000Y-60698095D01*
X49827380Y-60602857D01*
X49827380Y-60364761D01*
X49875000Y-60269523D01*
X49922619Y-60221904D01*
X50017857Y-60174285D01*
X50113095Y-60174285D01*
X50255952Y-60221904D01*
X50827380Y-60793333D01*
X50827380Y-60174285D01*
X19042380Y-40333333D02*
X19756666Y-40333333D01*
X19899523Y-40380952D01*
X19994761Y-40476190D01*
X20042380Y-40619047D01*
X20042380Y-40714285D01*
X20042380Y-39333333D02*
X20042380Y-39904761D01*
X20042380Y-39619047D02*
X19042380Y-39619047D01*
X19185238Y-39714285D01*
X19280476Y-39809523D01*
X19328095Y-39904761D01*
X73825833Y-59102380D02*
X73492500Y-58626190D01*
X73254404Y-59102380D02*
X73254404Y-58102380D01*
X73635357Y-58102380D01*
X73730595Y-58150000D01*
X73778214Y-58197619D01*
X73825833Y-58292857D01*
X73825833Y-58435714D01*
X73778214Y-58530952D01*
X73730595Y-58578571D01*
X73635357Y-58626190D01*
X73254404Y-58626190D01*
X74778214Y-59102380D02*
X74206785Y-59102380D01*
X74492500Y-59102380D02*
X74492500Y-58102380D01*
X74397261Y-58245238D01*
X74302023Y-58340476D01*
X74206785Y-58388095D01*
X85177333Y-19248380D02*
X84844000Y-18772190D01*
X84605904Y-19248380D02*
X84605904Y-18248380D01*
X84986857Y-18248380D01*
X85082095Y-18296000D01*
X85129714Y-18343619D01*
X85177333Y-18438857D01*
X85177333Y-18581714D01*
X85129714Y-18676952D01*
X85082095Y-18724571D01*
X84986857Y-18772190D01*
X84605904Y-18772190D01*
X85558285Y-18343619D02*
X85605904Y-18296000D01*
X85701142Y-18248380D01*
X85939238Y-18248380D01*
X86034476Y-18296000D01*
X86082095Y-18343619D01*
X86129714Y-18438857D01*
X86129714Y-18534095D01*
X86082095Y-18676952D01*
X85510666Y-19248380D01*
X86129714Y-19248380D01*
X85177333Y-21788380D02*
X84844000Y-21312190D01*
X84605904Y-21788380D02*
X84605904Y-20788380D01*
X84986857Y-20788380D01*
X85082095Y-20836000D01*
X85129714Y-20883619D01*
X85177333Y-20978857D01*
X85177333Y-21121714D01*
X85129714Y-21216952D01*
X85082095Y-21264571D01*
X84986857Y-21312190D01*
X84605904Y-21312190D01*
X85510666Y-20788380D02*
X86129714Y-20788380D01*
X85796380Y-21169333D01*
X85939238Y-21169333D01*
X86034476Y-21216952D01*
X86082095Y-21264571D01*
X86129714Y-21359809D01*
X86129714Y-21597904D01*
X86082095Y-21693142D01*
X86034476Y-21740761D01*
X85939238Y-21788380D01*
X85653523Y-21788380D01*
X85558285Y-21740761D01*
X85510666Y-21693142D01*
X68491833Y-24710380D02*
X68158500Y-24234190D01*
X67920404Y-24710380D02*
X67920404Y-23710380D01*
X68301357Y-23710380D01*
X68396595Y-23758000D01*
X68444214Y-23805619D01*
X68491833Y-23900857D01*
X68491833Y-24043714D01*
X68444214Y-24138952D01*
X68396595Y-24186571D01*
X68301357Y-24234190D01*
X67920404Y-24234190D01*
X69348976Y-24043714D02*
X69348976Y-24710380D01*
X69110880Y-23662761D02*
X68872785Y-24377047D01*
X69491833Y-24377047D01*
X68491833Y-21154380D02*
X68158500Y-20678190D01*
X67920404Y-21154380D02*
X67920404Y-20154380D01*
X68301357Y-20154380D01*
X68396595Y-20202000D01*
X68444214Y-20249619D01*
X68491833Y-20344857D01*
X68491833Y-20487714D01*
X68444214Y-20582952D01*
X68396595Y-20630571D01*
X68301357Y-20678190D01*
X67920404Y-20678190D01*
X69396595Y-20154380D02*
X68920404Y-20154380D01*
X68872785Y-20630571D01*
X68920404Y-20582952D01*
X69015642Y-20535333D01*
X69253738Y-20535333D01*
X69348976Y-20582952D01*
X69396595Y-20630571D01*
X69444214Y-20725809D01*
X69444214Y-20963904D01*
X69396595Y-21059142D01*
X69348976Y-21106761D01*
X69253738Y-21154380D01*
X69015642Y-21154380D01*
X68920404Y-21106761D01*
X68872785Y-21059142D01*
X88122380Y-25595238D02*
X87646190Y-25928571D01*
X88122380Y-26166666D02*
X87122380Y-26166666D01*
X87122380Y-25785714D01*
X87170000Y-25690476D01*
X87217619Y-25642857D01*
X87312857Y-25595238D01*
X87455714Y-25595238D01*
X87550952Y-25642857D01*
X87598571Y-25690476D01*
X87646190Y-25785714D01*
X87646190Y-26166666D01*
X87122380Y-25309523D02*
X88122380Y-24976190D01*
X87122380Y-24642857D01*
X88122380Y-23785714D02*
X88122380Y-24357142D01*
X88122380Y-24071428D02*
X87122380Y-24071428D01*
X87265238Y-24166666D01*
X87360476Y-24261904D01*
X87408095Y-24357142D01*
X88122380Y-31595238D02*
X87646190Y-31928571D01*
X88122380Y-32166666D02*
X87122380Y-32166666D01*
X87122380Y-31785714D01*
X87170000Y-31690476D01*
X87217619Y-31642857D01*
X87312857Y-31595238D01*
X87455714Y-31595238D01*
X87550952Y-31642857D01*
X87598571Y-31690476D01*
X87646190Y-31785714D01*
X87646190Y-32166666D01*
X87122380Y-31309523D02*
X88122380Y-30976190D01*
X87122380Y-30642857D01*
X87217619Y-30357142D02*
X87170000Y-30309523D01*
X87122380Y-30214285D01*
X87122380Y-29976190D01*
X87170000Y-29880952D01*
X87217619Y-29833333D01*
X87312857Y-29785714D01*
X87408095Y-29785714D01*
X87550952Y-29833333D01*
X88122380Y-30404761D01*
X88122380Y-29785714D01*
X88122380Y-37595238D02*
X87646190Y-37928571D01*
X88122380Y-38166666D02*
X87122380Y-38166666D01*
X87122380Y-37785714D01*
X87170000Y-37690476D01*
X87217619Y-37642857D01*
X87312857Y-37595238D01*
X87455714Y-37595238D01*
X87550952Y-37642857D01*
X87598571Y-37690476D01*
X87646190Y-37785714D01*
X87646190Y-38166666D01*
X87122380Y-37309523D02*
X88122380Y-36976190D01*
X87122380Y-36642857D01*
X87122380Y-36404761D02*
X87122380Y-35785714D01*
X87503333Y-36119047D01*
X87503333Y-35976190D01*
X87550952Y-35880952D01*
X87598571Y-35833333D01*
X87693809Y-35785714D01*
X87931904Y-35785714D01*
X88027142Y-35833333D01*
X88074761Y-35880952D01*
X88122380Y-35976190D01*
X88122380Y-36261904D01*
X88074761Y-36357142D01*
X88027142Y-36404761D01*
X88122380Y-43595238D02*
X87646190Y-43928571D01*
X88122380Y-44166666D02*
X87122380Y-44166666D01*
X87122380Y-43785714D01*
X87170000Y-43690476D01*
X87217619Y-43642857D01*
X87312857Y-43595238D01*
X87455714Y-43595238D01*
X87550952Y-43642857D01*
X87598571Y-43690476D01*
X87646190Y-43785714D01*
X87646190Y-44166666D01*
X87122380Y-43309523D02*
X88122380Y-42976190D01*
X87122380Y-42642857D01*
X87455714Y-41880952D02*
X88122380Y-41880952D01*
X87074761Y-42119047D02*
X87789047Y-42357142D01*
X87789047Y-41738095D01*
X88122380Y-49595238D02*
X87646190Y-49928571D01*
X88122380Y-50166666D02*
X87122380Y-50166666D01*
X87122380Y-49785714D01*
X87170000Y-49690476D01*
X87217619Y-49642857D01*
X87312857Y-49595238D01*
X87455714Y-49595238D01*
X87550952Y-49642857D01*
X87598571Y-49690476D01*
X87646190Y-49785714D01*
X87646190Y-50166666D01*
X87122380Y-49309523D02*
X88122380Y-48976190D01*
X87122380Y-48642857D01*
X87122380Y-47833333D02*
X87122380Y-48309523D01*
X87598571Y-48357142D01*
X87550952Y-48309523D01*
X87503333Y-48214285D01*
X87503333Y-47976190D01*
X87550952Y-47880952D01*
X87598571Y-47833333D01*
X87693809Y-47785714D01*
X87931904Y-47785714D01*
X88027142Y-47833333D01*
X88074761Y-47880952D01*
X88122380Y-47976190D01*
X88122380Y-48214285D01*
X88074761Y-48309523D01*
X88027142Y-48357142D01*
X88122380Y-55595238D02*
X87646190Y-55928571D01*
X88122380Y-56166666D02*
X87122380Y-56166666D01*
X87122380Y-55785714D01*
X87170000Y-55690476D01*
X87217619Y-55642857D01*
X87312857Y-55595238D01*
X87455714Y-55595238D01*
X87550952Y-55642857D01*
X87598571Y-55690476D01*
X87646190Y-55785714D01*
X87646190Y-56166666D01*
X87122380Y-55309523D02*
X88122380Y-54976190D01*
X87122380Y-54642857D01*
X87122380Y-53880952D02*
X87122380Y-54071428D01*
X87170000Y-54166666D01*
X87217619Y-54214285D01*
X87360476Y-54309523D01*
X87550952Y-54357142D01*
X87931904Y-54357142D01*
X88027142Y-54309523D01*
X88074761Y-54261904D01*
X88122380Y-54166666D01*
X88122380Y-53976190D01*
X88074761Y-53880952D01*
X88027142Y-53833333D01*
X87931904Y-53785714D01*
X87693809Y-53785714D01*
X87598571Y-53833333D01*
X87550952Y-53880952D01*
X87503333Y-53976190D01*
X87503333Y-54166666D01*
X87550952Y-54261904D01*
X87598571Y-54309523D01*
X87693809Y-54357142D01*
X88122380Y-61595238D02*
X87646190Y-61928571D01*
X88122380Y-62166666D02*
X87122380Y-62166666D01*
X87122380Y-61785714D01*
X87170000Y-61690476D01*
X87217619Y-61642857D01*
X87312857Y-61595238D01*
X87455714Y-61595238D01*
X87550952Y-61642857D01*
X87598571Y-61690476D01*
X87646190Y-61785714D01*
X87646190Y-62166666D01*
X87122380Y-61309523D02*
X88122380Y-60976190D01*
X87122380Y-60642857D01*
X87122380Y-60404761D02*
X87122380Y-59738095D01*
X88122380Y-60166666D01*
X77514285Y-57152380D02*
X78085714Y-57152380D01*
X77800000Y-58152380D02*
X77800000Y-57152380D01*
X78419047Y-58152380D02*
X78419047Y-57152380D01*
X78419047Y-57628571D02*
X78990476Y-57628571D01*
X78990476Y-58152380D02*
X78990476Y-57152380D01*
X79990476Y-58152380D02*
X79419047Y-58152380D01*
X79704761Y-58152380D02*
X79704761Y-57152380D01*
X79609523Y-57295238D01*
X79514285Y-57390476D01*
X79419047Y-57438095D01*
X72390095Y-16724380D02*
X72390095Y-17533904D01*
X72437714Y-17629142D01*
X72485333Y-17676761D01*
X72580571Y-17724380D01*
X72771047Y-17724380D01*
X72866285Y-17676761D01*
X72913904Y-17629142D01*
X72961523Y-17533904D01*
X72961523Y-16724380D01*
X73342476Y-16724380D02*
X73961523Y-16724380D01*
X73628190Y-17105333D01*
X73771047Y-17105333D01*
X73866285Y-17152952D01*
X73913904Y-17200571D01*
X73961523Y-17295809D01*
X73961523Y-17533904D01*
X73913904Y-17629142D01*
X73866285Y-17676761D01*
X73771047Y-17724380D01*
X73485333Y-17724380D01*
X73390095Y-17676761D01*
X73342476Y-17629142D01*
X35947619Y-55095238D02*
X35900000Y-55190476D01*
X35804761Y-55285714D01*
X35661904Y-55428571D01*
X35614285Y-55523809D01*
X35614285Y-55619047D01*
X35852380Y-55571428D02*
X35804761Y-55666666D01*
X35709523Y-55761904D01*
X35519047Y-55809523D01*
X35185714Y-55809523D01*
X34995238Y-55761904D01*
X34900000Y-55666666D01*
X34852380Y-55571428D01*
X34852380Y-55380952D01*
X34900000Y-55285714D01*
X34995238Y-55190476D01*
X35185714Y-55142857D01*
X35519047Y-55142857D01*
X35709523Y-55190476D01*
X35804761Y-55285714D01*
X35852380Y-55380952D01*
X35852380Y-55571428D01*
X35852380Y-54190476D02*
X35852380Y-54761904D01*
X35852380Y-54476190D02*
X34852380Y-54476190D01*
X34995238Y-54571428D01*
X35090476Y-54666666D01*
X35138095Y-54761904D01*
X43952619Y-46095238D02*
X43905000Y-46190476D01*
X43809761Y-46285714D01*
X43666904Y-46428571D01*
X43619285Y-46523809D01*
X43619285Y-46619047D01*
X43857380Y-46571428D02*
X43809761Y-46666666D01*
X43714523Y-46761904D01*
X43524047Y-46809523D01*
X43190714Y-46809523D01*
X43000238Y-46761904D01*
X42905000Y-46666666D01*
X42857380Y-46571428D01*
X42857380Y-46380952D01*
X42905000Y-46285714D01*
X43000238Y-46190476D01*
X43190714Y-46142857D01*
X43524047Y-46142857D01*
X43714523Y-46190476D01*
X43809761Y-46285714D01*
X43857380Y-46380952D01*
X43857380Y-46571428D01*
X42857380Y-45809523D02*
X42857380Y-45190476D01*
X43238333Y-45523809D01*
X43238333Y-45380952D01*
X43285952Y-45285714D01*
X43333571Y-45238095D01*
X43428809Y-45190476D01*
X43666904Y-45190476D01*
X43762142Y-45238095D01*
X43809761Y-45285714D01*
X43857380Y-45380952D01*
X43857380Y-45666666D01*
X43809761Y-45761904D01*
X43762142Y-45809523D01*
M02*
