G04 #@! TF.GenerationSoftware,KiCad,Pcbnew,5.1.5-52549c5~84~ubuntu18.04.1*
G04 #@! TF.CreationDate,2020-03-25T21:43:52-04:00*
G04 #@! TF.ProjectId,footswitch,666f6f74-7377-4697-9463-682e6b696361,rev?*
G04 #@! TF.SameCoordinates,Original*
G04 #@! TF.FileFunction,Soldermask,Bot*
G04 #@! TF.FilePolarity,Negative*
%FSLAX46Y46*%
G04 Gerber Fmt 4.6, Leading zero omitted, Abs format (unit mm)*
G04 Created by KiCad (PCBNEW 5.1.5-52549c5~84~ubuntu18.04.1) date 2020-03-25 21:43:52*
%MOMM*%
%LPD*%
G04 APERTURE LIST*
%ADD10C,0.100000*%
G04 APERTURE END LIST*
D10*
G36*
X116375256Y-64391298D02*
G01*
X116481579Y-64412447D01*
X116782042Y-64536903D01*
X117052451Y-64717585D01*
X117282415Y-64947549D01*
X117463097Y-65217958D01*
X117587553Y-65518421D01*
X117651000Y-65837391D01*
X117651000Y-66162609D01*
X117587553Y-66481579D01*
X117463097Y-66782042D01*
X117282415Y-67052451D01*
X117052451Y-67282415D01*
X116782042Y-67463097D01*
X116481579Y-67587553D01*
X116375256Y-67608702D01*
X116162611Y-67651000D01*
X115837389Y-67651000D01*
X115624744Y-67608702D01*
X115518421Y-67587553D01*
X115217958Y-67463097D01*
X114947549Y-67282415D01*
X114717585Y-67052451D01*
X114536903Y-66782042D01*
X114412447Y-66481579D01*
X114349000Y-66162609D01*
X114349000Y-65837391D01*
X114412447Y-65518421D01*
X114536903Y-65217958D01*
X114717585Y-64947549D01*
X114947549Y-64717585D01*
X115217958Y-64536903D01*
X115518421Y-64412447D01*
X115624744Y-64391298D01*
X115837389Y-64349000D01*
X116162611Y-64349000D01*
X116375256Y-64391298D01*
G37*
G36*
X24375256Y-64391298D02*
G01*
X24481579Y-64412447D01*
X24782042Y-64536903D01*
X25052451Y-64717585D01*
X25282415Y-64947549D01*
X25463097Y-65217958D01*
X25587553Y-65518421D01*
X25651000Y-65837391D01*
X25651000Y-66162609D01*
X25587553Y-66481579D01*
X25463097Y-66782042D01*
X25282415Y-67052451D01*
X25052451Y-67282415D01*
X24782042Y-67463097D01*
X24481579Y-67587553D01*
X24375256Y-67608702D01*
X24162611Y-67651000D01*
X23837389Y-67651000D01*
X23624744Y-67608702D01*
X23518421Y-67587553D01*
X23217958Y-67463097D01*
X22947549Y-67282415D01*
X22717585Y-67052451D01*
X22536903Y-66782042D01*
X22412447Y-66481579D01*
X22349000Y-66162609D01*
X22349000Y-65837391D01*
X22412447Y-65518421D01*
X22536903Y-65217958D01*
X22717585Y-64947549D01*
X22947549Y-64717585D01*
X23217958Y-64536903D01*
X23518421Y-64412447D01*
X23624744Y-64391298D01*
X23837389Y-64349000D01*
X24162611Y-64349000D01*
X24375256Y-64391298D01*
G37*
G36*
X71857142Y-63998242D02*
G01*
X72005101Y-64059529D01*
X72138255Y-64148499D01*
X72251501Y-64261745D01*
X72340471Y-64394899D01*
X72401758Y-64542858D01*
X72433000Y-64699925D01*
X72433000Y-64860075D01*
X72401758Y-65017142D01*
X72340471Y-65165101D01*
X72251501Y-65298255D01*
X72138255Y-65411501D01*
X72005101Y-65500471D01*
X71857142Y-65561758D01*
X71700075Y-65593000D01*
X71539925Y-65593000D01*
X71382858Y-65561758D01*
X71234899Y-65500471D01*
X71101745Y-65411501D01*
X70988499Y-65298255D01*
X70899529Y-65165101D01*
X70838242Y-65017142D01*
X70807000Y-64860075D01*
X70807000Y-64699925D01*
X70838242Y-64542858D01*
X70899529Y-64394899D01*
X70988499Y-64261745D01*
X71101745Y-64148499D01*
X71234899Y-64059529D01*
X71382858Y-63998242D01*
X71539925Y-63967000D01*
X71700075Y-63967000D01*
X71857142Y-63998242D01*
G37*
G36*
X56617142Y-63998242D02*
G01*
X56765101Y-64059529D01*
X56898255Y-64148499D01*
X57011501Y-64261745D01*
X57100471Y-64394899D01*
X57161758Y-64542858D01*
X57193000Y-64699925D01*
X57193000Y-64860075D01*
X57161758Y-65017142D01*
X57100471Y-65165101D01*
X57011501Y-65298255D01*
X56898255Y-65411501D01*
X56765101Y-65500471D01*
X56617142Y-65561758D01*
X56460075Y-65593000D01*
X56299925Y-65593000D01*
X56142858Y-65561758D01*
X55994899Y-65500471D01*
X55861745Y-65411501D01*
X55748499Y-65298255D01*
X55659529Y-65165101D01*
X55598242Y-65017142D01*
X55567000Y-64860075D01*
X55567000Y-64699925D01*
X55598242Y-64542858D01*
X55659529Y-64394899D01*
X55748499Y-64261745D01*
X55861745Y-64148499D01*
X55994899Y-64059529D01*
X56142858Y-63998242D01*
X56299925Y-63967000D01*
X56460075Y-63967000D01*
X56617142Y-63998242D01*
G37*
G36*
X71857142Y-61458242D02*
G01*
X72005101Y-61519529D01*
X72138255Y-61608499D01*
X72251501Y-61721745D01*
X72340471Y-61854899D01*
X72401758Y-62002858D01*
X72433000Y-62159925D01*
X72433000Y-62320075D01*
X72401758Y-62477142D01*
X72340471Y-62625101D01*
X72251501Y-62758255D01*
X72138255Y-62871501D01*
X72005101Y-62960471D01*
X71857142Y-63021758D01*
X71700075Y-63053000D01*
X71539925Y-63053000D01*
X71382858Y-63021758D01*
X71234899Y-62960471D01*
X71101745Y-62871501D01*
X70988499Y-62758255D01*
X70899529Y-62625101D01*
X70838242Y-62477142D01*
X70807000Y-62320075D01*
X70807000Y-62159925D01*
X70838242Y-62002858D01*
X70899529Y-61854899D01*
X70988499Y-61721745D01*
X71101745Y-61608499D01*
X71234899Y-61519529D01*
X71382858Y-61458242D01*
X71539925Y-61427000D01*
X71700075Y-61427000D01*
X71857142Y-61458242D01*
G37*
G36*
X56617142Y-61458242D02*
G01*
X56765101Y-61519529D01*
X56898255Y-61608499D01*
X57011501Y-61721745D01*
X57100471Y-61854899D01*
X57161758Y-62002858D01*
X57193000Y-62159925D01*
X57193000Y-62320075D01*
X57161758Y-62477142D01*
X57100471Y-62625101D01*
X57011501Y-62758255D01*
X56898255Y-62871501D01*
X56765101Y-62960471D01*
X56617142Y-63021758D01*
X56460075Y-63053000D01*
X56299925Y-63053000D01*
X56142858Y-63021758D01*
X55994899Y-62960471D01*
X55861745Y-62871501D01*
X55748499Y-62758255D01*
X55659529Y-62625101D01*
X55598242Y-62477142D01*
X55567000Y-62320075D01*
X55567000Y-62159925D01*
X55598242Y-62002858D01*
X55659529Y-61854899D01*
X55748499Y-61721745D01*
X55861745Y-61608499D01*
X55994899Y-61519529D01*
X56142858Y-61458242D01*
X56299925Y-61427000D01*
X56460075Y-61427000D01*
X56617142Y-61458242D01*
G37*
G36*
X71857142Y-58918242D02*
G01*
X72005101Y-58979529D01*
X72138255Y-59068499D01*
X72251501Y-59181745D01*
X72340471Y-59314899D01*
X72401758Y-59462858D01*
X72433000Y-59619925D01*
X72433000Y-59780075D01*
X72401758Y-59937142D01*
X72340471Y-60085101D01*
X72251501Y-60218255D01*
X72138255Y-60331501D01*
X72005101Y-60420471D01*
X71857142Y-60481758D01*
X71700075Y-60513000D01*
X71539925Y-60513000D01*
X71382858Y-60481758D01*
X71234899Y-60420471D01*
X71101745Y-60331501D01*
X70988499Y-60218255D01*
X70899529Y-60085101D01*
X70838242Y-59937142D01*
X70807000Y-59780075D01*
X70807000Y-59619925D01*
X70838242Y-59462858D01*
X70899529Y-59314899D01*
X70988499Y-59181745D01*
X71101745Y-59068499D01*
X71234899Y-58979529D01*
X71382858Y-58918242D01*
X71539925Y-58887000D01*
X71700075Y-58887000D01*
X71857142Y-58918242D01*
G37*
G36*
X56617142Y-58918242D02*
G01*
X56765101Y-58979529D01*
X56898255Y-59068499D01*
X57011501Y-59181745D01*
X57100471Y-59314899D01*
X57161758Y-59462858D01*
X57193000Y-59619925D01*
X57193000Y-59780075D01*
X57161758Y-59937142D01*
X57100471Y-60085101D01*
X57011501Y-60218255D01*
X56898255Y-60331501D01*
X56765101Y-60420471D01*
X56617142Y-60481758D01*
X56460075Y-60513000D01*
X56299925Y-60513000D01*
X56142858Y-60481758D01*
X55994899Y-60420471D01*
X55861745Y-60331501D01*
X55748499Y-60218255D01*
X55659529Y-60085101D01*
X55598242Y-59937142D01*
X55567000Y-59780075D01*
X55567000Y-59619925D01*
X55598242Y-59462858D01*
X55659529Y-59314899D01*
X55748499Y-59181745D01*
X55861745Y-59068499D01*
X55994899Y-58979529D01*
X56142858Y-58918242D01*
X56299925Y-58887000D01*
X56460075Y-58887000D01*
X56617142Y-58918242D01*
G37*
G36*
X29051000Y-59051000D02*
G01*
X26949000Y-59051000D01*
X26949000Y-56949000D01*
X29051000Y-56949000D01*
X29051000Y-59051000D01*
G37*
G36*
X71857142Y-56378242D02*
G01*
X72005101Y-56439529D01*
X72138255Y-56528499D01*
X72251501Y-56641745D01*
X72340471Y-56774899D01*
X72401758Y-56922858D01*
X72433000Y-57079925D01*
X72433000Y-57240075D01*
X72401758Y-57397142D01*
X72340471Y-57545101D01*
X72251501Y-57678255D01*
X72138255Y-57791501D01*
X72005101Y-57880471D01*
X71857142Y-57941758D01*
X71700075Y-57973000D01*
X71539925Y-57973000D01*
X71382858Y-57941758D01*
X71234899Y-57880471D01*
X71101745Y-57791501D01*
X70988499Y-57678255D01*
X70899529Y-57545101D01*
X70838242Y-57397142D01*
X70807000Y-57240075D01*
X70807000Y-57079925D01*
X70838242Y-56922858D01*
X70899529Y-56774899D01*
X70988499Y-56641745D01*
X71101745Y-56528499D01*
X71234899Y-56439529D01*
X71382858Y-56378242D01*
X71539925Y-56347000D01*
X71700075Y-56347000D01*
X71857142Y-56378242D01*
G37*
G36*
X59157142Y-56378242D02*
G01*
X59305101Y-56439529D01*
X59438255Y-56528499D01*
X59551501Y-56641745D01*
X59640471Y-56774899D01*
X59701758Y-56922858D01*
X59733000Y-57079925D01*
X59733000Y-57240075D01*
X59701758Y-57397142D01*
X59640471Y-57545101D01*
X59551501Y-57678255D01*
X59438255Y-57791501D01*
X59305101Y-57880471D01*
X59157142Y-57941758D01*
X59000075Y-57973000D01*
X58839925Y-57973000D01*
X58682858Y-57941758D01*
X58534899Y-57880471D01*
X58401745Y-57791501D01*
X58288499Y-57678255D01*
X58199529Y-57545101D01*
X58138242Y-57397142D01*
X58107000Y-57240075D01*
X58107000Y-57079925D01*
X58138242Y-56922858D01*
X58199529Y-56774899D01*
X58288499Y-56641745D01*
X58401745Y-56528499D01*
X58534899Y-56439529D01*
X58682858Y-56378242D01*
X58839925Y-56347000D01*
X59000075Y-56347000D01*
X59157142Y-56378242D01*
G37*
G36*
X56617142Y-56378242D02*
G01*
X56765101Y-56439529D01*
X56898255Y-56528499D01*
X57011501Y-56641745D01*
X57100471Y-56774899D01*
X57161758Y-56922858D01*
X57193000Y-57079925D01*
X57193000Y-57240075D01*
X57161758Y-57397142D01*
X57100471Y-57545101D01*
X57011501Y-57678255D01*
X56898255Y-57791501D01*
X56765101Y-57880471D01*
X56617142Y-57941758D01*
X56460075Y-57973000D01*
X56299925Y-57973000D01*
X56142858Y-57941758D01*
X55994899Y-57880471D01*
X55861745Y-57791501D01*
X55748499Y-57678255D01*
X55659529Y-57545101D01*
X55598242Y-57397142D01*
X55567000Y-57240075D01*
X55567000Y-57079925D01*
X55598242Y-56922858D01*
X55659529Y-56774899D01*
X55748499Y-56641745D01*
X55861745Y-56528499D01*
X55994899Y-56439529D01*
X56142858Y-56378242D01*
X56299925Y-56347000D01*
X56460075Y-56347000D01*
X56617142Y-56378242D01*
G37*
G36*
X115893512Y-56103927D02*
G01*
X116042812Y-56133624D01*
X116206784Y-56201544D01*
X116354354Y-56300147D01*
X116479853Y-56425646D01*
X116578456Y-56573216D01*
X116646376Y-56737188D01*
X116681000Y-56911259D01*
X116681000Y-57088741D01*
X116646376Y-57262812D01*
X116578456Y-57426784D01*
X116479853Y-57574354D01*
X116354354Y-57699853D01*
X116206784Y-57798456D01*
X116042812Y-57866376D01*
X115893512Y-57896073D01*
X115868742Y-57901000D01*
X115691258Y-57901000D01*
X115666488Y-57896073D01*
X115517188Y-57866376D01*
X115353216Y-57798456D01*
X115205646Y-57699853D01*
X115080147Y-57574354D01*
X114981544Y-57426784D01*
X114913624Y-57262812D01*
X114879000Y-57088741D01*
X114879000Y-56911259D01*
X114913624Y-56737188D01*
X114981544Y-56573216D01*
X115080147Y-56425646D01*
X115205646Y-56300147D01*
X115353216Y-56201544D01*
X115517188Y-56133624D01*
X115666488Y-56103927D01*
X115691258Y-56099000D01*
X115868742Y-56099000D01*
X115893512Y-56103927D01*
G37*
G36*
X98901000Y-57901000D02*
G01*
X97099000Y-57901000D01*
X97099000Y-56099000D01*
X98901000Y-56099000D01*
X98901000Y-57901000D01*
G37*
G36*
X100653512Y-56103927D02*
G01*
X100802812Y-56133624D01*
X100966784Y-56201544D01*
X101114354Y-56300147D01*
X101239853Y-56425646D01*
X101338456Y-56573216D01*
X101406376Y-56737188D01*
X101441000Y-56911259D01*
X101441000Y-57088741D01*
X101406376Y-57262812D01*
X101338456Y-57426784D01*
X101239853Y-57574354D01*
X101114354Y-57699853D01*
X100966784Y-57798456D01*
X100802812Y-57866376D01*
X100653512Y-57896073D01*
X100628742Y-57901000D01*
X100451258Y-57901000D01*
X100426488Y-57896073D01*
X100277188Y-57866376D01*
X100113216Y-57798456D01*
X99965646Y-57699853D01*
X99840147Y-57574354D01*
X99741544Y-57426784D01*
X99673624Y-57262812D01*
X99639000Y-57088741D01*
X99639000Y-56911259D01*
X99673624Y-56737188D01*
X99741544Y-56573216D01*
X99840147Y-56425646D01*
X99965646Y-56300147D01*
X100113216Y-56201544D01*
X100277188Y-56133624D01*
X100426488Y-56103927D01*
X100451258Y-56099000D01*
X100628742Y-56099000D01*
X100653512Y-56103927D01*
G37*
G36*
X103193512Y-56103927D02*
G01*
X103342812Y-56133624D01*
X103506784Y-56201544D01*
X103654354Y-56300147D01*
X103779853Y-56425646D01*
X103878456Y-56573216D01*
X103946376Y-56737188D01*
X103981000Y-56911259D01*
X103981000Y-57088741D01*
X103946376Y-57262812D01*
X103878456Y-57426784D01*
X103779853Y-57574354D01*
X103654354Y-57699853D01*
X103506784Y-57798456D01*
X103342812Y-57866376D01*
X103193512Y-57896073D01*
X103168742Y-57901000D01*
X102991258Y-57901000D01*
X102966488Y-57896073D01*
X102817188Y-57866376D01*
X102653216Y-57798456D01*
X102505646Y-57699853D01*
X102380147Y-57574354D01*
X102281544Y-57426784D01*
X102213624Y-57262812D01*
X102179000Y-57088741D01*
X102179000Y-56911259D01*
X102213624Y-56737188D01*
X102281544Y-56573216D01*
X102380147Y-56425646D01*
X102505646Y-56300147D01*
X102653216Y-56201544D01*
X102817188Y-56133624D01*
X102966488Y-56103927D01*
X102991258Y-56099000D01*
X103168742Y-56099000D01*
X103193512Y-56103927D01*
G37*
G36*
X105733512Y-56103927D02*
G01*
X105882812Y-56133624D01*
X106046784Y-56201544D01*
X106194354Y-56300147D01*
X106319853Y-56425646D01*
X106418456Y-56573216D01*
X106486376Y-56737188D01*
X106521000Y-56911259D01*
X106521000Y-57088741D01*
X106486376Y-57262812D01*
X106418456Y-57426784D01*
X106319853Y-57574354D01*
X106194354Y-57699853D01*
X106046784Y-57798456D01*
X105882812Y-57866376D01*
X105733512Y-57896073D01*
X105708742Y-57901000D01*
X105531258Y-57901000D01*
X105506488Y-57896073D01*
X105357188Y-57866376D01*
X105193216Y-57798456D01*
X105045646Y-57699853D01*
X104920147Y-57574354D01*
X104821544Y-57426784D01*
X104753624Y-57262812D01*
X104719000Y-57088741D01*
X104719000Y-56911259D01*
X104753624Y-56737188D01*
X104821544Y-56573216D01*
X104920147Y-56425646D01*
X105045646Y-56300147D01*
X105193216Y-56201544D01*
X105357188Y-56133624D01*
X105506488Y-56103927D01*
X105531258Y-56099000D01*
X105708742Y-56099000D01*
X105733512Y-56103927D01*
G37*
G36*
X108273512Y-56103927D02*
G01*
X108422812Y-56133624D01*
X108586784Y-56201544D01*
X108734354Y-56300147D01*
X108859853Y-56425646D01*
X108958456Y-56573216D01*
X109026376Y-56737188D01*
X109061000Y-56911259D01*
X109061000Y-57088741D01*
X109026376Y-57262812D01*
X108958456Y-57426784D01*
X108859853Y-57574354D01*
X108734354Y-57699853D01*
X108586784Y-57798456D01*
X108422812Y-57866376D01*
X108273512Y-57896073D01*
X108248742Y-57901000D01*
X108071258Y-57901000D01*
X108046488Y-57896073D01*
X107897188Y-57866376D01*
X107733216Y-57798456D01*
X107585646Y-57699853D01*
X107460147Y-57574354D01*
X107361544Y-57426784D01*
X107293624Y-57262812D01*
X107259000Y-57088741D01*
X107259000Y-56911259D01*
X107293624Y-56737188D01*
X107361544Y-56573216D01*
X107460147Y-56425646D01*
X107585646Y-56300147D01*
X107733216Y-56201544D01*
X107897188Y-56133624D01*
X108046488Y-56103927D01*
X108071258Y-56099000D01*
X108248742Y-56099000D01*
X108273512Y-56103927D01*
G37*
G36*
X113353512Y-56103927D02*
G01*
X113502812Y-56133624D01*
X113666784Y-56201544D01*
X113814354Y-56300147D01*
X113939853Y-56425646D01*
X114038456Y-56573216D01*
X114106376Y-56737188D01*
X114141000Y-56911259D01*
X114141000Y-57088741D01*
X114106376Y-57262812D01*
X114038456Y-57426784D01*
X113939853Y-57574354D01*
X113814354Y-57699853D01*
X113666784Y-57798456D01*
X113502812Y-57866376D01*
X113353512Y-57896073D01*
X113328742Y-57901000D01*
X113151258Y-57901000D01*
X113126488Y-57896073D01*
X112977188Y-57866376D01*
X112813216Y-57798456D01*
X112665646Y-57699853D01*
X112540147Y-57574354D01*
X112441544Y-57426784D01*
X112373624Y-57262812D01*
X112339000Y-57088741D01*
X112339000Y-56911259D01*
X112373624Y-56737188D01*
X112441544Y-56573216D01*
X112540147Y-56425646D01*
X112665646Y-56300147D01*
X112813216Y-56201544D01*
X112977188Y-56133624D01*
X113126488Y-56103927D01*
X113151258Y-56099000D01*
X113328742Y-56099000D01*
X113353512Y-56103927D01*
G37*
G36*
X110813512Y-56103927D02*
G01*
X110962812Y-56133624D01*
X111126784Y-56201544D01*
X111274354Y-56300147D01*
X111399853Y-56425646D01*
X111498456Y-56573216D01*
X111566376Y-56737188D01*
X111601000Y-56911259D01*
X111601000Y-57088741D01*
X111566376Y-57262812D01*
X111498456Y-57426784D01*
X111399853Y-57574354D01*
X111274354Y-57699853D01*
X111126784Y-57798456D01*
X110962812Y-57866376D01*
X110813512Y-57896073D01*
X110788742Y-57901000D01*
X110611258Y-57901000D01*
X110586488Y-57896073D01*
X110437188Y-57866376D01*
X110273216Y-57798456D01*
X110125646Y-57699853D01*
X110000147Y-57574354D01*
X109901544Y-57426784D01*
X109833624Y-57262812D01*
X109799000Y-57088741D01*
X109799000Y-56911259D01*
X109833624Y-56737188D01*
X109901544Y-56573216D01*
X110000147Y-56425646D01*
X110125646Y-56300147D01*
X110273216Y-56201544D01*
X110437188Y-56133624D01*
X110586488Y-56103927D01*
X110611258Y-56099000D01*
X110788742Y-56099000D01*
X110813512Y-56103927D01*
G37*
G36*
X56617142Y-53838242D02*
G01*
X56765101Y-53899529D01*
X56898255Y-53988499D01*
X57011501Y-54101745D01*
X57100471Y-54234899D01*
X57161758Y-54382858D01*
X57193000Y-54539925D01*
X57193000Y-54700075D01*
X57161758Y-54857142D01*
X57100471Y-55005101D01*
X57011501Y-55138255D01*
X56898255Y-55251501D01*
X56765101Y-55340471D01*
X56617142Y-55401758D01*
X56460075Y-55433000D01*
X56299925Y-55433000D01*
X56142858Y-55401758D01*
X55994899Y-55340471D01*
X55861745Y-55251501D01*
X55748499Y-55138255D01*
X55659529Y-55005101D01*
X55598242Y-54857142D01*
X55567000Y-54700075D01*
X55567000Y-54539925D01*
X55598242Y-54382858D01*
X55659529Y-54234899D01*
X55748499Y-54101745D01*
X55861745Y-53988499D01*
X55994899Y-53899529D01*
X56142858Y-53838242D01*
X56299925Y-53807000D01*
X56460075Y-53807000D01*
X56617142Y-53838242D01*
G37*
G36*
X59157142Y-53838242D02*
G01*
X59305101Y-53899529D01*
X59438255Y-53988499D01*
X59551501Y-54101745D01*
X59640471Y-54234899D01*
X59701758Y-54382858D01*
X59733000Y-54539925D01*
X59733000Y-54700075D01*
X59701758Y-54857142D01*
X59640471Y-55005101D01*
X59551501Y-55138255D01*
X59438255Y-55251501D01*
X59305101Y-55340471D01*
X59157142Y-55401758D01*
X59000075Y-55433000D01*
X58839925Y-55433000D01*
X58682858Y-55401758D01*
X58534899Y-55340471D01*
X58401745Y-55251501D01*
X58288499Y-55138255D01*
X58199529Y-55005101D01*
X58138242Y-54857142D01*
X58107000Y-54700075D01*
X58107000Y-54539925D01*
X58138242Y-54382858D01*
X58199529Y-54234899D01*
X58288499Y-54101745D01*
X58401745Y-53988499D01*
X58534899Y-53899529D01*
X58682858Y-53838242D01*
X58839925Y-53807000D01*
X59000075Y-53807000D01*
X59157142Y-53838242D01*
G37*
G36*
X71857142Y-53838242D02*
G01*
X72005101Y-53899529D01*
X72138255Y-53988499D01*
X72251501Y-54101745D01*
X72340471Y-54234899D01*
X72401758Y-54382858D01*
X72433000Y-54539925D01*
X72433000Y-54700075D01*
X72401758Y-54857142D01*
X72340471Y-55005101D01*
X72251501Y-55138255D01*
X72138255Y-55251501D01*
X72005101Y-55340471D01*
X71857142Y-55401758D01*
X71700075Y-55433000D01*
X71539925Y-55433000D01*
X71382858Y-55401758D01*
X71234899Y-55340471D01*
X71101745Y-55251501D01*
X70988499Y-55138255D01*
X70899529Y-55005101D01*
X70838242Y-54857142D01*
X70807000Y-54700075D01*
X70807000Y-54539925D01*
X70838242Y-54382858D01*
X70899529Y-54234899D01*
X70988499Y-54101745D01*
X71101745Y-53988499D01*
X71234899Y-53899529D01*
X71382858Y-53838242D01*
X71539925Y-53807000D01*
X71700075Y-53807000D01*
X71857142Y-53838242D01*
G37*
G36*
X28306564Y-51989389D02*
G01*
X28497833Y-52068615D01*
X28497835Y-52068616D01*
X28669973Y-52183635D01*
X28816365Y-52330027D01*
X28906619Y-52465101D01*
X28931385Y-52502167D01*
X29010611Y-52693436D01*
X29051000Y-52896484D01*
X29051000Y-53103516D01*
X29010611Y-53306564D01*
X28931385Y-53497833D01*
X28931384Y-53497835D01*
X28816365Y-53669973D01*
X28669973Y-53816365D01*
X28497835Y-53931384D01*
X28497834Y-53931385D01*
X28497833Y-53931385D01*
X28306564Y-54010611D01*
X28103516Y-54051000D01*
X27896484Y-54051000D01*
X27693436Y-54010611D01*
X27502167Y-53931385D01*
X27502166Y-53931385D01*
X27502165Y-53931384D01*
X27330027Y-53816365D01*
X27183635Y-53669973D01*
X27068616Y-53497835D01*
X27068615Y-53497833D01*
X26989389Y-53306564D01*
X26949000Y-53103516D01*
X26949000Y-52896484D01*
X26989389Y-52693436D01*
X27068615Y-52502167D01*
X27093382Y-52465101D01*
X27183635Y-52330027D01*
X27330027Y-52183635D01*
X27502165Y-52068616D01*
X27502167Y-52068615D01*
X27693436Y-51989389D01*
X27896484Y-51949000D01*
X28103516Y-51949000D01*
X28306564Y-51989389D01*
G37*
G36*
X56617142Y-51298242D02*
G01*
X56765101Y-51359529D01*
X56898255Y-51448499D01*
X57011501Y-51561745D01*
X57100471Y-51694899D01*
X57161758Y-51842858D01*
X57193000Y-51999925D01*
X57193000Y-52160075D01*
X57161758Y-52317142D01*
X57100471Y-52465101D01*
X57011501Y-52598255D01*
X56898255Y-52711501D01*
X56765101Y-52800471D01*
X56617142Y-52861758D01*
X56460075Y-52893000D01*
X56299925Y-52893000D01*
X56142858Y-52861758D01*
X55994899Y-52800471D01*
X55861745Y-52711501D01*
X55748499Y-52598255D01*
X55659529Y-52465101D01*
X55598242Y-52317142D01*
X55567000Y-52160075D01*
X55567000Y-51999925D01*
X55598242Y-51842858D01*
X55659529Y-51694899D01*
X55748499Y-51561745D01*
X55861745Y-51448499D01*
X55994899Y-51359529D01*
X56142858Y-51298242D01*
X56299925Y-51267000D01*
X56460075Y-51267000D01*
X56617142Y-51298242D01*
G37*
G36*
X59157142Y-51298242D02*
G01*
X59305101Y-51359529D01*
X59438255Y-51448499D01*
X59551501Y-51561745D01*
X59640471Y-51694899D01*
X59701758Y-51842858D01*
X59733000Y-51999925D01*
X59733000Y-52160075D01*
X59701758Y-52317142D01*
X59640471Y-52465101D01*
X59551501Y-52598255D01*
X59438255Y-52711501D01*
X59305101Y-52800471D01*
X59157142Y-52861758D01*
X59000075Y-52893000D01*
X58839925Y-52893000D01*
X58682858Y-52861758D01*
X58534899Y-52800471D01*
X58401745Y-52711501D01*
X58288499Y-52598255D01*
X58199529Y-52465101D01*
X58138242Y-52317142D01*
X58107000Y-52160075D01*
X58107000Y-51999925D01*
X58138242Y-51842858D01*
X58199529Y-51694899D01*
X58288499Y-51561745D01*
X58401745Y-51448499D01*
X58534899Y-51359529D01*
X58682858Y-51298242D01*
X58839925Y-51267000D01*
X59000075Y-51267000D01*
X59157142Y-51298242D01*
G37*
G36*
X71857142Y-51298242D02*
G01*
X72005101Y-51359529D01*
X72138255Y-51448499D01*
X72251501Y-51561745D01*
X72340471Y-51694899D01*
X72401758Y-51842858D01*
X72433000Y-51999925D01*
X72433000Y-52160075D01*
X72401758Y-52317142D01*
X72340471Y-52465101D01*
X72251501Y-52598255D01*
X72138255Y-52711501D01*
X72005101Y-52800471D01*
X71857142Y-52861758D01*
X71700075Y-52893000D01*
X71539925Y-52893000D01*
X71382858Y-52861758D01*
X71234899Y-52800471D01*
X71101745Y-52711501D01*
X70988499Y-52598255D01*
X70899529Y-52465101D01*
X70838242Y-52317142D01*
X70807000Y-52160075D01*
X70807000Y-51999925D01*
X70838242Y-51842858D01*
X70899529Y-51694899D01*
X70988499Y-51561745D01*
X71101745Y-51448499D01*
X71234899Y-51359529D01*
X71382858Y-51298242D01*
X71539925Y-51267000D01*
X71700075Y-51267000D01*
X71857142Y-51298242D01*
G37*
G36*
X56617142Y-48758242D02*
G01*
X56765101Y-48819529D01*
X56898255Y-48908499D01*
X57011501Y-49021745D01*
X57100471Y-49154899D01*
X57161758Y-49302858D01*
X57193000Y-49459925D01*
X57193000Y-49620075D01*
X57161758Y-49777142D01*
X57100471Y-49925101D01*
X57011501Y-50058255D01*
X56898255Y-50171501D01*
X56765101Y-50260471D01*
X56617142Y-50321758D01*
X56460075Y-50353000D01*
X56299925Y-50353000D01*
X56142858Y-50321758D01*
X55994899Y-50260471D01*
X55861745Y-50171501D01*
X55748499Y-50058255D01*
X55659529Y-49925101D01*
X55598242Y-49777142D01*
X55567000Y-49620075D01*
X55567000Y-49459925D01*
X55598242Y-49302858D01*
X55659529Y-49154899D01*
X55748499Y-49021745D01*
X55861745Y-48908499D01*
X55994899Y-48819529D01*
X56142858Y-48758242D01*
X56299925Y-48727000D01*
X56460075Y-48727000D01*
X56617142Y-48758242D01*
G37*
G36*
X71857142Y-48758242D02*
G01*
X72005101Y-48819529D01*
X72138255Y-48908499D01*
X72251501Y-49021745D01*
X72340471Y-49154899D01*
X72401758Y-49302858D01*
X72433000Y-49459925D01*
X72433000Y-49620075D01*
X72401758Y-49777142D01*
X72340471Y-49925101D01*
X72251501Y-50058255D01*
X72138255Y-50171501D01*
X72005101Y-50260471D01*
X71857142Y-50321758D01*
X71700075Y-50353000D01*
X71539925Y-50353000D01*
X71382858Y-50321758D01*
X71234899Y-50260471D01*
X71101745Y-50171501D01*
X70988499Y-50058255D01*
X70899529Y-49925101D01*
X70838242Y-49777142D01*
X70807000Y-49620075D01*
X70807000Y-49459925D01*
X70838242Y-49302858D01*
X70899529Y-49154899D01*
X70988499Y-49021745D01*
X71101745Y-48908499D01*
X71234899Y-48819529D01*
X71382858Y-48758242D01*
X71539925Y-48727000D01*
X71700075Y-48727000D01*
X71857142Y-48758242D01*
G37*
G36*
X71857142Y-46218242D02*
G01*
X72005101Y-46279529D01*
X72138255Y-46368499D01*
X72251501Y-46481745D01*
X72340471Y-46614899D01*
X72401758Y-46762858D01*
X72433000Y-46919925D01*
X72433000Y-47080075D01*
X72401758Y-47237142D01*
X72340471Y-47385101D01*
X72251501Y-47518255D01*
X72138255Y-47631501D01*
X72005101Y-47720471D01*
X71857142Y-47781758D01*
X71700075Y-47813000D01*
X71539925Y-47813000D01*
X71382858Y-47781758D01*
X71234899Y-47720471D01*
X71101745Y-47631501D01*
X70988499Y-47518255D01*
X70899529Y-47385101D01*
X70838242Y-47237142D01*
X70807000Y-47080075D01*
X70807000Y-46919925D01*
X70838242Y-46762858D01*
X70899529Y-46614899D01*
X70988499Y-46481745D01*
X71101745Y-46368499D01*
X71234899Y-46279529D01*
X71382858Y-46218242D01*
X71539925Y-46187000D01*
X71700075Y-46187000D01*
X71857142Y-46218242D01*
G37*
G36*
X56617142Y-46218242D02*
G01*
X56765101Y-46279529D01*
X56898255Y-46368499D01*
X57011501Y-46481745D01*
X57100471Y-46614899D01*
X57161758Y-46762858D01*
X57193000Y-46919925D01*
X57193000Y-47080075D01*
X57161758Y-47237142D01*
X57100471Y-47385101D01*
X57011501Y-47518255D01*
X56898255Y-47631501D01*
X56765101Y-47720471D01*
X56617142Y-47781758D01*
X56460075Y-47813000D01*
X56299925Y-47813000D01*
X56142858Y-47781758D01*
X55994899Y-47720471D01*
X55861745Y-47631501D01*
X55748499Y-47518255D01*
X55659529Y-47385101D01*
X55598242Y-47237142D01*
X55567000Y-47080075D01*
X55567000Y-46919925D01*
X55598242Y-46762858D01*
X55659529Y-46614899D01*
X55748499Y-46481745D01*
X55861745Y-46368499D01*
X55994899Y-46279529D01*
X56142858Y-46218242D01*
X56299925Y-46187000D01*
X56460075Y-46187000D01*
X56617142Y-46218242D01*
G37*
G36*
X103113512Y-44103927D02*
G01*
X103262812Y-44133624D01*
X103426784Y-44201544D01*
X103574354Y-44300147D01*
X103699853Y-44425646D01*
X103798456Y-44573216D01*
X103866376Y-44737188D01*
X103896073Y-44886488D01*
X103901000Y-44911258D01*
X103901000Y-45088742D01*
X103900451Y-45091501D01*
X103866376Y-45262812D01*
X103798456Y-45426784D01*
X103699853Y-45574354D01*
X103574354Y-45699853D01*
X103426784Y-45798456D01*
X103262812Y-45866376D01*
X103113512Y-45896073D01*
X103088742Y-45901000D01*
X102911258Y-45901000D01*
X102886488Y-45896073D01*
X102737188Y-45866376D01*
X102573216Y-45798456D01*
X102425646Y-45699853D01*
X102300147Y-45574354D01*
X102201544Y-45426784D01*
X102133624Y-45262812D01*
X102099549Y-45091501D01*
X102099000Y-45088742D01*
X102099000Y-44911258D01*
X102103927Y-44886488D01*
X102133624Y-44737188D01*
X102201544Y-44573216D01*
X102300147Y-44425646D01*
X102425646Y-44300147D01*
X102573216Y-44201544D01*
X102737188Y-44133624D01*
X102886488Y-44103927D01*
X102911258Y-44099000D01*
X103088742Y-44099000D01*
X103113512Y-44103927D01*
G37*
G36*
X28281000Y-45901000D02*
G01*
X26479000Y-45901000D01*
X26479000Y-44099000D01*
X28281000Y-44099000D01*
X28281000Y-45901000D01*
G37*
G36*
X30033512Y-44103927D02*
G01*
X30182812Y-44133624D01*
X30346784Y-44201544D01*
X30494354Y-44300147D01*
X30619853Y-44425646D01*
X30718456Y-44573216D01*
X30786376Y-44737188D01*
X30816073Y-44886488D01*
X30821000Y-44911258D01*
X30821000Y-45088742D01*
X30820451Y-45091501D01*
X30786376Y-45262812D01*
X30718456Y-45426784D01*
X30619853Y-45574354D01*
X30494354Y-45699853D01*
X30346784Y-45798456D01*
X30182812Y-45866376D01*
X30033512Y-45896073D01*
X30008742Y-45901000D01*
X29831258Y-45901000D01*
X29806488Y-45896073D01*
X29657188Y-45866376D01*
X29493216Y-45798456D01*
X29345646Y-45699853D01*
X29220147Y-45574354D01*
X29121544Y-45426784D01*
X29053624Y-45262812D01*
X29019549Y-45091501D01*
X29019000Y-45088742D01*
X29019000Y-44911258D01*
X29023927Y-44886488D01*
X29053624Y-44737188D01*
X29121544Y-44573216D01*
X29220147Y-44425646D01*
X29345646Y-44300147D01*
X29493216Y-44201544D01*
X29657188Y-44133624D01*
X29806488Y-44103927D01*
X29831258Y-44099000D01*
X30008742Y-44099000D01*
X30033512Y-44103927D01*
G37*
G36*
X32573512Y-44103927D02*
G01*
X32722812Y-44133624D01*
X32886784Y-44201544D01*
X33034354Y-44300147D01*
X33159853Y-44425646D01*
X33258456Y-44573216D01*
X33326376Y-44737188D01*
X33356073Y-44886488D01*
X33361000Y-44911258D01*
X33361000Y-45088742D01*
X33360451Y-45091501D01*
X33326376Y-45262812D01*
X33258456Y-45426784D01*
X33159853Y-45574354D01*
X33034354Y-45699853D01*
X32886784Y-45798456D01*
X32722812Y-45866376D01*
X32573512Y-45896073D01*
X32548742Y-45901000D01*
X32371258Y-45901000D01*
X32346488Y-45896073D01*
X32197188Y-45866376D01*
X32033216Y-45798456D01*
X31885646Y-45699853D01*
X31760147Y-45574354D01*
X31661544Y-45426784D01*
X31593624Y-45262812D01*
X31559549Y-45091501D01*
X31559000Y-45088742D01*
X31559000Y-44911258D01*
X31563927Y-44886488D01*
X31593624Y-44737188D01*
X31661544Y-44573216D01*
X31760147Y-44425646D01*
X31885646Y-44300147D01*
X32033216Y-44201544D01*
X32197188Y-44133624D01*
X32346488Y-44103927D01*
X32371258Y-44099000D01*
X32548742Y-44099000D01*
X32573512Y-44103927D01*
G37*
G36*
X35113512Y-44103927D02*
G01*
X35262812Y-44133624D01*
X35426784Y-44201544D01*
X35574354Y-44300147D01*
X35699853Y-44425646D01*
X35798456Y-44573216D01*
X35866376Y-44737188D01*
X35896073Y-44886488D01*
X35901000Y-44911258D01*
X35901000Y-45088742D01*
X35900451Y-45091501D01*
X35866376Y-45262812D01*
X35798456Y-45426784D01*
X35699853Y-45574354D01*
X35574354Y-45699853D01*
X35426784Y-45798456D01*
X35262812Y-45866376D01*
X35113512Y-45896073D01*
X35088742Y-45901000D01*
X34911258Y-45901000D01*
X34886488Y-45896073D01*
X34737188Y-45866376D01*
X34573216Y-45798456D01*
X34425646Y-45699853D01*
X34300147Y-45574354D01*
X34201544Y-45426784D01*
X34133624Y-45262812D01*
X34099549Y-45091501D01*
X34099000Y-45088742D01*
X34099000Y-44911258D01*
X34103927Y-44886488D01*
X34133624Y-44737188D01*
X34201544Y-44573216D01*
X34300147Y-44425646D01*
X34425646Y-44300147D01*
X34573216Y-44201544D01*
X34737188Y-44133624D01*
X34886488Y-44103927D01*
X34911258Y-44099000D01*
X35088742Y-44099000D01*
X35113512Y-44103927D01*
G37*
G36*
X37653512Y-44103927D02*
G01*
X37802812Y-44133624D01*
X37966784Y-44201544D01*
X38114354Y-44300147D01*
X38239853Y-44425646D01*
X38338456Y-44573216D01*
X38406376Y-44737188D01*
X38436073Y-44886488D01*
X38441000Y-44911258D01*
X38441000Y-45088742D01*
X38440451Y-45091501D01*
X38406376Y-45262812D01*
X38338456Y-45426784D01*
X38239853Y-45574354D01*
X38114354Y-45699853D01*
X37966784Y-45798456D01*
X37802812Y-45866376D01*
X37653512Y-45896073D01*
X37628742Y-45901000D01*
X37451258Y-45901000D01*
X37426488Y-45896073D01*
X37277188Y-45866376D01*
X37113216Y-45798456D01*
X36965646Y-45699853D01*
X36840147Y-45574354D01*
X36741544Y-45426784D01*
X36673624Y-45262812D01*
X36639549Y-45091501D01*
X36639000Y-45088742D01*
X36639000Y-44911258D01*
X36643927Y-44886488D01*
X36673624Y-44737188D01*
X36741544Y-44573216D01*
X36840147Y-44425646D01*
X36965646Y-44300147D01*
X37113216Y-44201544D01*
X37277188Y-44133624D01*
X37426488Y-44103927D01*
X37451258Y-44099000D01*
X37628742Y-44099000D01*
X37653512Y-44103927D01*
G37*
G36*
X98821000Y-45901000D02*
G01*
X97019000Y-45901000D01*
X97019000Y-44099000D01*
X98821000Y-44099000D01*
X98821000Y-45901000D01*
G37*
G36*
X108193512Y-44103927D02*
G01*
X108342812Y-44133624D01*
X108506784Y-44201544D01*
X108654354Y-44300147D01*
X108779853Y-44425646D01*
X108878456Y-44573216D01*
X108946376Y-44737188D01*
X108976073Y-44886488D01*
X108981000Y-44911258D01*
X108981000Y-45088742D01*
X108980451Y-45091501D01*
X108946376Y-45262812D01*
X108878456Y-45426784D01*
X108779853Y-45574354D01*
X108654354Y-45699853D01*
X108506784Y-45798456D01*
X108342812Y-45866376D01*
X108193512Y-45896073D01*
X108168742Y-45901000D01*
X107991258Y-45901000D01*
X107966488Y-45896073D01*
X107817188Y-45866376D01*
X107653216Y-45798456D01*
X107505646Y-45699853D01*
X107380147Y-45574354D01*
X107281544Y-45426784D01*
X107213624Y-45262812D01*
X107179549Y-45091501D01*
X107179000Y-45088742D01*
X107179000Y-44911258D01*
X107183927Y-44886488D01*
X107213624Y-44737188D01*
X107281544Y-44573216D01*
X107380147Y-44425646D01*
X107505646Y-44300147D01*
X107653216Y-44201544D01*
X107817188Y-44133624D01*
X107966488Y-44103927D01*
X107991258Y-44099000D01*
X108168742Y-44099000D01*
X108193512Y-44103927D01*
G37*
G36*
X40193512Y-44103927D02*
G01*
X40342812Y-44133624D01*
X40506784Y-44201544D01*
X40654354Y-44300147D01*
X40779853Y-44425646D01*
X40878456Y-44573216D01*
X40946376Y-44737188D01*
X40976073Y-44886488D01*
X40981000Y-44911258D01*
X40981000Y-45088742D01*
X40980451Y-45091501D01*
X40946376Y-45262812D01*
X40878456Y-45426784D01*
X40779853Y-45574354D01*
X40654354Y-45699853D01*
X40506784Y-45798456D01*
X40342812Y-45866376D01*
X40193512Y-45896073D01*
X40168742Y-45901000D01*
X39991258Y-45901000D01*
X39966488Y-45896073D01*
X39817188Y-45866376D01*
X39653216Y-45798456D01*
X39505646Y-45699853D01*
X39380147Y-45574354D01*
X39281544Y-45426784D01*
X39213624Y-45262812D01*
X39179549Y-45091501D01*
X39179000Y-45088742D01*
X39179000Y-44911258D01*
X39183927Y-44886488D01*
X39213624Y-44737188D01*
X39281544Y-44573216D01*
X39380147Y-44425646D01*
X39505646Y-44300147D01*
X39653216Y-44201544D01*
X39817188Y-44133624D01*
X39966488Y-44103927D01*
X39991258Y-44099000D01*
X40168742Y-44099000D01*
X40193512Y-44103927D01*
G37*
G36*
X100573512Y-44103927D02*
G01*
X100722812Y-44133624D01*
X100886784Y-44201544D01*
X101034354Y-44300147D01*
X101159853Y-44425646D01*
X101258456Y-44573216D01*
X101326376Y-44737188D01*
X101356073Y-44886488D01*
X101361000Y-44911258D01*
X101361000Y-45088742D01*
X101360451Y-45091501D01*
X101326376Y-45262812D01*
X101258456Y-45426784D01*
X101159853Y-45574354D01*
X101034354Y-45699853D01*
X100886784Y-45798456D01*
X100722812Y-45866376D01*
X100573512Y-45896073D01*
X100548742Y-45901000D01*
X100371258Y-45901000D01*
X100346488Y-45896073D01*
X100197188Y-45866376D01*
X100033216Y-45798456D01*
X99885646Y-45699853D01*
X99760147Y-45574354D01*
X99661544Y-45426784D01*
X99593624Y-45262812D01*
X99559549Y-45091501D01*
X99559000Y-45088742D01*
X99559000Y-44911258D01*
X99563927Y-44886488D01*
X99593624Y-44737188D01*
X99661544Y-44573216D01*
X99760147Y-44425646D01*
X99885646Y-44300147D01*
X100033216Y-44201544D01*
X100197188Y-44133624D01*
X100346488Y-44103927D01*
X100371258Y-44099000D01*
X100548742Y-44099000D01*
X100573512Y-44103927D01*
G37*
G36*
X110733512Y-44103927D02*
G01*
X110882812Y-44133624D01*
X111046784Y-44201544D01*
X111194354Y-44300147D01*
X111319853Y-44425646D01*
X111418456Y-44573216D01*
X111486376Y-44737188D01*
X111516073Y-44886488D01*
X111521000Y-44911258D01*
X111521000Y-45088742D01*
X111520451Y-45091501D01*
X111486376Y-45262812D01*
X111418456Y-45426784D01*
X111319853Y-45574354D01*
X111194354Y-45699853D01*
X111046784Y-45798456D01*
X110882812Y-45866376D01*
X110733512Y-45896073D01*
X110708742Y-45901000D01*
X110531258Y-45901000D01*
X110506488Y-45896073D01*
X110357188Y-45866376D01*
X110193216Y-45798456D01*
X110045646Y-45699853D01*
X109920147Y-45574354D01*
X109821544Y-45426784D01*
X109753624Y-45262812D01*
X109719549Y-45091501D01*
X109719000Y-45088742D01*
X109719000Y-44911258D01*
X109723927Y-44886488D01*
X109753624Y-44737188D01*
X109821544Y-44573216D01*
X109920147Y-44425646D01*
X110045646Y-44300147D01*
X110193216Y-44201544D01*
X110357188Y-44133624D01*
X110506488Y-44103927D01*
X110531258Y-44099000D01*
X110708742Y-44099000D01*
X110733512Y-44103927D01*
G37*
G36*
X113273512Y-44103927D02*
G01*
X113422812Y-44133624D01*
X113586784Y-44201544D01*
X113734354Y-44300147D01*
X113859853Y-44425646D01*
X113958456Y-44573216D01*
X114026376Y-44737188D01*
X114056073Y-44886488D01*
X114061000Y-44911258D01*
X114061000Y-45088742D01*
X114060451Y-45091501D01*
X114026376Y-45262812D01*
X113958456Y-45426784D01*
X113859853Y-45574354D01*
X113734354Y-45699853D01*
X113586784Y-45798456D01*
X113422812Y-45866376D01*
X113273512Y-45896073D01*
X113248742Y-45901000D01*
X113071258Y-45901000D01*
X113046488Y-45896073D01*
X112897188Y-45866376D01*
X112733216Y-45798456D01*
X112585646Y-45699853D01*
X112460147Y-45574354D01*
X112361544Y-45426784D01*
X112293624Y-45262812D01*
X112259549Y-45091501D01*
X112259000Y-45088742D01*
X112259000Y-44911258D01*
X112263927Y-44886488D01*
X112293624Y-44737188D01*
X112361544Y-44573216D01*
X112460147Y-44425646D01*
X112585646Y-44300147D01*
X112733216Y-44201544D01*
X112897188Y-44133624D01*
X113046488Y-44103927D01*
X113071258Y-44099000D01*
X113248742Y-44099000D01*
X113273512Y-44103927D01*
G37*
G36*
X115813512Y-44103927D02*
G01*
X115962812Y-44133624D01*
X116126784Y-44201544D01*
X116274354Y-44300147D01*
X116399853Y-44425646D01*
X116498456Y-44573216D01*
X116566376Y-44737188D01*
X116596073Y-44886488D01*
X116601000Y-44911258D01*
X116601000Y-45088742D01*
X116600451Y-45091501D01*
X116566376Y-45262812D01*
X116498456Y-45426784D01*
X116399853Y-45574354D01*
X116274354Y-45699853D01*
X116126784Y-45798456D01*
X115962812Y-45866376D01*
X115813512Y-45896073D01*
X115788742Y-45901000D01*
X115611258Y-45901000D01*
X115586488Y-45896073D01*
X115437188Y-45866376D01*
X115273216Y-45798456D01*
X115125646Y-45699853D01*
X115000147Y-45574354D01*
X114901544Y-45426784D01*
X114833624Y-45262812D01*
X114799549Y-45091501D01*
X114799000Y-45088742D01*
X114799000Y-44911258D01*
X114803927Y-44886488D01*
X114833624Y-44737188D01*
X114901544Y-44573216D01*
X115000147Y-44425646D01*
X115125646Y-44300147D01*
X115273216Y-44201544D01*
X115437188Y-44133624D01*
X115586488Y-44103927D01*
X115611258Y-44099000D01*
X115788742Y-44099000D01*
X115813512Y-44103927D01*
G37*
G36*
X105653512Y-44103927D02*
G01*
X105802812Y-44133624D01*
X105966784Y-44201544D01*
X106114354Y-44300147D01*
X106239853Y-44425646D01*
X106338456Y-44573216D01*
X106406376Y-44737188D01*
X106436073Y-44886488D01*
X106441000Y-44911258D01*
X106441000Y-45088742D01*
X106440451Y-45091501D01*
X106406376Y-45262812D01*
X106338456Y-45426784D01*
X106239853Y-45574354D01*
X106114354Y-45699853D01*
X105966784Y-45798456D01*
X105802812Y-45866376D01*
X105653512Y-45896073D01*
X105628742Y-45901000D01*
X105451258Y-45901000D01*
X105426488Y-45896073D01*
X105277188Y-45866376D01*
X105113216Y-45798456D01*
X104965646Y-45699853D01*
X104840147Y-45574354D01*
X104741544Y-45426784D01*
X104673624Y-45262812D01*
X104639549Y-45091501D01*
X104639000Y-45088742D01*
X104639000Y-44911258D01*
X104643927Y-44886488D01*
X104673624Y-44737188D01*
X104741544Y-44573216D01*
X104840147Y-44425646D01*
X104965646Y-44300147D01*
X105113216Y-44201544D01*
X105277188Y-44133624D01*
X105426488Y-44103927D01*
X105451258Y-44099000D01*
X105628742Y-44099000D01*
X105653512Y-44103927D01*
G37*
G36*
X56617142Y-43678242D02*
G01*
X56765101Y-43739529D01*
X56898255Y-43828499D01*
X57011501Y-43941745D01*
X57100471Y-44074899D01*
X57161758Y-44222858D01*
X57193000Y-44379925D01*
X57193000Y-44540075D01*
X57161758Y-44697142D01*
X57100471Y-44845101D01*
X57011501Y-44978255D01*
X56898255Y-45091501D01*
X56765101Y-45180471D01*
X56617142Y-45241758D01*
X56460075Y-45273000D01*
X56299925Y-45273000D01*
X56142858Y-45241758D01*
X55994899Y-45180471D01*
X55861745Y-45091501D01*
X55748499Y-44978255D01*
X55659529Y-44845101D01*
X55598242Y-44697142D01*
X55567000Y-44540075D01*
X55567000Y-44379925D01*
X55598242Y-44222858D01*
X55659529Y-44074899D01*
X55748499Y-43941745D01*
X55861745Y-43828499D01*
X55994899Y-43739529D01*
X56142858Y-43678242D01*
X56299925Y-43647000D01*
X56460075Y-43647000D01*
X56617142Y-43678242D01*
G37*
G36*
X71857142Y-43678242D02*
G01*
X72005101Y-43739529D01*
X72138255Y-43828499D01*
X72251501Y-43941745D01*
X72340471Y-44074899D01*
X72401758Y-44222858D01*
X72433000Y-44379925D01*
X72433000Y-44540075D01*
X72401758Y-44697142D01*
X72340471Y-44845101D01*
X72251501Y-44978255D01*
X72138255Y-45091501D01*
X72005101Y-45180471D01*
X71857142Y-45241758D01*
X71700075Y-45273000D01*
X71539925Y-45273000D01*
X71382858Y-45241758D01*
X71234899Y-45180471D01*
X71101745Y-45091501D01*
X70988499Y-44978255D01*
X70899529Y-44845101D01*
X70838242Y-44697142D01*
X70807000Y-44540075D01*
X70807000Y-44379925D01*
X70838242Y-44222858D01*
X70899529Y-44074899D01*
X70988499Y-43941745D01*
X71101745Y-43828499D01*
X71234899Y-43739529D01*
X71382858Y-43678242D01*
X71539925Y-43647000D01*
X71700075Y-43647000D01*
X71857142Y-43678242D01*
G37*
G36*
X71857142Y-41138242D02*
G01*
X72005101Y-41199529D01*
X72138255Y-41288499D01*
X72251501Y-41401745D01*
X72340471Y-41534899D01*
X72401758Y-41682858D01*
X72433000Y-41839925D01*
X72433000Y-42000075D01*
X72401758Y-42157142D01*
X72340471Y-42305101D01*
X72251501Y-42438255D01*
X72138255Y-42551501D01*
X72005101Y-42640471D01*
X71857142Y-42701758D01*
X71700075Y-42733000D01*
X71539925Y-42733000D01*
X71382858Y-42701758D01*
X71234899Y-42640471D01*
X71101745Y-42551501D01*
X70988499Y-42438255D01*
X70899529Y-42305101D01*
X70838242Y-42157142D01*
X70807000Y-42000075D01*
X70807000Y-41839925D01*
X70838242Y-41682858D01*
X70899529Y-41534899D01*
X70988499Y-41401745D01*
X71101745Y-41288499D01*
X71234899Y-41199529D01*
X71382858Y-41138242D01*
X71539925Y-41107000D01*
X71700075Y-41107000D01*
X71857142Y-41138242D01*
G37*
G36*
X56617142Y-41138242D02*
G01*
X56765101Y-41199529D01*
X56898255Y-41288499D01*
X57011501Y-41401745D01*
X57100471Y-41534899D01*
X57161758Y-41682858D01*
X57193000Y-41839925D01*
X57193000Y-42000075D01*
X57161758Y-42157142D01*
X57100471Y-42305101D01*
X57011501Y-42438255D01*
X56898255Y-42551501D01*
X56765101Y-42640471D01*
X56617142Y-42701758D01*
X56460075Y-42733000D01*
X56299925Y-42733000D01*
X56142858Y-42701758D01*
X55994899Y-42640471D01*
X55861745Y-42551501D01*
X55748499Y-42438255D01*
X55659529Y-42305101D01*
X55598242Y-42157142D01*
X55567000Y-42000075D01*
X55567000Y-41839925D01*
X55598242Y-41682858D01*
X55659529Y-41534899D01*
X55748499Y-41401745D01*
X55861745Y-41288499D01*
X55994899Y-41199529D01*
X56142858Y-41138242D01*
X56299925Y-41107000D01*
X56460075Y-41107000D01*
X56617142Y-41138242D01*
G37*
G36*
X56617142Y-38598242D02*
G01*
X56765101Y-38659529D01*
X56898255Y-38748499D01*
X57011501Y-38861745D01*
X57100471Y-38994899D01*
X57161758Y-39142858D01*
X57193000Y-39299925D01*
X57193000Y-39460075D01*
X57161758Y-39617142D01*
X57100471Y-39765101D01*
X57011501Y-39898255D01*
X56898255Y-40011501D01*
X56765101Y-40100471D01*
X56617142Y-40161758D01*
X56460075Y-40193000D01*
X56299925Y-40193000D01*
X56142858Y-40161758D01*
X55994899Y-40100471D01*
X55861745Y-40011501D01*
X55748499Y-39898255D01*
X55659529Y-39765101D01*
X55598242Y-39617142D01*
X55567000Y-39460075D01*
X55567000Y-39299925D01*
X55598242Y-39142858D01*
X55659529Y-38994899D01*
X55748499Y-38861745D01*
X55861745Y-38748499D01*
X55994899Y-38659529D01*
X56142858Y-38598242D01*
X56299925Y-38567000D01*
X56460075Y-38567000D01*
X56617142Y-38598242D01*
G37*
G36*
X71857142Y-38598242D02*
G01*
X72005101Y-38659529D01*
X72138255Y-38748499D01*
X72251501Y-38861745D01*
X72340471Y-38994899D01*
X72401758Y-39142858D01*
X72433000Y-39299925D01*
X72433000Y-39460075D01*
X72401758Y-39617142D01*
X72340471Y-39765101D01*
X72251501Y-39898255D01*
X72138255Y-40011501D01*
X72005101Y-40100471D01*
X71857142Y-40161758D01*
X71700075Y-40193000D01*
X71539925Y-40193000D01*
X71382858Y-40161758D01*
X71234899Y-40100471D01*
X71101745Y-40011501D01*
X70988499Y-39898255D01*
X70899529Y-39765101D01*
X70838242Y-39617142D01*
X70807000Y-39460075D01*
X70807000Y-39299925D01*
X70838242Y-39142858D01*
X70899529Y-38994899D01*
X70988499Y-38861745D01*
X71101745Y-38748499D01*
X71234899Y-38659529D01*
X71382858Y-38598242D01*
X71539925Y-38567000D01*
X71700075Y-38567000D01*
X71857142Y-38598242D01*
G37*
G36*
X28306564Y-35989389D02*
G01*
X28497833Y-36068615D01*
X28497835Y-36068616D01*
X28669973Y-36183635D01*
X28816365Y-36330027D01*
X28899803Y-36454900D01*
X28931385Y-36502167D01*
X29010611Y-36693436D01*
X29051000Y-36896484D01*
X29051000Y-37103516D01*
X29010611Y-37306564D01*
X28989199Y-37358257D01*
X28931384Y-37497835D01*
X28816365Y-37669973D01*
X28669973Y-37816365D01*
X28497835Y-37931384D01*
X28497834Y-37931385D01*
X28497833Y-37931385D01*
X28306564Y-38010611D01*
X28103516Y-38051000D01*
X27896484Y-38051000D01*
X27693436Y-38010611D01*
X27502167Y-37931385D01*
X27502166Y-37931385D01*
X27502165Y-37931384D01*
X27330027Y-37816365D01*
X27183635Y-37669973D01*
X27068616Y-37497835D01*
X27010801Y-37358257D01*
X26989389Y-37306564D01*
X26949000Y-37103516D01*
X26949000Y-36896484D01*
X26989389Y-36693436D01*
X27068615Y-36502167D01*
X27100198Y-36454900D01*
X27183635Y-36330027D01*
X27330027Y-36183635D01*
X27502165Y-36068616D01*
X27502167Y-36068615D01*
X27693436Y-35989389D01*
X27896484Y-35949000D01*
X28103516Y-35949000D01*
X28306564Y-35989389D01*
G37*
G36*
X56617142Y-36058242D02*
G01*
X56765101Y-36119529D01*
X56898255Y-36208499D01*
X57011501Y-36321745D01*
X57100471Y-36454899D01*
X57161758Y-36602858D01*
X57193000Y-36759925D01*
X57193000Y-36920075D01*
X57161758Y-37077142D01*
X57100471Y-37225101D01*
X57011501Y-37358255D01*
X56898255Y-37471501D01*
X56765101Y-37560471D01*
X56617142Y-37621758D01*
X56460075Y-37653000D01*
X56299925Y-37653000D01*
X56142858Y-37621758D01*
X55994899Y-37560471D01*
X55861745Y-37471501D01*
X55748499Y-37358255D01*
X55659529Y-37225101D01*
X55598242Y-37077142D01*
X55567000Y-36920075D01*
X55567000Y-36759925D01*
X55598242Y-36602858D01*
X55659529Y-36454899D01*
X55748499Y-36321745D01*
X55861745Y-36208499D01*
X55994899Y-36119529D01*
X56142858Y-36058242D01*
X56299925Y-36027000D01*
X56460075Y-36027000D01*
X56617142Y-36058242D01*
G37*
G36*
X71857142Y-36058242D02*
G01*
X72005101Y-36119529D01*
X72138255Y-36208499D01*
X72251501Y-36321745D01*
X72340471Y-36454899D01*
X72401758Y-36602858D01*
X72433000Y-36759925D01*
X72433000Y-36920075D01*
X72401758Y-37077142D01*
X72340471Y-37225101D01*
X72251501Y-37358255D01*
X72138255Y-37471501D01*
X72005101Y-37560471D01*
X71857142Y-37621758D01*
X71700075Y-37653000D01*
X71539925Y-37653000D01*
X71382858Y-37621758D01*
X71234899Y-37560471D01*
X71101745Y-37471501D01*
X70988499Y-37358255D01*
X70899529Y-37225101D01*
X70838242Y-37077142D01*
X70807000Y-36920075D01*
X70807000Y-36759925D01*
X70838242Y-36602858D01*
X70899529Y-36454899D01*
X70988499Y-36321745D01*
X71101745Y-36208499D01*
X71234899Y-36119529D01*
X71382858Y-36058242D01*
X71539925Y-36027000D01*
X71700075Y-36027000D01*
X71857142Y-36058242D01*
G37*
G36*
X56617142Y-33518242D02*
G01*
X56765101Y-33579529D01*
X56898255Y-33668499D01*
X57011501Y-33781745D01*
X57100471Y-33914899D01*
X57161758Y-34062858D01*
X57193000Y-34219925D01*
X57193000Y-34380075D01*
X57161758Y-34537142D01*
X57100471Y-34685101D01*
X57011501Y-34818255D01*
X56898255Y-34931501D01*
X56765101Y-35020471D01*
X56617142Y-35081758D01*
X56460075Y-35113000D01*
X56299925Y-35113000D01*
X56142858Y-35081758D01*
X55994899Y-35020471D01*
X55861745Y-34931501D01*
X55748499Y-34818255D01*
X55659529Y-34685101D01*
X55598242Y-34537142D01*
X55567000Y-34380075D01*
X55567000Y-34219925D01*
X55598242Y-34062858D01*
X55659529Y-33914899D01*
X55748499Y-33781745D01*
X55861745Y-33668499D01*
X55994899Y-33579529D01*
X56142858Y-33518242D01*
X56299925Y-33487000D01*
X56460075Y-33487000D01*
X56617142Y-33518242D01*
G37*
G36*
X71857142Y-33518242D02*
G01*
X72005101Y-33579529D01*
X72138255Y-33668499D01*
X72251501Y-33781745D01*
X72340471Y-33914899D01*
X72401758Y-34062858D01*
X72433000Y-34219925D01*
X72433000Y-34380075D01*
X72401758Y-34537142D01*
X72340471Y-34685101D01*
X72251501Y-34818255D01*
X72138255Y-34931501D01*
X72005101Y-35020471D01*
X71857142Y-35081758D01*
X71700075Y-35113000D01*
X71539925Y-35113000D01*
X71382858Y-35081758D01*
X71234899Y-35020471D01*
X71101745Y-34931501D01*
X70988499Y-34818255D01*
X70899529Y-34685101D01*
X70838242Y-34537142D01*
X70807000Y-34380075D01*
X70807000Y-34219925D01*
X70838242Y-34062858D01*
X70899529Y-33914899D01*
X70988499Y-33781745D01*
X71101745Y-33668499D01*
X71234899Y-33579529D01*
X71382858Y-33518242D01*
X71539925Y-33487000D01*
X71700075Y-33487000D01*
X71857142Y-33518242D01*
G37*
G36*
X108193512Y-32103927D02*
G01*
X108342812Y-32133624D01*
X108506784Y-32201544D01*
X108654354Y-32300147D01*
X108779853Y-32425646D01*
X108878456Y-32573216D01*
X108946376Y-32737188D01*
X108981000Y-32911259D01*
X108981000Y-33088741D01*
X108946376Y-33262812D01*
X108878456Y-33426784D01*
X108779853Y-33574354D01*
X108654354Y-33699853D01*
X108506784Y-33798456D01*
X108342812Y-33866376D01*
X108193512Y-33896073D01*
X108168742Y-33901000D01*
X107991258Y-33901000D01*
X107966488Y-33896073D01*
X107817188Y-33866376D01*
X107653216Y-33798456D01*
X107505646Y-33699853D01*
X107380147Y-33574354D01*
X107281544Y-33426784D01*
X107213624Y-33262812D01*
X107179000Y-33088741D01*
X107179000Y-32911259D01*
X107213624Y-32737188D01*
X107281544Y-32573216D01*
X107380147Y-32425646D01*
X107505646Y-32300147D01*
X107653216Y-32201544D01*
X107817188Y-32133624D01*
X107966488Y-32103927D01*
X107991258Y-32099000D01*
X108168742Y-32099000D01*
X108193512Y-32103927D01*
G37*
G36*
X110733512Y-32103927D02*
G01*
X110882812Y-32133624D01*
X111046784Y-32201544D01*
X111194354Y-32300147D01*
X111319853Y-32425646D01*
X111418456Y-32573216D01*
X111486376Y-32737188D01*
X111521000Y-32911259D01*
X111521000Y-33088741D01*
X111486376Y-33262812D01*
X111418456Y-33426784D01*
X111319853Y-33574354D01*
X111194354Y-33699853D01*
X111046784Y-33798456D01*
X110882812Y-33866376D01*
X110733512Y-33896073D01*
X110708742Y-33901000D01*
X110531258Y-33901000D01*
X110506488Y-33896073D01*
X110357188Y-33866376D01*
X110193216Y-33798456D01*
X110045646Y-33699853D01*
X109920147Y-33574354D01*
X109821544Y-33426784D01*
X109753624Y-33262812D01*
X109719000Y-33088741D01*
X109719000Y-32911259D01*
X109753624Y-32737188D01*
X109821544Y-32573216D01*
X109920147Y-32425646D01*
X110045646Y-32300147D01*
X110193216Y-32201544D01*
X110357188Y-32133624D01*
X110506488Y-32103927D01*
X110531258Y-32099000D01*
X110708742Y-32099000D01*
X110733512Y-32103927D01*
G37*
G36*
X100573512Y-32103927D02*
G01*
X100722812Y-32133624D01*
X100886784Y-32201544D01*
X101034354Y-32300147D01*
X101159853Y-32425646D01*
X101258456Y-32573216D01*
X101326376Y-32737188D01*
X101361000Y-32911259D01*
X101361000Y-33088741D01*
X101326376Y-33262812D01*
X101258456Y-33426784D01*
X101159853Y-33574354D01*
X101034354Y-33699853D01*
X100886784Y-33798456D01*
X100722812Y-33866376D01*
X100573512Y-33896073D01*
X100548742Y-33901000D01*
X100371258Y-33901000D01*
X100346488Y-33896073D01*
X100197188Y-33866376D01*
X100033216Y-33798456D01*
X99885646Y-33699853D01*
X99760147Y-33574354D01*
X99661544Y-33426784D01*
X99593624Y-33262812D01*
X99559000Y-33088741D01*
X99559000Y-32911259D01*
X99593624Y-32737188D01*
X99661544Y-32573216D01*
X99760147Y-32425646D01*
X99885646Y-32300147D01*
X100033216Y-32201544D01*
X100197188Y-32133624D01*
X100346488Y-32103927D01*
X100371258Y-32099000D01*
X100548742Y-32099000D01*
X100573512Y-32103927D01*
G37*
G36*
X98821000Y-33901000D02*
G01*
X97019000Y-33901000D01*
X97019000Y-32099000D01*
X98821000Y-32099000D01*
X98821000Y-33901000D01*
G37*
G36*
X103113512Y-32103927D02*
G01*
X103262812Y-32133624D01*
X103426784Y-32201544D01*
X103574354Y-32300147D01*
X103699853Y-32425646D01*
X103798456Y-32573216D01*
X103866376Y-32737188D01*
X103901000Y-32911259D01*
X103901000Y-33088741D01*
X103866376Y-33262812D01*
X103798456Y-33426784D01*
X103699853Y-33574354D01*
X103574354Y-33699853D01*
X103426784Y-33798456D01*
X103262812Y-33866376D01*
X103113512Y-33896073D01*
X103088742Y-33901000D01*
X102911258Y-33901000D01*
X102886488Y-33896073D01*
X102737188Y-33866376D01*
X102573216Y-33798456D01*
X102425646Y-33699853D01*
X102300147Y-33574354D01*
X102201544Y-33426784D01*
X102133624Y-33262812D01*
X102099000Y-33088741D01*
X102099000Y-32911259D01*
X102133624Y-32737188D01*
X102201544Y-32573216D01*
X102300147Y-32425646D01*
X102425646Y-32300147D01*
X102573216Y-32201544D01*
X102737188Y-32133624D01*
X102886488Y-32103927D01*
X102911258Y-32099000D01*
X103088742Y-32099000D01*
X103113512Y-32103927D01*
G37*
G36*
X105653512Y-32103927D02*
G01*
X105802812Y-32133624D01*
X105966784Y-32201544D01*
X106114354Y-32300147D01*
X106239853Y-32425646D01*
X106338456Y-32573216D01*
X106406376Y-32737188D01*
X106441000Y-32911259D01*
X106441000Y-33088741D01*
X106406376Y-33262812D01*
X106338456Y-33426784D01*
X106239853Y-33574354D01*
X106114354Y-33699853D01*
X105966784Y-33798456D01*
X105802812Y-33866376D01*
X105653512Y-33896073D01*
X105628742Y-33901000D01*
X105451258Y-33901000D01*
X105426488Y-33896073D01*
X105277188Y-33866376D01*
X105113216Y-33798456D01*
X104965646Y-33699853D01*
X104840147Y-33574354D01*
X104741544Y-33426784D01*
X104673624Y-33262812D01*
X104639000Y-33088741D01*
X104639000Y-32911259D01*
X104673624Y-32737188D01*
X104741544Y-32573216D01*
X104840147Y-32425646D01*
X104965646Y-32300147D01*
X105113216Y-32201544D01*
X105277188Y-32133624D01*
X105426488Y-32103927D01*
X105451258Y-32099000D01*
X105628742Y-32099000D01*
X105653512Y-32103927D01*
G37*
G36*
X113273512Y-32103927D02*
G01*
X113422812Y-32133624D01*
X113586784Y-32201544D01*
X113734354Y-32300147D01*
X113859853Y-32425646D01*
X113958456Y-32573216D01*
X114026376Y-32737188D01*
X114061000Y-32911259D01*
X114061000Y-33088741D01*
X114026376Y-33262812D01*
X113958456Y-33426784D01*
X113859853Y-33574354D01*
X113734354Y-33699853D01*
X113586784Y-33798456D01*
X113422812Y-33866376D01*
X113273512Y-33896073D01*
X113248742Y-33901000D01*
X113071258Y-33901000D01*
X113046488Y-33896073D01*
X112897188Y-33866376D01*
X112733216Y-33798456D01*
X112585646Y-33699853D01*
X112460147Y-33574354D01*
X112361544Y-33426784D01*
X112293624Y-33262812D01*
X112259000Y-33088741D01*
X112259000Y-32911259D01*
X112293624Y-32737188D01*
X112361544Y-32573216D01*
X112460147Y-32425646D01*
X112585646Y-32300147D01*
X112733216Y-32201544D01*
X112897188Y-32133624D01*
X113046488Y-32103927D01*
X113071258Y-32099000D01*
X113248742Y-32099000D01*
X113273512Y-32103927D01*
G37*
G36*
X115813512Y-32103927D02*
G01*
X115962812Y-32133624D01*
X116126784Y-32201544D01*
X116274354Y-32300147D01*
X116399853Y-32425646D01*
X116498456Y-32573216D01*
X116566376Y-32737188D01*
X116601000Y-32911259D01*
X116601000Y-33088741D01*
X116566376Y-33262812D01*
X116498456Y-33426784D01*
X116399853Y-33574354D01*
X116274354Y-33699853D01*
X116126784Y-33798456D01*
X115962812Y-33866376D01*
X115813512Y-33896073D01*
X115788742Y-33901000D01*
X115611258Y-33901000D01*
X115586488Y-33896073D01*
X115437188Y-33866376D01*
X115273216Y-33798456D01*
X115125646Y-33699853D01*
X115000147Y-33574354D01*
X114901544Y-33426784D01*
X114833624Y-33262812D01*
X114799000Y-33088741D01*
X114799000Y-32911259D01*
X114833624Y-32737188D01*
X114901544Y-32573216D01*
X115000147Y-32425646D01*
X115125646Y-32300147D01*
X115273216Y-32201544D01*
X115437188Y-32133624D01*
X115586488Y-32103927D01*
X115611258Y-32099000D01*
X115788742Y-32099000D01*
X115813512Y-32103927D01*
G37*
G36*
X29051000Y-33051000D02*
G01*
X26949000Y-33051000D01*
X26949000Y-30949000D01*
X29051000Y-30949000D01*
X29051000Y-33051000D01*
G37*
G36*
X61697142Y-30978242D02*
G01*
X61845101Y-31039529D01*
X61978255Y-31128499D01*
X62091501Y-31241745D01*
X62180471Y-31374899D01*
X62241758Y-31522858D01*
X62273000Y-31679925D01*
X62273000Y-31840075D01*
X62241758Y-31997142D01*
X62180471Y-32145101D01*
X62091501Y-32278255D01*
X61978255Y-32391501D01*
X61845101Y-32480471D01*
X61697142Y-32541758D01*
X61540075Y-32573000D01*
X61379925Y-32573000D01*
X61222858Y-32541758D01*
X61074899Y-32480471D01*
X60941745Y-32391501D01*
X60828499Y-32278255D01*
X60739529Y-32145101D01*
X60678242Y-31997142D01*
X60647000Y-31840075D01*
X60647000Y-31679925D01*
X60678242Y-31522858D01*
X60739529Y-31374899D01*
X60828499Y-31241745D01*
X60941745Y-31128499D01*
X61074899Y-31039529D01*
X61222858Y-30978242D01*
X61379925Y-30947000D01*
X61540075Y-30947000D01*
X61697142Y-30978242D01*
G37*
G36*
X64237142Y-30978242D02*
G01*
X64385101Y-31039529D01*
X64518255Y-31128499D01*
X64631501Y-31241745D01*
X64720471Y-31374899D01*
X64781758Y-31522858D01*
X64813000Y-31679925D01*
X64813000Y-31840075D01*
X64781758Y-31997142D01*
X64720471Y-32145101D01*
X64631501Y-32278255D01*
X64518255Y-32391501D01*
X64385101Y-32480471D01*
X64237142Y-32541758D01*
X64080075Y-32573000D01*
X63919925Y-32573000D01*
X63762858Y-32541758D01*
X63614899Y-32480471D01*
X63481745Y-32391501D01*
X63368499Y-32278255D01*
X63279529Y-32145101D01*
X63218242Y-31997142D01*
X63187000Y-31840075D01*
X63187000Y-31679925D01*
X63218242Y-31522858D01*
X63279529Y-31374899D01*
X63368499Y-31241745D01*
X63481745Y-31128499D01*
X63614899Y-31039529D01*
X63762858Y-30978242D01*
X63919925Y-30947000D01*
X64080075Y-30947000D01*
X64237142Y-30978242D01*
G37*
G36*
X66777142Y-30978242D02*
G01*
X66925101Y-31039529D01*
X67058255Y-31128499D01*
X67171501Y-31241745D01*
X67260471Y-31374899D01*
X67321758Y-31522858D01*
X67353000Y-31679925D01*
X67353000Y-31840075D01*
X67321758Y-31997142D01*
X67260471Y-32145101D01*
X67171501Y-32278255D01*
X67058255Y-32391501D01*
X66925101Y-32480471D01*
X66777142Y-32541758D01*
X66620075Y-32573000D01*
X66459925Y-32573000D01*
X66302858Y-32541758D01*
X66154899Y-32480471D01*
X66021745Y-32391501D01*
X65908499Y-32278255D01*
X65819529Y-32145101D01*
X65758242Y-31997142D01*
X65727000Y-31840075D01*
X65727000Y-31679925D01*
X65758242Y-31522858D01*
X65819529Y-31374899D01*
X65908499Y-31241745D01*
X66021745Y-31128499D01*
X66154899Y-31039529D01*
X66302858Y-30978242D01*
X66459925Y-30947000D01*
X66620075Y-30947000D01*
X66777142Y-30978242D01*
G37*
G36*
X69317142Y-30978242D02*
G01*
X69465101Y-31039529D01*
X69598255Y-31128499D01*
X69711501Y-31241745D01*
X69800471Y-31374899D01*
X69861758Y-31522858D01*
X69893000Y-31679925D01*
X69893000Y-31840075D01*
X69861758Y-31997142D01*
X69800471Y-32145101D01*
X69711501Y-32278255D01*
X69598255Y-32391501D01*
X69465101Y-32480471D01*
X69317142Y-32541758D01*
X69160075Y-32573000D01*
X68999925Y-32573000D01*
X68842858Y-32541758D01*
X68694899Y-32480471D01*
X68561745Y-32391501D01*
X68448499Y-32278255D01*
X68359529Y-32145101D01*
X68298242Y-31997142D01*
X68267000Y-31840075D01*
X68267000Y-31679925D01*
X68298242Y-31522858D01*
X68359529Y-31374899D01*
X68448499Y-31241745D01*
X68561745Y-31128499D01*
X68694899Y-31039529D01*
X68842858Y-30978242D01*
X68999925Y-30947000D01*
X69160075Y-30947000D01*
X69317142Y-30978242D01*
G37*
G36*
X56617142Y-30978242D02*
G01*
X56765101Y-31039529D01*
X56898255Y-31128499D01*
X57011501Y-31241745D01*
X57100471Y-31374899D01*
X57161758Y-31522858D01*
X57193000Y-31679925D01*
X57193000Y-31840075D01*
X57161758Y-31997142D01*
X57100471Y-32145101D01*
X57011501Y-32278255D01*
X56898255Y-32391501D01*
X56765101Y-32480471D01*
X56617142Y-32541758D01*
X56460075Y-32573000D01*
X56299925Y-32573000D01*
X56142858Y-32541758D01*
X55994899Y-32480471D01*
X55861745Y-32391501D01*
X55748499Y-32278255D01*
X55659529Y-32145101D01*
X55598242Y-31997142D01*
X55567000Y-31840075D01*
X55567000Y-31679925D01*
X55598242Y-31522858D01*
X55659529Y-31374899D01*
X55748499Y-31241745D01*
X55861745Y-31128499D01*
X55994899Y-31039529D01*
X56142858Y-30978242D01*
X56299925Y-30947000D01*
X56460075Y-30947000D01*
X56617142Y-30978242D01*
G37*
G36*
X59157142Y-30978242D02*
G01*
X59305101Y-31039529D01*
X59438255Y-31128499D01*
X59551501Y-31241745D01*
X59640471Y-31374899D01*
X59701758Y-31522858D01*
X59733000Y-31679925D01*
X59733000Y-31840075D01*
X59701758Y-31997142D01*
X59640471Y-32145101D01*
X59551501Y-32278255D01*
X59438255Y-32391501D01*
X59305101Y-32480471D01*
X59157142Y-32541758D01*
X59000075Y-32573000D01*
X58839925Y-32573000D01*
X58682858Y-32541758D01*
X58534899Y-32480471D01*
X58401745Y-32391501D01*
X58288499Y-32278255D01*
X58199529Y-32145101D01*
X58138242Y-31997142D01*
X58107000Y-31840075D01*
X58107000Y-31679925D01*
X58138242Y-31522858D01*
X58199529Y-31374899D01*
X58288499Y-31241745D01*
X58401745Y-31128499D01*
X58534899Y-31039529D01*
X58682858Y-30978242D01*
X58839925Y-30947000D01*
X59000075Y-30947000D01*
X59157142Y-30978242D01*
G37*
G36*
X71857142Y-30978242D02*
G01*
X72005101Y-31039529D01*
X72138255Y-31128499D01*
X72251501Y-31241745D01*
X72340471Y-31374899D01*
X72401758Y-31522858D01*
X72433000Y-31679925D01*
X72433000Y-31840075D01*
X72401758Y-31997142D01*
X72340471Y-32145101D01*
X72251501Y-32278255D01*
X72138255Y-32391501D01*
X72005101Y-32480471D01*
X71857142Y-32541758D01*
X71700075Y-32573000D01*
X71539925Y-32573000D01*
X71382858Y-32541758D01*
X71234899Y-32480471D01*
X71101745Y-32391501D01*
X70988499Y-32278255D01*
X70899529Y-32145101D01*
X70838242Y-31997142D01*
X70807000Y-31840075D01*
X70807000Y-31679925D01*
X70838242Y-31522858D01*
X70899529Y-31374899D01*
X70988499Y-31241745D01*
X71101745Y-31128499D01*
X71234899Y-31039529D01*
X71382858Y-30978242D01*
X71539925Y-30947000D01*
X71700075Y-30947000D01*
X71857142Y-30978242D01*
G37*
G36*
X24375256Y-22391298D02*
G01*
X24481579Y-22412447D01*
X24782042Y-22536903D01*
X25052451Y-22717585D01*
X25282415Y-22947549D01*
X25463097Y-23217958D01*
X25549125Y-23425647D01*
X25587553Y-23518422D01*
X25651000Y-23837389D01*
X25651000Y-24162611D01*
X25608702Y-24375256D01*
X25587553Y-24481579D01*
X25463097Y-24782042D01*
X25282415Y-25052451D01*
X25052451Y-25282415D01*
X24782042Y-25463097D01*
X24481579Y-25587553D01*
X24375256Y-25608702D01*
X24162611Y-25651000D01*
X23837389Y-25651000D01*
X23624744Y-25608702D01*
X23518421Y-25587553D01*
X23217958Y-25463097D01*
X22947549Y-25282415D01*
X22717585Y-25052451D01*
X22536903Y-24782042D01*
X22412447Y-24481579D01*
X22391298Y-24375256D01*
X22349000Y-24162611D01*
X22349000Y-23837389D01*
X22412447Y-23518422D01*
X22450876Y-23425647D01*
X22536903Y-23217958D01*
X22717585Y-22947549D01*
X22947549Y-22717585D01*
X23217958Y-22536903D01*
X23518421Y-22412447D01*
X23624744Y-22391298D01*
X23837389Y-22349000D01*
X24162611Y-22349000D01*
X24375256Y-22391298D01*
G37*
G36*
X116375256Y-22391298D02*
G01*
X116481579Y-22412447D01*
X116782042Y-22536903D01*
X117052451Y-22717585D01*
X117282415Y-22947549D01*
X117463097Y-23217958D01*
X117549125Y-23425647D01*
X117587553Y-23518422D01*
X117651000Y-23837389D01*
X117651000Y-24162611D01*
X117608702Y-24375256D01*
X117587553Y-24481579D01*
X117463097Y-24782042D01*
X117282415Y-25052451D01*
X117052451Y-25282415D01*
X116782042Y-25463097D01*
X116481579Y-25587553D01*
X116375256Y-25608702D01*
X116162611Y-25651000D01*
X115837389Y-25651000D01*
X115624744Y-25608702D01*
X115518421Y-25587553D01*
X115217958Y-25463097D01*
X114947549Y-25282415D01*
X114717585Y-25052451D01*
X114536903Y-24782042D01*
X114412447Y-24481579D01*
X114391298Y-24375256D01*
X114349000Y-24162611D01*
X114349000Y-23837389D01*
X114412447Y-23518422D01*
X114450876Y-23425647D01*
X114536903Y-23217958D01*
X114717585Y-22947549D01*
X114947549Y-22717585D01*
X115217958Y-22536903D01*
X115518421Y-22412447D01*
X115624744Y-22391298D01*
X115837389Y-22349000D01*
X116162611Y-22349000D01*
X116375256Y-22391298D01*
G37*
G36*
X65493512Y-23103927D02*
G01*
X65642812Y-23133624D01*
X65806784Y-23201544D01*
X65954354Y-23300147D01*
X66079853Y-23425646D01*
X66178456Y-23573216D01*
X66246376Y-23737188D01*
X66281000Y-23911259D01*
X66281000Y-24088741D01*
X66246376Y-24262812D01*
X66178456Y-24426784D01*
X66079853Y-24574354D01*
X65954354Y-24699853D01*
X65806784Y-24798456D01*
X65642812Y-24866376D01*
X65493512Y-24896073D01*
X65468742Y-24901000D01*
X65291258Y-24901000D01*
X65266488Y-24896073D01*
X65117188Y-24866376D01*
X64953216Y-24798456D01*
X64805646Y-24699853D01*
X64680147Y-24574354D01*
X64581544Y-24426784D01*
X64513624Y-24262812D01*
X64479000Y-24088741D01*
X64479000Y-23911259D01*
X64513624Y-23737188D01*
X64581544Y-23573216D01*
X64680147Y-23425646D01*
X64805646Y-23300147D01*
X64953216Y-23201544D01*
X65117188Y-23133624D01*
X65266488Y-23103927D01*
X65291258Y-23099000D01*
X65468742Y-23099000D01*
X65493512Y-23103927D01*
G37*
G36*
X68033512Y-23103927D02*
G01*
X68182812Y-23133624D01*
X68346784Y-23201544D01*
X68494354Y-23300147D01*
X68619853Y-23425646D01*
X68718456Y-23573216D01*
X68786376Y-23737188D01*
X68821000Y-23911259D01*
X68821000Y-24088741D01*
X68786376Y-24262812D01*
X68718456Y-24426784D01*
X68619853Y-24574354D01*
X68494354Y-24699853D01*
X68346784Y-24798456D01*
X68182812Y-24866376D01*
X68033512Y-24896073D01*
X68008742Y-24901000D01*
X67831258Y-24901000D01*
X67806488Y-24896073D01*
X67657188Y-24866376D01*
X67493216Y-24798456D01*
X67345646Y-24699853D01*
X67220147Y-24574354D01*
X67121544Y-24426784D01*
X67053624Y-24262812D01*
X67019000Y-24088741D01*
X67019000Y-23911259D01*
X67053624Y-23737188D01*
X67121544Y-23573216D01*
X67220147Y-23425646D01*
X67345646Y-23300147D01*
X67493216Y-23201544D01*
X67657188Y-23133624D01*
X67806488Y-23103927D01*
X67831258Y-23099000D01*
X68008742Y-23099000D01*
X68033512Y-23103927D01*
G37*
G36*
X70573512Y-23103927D02*
G01*
X70722812Y-23133624D01*
X70886784Y-23201544D01*
X71034354Y-23300147D01*
X71159853Y-23425646D01*
X71258456Y-23573216D01*
X71326376Y-23737188D01*
X71361000Y-23911259D01*
X71361000Y-24088741D01*
X71326376Y-24262812D01*
X71258456Y-24426784D01*
X71159853Y-24574354D01*
X71034354Y-24699853D01*
X70886784Y-24798456D01*
X70722812Y-24866376D01*
X70573512Y-24896073D01*
X70548742Y-24901000D01*
X70371258Y-24901000D01*
X70346488Y-24896073D01*
X70197188Y-24866376D01*
X70033216Y-24798456D01*
X69885646Y-24699853D01*
X69760147Y-24574354D01*
X69661544Y-24426784D01*
X69593624Y-24262812D01*
X69559000Y-24088741D01*
X69559000Y-23911259D01*
X69593624Y-23737188D01*
X69661544Y-23573216D01*
X69760147Y-23425646D01*
X69885646Y-23300147D01*
X70033216Y-23201544D01*
X70197188Y-23133624D01*
X70346488Y-23103927D01*
X70371258Y-23099000D01*
X70548742Y-23099000D01*
X70573512Y-23103927D01*
G37*
G36*
X73113512Y-23103927D02*
G01*
X73262812Y-23133624D01*
X73426784Y-23201544D01*
X73574354Y-23300147D01*
X73699853Y-23425646D01*
X73798456Y-23573216D01*
X73866376Y-23737188D01*
X73901000Y-23911259D01*
X73901000Y-24088741D01*
X73866376Y-24262812D01*
X73798456Y-24426784D01*
X73699853Y-24574354D01*
X73574354Y-24699853D01*
X73426784Y-24798456D01*
X73262812Y-24866376D01*
X73113512Y-24896073D01*
X73088742Y-24901000D01*
X72911258Y-24901000D01*
X72886488Y-24896073D01*
X72737188Y-24866376D01*
X72573216Y-24798456D01*
X72425646Y-24699853D01*
X72300147Y-24574354D01*
X72201544Y-24426784D01*
X72133624Y-24262812D01*
X72099000Y-24088741D01*
X72099000Y-23911259D01*
X72133624Y-23737188D01*
X72201544Y-23573216D01*
X72300147Y-23425646D01*
X72425646Y-23300147D01*
X72573216Y-23201544D01*
X72737188Y-23133624D01*
X72886488Y-23103927D01*
X72911258Y-23099000D01*
X73088742Y-23099000D01*
X73113512Y-23103927D01*
G37*
G36*
X62953512Y-23103927D02*
G01*
X63102812Y-23133624D01*
X63266784Y-23201544D01*
X63414354Y-23300147D01*
X63539853Y-23425646D01*
X63638456Y-23573216D01*
X63706376Y-23737188D01*
X63741000Y-23911259D01*
X63741000Y-24088741D01*
X63706376Y-24262812D01*
X63638456Y-24426784D01*
X63539853Y-24574354D01*
X63414354Y-24699853D01*
X63266784Y-24798456D01*
X63102812Y-24866376D01*
X62953512Y-24896073D01*
X62928742Y-24901000D01*
X62751258Y-24901000D01*
X62726488Y-24896073D01*
X62577188Y-24866376D01*
X62413216Y-24798456D01*
X62265646Y-24699853D01*
X62140147Y-24574354D01*
X62041544Y-24426784D01*
X61973624Y-24262812D01*
X61939000Y-24088741D01*
X61939000Y-23911259D01*
X61973624Y-23737188D01*
X62041544Y-23573216D01*
X62140147Y-23425646D01*
X62265646Y-23300147D01*
X62413216Y-23201544D01*
X62577188Y-23133624D01*
X62726488Y-23103927D01*
X62751258Y-23099000D01*
X62928742Y-23099000D01*
X62953512Y-23103927D01*
G37*
G36*
X60413512Y-23103927D02*
G01*
X60562812Y-23133624D01*
X60726784Y-23201544D01*
X60874354Y-23300147D01*
X60999853Y-23425646D01*
X61098456Y-23573216D01*
X61166376Y-23737188D01*
X61201000Y-23911259D01*
X61201000Y-24088741D01*
X61166376Y-24262812D01*
X61098456Y-24426784D01*
X60999853Y-24574354D01*
X60874354Y-24699853D01*
X60726784Y-24798456D01*
X60562812Y-24866376D01*
X60413512Y-24896073D01*
X60388742Y-24901000D01*
X60211258Y-24901000D01*
X60186488Y-24896073D01*
X60037188Y-24866376D01*
X59873216Y-24798456D01*
X59725646Y-24699853D01*
X59600147Y-24574354D01*
X59501544Y-24426784D01*
X59433624Y-24262812D01*
X59399000Y-24088741D01*
X59399000Y-23911259D01*
X59433624Y-23737188D01*
X59501544Y-23573216D01*
X59600147Y-23425646D01*
X59725646Y-23300147D01*
X59873216Y-23201544D01*
X60037188Y-23133624D01*
X60186488Y-23103927D01*
X60211258Y-23099000D01*
X60388742Y-23099000D01*
X60413512Y-23103927D01*
G37*
G36*
X57873512Y-23103927D02*
G01*
X58022812Y-23133624D01*
X58186784Y-23201544D01*
X58334354Y-23300147D01*
X58459853Y-23425646D01*
X58558456Y-23573216D01*
X58626376Y-23737188D01*
X58661000Y-23911259D01*
X58661000Y-24088741D01*
X58626376Y-24262812D01*
X58558456Y-24426784D01*
X58459853Y-24574354D01*
X58334354Y-24699853D01*
X58186784Y-24798456D01*
X58022812Y-24866376D01*
X57873512Y-24896073D01*
X57848742Y-24901000D01*
X57671258Y-24901000D01*
X57646488Y-24896073D01*
X57497188Y-24866376D01*
X57333216Y-24798456D01*
X57185646Y-24699853D01*
X57060147Y-24574354D01*
X56961544Y-24426784D01*
X56893624Y-24262812D01*
X56859000Y-24088741D01*
X56859000Y-23911259D01*
X56893624Y-23737188D01*
X56961544Y-23573216D01*
X57060147Y-23425646D01*
X57185646Y-23300147D01*
X57333216Y-23201544D01*
X57497188Y-23133624D01*
X57646488Y-23103927D01*
X57671258Y-23099000D01*
X57848742Y-23099000D01*
X57873512Y-23103927D01*
G37*
G36*
X56121000Y-24901000D02*
G01*
X54319000Y-24901000D01*
X54319000Y-23099000D01*
X56121000Y-23099000D01*
X56121000Y-24901000D01*
G37*
G36*
X49733512Y-23103927D02*
G01*
X49882812Y-23133624D01*
X50046784Y-23201544D01*
X50194354Y-23300147D01*
X50319853Y-23425646D01*
X50418456Y-23573216D01*
X50486376Y-23737188D01*
X50521000Y-23911259D01*
X50521000Y-24088741D01*
X50486376Y-24262812D01*
X50418456Y-24426784D01*
X50319853Y-24574354D01*
X50194354Y-24699853D01*
X50046784Y-24798456D01*
X49882812Y-24866376D01*
X49733512Y-24896073D01*
X49708742Y-24901000D01*
X49531258Y-24901000D01*
X49506488Y-24896073D01*
X49357188Y-24866376D01*
X49193216Y-24798456D01*
X49045646Y-24699853D01*
X48920147Y-24574354D01*
X48821544Y-24426784D01*
X48753624Y-24262812D01*
X48719000Y-24088741D01*
X48719000Y-23911259D01*
X48753624Y-23737188D01*
X48821544Y-23573216D01*
X48920147Y-23425646D01*
X49045646Y-23300147D01*
X49193216Y-23201544D01*
X49357188Y-23133624D01*
X49506488Y-23103927D01*
X49531258Y-23099000D01*
X49708742Y-23099000D01*
X49733512Y-23103927D01*
G37*
G36*
X47193512Y-23103927D02*
G01*
X47342812Y-23133624D01*
X47506784Y-23201544D01*
X47654354Y-23300147D01*
X47779853Y-23425646D01*
X47878456Y-23573216D01*
X47946376Y-23737188D01*
X47981000Y-23911259D01*
X47981000Y-24088741D01*
X47946376Y-24262812D01*
X47878456Y-24426784D01*
X47779853Y-24574354D01*
X47654354Y-24699853D01*
X47506784Y-24798456D01*
X47342812Y-24866376D01*
X47193512Y-24896073D01*
X47168742Y-24901000D01*
X46991258Y-24901000D01*
X46966488Y-24896073D01*
X46817188Y-24866376D01*
X46653216Y-24798456D01*
X46505646Y-24699853D01*
X46380147Y-24574354D01*
X46281544Y-24426784D01*
X46213624Y-24262812D01*
X46179000Y-24088741D01*
X46179000Y-23911259D01*
X46213624Y-23737188D01*
X46281544Y-23573216D01*
X46380147Y-23425646D01*
X46505646Y-23300147D01*
X46653216Y-23201544D01*
X46817188Y-23133624D01*
X46966488Y-23103927D01*
X46991258Y-23099000D01*
X47168742Y-23099000D01*
X47193512Y-23103927D01*
G37*
G36*
X44653512Y-23103927D02*
G01*
X44802812Y-23133624D01*
X44966784Y-23201544D01*
X45114354Y-23300147D01*
X45239853Y-23425646D01*
X45338456Y-23573216D01*
X45406376Y-23737188D01*
X45441000Y-23911259D01*
X45441000Y-24088741D01*
X45406376Y-24262812D01*
X45338456Y-24426784D01*
X45239853Y-24574354D01*
X45114354Y-24699853D01*
X44966784Y-24798456D01*
X44802812Y-24866376D01*
X44653512Y-24896073D01*
X44628742Y-24901000D01*
X44451258Y-24901000D01*
X44426488Y-24896073D01*
X44277188Y-24866376D01*
X44113216Y-24798456D01*
X43965646Y-24699853D01*
X43840147Y-24574354D01*
X43741544Y-24426784D01*
X43673624Y-24262812D01*
X43639000Y-24088741D01*
X43639000Y-23911259D01*
X43673624Y-23737188D01*
X43741544Y-23573216D01*
X43840147Y-23425646D01*
X43965646Y-23300147D01*
X44113216Y-23201544D01*
X44277188Y-23133624D01*
X44426488Y-23103927D01*
X44451258Y-23099000D01*
X44628742Y-23099000D01*
X44653512Y-23103927D01*
G37*
G36*
X42113512Y-23103927D02*
G01*
X42262812Y-23133624D01*
X42426784Y-23201544D01*
X42574354Y-23300147D01*
X42699853Y-23425646D01*
X42798456Y-23573216D01*
X42866376Y-23737188D01*
X42901000Y-23911259D01*
X42901000Y-24088741D01*
X42866376Y-24262812D01*
X42798456Y-24426784D01*
X42699853Y-24574354D01*
X42574354Y-24699853D01*
X42426784Y-24798456D01*
X42262812Y-24866376D01*
X42113512Y-24896073D01*
X42088742Y-24901000D01*
X41911258Y-24901000D01*
X41886488Y-24896073D01*
X41737188Y-24866376D01*
X41573216Y-24798456D01*
X41425646Y-24699853D01*
X41300147Y-24574354D01*
X41201544Y-24426784D01*
X41133624Y-24262812D01*
X41099000Y-24088741D01*
X41099000Y-23911259D01*
X41133624Y-23737188D01*
X41201544Y-23573216D01*
X41300147Y-23425646D01*
X41425646Y-23300147D01*
X41573216Y-23201544D01*
X41737188Y-23133624D01*
X41886488Y-23103927D01*
X41911258Y-23099000D01*
X42088742Y-23099000D01*
X42113512Y-23103927D01*
G37*
G36*
X34493512Y-23103927D02*
G01*
X34642812Y-23133624D01*
X34806784Y-23201544D01*
X34954354Y-23300147D01*
X35079853Y-23425646D01*
X35178456Y-23573216D01*
X35246376Y-23737188D01*
X35281000Y-23911259D01*
X35281000Y-24088741D01*
X35246376Y-24262812D01*
X35178456Y-24426784D01*
X35079853Y-24574354D01*
X34954354Y-24699853D01*
X34806784Y-24798456D01*
X34642812Y-24866376D01*
X34493512Y-24896073D01*
X34468742Y-24901000D01*
X34291258Y-24901000D01*
X34266488Y-24896073D01*
X34117188Y-24866376D01*
X33953216Y-24798456D01*
X33805646Y-24699853D01*
X33680147Y-24574354D01*
X33581544Y-24426784D01*
X33513624Y-24262812D01*
X33479000Y-24088741D01*
X33479000Y-23911259D01*
X33513624Y-23737188D01*
X33581544Y-23573216D01*
X33680147Y-23425646D01*
X33805646Y-23300147D01*
X33953216Y-23201544D01*
X34117188Y-23133624D01*
X34266488Y-23103927D01*
X34291258Y-23099000D01*
X34468742Y-23099000D01*
X34493512Y-23103927D01*
G37*
G36*
X32741000Y-24901000D02*
G01*
X30939000Y-24901000D01*
X30939000Y-23099000D01*
X32741000Y-23099000D01*
X32741000Y-24901000D01*
G37*
G36*
X37033512Y-23103927D02*
G01*
X37182812Y-23133624D01*
X37346784Y-23201544D01*
X37494354Y-23300147D01*
X37619853Y-23425646D01*
X37718456Y-23573216D01*
X37786376Y-23737188D01*
X37821000Y-23911259D01*
X37821000Y-24088741D01*
X37786376Y-24262812D01*
X37718456Y-24426784D01*
X37619853Y-24574354D01*
X37494354Y-24699853D01*
X37346784Y-24798456D01*
X37182812Y-24866376D01*
X37033512Y-24896073D01*
X37008742Y-24901000D01*
X36831258Y-24901000D01*
X36806488Y-24896073D01*
X36657188Y-24866376D01*
X36493216Y-24798456D01*
X36345646Y-24699853D01*
X36220147Y-24574354D01*
X36121544Y-24426784D01*
X36053624Y-24262812D01*
X36019000Y-24088741D01*
X36019000Y-23911259D01*
X36053624Y-23737188D01*
X36121544Y-23573216D01*
X36220147Y-23425646D01*
X36345646Y-23300147D01*
X36493216Y-23201544D01*
X36657188Y-23133624D01*
X36806488Y-23103927D01*
X36831258Y-23099000D01*
X37008742Y-23099000D01*
X37033512Y-23103927D01*
G37*
G36*
X39573512Y-23103927D02*
G01*
X39722812Y-23133624D01*
X39886784Y-23201544D01*
X40034354Y-23300147D01*
X40159853Y-23425646D01*
X40258456Y-23573216D01*
X40326376Y-23737188D01*
X40361000Y-23911259D01*
X40361000Y-24088741D01*
X40326376Y-24262812D01*
X40258456Y-24426784D01*
X40159853Y-24574354D01*
X40034354Y-24699853D01*
X39886784Y-24798456D01*
X39722812Y-24866376D01*
X39573512Y-24896073D01*
X39548742Y-24901000D01*
X39371258Y-24901000D01*
X39346488Y-24896073D01*
X39197188Y-24866376D01*
X39033216Y-24798456D01*
X38885646Y-24699853D01*
X38760147Y-24574354D01*
X38661544Y-24426784D01*
X38593624Y-24262812D01*
X38559000Y-24088741D01*
X38559000Y-23911259D01*
X38593624Y-23737188D01*
X38661544Y-23573216D01*
X38760147Y-23425646D01*
X38885646Y-23300147D01*
X39033216Y-23201544D01*
X39197188Y-23133624D01*
X39346488Y-23103927D01*
X39371258Y-23099000D01*
X39548742Y-23099000D01*
X39573512Y-23103927D01*
G37*
M02*
