M48
; DRILL file {KiCad 5.1.5-52549c5~84~ubuntu18.04.1} date mer 25 mar 2020 21:45:20 EDT
; FORMAT={3:3/ absolute / metric / suppress leading zeros}
; #@! TF.CreationDate,2020-03-25T21:45:20-04:00
; #@! TF.GenerationSoftware,Kicad,Pcbnew,5.1.5-52549c5~84~ubuntu18.04.1
FMAT,2
METRIC,TZ
T1C0.400
T2C1.000
T3C1.016
T4C3.200
%
G90
G05
T1
X36000Y-54000
X36000Y-63000
X38000Y-32000
X38000Y-40000
X41000Y-31000
X41000Y-39000
X44000Y-63000
X45475Y-60635
X45475Y-61905
X48000Y-40000
X48000Y-53000
X48000Y-57000
X48195Y-32000
X49343Y-32812
X51000Y-39000
X54000Y-30000
X56000Y-28000
X60000Y-37500
X60000Y-45000
X62500Y-52500
X62500Y-60000
X63000Y-28000
X66000Y-28000
X67500Y-37500
X67500Y-45000
X67500Y-52500
X67500Y-60000
X68000Y-61000
X69000Y-28000
X72000Y-28000
X75000Y-29000
X76000Y-32000
X76000Y-35000
X76000Y-51000
X76000Y-53000
X76000Y-55000
X78000Y-25000
X78000Y-65000
X80000Y-29000
X80000Y-58000
X83460Y-35475
X83460Y-59475
X84730Y-30525
X84730Y-54525
X86000Y-24875
X86000Y-35475
X86000Y-54525
X86000Y-59475
X86000Y-65000
X87270Y-30525
X87270Y-35475
X87270Y-54525
X88540Y-35475
X88540Y-59475
X89810Y-30525
X89810Y-54525
X90000Y-25000
X90000Y-59500
X90000Y-65000
X96000Y-38000
X96000Y-50000
X98000Y-25000
X98000Y-65000
X102000Y-25000
X102000Y-29000
X102000Y-61000
X102000Y-65000
X108000Y-38000
X108000Y-50000
X108000Y-51875
X110000Y-24875
X110000Y-65000
X112000Y-38000
T2
X97920Y-33000
X100460Y-33000
X103000Y-33000
X105540Y-33000
X108080Y-33000
X110620Y-33000
X113160Y-33000
X115700Y-33000
X98000Y-57000
X100540Y-57000
X103080Y-57000
X105620Y-57000
X108160Y-57000
X110700Y-57000
X113240Y-57000
X115780Y-57000
X55220Y-24000
X57760Y-24000
X60300Y-24000
X62840Y-24000
X65380Y-24000
X67920Y-24000
X70460Y-24000
X73000Y-24000
X27380Y-45000
X29920Y-45000
X32460Y-45000
X35000Y-45000
X37540Y-45000
X40080Y-45000
X31840Y-24000
X34380Y-24000
X36920Y-24000
X39460Y-24000
X42000Y-24000
X44540Y-24000
X47080Y-24000
X49620Y-24000
X28000Y-53000
X28000Y-58000
X97920Y-45000
X100460Y-45000
X103000Y-45000
X105540Y-45000
X108080Y-45000
X110620Y-45000
X113160Y-45000
X115700Y-45000
X28000Y-32000
X28000Y-37000
T3
X56380Y-31760
X56380Y-34300
X56380Y-36840
X56380Y-39380
X56380Y-41920
X56380Y-44460
X56380Y-47000
X56380Y-49540
X56380Y-52080
X56380Y-54620
X56380Y-57160
X56380Y-59700
X56380Y-62240
X56380Y-64780
X58920Y-31760
X58920Y-52080
X58920Y-54620
X58920Y-57160
X61460Y-31760
X64000Y-31760
X66540Y-31760
X69080Y-31760
X71620Y-31760
X71620Y-34300
X71620Y-36840
X71620Y-39380
X71620Y-41920
X71620Y-44460
X71620Y-47000
X71620Y-49540
X71620Y-52080
X71620Y-54620
X71620Y-57160
X71620Y-59700
X71620Y-62240
X71620Y-64780
T4
X24000Y-66000
X24000Y-24000
X116000Y-24000
X116000Y-66000
T0
M30
